G04*
G04 #@! TF.GenerationSoftware,Altium Limited,Altium Designer,22.9.1 (49)*
G04*
G04 Layer_Color=65535*
%FSLAX25Y25*%
%MOIN*%
G70*
G04*
G04 #@! TF.SameCoordinates,F30A270F-9CF5-405F-8EA2-704C6F89508A*
G04*
G04*
G04 #@! TF.FilePolarity,Positive*
G04*
G01*
G75*
%ADD10C,0.00984*%
%ADD11C,0.01968*%
%ADD12C,0.00787*%
%ADD13C,0.00394*%
%ADD14C,0.01000*%
G36*
X275918Y179268D02*
X276409D01*
Y179146D01*
X276777D01*
Y179023D01*
X277023D01*
Y178900D01*
X277268D01*
Y178777D01*
X277391D01*
Y178655D01*
X277514D01*
Y178532D01*
X277636D01*
Y178409D01*
X277759D01*
Y178286D01*
X277882D01*
Y178164D01*
X278005D01*
Y177918D01*
X278127D01*
Y177673D01*
X278250D01*
Y177304D01*
X278373D01*
Y175709D01*
X278005D01*
Y175832D01*
X277514D01*
Y175954D01*
X277023D01*
Y176077D01*
X276409D01*
Y176200D01*
X275918D01*
Y176323D01*
X275427D01*
Y176445D01*
X273095D01*
Y176568D01*
X272359D01*
Y177059D01*
X272482D01*
Y177182D01*
X272605D01*
Y177304D01*
X272727D01*
Y177427D01*
X272850D01*
Y177673D01*
X272973D01*
Y177796D01*
X273095D01*
Y177918D01*
X273218D01*
Y178041D01*
Y178164D01*
X273341D01*
Y178286D01*
X273464D01*
Y178409D01*
X273586D01*
Y178532D01*
X273709D01*
Y178655D01*
X273832D01*
Y178777D01*
X273955D01*
Y178900D01*
X274077D01*
Y179023D01*
X274323D01*
Y179146D01*
X274568D01*
Y179268D01*
X274936D01*
Y179391D01*
X275059D01*
Y179268D01*
X275182D01*
Y179391D01*
X275673D01*
Y179268D01*
X275796D01*
Y179391D01*
X275918D01*
Y179268D01*
D02*
G37*
G36*
X263891Y177918D02*
X264136D01*
Y177796D01*
X264259D01*
Y177550D01*
X264382D01*
Y177427D01*
X264505D01*
Y177182D01*
X264627D01*
Y177059D01*
X264750D01*
Y176936D01*
X264873D01*
Y177059D01*
X264996D01*
Y177182D01*
X265241D01*
Y177304D01*
X265364D01*
Y177427D01*
X265486D01*
Y177550D01*
X265732D01*
Y177673D01*
X265855D01*
Y177796D01*
X266100D01*
Y177059D01*
X266223D01*
Y176814D01*
X266346D01*
Y176691D01*
X266591D01*
Y176568D01*
X267695D01*
Y176691D01*
X267941D01*
Y176323D01*
X267818D01*
Y175709D01*
X267695D01*
Y175464D01*
X267573D01*
Y175341D01*
X267450D01*
Y175218D01*
X267327D01*
Y175095D01*
X267205D01*
Y174973D01*
X267082D01*
Y174850D01*
X266959D01*
Y174604D01*
X266836D01*
Y174482D01*
X266714D01*
Y174359D01*
X266591D01*
Y174236D01*
X266468D01*
Y174114D01*
X266346D01*
Y173991D01*
X266223D01*
Y173868D01*
X266100D01*
Y173746D01*
X265977D01*
Y173500D01*
X265855D01*
Y173377D01*
X265732D01*
Y173255D01*
X265609D01*
Y173132D01*
X265486D01*
Y173009D01*
X265364D01*
Y172886D01*
X265241D01*
Y172764D01*
X265118D01*
Y172641D01*
X264996D01*
Y172518D01*
X263646D01*
Y172396D01*
X263400D01*
Y172273D01*
X263277D01*
Y170677D01*
X263155D01*
Y170554D01*
X263032D01*
Y170432D01*
X262909D01*
Y170309D01*
X262786D01*
Y170064D01*
X262664D01*
Y169941D01*
X262541D01*
Y169818D01*
X262418D01*
Y169695D01*
X262296D01*
Y169573D01*
X262173D01*
Y169450D01*
X262050D01*
Y169327D01*
X261927D01*
Y169204D01*
X261805D01*
Y169082D01*
X261682D01*
Y168959D01*
X261559D01*
Y168836D01*
X261436D01*
Y168714D01*
X261314D01*
Y168468D01*
X261191D01*
Y168345D01*
X261068D01*
Y168223D01*
X260946D01*
Y168100D01*
X260823D01*
Y167977D01*
X260700D01*
Y167854D01*
X260577D01*
Y167732D01*
X260455D01*
Y167609D01*
X260332D01*
Y167486D01*
X260209D01*
Y167364D01*
X260086D01*
Y167241D01*
X259964D01*
Y167118D01*
X259841D01*
Y166873D01*
X259718D01*
Y167118D01*
X259595D01*
Y167609D01*
X259718D01*
Y167854D01*
X259841D01*
Y168100D01*
X259964D01*
Y168591D01*
X259841D01*
Y168714D01*
X259350D01*
Y168591D01*
X258982D01*
Y168468D01*
X258736D01*
Y168591D01*
X258491D01*
Y168714D01*
X258368D01*
Y169204D01*
X258491D01*
Y169450D01*
X258614D01*
Y169573D01*
X258736D01*
Y169695D01*
X258859D01*
Y169818D01*
X258982D01*
Y169941D01*
X259105D01*
Y170186D01*
X258736D01*
Y170309D01*
X258368D01*
Y170432D01*
X258123D01*
Y170554D01*
X257877D01*
Y170677D01*
X257632D01*
Y170923D01*
X257755D01*
Y171045D01*
X257877D01*
Y171291D01*
X258123D01*
Y171414D01*
X258245D01*
Y171536D01*
X258491D01*
Y171659D01*
X258614D01*
Y171782D01*
X258736D01*
Y172027D01*
X258614D01*
Y172150D01*
X258368D01*
Y172273D01*
X258245D01*
Y172396D01*
X258000D01*
Y172518D01*
X257877D01*
Y172641D01*
X257755D01*
Y172886D01*
X257632D01*
Y173132D01*
X257877D01*
Y173255D01*
X258000D01*
Y173377D01*
X258736D01*
Y173500D01*
X258982D01*
Y173991D01*
X258859D01*
Y174114D01*
X258736D01*
Y174236D01*
X258614D01*
Y174482D01*
X258491D01*
Y174850D01*
X258368D01*
Y175095D01*
X258859D01*
Y175218D01*
X259227D01*
Y175095D01*
X259841D01*
Y175218D01*
X259964D01*
Y175709D01*
X259841D01*
Y175954D01*
X259718D01*
Y176691D01*
X260086D01*
Y176568D01*
X260700D01*
Y176445D01*
X260946D01*
Y176323D01*
X261068D01*
Y176200D01*
X261191D01*
Y176445D01*
X261314D01*
Y176814D01*
X261436D01*
Y177304D01*
X261559D01*
Y177796D01*
X261805D01*
Y177673D01*
X261927D01*
Y177550D01*
X262173D01*
Y177427D01*
X262296D01*
Y177304D01*
X262541D01*
Y177182D01*
X262786D01*
Y177059D01*
X263032D01*
Y177182D01*
X263155D01*
Y177427D01*
X263277D01*
Y177550D01*
X263400D01*
Y177673D01*
X263523D01*
Y177796D01*
X263646D01*
Y177918D01*
X263768D01*
Y178041D01*
X263891D01*
Y177918D01*
D02*
G37*
G36*
X298745Y160736D02*
X299359D01*
Y160614D01*
X299727D01*
Y160491D01*
X300341D01*
Y160368D01*
X300832D01*
Y160491D01*
X302059D01*
Y160000D01*
X301936D01*
Y159386D01*
X301814D01*
Y159141D01*
X301691D01*
Y159018D01*
X301568D01*
Y158896D01*
X300709D01*
Y159018D01*
X300341D01*
Y159141D01*
X299973D01*
Y159264D01*
X299114D01*
Y159141D01*
X298745D01*
Y159018D01*
X298623D01*
Y158896D01*
X298500D01*
Y158773D01*
X298377D01*
Y158650D01*
X298255D01*
Y158527D01*
X298132D01*
Y158282D01*
X298009D01*
Y157914D01*
X297886D01*
Y157423D01*
X297764D01*
Y157054D01*
X297641D01*
Y156686D01*
X297518D01*
Y156195D01*
X297395D01*
Y155827D01*
X297273D01*
Y155336D01*
X297150D01*
Y154968D01*
X297027D01*
Y154600D01*
X296905D01*
Y154109D01*
X296782D01*
Y153741D01*
X296659D01*
Y153250D01*
X296536D01*
Y152882D01*
X296414D01*
Y152391D01*
X296291D01*
Y152268D01*
Y152023D01*
X296168D01*
Y151655D01*
X296045D01*
Y151164D01*
X295923D01*
Y150795D01*
X295800D01*
Y150304D01*
X295677D01*
Y149936D01*
X295555D01*
Y149568D01*
X295432D01*
Y149445D01*
X295064D01*
Y149568D01*
X294573D01*
Y149691D01*
X294205D01*
Y149814D01*
X293714D01*
Y150182D01*
X293836D01*
Y150550D01*
X293959D01*
Y151041D01*
X294082D01*
Y151409D01*
X294205D01*
Y151777D01*
X294327D01*
Y152268D01*
X294450D01*
Y152636D01*
X294573D01*
Y153127D01*
X294695D01*
Y153496D01*
X294818D01*
Y153986D01*
X294941D01*
Y154355D01*
X295064D01*
Y154723D01*
X295186D01*
Y155214D01*
X295309D01*
Y155582D01*
X295432D01*
Y156073D01*
X295555D01*
Y156441D01*
X295677D01*
Y156809D01*
X295800D01*
Y157300D01*
X295923D01*
Y157668D01*
X296045D01*
Y158036D01*
X296168D01*
Y158527D01*
X296291D01*
Y158896D01*
X296414D01*
Y159386D01*
X296168D01*
Y159264D01*
X295677D01*
Y159141D01*
X295309D01*
Y159018D01*
X294818D01*
Y158896D01*
X294450D01*
Y158773D01*
X293959D01*
Y158650D01*
X293591D01*
Y158527D01*
X293345D01*
Y159141D01*
X293468D01*
Y159386D01*
X293591D01*
Y159509D01*
X293714D01*
Y159632D01*
X293836D01*
Y159755D01*
X293959D01*
Y159877D01*
X294205D01*
Y160000D01*
X294450D01*
Y160123D01*
X294695D01*
Y160246D01*
X294941D01*
Y160368D01*
X295309D01*
Y160491D01*
X295677D01*
Y160614D01*
X296045D01*
Y160736D01*
X296659D01*
Y160859D01*
X298745D01*
Y160736D01*
D02*
G37*
G36*
X270641Y176200D02*
X271377D01*
Y176077D01*
X272359D01*
Y175954D01*
X273218D01*
Y175832D01*
X273955D01*
Y175709D01*
X274936D01*
Y175586D01*
X275673D01*
Y175464D01*
X276532D01*
Y175341D01*
X277268D01*
Y175218D01*
X278250D01*
Y175095D01*
X279109D01*
Y174973D01*
X279845D01*
Y174850D01*
X280827D01*
Y174727D01*
X281686D01*
Y174604D01*
X282423D01*
Y174482D01*
X282791D01*
Y174359D01*
X282914D01*
Y174236D01*
X283159D01*
Y174114D01*
X283282D01*
Y173991D01*
X283405D01*
Y173868D01*
X283527D01*
Y173746D01*
X283650D01*
Y173500D01*
X283773D01*
Y173377D01*
X283895D01*
Y173132D01*
X284018D01*
Y173009D01*
X284141D01*
Y172764D01*
X284264D01*
Y172518D01*
X284386D01*
Y172396D01*
X284509D01*
Y172150D01*
X284632D01*
Y172027D01*
X284755D01*
Y171782D01*
X284877D01*
Y171659D01*
X285000D01*
Y171414D01*
X285123D01*
Y171291D01*
X285245D01*
Y171045D01*
X285368D01*
Y170923D01*
X285491D01*
Y170677D01*
X285614D01*
Y170554D01*
X285736D01*
Y170309D01*
X285859D01*
Y170064D01*
X285982D01*
Y169941D01*
X286105D01*
Y169695D01*
X286227D01*
Y169573D01*
X286350D01*
Y169327D01*
X286473D01*
Y169204D01*
X286596D01*
Y168959D01*
X286718D01*
Y168836D01*
X286841D01*
Y168591D01*
X286964D01*
Y168468D01*
X287086D01*
Y168223D01*
X287209D01*
Y168100D01*
X287332D01*
Y167854D01*
X287455D01*
Y167732D01*
X287577D01*
Y167486D01*
X287700D01*
Y167364D01*
X287823D01*
Y167118D01*
X287946D01*
Y166996D01*
X288068D01*
Y166750D01*
X288191D01*
Y166627D01*
X288314D01*
Y166382D01*
X288436D01*
Y166259D01*
X288559D01*
Y166014D01*
X288682D01*
Y165891D01*
X288805D01*
Y165646D01*
X288927D01*
Y165523D01*
X289050D01*
Y165277D01*
X289173D01*
Y165032D01*
X289296D01*
Y164786D01*
X289418D01*
Y164541D01*
X289541D01*
Y164050D01*
X289664D01*
Y163068D01*
X289786D01*
Y161227D01*
X289909D01*
Y159264D01*
X290032D01*
Y157300D01*
X290155D01*
Y155459D01*
X290032D01*
Y155091D01*
X289909D01*
Y154845D01*
X289786D01*
Y154600D01*
X289664D01*
Y154355D01*
X289541D01*
Y154232D01*
X289418D01*
Y153986D01*
X289296D01*
Y153864D01*
X289173D01*
Y153618D01*
X289050D01*
Y153496D01*
X288927D01*
Y153373D01*
X288805D01*
Y153127D01*
X288682D01*
Y153005D01*
X288559D01*
Y152882D01*
X288436D01*
Y152636D01*
X288314D01*
Y152514D01*
X288191D01*
Y152391D01*
X288068D01*
Y152268D01*
X287946D01*
Y152146D01*
X287823D01*
Y152023D01*
X287700D01*
Y151900D01*
X287577D01*
Y151777D01*
X287455D01*
Y151655D01*
X287332D01*
Y151532D01*
X287209D01*
Y151409D01*
X287086D01*
Y151286D01*
X286841D01*
Y151164D01*
X286718D01*
Y151041D01*
X286596D01*
Y150918D01*
X286350D01*
Y150795D01*
X286227D01*
Y150673D01*
X286105D01*
Y150550D01*
X285859D01*
Y150427D01*
X285614D01*
Y150304D01*
X285491D01*
Y150182D01*
X285245D01*
Y150059D01*
X285000D01*
Y149936D01*
X284755D01*
Y149814D01*
X284509D01*
Y149691D01*
X284264D01*
Y149568D01*
X283895D01*
Y149445D01*
X283527D01*
Y149323D01*
X283159D01*
Y149200D01*
X282791D01*
Y149077D01*
X282300D01*
Y148954D01*
X281564D01*
Y148832D01*
X280705D01*
Y148709D01*
X279723D01*
Y148586D01*
X278741D01*
Y148464D01*
X278005D01*
Y148341D01*
X277268D01*
Y148218D01*
X276409D01*
Y148096D01*
X275550D01*
Y147973D01*
X274814D01*
Y147850D01*
X273955D01*
Y147727D01*
X273832D01*
Y147850D01*
X273709D01*
Y148096D01*
X269291D01*
Y148218D01*
X268800D01*
Y148341D01*
X268432D01*
Y148464D01*
X268309D01*
Y148586D01*
X268064D01*
Y148709D01*
X267818D01*
Y148832D01*
X267695D01*
Y148954D01*
X267450D01*
Y149077D01*
X267205D01*
Y149200D01*
X266959D01*
Y149323D01*
X266836D01*
Y149445D01*
X266591D01*
Y149568D01*
X266468D01*
Y149691D01*
X266223D01*
Y149814D01*
X265977D01*
Y149936D01*
X265855D01*
Y150059D01*
X265609D01*
Y150182D01*
X265364D01*
Y150304D01*
X265241D01*
Y150427D01*
X264996D01*
Y150550D01*
X264750D01*
Y150673D01*
X264627D01*
Y150795D01*
X264382D01*
Y150918D01*
X264259D01*
Y151041D01*
X264014D01*
Y151164D01*
X263891D01*
Y151286D01*
X263646D01*
Y151409D01*
X263523D01*
Y151532D01*
X263277D01*
Y151655D01*
X263155D01*
Y151777D01*
X262909D01*
Y151900D01*
X262786D01*
Y152023D01*
X262664D01*
Y152146D01*
X262541D01*
Y152268D01*
X262418D01*
Y152514D01*
X262296D01*
Y152636D01*
X262173D01*
Y152882D01*
X262050D01*
Y153127D01*
X261927D01*
Y153741D01*
X261805D01*
Y154232D01*
X261682D01*
Y154845D01*
X261559D01*
Y155459D01*
X261436D01*
Y155950D01*
X261314D01*
Y156564D01*
X261191D01*
Y157177D01*
X261068D01*
Y157791D01*
X260946D01*
Y158282D01*
X260823D01*
Y158896D01*
X260700D01*
Y159509D01*
X260577D01*
Y160123D01*
X260455D01*
Y160736D01*
X260332D01*
Y161350D01*
X260209D01*
Y162086D01*
X260086D01*
Y162700D01*
X259964D01*
Y163314D01*
X259841D01*
Y163927D01*
X259718D01*
Y164664D01*
X259595D01*
Y165400D01*
X259718D01*
Y165891D01*
X259841D01*
Y166136D01*
X259964D01*
Y166382D01*
X260086D01*
Y166505D01*
X260209D01*
Y166627D01*
X260332D01*
Y166750D01*
X260455D01*
Y166873D01*
X260577D01*
Y167118D01*
X260700D01*
Y167241D01*
X260823D01*
Y167364D01*
X260946D01*
Y167486D01*
X261068D01*
Y167609D01*
X261191D01*
Y167732D01*
X261314D01*
Y167854D01*
X261436D01*
Y167977D01*
X261559D01*
Y168100D01*
X261682D01*
Y168223D01*
X261805D01*
Y168345D01*
X261927D01*
Y168591D01*
X262050D01*
Y168714D01*
X262173D01*
Y168836D01*
X262296D01*
Y168959D01*
X262418D01*
Y169082D01*
X262541D01*
Y169204D01*
X262664D01*
Y169327D01*
X262786D01*
Y169450D01*
X262909D01*
Y169573D01*
X263032D01*
Y169695D01*
X263155D01*
Y169818D01*
X263277D01*
Y169941D01*
X263400D01*
Y170186D01*
X263523D01*
Y170309D01*
X263646D01*
Y170432D01*
X263768D01*
Y170554D01*
X263891D01*
Y170677D01*
X264014D01*
Y170800D01*
X264136D01*
Y170923D01*
X264259D01*
Y171045D01*
X264382D01*
Y171168D01*
X264505D01*
Y171291D01*
X264627D01*
Y171414D01*
X264750D01*
Y171536D01*
X264873D01*
Y171782D01*
X264996D01*
Y171905D01*
X265118D01*
Y172027D01*
X265241D01*
Y172150D01*
X265364D01*
Y172273D01*
X265486D01*
Y172396D01*
X265609D01*
Y172518D01*
X265732D01*
Y172641D01*
X265855D01*
Y172764D01*
X265977D01*
Y172886D01*
X266100D01*
Y173009D01*
X266223D01*
Y173132D01*
X266346D01*
Y173255D01*
X266468D01*
Y173377D01*
X266591D01*
Y173623D01*
X266714D01*
Y173746D01*
X266836D01*
Y173868D01*
X266959D01*
Y173991D01*
X267082D01*
Y174114D01*
X267205D01*
Y174236D01*
X267327D01*
Y174359D01*
X267450D01*
Y174482D01*
X267573D01*
Y174604D01*
X267695D01*
Y174727D01*
X267818D01*
Y174850D01*
X267941D01*
Y174973D01*
X268064D01*
Y175095D01*
X268186D01*
Y175218D01*
X268309D01*
Y175341D01*
X268432D01*
Y175586D01*
X268555D01*
Y175709D01*
X268677D01*
Y175832D01*
X268800D01*
Y175954D01*
X268923D01*
Y176077D01*
X269168D01*
Y176200D01*
X269414D01*
Y176323D01*
X270641D01*
Y176200D01*
D02*
G37*
G36*
X293836Y152023D02*
X293959D01*
Y151777D01*
X293836D01*
Y151286D01*
X293714D01*
Y150795D01*
X293591D01*
Y150304D01*
X293468D01*
Y149814D01*
X293345D01*
Y149445D01*
X293468D01*
Y149323D01*
X293836D01*
Y149200D01*
X294205D01*
Y149077D01*
X294695D01*
Y148954D01*
X295064D01*
Y148832D01*
X295555D01*
Y148709D01*
X295677D01*
Y148464D01*
X295555D01*
Y148341D01*
X295432D01*
Y148096D01*
X295309D01*
Y147973D01*
X295186D01*
Y147727D01*
X295064D01*
Y147605D01*
X294941D01*
Y147482D01*
X294818D01*
Y147236D01*
X294695D01*
Y147114D01*
X294573D01*
Y146991D01*
X294450D01*
Y146868D01*
X294327D01*
Y146746D01*
X294205D01*
Y146623D01*
X294082D01*
Y146500D01*
X293959D01*
Y146377D01*
X293836D01*
Y146255D01*
X293591D01*
Y146132D01*
X293468D01*
Y146009D01*
X293100D01*
Y145886D01*
X292364D01*
Y146009D01*
X292118D01*
Y146132D01*
X291996D01*
Y146255D01*
X291873D01*
Y146377D01*
X291750D01*
Y146500D01*
X291627D01*
Y146746D01*
X291505D01*
Y146868D01*
X291382D01*
Y147114D01*
X291259D01*
Y147236D01*
X291136D01*
Y147482D01*
X291014D01*
Y147727D01*
X290891D01*
Y148096D01*
X290768D01*
Y148709D01*
X290891D01*
Y149077D01*
X291014D01*
Y149323D01*
X291136D01*
Y149445D01*
X291259D01*
Y149568D01*
X291382D01*
Y149691D01*
X291505D01*
Y149814D01*
X291627D01*
Y149936D01*
X291750D01*
Y150059D01*
X291873D01*
Y150182D01*
X291996D01*
Y150304D01*
X292118D01*
Y150427D01*
X292241D01*
Y150550D01*
X292364D01*
Y150673D01*
X292486D01*
Y150795D01*
X292609D01*
Y151041D01*
X292732D01*
Y151164D01*
X292855D01*
Y151286D01*
X292977D01*
Y151409D01*
X293100D01*
Y151532D01*
X293223D01*
Y151655D01*
X293345D01*
Y151777D01*
X293468D01*
Y152023D01*
X293591D01*
Y152146D01*
X293836D01*
Y152023D01*
D02*
G37*
G36*
X288436Y147605D02*
X288682D01*
Y147359D01*
X288559D01*
Y146991D01*
X288436D01*
Y146623D01*
X288314D01*
Y146255D01*
X288191D01*
Y145886D01*
X288068D01*
Y145518D01*
X287946D01*
Y145150D01*
X287823D01*
Y144659D01*
X287700D01*
Y144414D01*
X287577D01*
Y143923D01*
X287455D01*
Y143554D01*
X287332D01*
Y143186D01*
X287209D01*
Y142818D01*
X287086D01*
Y142573D01*
X286964D01*
Y142082D01*
X286841D01*
Y141714D01*
X286718D01*
Y141346D01*
X286596D01*
Y140977D01*
X286473D01*
Y140609D01*
X286350D01*
Y140241D01*
X286227D01*
Y139873D01*
X286105D01*
Y139505D01*
X285982D01*
Y139136D01*
X285859D01*
Y138768D01*
X285736D01*
Y138400D01*
X285614D01*
Y138032D01*
X285491D01*
Y137909D01*
X285000D01*
Y138032D01*
X284632D01*
Y138154D01*
X284018D01*
Y138277D01*
X283650D01*
Y138400D01*
X283159D01*
Y138523D01*
X282668D01*
Y138646D01*
X282300D01*
Y138768D01*
X281932D01*
Y138891D01*
X281564D01*
Y139014D01*
X281318D01*
Y139136D01*
X280950D01*
Y139259D01*
X280582D01*
Y139382D01*
X280336D01*
Y139505D01*
X279968D01*
Y139627D01*
X279723D01*
Y139750D01*
X279355D01*
Y139873D01*
X279109D01*
Y139996D01*
X278741D01*
Y140118D01*
X278496D01*
Y140241D01*
X278250D01*
Y140364D01*
X277882D01*
Y140486D01*
X277636D01*
Y140609D01*
X277268D01*
Y140732D01*
X277023D01*
Y140855D01*
X276655D01*
Y140977D01*
X276409D01*
Y141100D01*
X276164D01*
Y141223D01*
X275796D01*
Y141346D01*
X275305D01*
Y141468D01*
X274077D01*
Y141346D01*
X273709D01*
Y141223D01*
X273464D01*
Y141100D01*
X273218D01*
Y140977D01*
X272973D01*
Y140855D01*
X272850D01*
Y140732D01*
X272727D01*
Y140609D01*
X272482D01*
Y140486D01*
X272236D01*
Y140364D01*
X271745D01*
Y140241D01*
X271623D01*
Y140486D01*
X271745D01*
Y140609D01*
X271868D01*
Y140732D01*
X271991D01*
Y140977D01*
X272114D01*
Y141100D01*
X272236D01*
Y141346D01*
X272359D01*
Y141468D01*
X272482D01*
Y141714D01*
X272605D01*
Y141836D01*
X272727D01*
Y142082D01*
X272850D01*
Y142204D01*
X272973D01*
Y142450D01*
X273095D01*
Y142573D01*
X273218D01*
Y142818D01*
X273341D01*
Y142941D01*
X273464D01*
Y143186D01*
X273586D01*
Y143309D01*
X273709D01*
Y143554D01*
X273832D01*
Y143677D01*
X273955D01*
Y143923D01*
X274077D01*
Y144045D01*
X274200D01*
Y144168D01*
X274323D01*
Y144414D01*
X274446D01*
Y144536D01*
X274568D01*
Y144782D01*
X274691D01*
Y144904D01*
X274814D01*
Y145027D01*
X275182D01*
Y145150D01*
X275796D01*
Y145027D01*
X276900D01*
Y144904D01*
X278127D01*
Y144782D01*
X278986D01*
Y144659D01*
X279968D01*
Y144536D01*
X281809D01*
Y144659D01*
X282423D01*
Y144782D01*
X282791D01*
Y144904D01*
X283159D01*
Y145027D01*
X283405D01*
Y145150D01*
X283650D01*
Y145273D01*
X283895D01*
Y145396D01*
X284018D01*
Y145518D01*
X284264D01*
Y145641D01*
X284386D01*
Y145764D01*
X284632D01*
Y145886D01*
X284755D01*
Y146009D01*
X284877D01*
Y146132D01*
X285000D01*
Y146255D01*
X285123D01*
Y146377D01*
X285245D01*
Y146500D01*
X285368D01*
Y146623D01*
X285491D01*
Y146746D01*
X285614D01*
Y146868D01*
X285736D01*
Y146991D01*
X285859D01*
Y147114D01*
X285982D01*
Y147236D01*
X286227D01*
Y147359D01*
X286350D01*
Y147482D01*
X286596D01*
Y147605D01*
X286964D01*
Y147727D01*
X288436D01*
Y147605D01*
D02*
G37*
G36*
X267941Y146377D02*
X268309D01*
Y146255D01*
X268555D01*
Y146132D01*
X268800D01*
Y146009D01*
X269168D01*
Y145886D01*
X269414D01*
Y145764D01*
X269659D01*
Y145641D01*
X269905D01*
Y145518D01*
X270150D01*
Y145396D01*
X270273D01*
Y145273D01*
X270395D01*
Y145027D01*
X270518D01*
Y144045D01*
X270395D01*
Y143677D01*
X270273D01*
Y143432D01*
X270150D01*
Y143186D01*
X270027D01*
Y142941D01*
X269905D01*
Y142695D01*
X269782D01*
Y142573D01*
X269659D01*
Y142450D01*
X269536D01*
Y142204D01*
X269414D01*
Y142082D01*
X269291D01*
Y141959D01*
X269168D01*
Y141836D01*
X269045D01*
Y141714D01*
X268800D01*
Y141591D01*
X268677D01*
Y141468D01*
X268555D01*
Y141346D01*
X268309D01*
Y141223D01*
X268064D01*
Y141100D01*
X267818D01*
Y140977D01*
X267573D01*
Y140855D01*
X267205D01*
Y140732D01*
X266836D01*
Y140609D01*
X266346D01*
Y140486D01*
X265609D01*
Y140364D01*
X264627D01*
Y140241D01*
X264136D01*
Y140364D01*
X263768D01*
Y140486D01*
X263400D01*
Y140609D01*
X263155D01*
Y140732D01*
X262909D01*
Y140855D01*
X262664D01*
Y140977D01*
X262541D01*
Y141100D01*
X262418D01*
Y141223D01*
X262296D01*
Y141591D01*
X262173D01*
Y141959D01*
X262296D01*
Y142327D01*
X262418D01*
Y142450D01*
X262541D01*
Y142695D01*
X262664D01*
Y142818D01*
X262786D01*
Y142941D01*
X262909D01*
Y143064D01*
X263032D01*
Y143186D01*
X263155D01*
Y143309D01*
X263277D01*
Y143432D01*
X263400D01*
Y143677D01*
X263523D01*
Y143800D01*
X263646D01*
Y143923D01*
X263768D01*
Y144045D01*
X263891D01*
Y144168D01*
X264136D01*
Y144291D01*
X264259D01*
Y144414D01*
X264382D01*
Y144536D01*
X264505D01*
Y144659D01*
X264627D01*
Y144782D01*
X264750D01*
Y144904D01*
X264873D01*
Y145027D01*
X265118D01*
Y145150D01*
X265241D01*
Y145273D01*
X265364D01*
Y145396D01*
X265486D01*
Y145518D01*
X265609D01*
Y145641D01*
X265732D01*
Y145764D01*
X265977D01*
Y145886D01*
X266100D01*
Y146009D01*
X266223D01*
Y146132D01*
X266468D01*
Y146255D01*
X266714D01*
Y146377D01*
X266959D01*
Y146500D01*
X267941D01*
Y146377D01*
D02*
G37*
G36*
X295677Y133614D02*
X295800D01*
Y133368D01*
Y133246D01*
Y130423D01*
X295064D01*
Y133614D01*
X295186D01*
Y133736D01*
X295309D01*
Y133614D01*
X295555D01*
Y133736D01*
X295677D01*
Y133614D01*
D02*
G37*
G36*
X294082Y133123D02*
X292609D01*
Y130423D01*
X291873D01*
Y133000D01*
X291750D01*
Y133123D01*
X290277D01*
Y133614D01*
X290400D01*
Y133736D01*
X290523D01*
Y133614D01*
X293836D01*
Y133736D01*
X294082D01*
Y133123D01*
D02*
G37*
G36*
X266346Y133614D02*
X266468D01*
Y133123D01*
X264996D01*
Y133000D01*
X264873D01*
Y130423D01*
X264136D01*
Y133123D01*
X262664D01*
Y133736D01*
X262786D01*
Y133614D01*
X266223D01*
Y133736D01*
X266346D01*
Y133614D01*
D02*
G37*
G36*
X261682Y132877D02*
Y132755D01*
Y130423D01*
X260946D01*
Y133614D01*
X261068D01*
Y133736D01*
X261191D01*
Y133614D01*
X261436D01*
Y133736D01*
X261682D01*
Y132877D01*
D02*
G37*
G36*
X305741Y133491D02*
X305864D01*
Y133246D01*
X305986D01*
Y132877D01*
X305741D01*
Y132755D01*
X305250D01*
Y133123D01*
X303164D01*
Y132386D01*
X305618D01*
Y132264D01*
X305864D01*
Y132018D01*
X305986D01*
Y130668D01*
X305864D01*
Y130545D01*
X305741D01*
Y130423D01*
X302550D01*
Y130545D01*
X302427D01*
Y130791D01*
X302305D01*
Y131282D01*
X302796D01*
Y131404D01*
X303041D01*
Y131036D01*
X305373D01*
Y131159D01*
X305250D01*
Y131282D01*
X305373D01*
Y131650D01*
X305250D01*
Y131773D01*
X302796D01*
Y131895D01*
X302550D01*
Y132264D01*
X302427D01*
Y133246D01*
X302550D01*
Y133491D01*
X302673D01*
Y133614D01*
X305741D01*
Y133491D01*
D02*
G37*
G36*
X300709D02*
X300832D01*
Y133368D01*
X300955D01*
Y132509D01*
X300218D01*
Y133123D01*
X298255D01*
Y133000D01*
X298132D01*
Y131036D01*
X300218D01*
Y131650D01*
X300832D01*
Y131527D01*
X300955D01*
Y130668D01*
X300832D01*
Y130545D01*
X300709D01*
Y130423D01*
X297641D01*
Y130545D01*
X297518D01*
Y130668D01*
X297395D01*
Y133368D01*
X297518D01*
Y133491D01*
X297641D01*
Y133614D01*
X300709D01*
Y133491D01*
D02*
G37*
G36*
X289296Y133368D02*
X289418D01*
Y132755D01*
Y132632D01*
Y130668D01*
X289296D01*
Y130545D01*
X289173D01*
Y130423D01*
X285736D01*
Y130545D01*
X285491D01*
Y130914D01*
X285368D01*
Y133123D01*
X285491D01*
Y133491D01*
X285614D01*
Y133614D01*
X289296D01*
Y133368D01*
D02*
G37*
G36*
X280705Y133614D02*
X283773D01*
Y133491D01*
X283895D01*
Y133368D01*
X284018D01*
Y132386D01*
X283895D01*
Y132264D01*
X283773D01*
Y132141D01*
X283650D01*
Y132018D01*
X283773D01*
Y131895D01*
X283895D01*
Y131773D01*
X284018D01*
Y130668D01*
X283895D01*
Y130545D01*
X283650D01*
Y130423D01*
X280459D01*
Y133614D01*
X280582D01*
Y133736D01*
X280705D01*
Y133614D01*
D02*
G37*
G36*
X278618Y133491D02*
X278741D01*
Y133368D01*
X278864D01*
Y130791D01*
X278741D01*
Y130545D01*
X278618D01*
Y130423D01*
X275059D01*
Y130545D01*
X274936D01*
Y130668D01*
X274814D01*
Y133368D01*
X274936D01*
Y133491D01*
X275059D01*
Y133614D01*
X278618D01*
Y133491D01*
D02*
G37*
G36*
X270027Y133614D02*
X273095D01*
Y133491D01*
X273218D01*
Y133368D01*
X273341D01*
Y131895D01*
X273218D01*
Y131773D01*
X273095D01*
Y131650D01*
X272236D01*
Y131527D01*
X272359D01*
Y131404D01*
X272482D01*
Y131282D01*
X272727D01*
Y131159D01*
X272850D01*
Y131036D01*
X272973D01*
Y130914D01*
X273095D01*
Y130791D01*
X273341D01*
Y130668D01*
X273464D01*
Y130545D01*
X273586D01*
Y130423D01*
X272482D01*
Y130545D01*
X272359D01*
Y130668D01*
X272236D01*
Y130791D01*
X272114D01*
Y130914D01*
X271991D01*
Y131036D01*
X271868D01*
Y131159D01*
X271745D01*
Y131282D01*
X271623D01*
Y131404D01*
X271377D01*
Y131527D01*
X271255D01*
Y131650D01*
X270518D01*
Y130914D01*
Y130791D01*
Y130423D01*
X269782D01*
Y133614D01*
X269905D01*
Y133736D01*
X270027D01*
Y133614D01*
D02*
G37*
G36*
X255791D02*
X258491D01*
Y133491D01*
X258736D01*
Y133368D01*
X258982D01*
Y133246D01*
X259105D01*
Y133123D01*
X259227D01*
Y133000D01*
X259350D01*
Y132755D01*
X259473D01*
Y132386D01*
X259595D01*
Y131773D01*
X259473D01*
Y131282D01*
X259350D01*
Y131036D01*
X259227D01*
Y130914D01*
X259105D01*
Y130791D01*
X258982D01*
Y130668D01*
X258736D01*
Y130545D01*
X258491D01*
Y130423D01*
X255545D01*
Y132264D01*
Y132386D01*
Y133614D01*
X255668D01*
Y133736D01*
X255791D01*
Y133614D01*
D02*
G37*
G36*
X273782Y126553D02*
Y126549D01*
Y126541D01*
Y126524D01*
Y126503D01*
X273778Y126478D01*
X273774Y126445D01*
X273766Y126379D01*
X273753Y126308D01*
X273728Y126237D01*
X273699Y126171D01*
X273678Y126141D01*
X273658Y126117D01*
X273653Y126112D01*
X273633Y126100D01*
X273599Y126079D01*
X273554Y126058D01*
X273524Y126046D01*
X273491Y126037D01*
X273454Y126029D01*
X273412Y126017D01*
X273362Y126013D01*
X273312Y126004D01*
X273258Y126000D01*
X271769D01*
X271744Y126004D01*
X271711Y126008D01*
X271640Y126017D01*
X271565Y126029D01*
X271490Y126050D01*
X271420Y126079D01*
X271390Y126096D01*
X271365Y126117D01*
X271361Y126121D01*
X271349Y126141D01*
X271328Y126171D01*
X271307Y126216D01*
X271282Y126275D01*
X271266Y126354D01*
X271257Y126395D01*
X271249Y126445D01*
X271245Y126495D01*
Y126553D01*
Y128255D01*
X271840D01*
Y126491D01*
X273192D01*
Y128255D01*
X273782D01*
Y126553D01*
D02*
G37*
G36*
X305324Y128251D02*
X305353D01*
X305419Y128242D01*
X305486Y128230D01*
X305557Y128209D01*
X305623Y128184D01*
X305648Y128167D01*
X305673Y128151D01*
X305677Y128147D01*
X305690Y128130D01*
X305710Y128105D01*
X305731Y128068D01*
X305752Y128018D01*
X305773Y127951D01*
X305785Y127876D01*
X305789Y127785D01*
Y127589D01*
Y127585D01*
Y127581D01*
Y127556D01*
X305785Y127518D01*
X305777Y127473D01*
X305765Y127423D01*
X305744Y127369D01*
X305719Y127319D01*
X305685Y127277D01*
X305681Y127273D01*
X305665Y127260D01*
X305640Y127244D01*
X305606Y127227D01*
X305561Y127211D01*
X305507Y127194D01*
X305444Y127186D01*
X305407D01*
X305448Y127181D01*
X305502Y127173D01*
X305561Y127161D01*
X305623Y127140D01*
X305681Y127115D01*
X305735Y127073D01*
X305739Y127069D01*
X305756Y127052D01*
X305777Y127023D01*
X305806Y126986D01*
X305831Y126940D01*
X305852Y126882D01*
X305869Y126815D01*
X305873Y126736D01*
Y126507D01*
Y126503D01*
Y126495D01*
Y126478D01*
Y126462D01*
X305864Y126412D01*
X305856Y126349D01*
X305839Y126283D01*
X305819Y126216D01*
X305785Y126158D01*
X305744Y126108D01*
X305739Y126104D01*
X305719Y126092D01*
X305685Y126075D01*
X305640Y126054D01*
X305577Y126033D01*
X305502Y126017D01*
X305457Y126008D01*
X305407Y126004D01*
X305357Y126000D01*
X303988D01*
X303963Y126004D01*
X303934D01*
X303872Y126013D01*
X303801Y126025D01*
X303730Y126042D01*
X303664Y126067D01*
X303639Y126083D01*
X303614Y126100D01*
X303610Y126104D01*
X303597Y126121D01*
X303576Y126146D01*
X303560Y126183D01*
X303539Y126233D01*
X303518Y126295D01*
X303506Y126374D01*
X303501Y126466D01*
Y126674D01*
X304034Y126778D01*
Y126474D01*
X305195D01*
X305215Y126478D01*
X305261Y126487D01*
X305282Y126491D01*
X305294Y126499D01*
X305299Y126503D01*
X305307Y126512D01*
X305311Y126524D01*
X305319Y126541D01*
X305324Y126566D01*
X305328Y126591D01*
Y126624D01*
Y126782D01*
Y126786D01*
Y126799D01*
Y126815D01*
X305324Y126836D01*
X305315Y126882D01*
X305307Y126903D01*
X305294Y126915D01*
X305290Y126919D01*
X305278Y126924D01*
X305265Y126932D01*
X305249Y126936D01*
X305224Y126940D01*
X305195Y126944D01*
X304383D01*
Y127381D01*
X305116D01*
X305136Y127385D01*
X305182Y127394D01*
X305203Y127398D01*
X305215Y127406D01*
X305220Y127410D01*
X305224Y127419D01*
X305232Y127431D01*
X305236Y127448D01*
X305240Y127473D01*
X305244Y127502D01*
Y127535D01*
Y127643D01*
Y127647D01*
Y127660D01*
Y127676D01*
X305240Y127697D01*
X305232Y127739D01*
X305224Y127760D01*
X305215Y127772D01*
X305211Y127776D01*
X305199Y127780D01*
X305186Y127789D01*
X305170Y127793D01*
X305145Y127797D01*
X305116Y127801D01*
X304055D01*
Y127531D01*
X303539Y127614D01*
Y127785D01*
Y127789D01*
Y127797D01*
Y127810D01*
Y127826D01*
X303543Y127872D01*
X303551Y127930D01*
X303568Y127989D01*
X303585Y128051D01*
X303614Y128105D01*
X303651Y128151D01*
X303655Y128155D01*
X303672Y128167D01*
X303701Y128184D01*
X303747Y128205D01*
X303805Y128221D01*
X303876Y128238D01*
X303917Y128246D01*
X303963Y128251D01*
X304017Y128255D01*
X305299D01*
X305324Y128251D01*
D02*
G37*
G36*
X302037D02*
X302066D01*
X302133Y128242D01*
X302203Y128230D01*
X302274Y128209D01*
X302341Y128184D01*
X302366Y128167D01*
X302391Y128151D01*
X302395Y128147D01*
X302407Y128130D01*
X302428Y128105D01*
X302449Y128068D01*
X302470Y128018D01*
X302491Y127951D01*
X302503Y127876D01*
X302507Y127785D01*
Y127643D01*
Y127635D01*
Y127614D01*
X302503Y127585D01*
X302499Y127548D01*
X302495Y127506D01*
X302486Y127464D01*
X302470Y127419D01*
X302453Y127381D01*
X302449Y127377D01*
X302441Y127365D01*
X302424Y127348D01*
X302403Y127319D01*
X302370Y127290D01*
X302324Y127252D01*
X302270Y127215D01*
X302203Y127169D01*
X300947Y126474D01*
X302125D01*
Y126795D01*
X302611Y126670D01*
Y126466D01*
Y126462D01*
Y126453D01*
Y126441D01*
Y126424D01*
X302607Y126379D01*
X302599Y126320D01*
X302582Y126262D01*
X302561Y126200D01*
X302532Y126146D01*
X302495Y126100D01*
X302491Y126096D01*
X302470Y126083D01*
X302441Y126067D01*
X302399Y126050D01*
X302341Y126033D01*
X302266Y126017D01*
X302220Y126008D01*
X302174Y126004D01*
X302125Y126000D01*
X300198D01*
Y126237D01*
Y126245D01*
Y126262D01*
X300203Y126291D01*
X300207Y126329D01*
X300215Y126366D01*
X300227Y126408D01*
X300244Y126445D01*
X300265Y126483D01*
X300269Y126487D01*
X300277Y126499D01*
X300294Y126516D01*
X300319Y126541D01*
X300348Y126566D01*
X300390Y126599D01*
X300435Y126632D01*
X300494Y126670D01*
X301979Y127581D01*
Y127801D01*
X300827D01*
Y127352D01*
X300311Y127469D01*
Y127785D01*
Y127789D01*
Y127797D01*
Y127810D01*
Y127826D01*
X300315Y127872D01*
X300323Y127930D01*
X300340Y127989D01*
X300357Y128051D01*
X300386Y128105D01*
X300423Y128151D01*
X300427Y128155D01*
X300444Y128167D01*
X300473Y128184D01*
X300519Y128205D01*
X300577Y128221D01*
X300648Y128238D01*
X300689Y128246D01*
X300735Y128251D01*
X300789Y128255D01*
X302012D01*
X302037Y128251D01*
D02*
G37*
G36*
X298875D02*
X298905Y128246D01*
X298971Y128238D01*
X299038Y128226D01*
X299109Y128201D01*
X299175Y128172D01*
X299200Y128151D01*
X299225Y128130D01*
X299229Y128126D01*
X299246Y128105D01*
X299262Y128076D01*
X299287Y128030D01*
X299308Y127972D01*
X299329Y127897D01*
X299333Y127851D01*
X299341Y127805D01*
X299346Y127755D01*
Y127697D01*
Y126553D01*
Y126549D01*
Y126541D01*
Y126524D01*
Y126503D01*
X299341Y126478D01*
Y126449D01*
X299333Y126383D01*
X299317Y126312D01*
X299296Y126241D01*
X299267Y126175D01*
X299250Y126146D01*
X299229Y126121D01*
X299225Y126117D01*
X299204Y126104D01*
X299175Y126083D01*
X299133Y126062D01*
X299075Y126037D01*
X299000Y126021D01*
X298955Y126013D01*
X298909Y126004D01*
X298859Y126000D01*
X297278D01*
X297253Y126004D01*
X297224Y126008D01*
X297162Y126017D01*
X297091Y126029D01*
X297024Y126050D01*
X296958Y126079D01*
X296933Y126096D01*
X296908Y126117D01*
X296904Y126121D01*
X296891Y126141D01*
X296870Y126171D01*
X296854Y126216D01*
X296833Y126275D01*
X296812Y126354D01*
X296808Y126395D01*
X296800Y126445D01*
X296796Y126495D01*
Y126553D01*
Y127697D01*
Y127701D01*
Y127710D01*
Y127726D01*
Y127747D01*
X296800Y127776D01*
Y127805D01*
X296808Y127872D01*
X296825Y127943D01*
X296841Y128013D01*
X296870Y128080D01*
X296887Y128109D01*
X296908Y128134D01*
X296912Y128138D01*
X296933Y128155D01*
X296962Y128172D01*
X297004Y128197D01*
X297062Y128217D01*
X297132Y128238D01*
X297178Y128242D01*
X297224Y128251D01*
X297274Y128255D01*
X298851D01*
X298875Y128251D01*
D02*
G37*
G36*
X295398D02*
X295427D01*
X295493Y128242D01*
X295564Y128230D01*
X295635Y128209D01*
X295701Y128184D01*
X295726Y128167D01*
X295751Y128151D01*
X295756Y128147D01*
X295768Y128130D01*
X295789Y128105D01*
X295810Y128068D01*
X295830Y128018D01*
X295851Y127951D01*
X295864Y127876D01*
X295868Y127785D01*
Y127643D01*
Y127635D01*
Y127614D01*
X295864Y127585D01*
X295860Y127548D01*
X295855Y127506D01*
X295847Y127464D01*
X295830Y127419D01*
X295814Y127381D01*
X295810Y127377D01*
X295801Y127365D01*
X295785Y127348D01*
X295764Y127319D01*
X295731Y127290D01*
X295685Y127252D01*
X295631Y127215D01*
X295564Y127169D01*
X294308Y126474D01*
X295485D01*
Y126795D01*
X295972Y126670D01*
Y126466D01*
Y126462D01*
Y126453D01*
Y126441D01*
Y126424D01*
X295968Y126379D01*
X295959Y126320D01*
X295943Y126262D01*
X295922Y126200D01*
X295893Y126146D01*
X295855Y126100D01*
X295851Y126096D01*
X295830Y126083D01*
X295801Y126067D01*
X295760Y126050D01*
X295701Y126033D01*
X295627Y126017D01*
X295581Y126008D01*
X295535Y126004D01*
X295485Y126000D01*
X293559D01*
Y126237D01*
Y126245D01*
Y126262D01*
X293563Y126291D01*
X293567Y126329D01*
X293576Y126366D01*
X293588Y126408D01*
X293605Y126445D01*
X293626Y126483D01*
X293630Y126487D01*
X293638Y126499D01*
X293655Y126516D01*
X293680Y126541D01*
X293709Y126566D01*
X293750Y126599D01*
X293796Y126632D01*
X293854Y126670D01*
X295339Y127581D01*
Y127801D01*
X294187D01*
Y127352D01*
X293671Y127469D01*
Y127785D01*
Y127789D01*
Y127797D01*
Y127810D01*
Y127826D01*
X293675Y127872D01*
X293684Y127930D01*
X293701Y127989D01*
X293717Y128051D01*
X293746Y128105D01*
X293784Y128151D01*
X293788Y128155D01*
X293805Y128167D01*
X293834Y128184D01*
X293879Y128205D01*
X293938Y128221D01*
X294008Y128238D01*
X294050Y128246D01*
X294096Y128251D01*
X294150Y128255D01*
X295373D01*
X295398Y128251D01*
D02*
G37*
G36*
X291388Y127785D02*
X290385D01*
Y126000D01*
X289790D01*
Y127785D01*
X288792D01*
Y128255D01*
X291388D01*
Y127785D01*
D02*
G37*
G36*
X287727Y128251D02*
X287756Y128246D01*
X287827Y128238D01*
X287906Y128226D01*
X287981Y128201D01*
X288051Y128172D01*
X288080Y128151D01*
X288105Y128130D01*
X288109Y128126D01*
X288126Y128105D01*
X288147Y128076D01*
X288168Y128030D01*
X288193Y127972D01*
X288209Y127897D01*
X288218Y127851D01*
X288226Y127805D01*
X288230Y127755D01*
Y127697D01*
Y126553D01*
Y126549D01*
Y126541D01*
Y126524D01*
Y126503D01*
X288226Y126478D01*
X288222Y126445D01*
X288213Y126379D01*
X288201Y126308D01*
X288176Y126237D01*
X288147Y126171D01*
X288126Y126141D01*
X288105Y126117D01*
X288101Y126112D01*
X288080Y126100D01*
X288047Y126079D01*
X288001Y126058D01*
X287972Y126046D01*
X287939Y126037D01*
X287901Y126029D01*
X287860Y126017D01*
X287810Y126013D01*
X287760Y126004D01*
X287706Y126000D01*
X285992D01*
X285967Y126004D01*
X285934Y126008D01*
X285863Y126017D01*
X285788Y126029D01*
X285713Y126050D01*
X285643Y126079D01*
X285613Y126096D01*
X285589Y126117D01*
X285584Y126121D01*
X285572Y126141D01*
X285551Y126171D01*
X285530Y126216D01*
X285505Y126275D01*
X285489Y126354D01*
X285480Y126395D01*
X285472Y126445D01*
X285468Y126495D01*
Y126553D01*
Y127697D01*
Y127701D01*
Y127710D01*
Y127726D01*
Y127747D01*
X285472Y127772D01*
X285476Y127801D01*
X285485Y127868D01*
X285497Y127939D01*
X285518Y128013D01*
X285547Y128076D01*
X285568Y128105D01*
X285589Y128130D01*
X285593Y128134D01*
X285613Y128151D01*
X285647Y128172D01*
X285693Y128192D01*
X285755Y128217D01*
X285792Y128226D01*
X285834Y128234D01*
X285880Y128242D01*
X285930Y128251D01*
X285988Y128255D01*
X287698D01*
X287727Y128251D01*
D02*
G37*
G36*
X284099D02*
X284157Y128242D01*
X284224Y128226D01*
X284291Y128205D01*
X284353Y128176D01*
X284407Y128138D01*
X284411Y128134D01*
X284428Y128117D01*
X284449Y128088D01*
X284474Y128051D01*
X284494Y128005D01*
X284515Y127943D01*
X284532Y127872D01*
X284536Y127789D01*
Y127523D01*
Y127514D01*
Y127493D01*
X284532Y127464D01*
X284524Y127423D01*
X284507Y127381D01*
X284490Y127331D01*
X284461Y127285D01*
X284424Y127244D01*
X284419Y127240D01*
X284403Y127227D01*
X284382Y127211D01*
X284349Y127194D01*
X284311Y127177D01*
X284266Y127165D01*
X284216Y127156D01*
X284191D01*
X284220Y127152D01*
X284257Y127148D01*
X284299Y127136D01*
X284345Y127115D01*
X284390Y127086D01*
X284436Y127048D01*
X284440Y127044D01*
X284453Y127027D01*
X284474Y126998D01*
X284494Y126965D01*
X284515Y126919D01*
X284536Y126869D01*
X284548Y126807D01*
X284553Y126741D01*
Y126466D01*
Y126462D01*
Y126458D01*
Y126445D01*
X284548Y126428D01*
X284544Y126387D01*
X284532Y126333D01*
X284511Y126275D01*
X284478Y126216D01*
X284436Y126162D01*
X284378Y126112D01*
X284370Y126108D01*
X284345Y126096D01*
X284303Y126075D01*
X284249Y126058D01*
X284178Y126037D01*
X284087Y126017D01*
X283987Y126004D01*
X283866Y126000D01*
X282098D01*
Y128255D01*
X284049D01*
X284099Y128251D01*
D02*
G37*
G36*
X280542D02*
X280572Y128246D01*
X280642Y128238D01*
X280721Y128226D01*
X280796Y128201D01*
X280867Y128172D01*
X280896Y128151D01*
X280921Y128130D01*
X280925Y128126D01*
X280942Y128105D01*
X280963Y128076D01*
X280983Y128030D01*
X281008Y127972D01*
X281025Y127897D01*
X281033Y127851D01*
X281042Y127805D01*
X281046Y127755D01*
Y127697D01*
Y126553D01*
Y126549D01*
Y126541D01*
Y126524D01*
Y126503D01*
X281042Y126478D01*
X281037Y126445D01*
X281029Y126379D01*
X281017Y126308D01*
X280992Y126237D01*
X280963Y126171D01*
X280942Y126141D01*
X280921Y126117D01*
X280917Y126112D01*
X280896Y126100D01*
X280863Y126079D01*
X280817Y126058D01*
X280788Y126046D01*
X280755Y126037D01*
X280717Y126029D01*
X280676Y126017D01*
X280626Y126013D01*
X280576Y126004D01*
X280522Y126000D01*
X278808D01*
X278783Y126004D01*
X278749Y126008D01*
X278679Y126017D01*
X278604Y126029D01*
X278529Y126050D01*
X278458Y126079D01*
X278429Y126096D01*
X278404Y126117D01*
X278400Y126121D01*
X278387Y126141D01*
X278367Y126171D01*
X278346Y126216D01*
X278321Y126275D01*
X278304Y126354D01*
X278296Y126395D01*
X278288Y126445D01*
X278284Y126495D01*
Y126553D01*
Y127697D01*
Y127701D01*
Y127710D01*
Y127726D01*
Y127747D01*
X278288Y127772D01*
X278292Y127801D01*
X278300Y127868D01*
X278313Y127939D01*
X278333Y128013D01*
X278363Y128076D01*
X278383Y128105D01*
X278404Y128130D01*
X278408Y128134D01*
X278429Y128151D01*
X278462Y128172D01*
X278508Y128192D01*
X278571Y128217D01*
X278608Y128226D01*
X278650Y128234D01*
X278695Y128242D01*
X278745Y128251D01*
X278803Y128255D01*
X280513D01*
X280542Y128251D01*
D02*
G37*
G36*
X276877D02*
X276936Y128242D01*
X277002Y128226D01*
X277069Y128209D01*
X277131Y128180D01*
X277185Y128142D01*
X277189Y128138D01*
X277206Y128122D01*
X277227Y128093D01*
X277252Y128055D01*
X277277Y128009D01*
X277298Y127947D01*
X277314Y127876D01*
X277318Y127793D01*
Y127277D01*
Y127273D01*
Y127269D01*
Y127256D01*
Y127240D01*
X277310Y127198D01*
X277302Y127148D01*
X277285Y127090D01*
X277264Y127032D01*
X277231Y126978D01*
X277185Y126932D01*
X277181Y126928D01*
X277160Y126915D01*
X277131Y126894D01*
X277085Y126878D01*
X277031Y126857D01*
X276961Y126836D01*
X276877Y126824D01*
X276782Y126820D01*
X276540D01*
X277543Y126000D01*
X276757D01*
X275883Y126820D01*
X275467D01*
Y126000D01*
X274881D01*
Y128255D01*
X276828D01*
X276877Y128251D01*
D02*
G37*
G36*
X270313Y127801D02*
X268595D01*
Y127398D01*
X269597D01*
Y126944D01*
X268595D01*
Y126491D01*
X270334D01*
Y126000D01*
X268000D01*
Y128255D01*
X270313D01*
Y127801D01*
D02*
G37*
%LPC*%
G36*
X270395Y175095D02*
X270027D01*
Y174973D01*
X269659D01*
Y174850D01*
X269536D01*
Y174727D01*
X269414D01*
Y174604D01*
X269291D01*
Y174482D01*
X269168D01*
Y174359D01*
X269045D01*
Y174236D01*
X268923D01*
Y174114D01*
X268800D01*
Y173991D01*
X268677D01*
Y173868D01*
X268555D01*
Y173746D01*
X268432D01*
Y173623D01*
X268309D01*
Y173500D01*
X268186D01*
Y173377D01*
X268064D01*
Y173132D01*
X267941D01*
Y173009D01*
X267818D01*
Y172886D01*
X267695D01*
Y172764D01*
X267573D01*
Y172641D01*
X267450D01*
Y172518D01*
X267327D01*
Y172396D01*
X267205D01*
Y172273D01*
X267082D01*
Y172150D01*
X266959D01*
Y172027D01*
X266836D01*
Y171905D01*
X266714D01*
Y171782D01*
X266591D01*
Y171536D01*
X266468D01*
Y171414D01*
X266346D01*
Y171291D01*
X266223D01*
Y171168D01*
X266100D01*
Y171045D01*
X265977D01*
Y170923D01*
X265855D01*
Y170800D01*
X265732D01*
Y170677D01*
X265609D01*
Y170554D01*
X265486D01*
Y170432D01*
X265364D01*
Y170309D01*
X265241D01*
Y170186D01*
X265118D01*
Y169941D01*
X264996D01*
Y169818D01*
X264873D01*
Y169695D01*
X264750D01*
Y169573D01*
X264627D01*
Y169450D01*
X264505D01*
Y169327D01*
X264382D01*
Y169204D01*
X264259D01*
Y169082D01*
X264136D01*
Y168959D01*
X264014D01*
Y168836D01*
X263891D01*
Y168714D01*
X263768D01*
Y168468D01*
X263646D01*
Y168345D01*
X263523D01*
Y168223D01*
X263400D01*
Y168100D01*
X263277D01*
Y167977D01*
X263155D01*
Y167854D01*
X263032D01*
Y167732D01*
X262909D01*
Y167609D01*
X262786D01*
Y167486D01*
X262664D01*
Y167364D01*
X262541D01*
Y167241D01*
X262418D01*
Y167118D01*
X262296D01*
Y166996D01*
X262173D01*
Y166873D01*
X262050D01*
Y166750D01*
X261927D01*
Y166627D01*
X261805D01*
Y166382D01*
X261682D01*
Y166259D01*
X261559D01*
Y166014D01*
X261436D01*
Y165400D01*
X261314D01*
Y165277D01*
X261436D01*
Y164541D01*
X261559D01*
Y163927D01*
X261682D01*
Y163314D01*
X261805D01*
Y162700D01*
X261927D01*
Y162209D01*
X262050D01*
Y161473D01*
X262173D01*
Y160859D01*
X262296D01*
Y160246D01*
X262418D01*
Y159632D01*
X262541D01*
Y159018D01*
X262664D01*
Y158405D01*
X262786D01*
Y157914D01*
X262909D01*
Y157177D01*
X263032D01*
Y156564D01*
X263155D01*
Y156073D01*
X263277D01*
Y155459D01*
X263400D01*
Y154723D01*
X263523D01*
Y154232D01*
X263646D01*
Y153618D01*
X263768D01*
Y153127D01*
X263891D01*
Y153005D01*
X264014D01*
Y152759D01*
X264136D01*
Y152636D01*
X264259D01*
Y152514D01*
X264505D01*
Y152391D01*
X264750D01*
Y152268D01*
X264873D01*
Y152146D01*
X265118D01*
Y152023D01*
X265241D01*
Y151900D01*
X265486D01*
Y151777D01*
X265609D01*
Y151655D01*
X265855D01*
Y151532D01*
X266100D01*
Y151409D01*
X266223D01*
Y151286D01*
X266468D01*
Y151164D01*
X266591D01*
Y151041D01*
X266836D01*
Y150918D01*
X267082D01*
Y150795D01*
X267205D01*
Y150673D01*
X267450D01*
Y150550D01*
X267695D01*
Y150427D01*
X267818D01*
Y150304D01*
X268064D01*
Y150182D01*
X268186D01*
Y150059D01*
X268432D01*
Y149936D01*
X268677D01*
Y149814D01*
X268800D01*
Y149691D01*
X269045D01*
Y149568D01*
X269291D01*
Y149445D01*
X269414D01*
Y149323D01*
X269659D01*
Y149200D01*
X269905D01*
Y149077D01*
X270518D01*
Y148954D01*
X277268D01*
Y149077D01*
X278618D01*
Y149200D01*
X279600D01*
Y149323D01*
X280336D01*
Y149445D01*
X280950D01*
Y149568D01*
X281564D01*
Y149691D01*
X282055D01*
Y149814D01*
X282545D01*
Y149936D01*
X282914D01*
Y150059D01*
X283282D01*
Y150182D01*
X283650D01*
Y150304D01*
X284018D01*
Y150427D01*
X284386D01*
Y150550D01*
X284632D01*
Y150673D01*
X284877D01*
Y150795D01*
X285123D01*
Y150918D01*
X285368D01*
Y151041D01*
X285614D01*
Y151164D01*
X285736D01*
Y151286D01*
X285859D01*
Y151409D01*
X286105D01*
Y151532D01*
X286227D01*
Y151655D01*
X286350D01*
Y151777D01*
X286473D01*
Y151900D01*
X286596D01*
Y152023D01*
X286718D01*
Y152146D01*
X286841D01*
Y152268D01*
X286964D01*
Y152391D01*
X287086D01*
Y152514D01*
X287209D01*
Y152636D01*
X287332D01*
Y152759D01*
X287455D01*
Y152882D01*
X287577D01*
Y153127D01*
X287700D01*
Y153250D01*
X287823D01*
Y153373D01*
X287946D01*
Y153496D01*
X288068D01*
Y153741D01*
X288191D01*
Y153864D01*
X288314D01*
Y153986D01*
X288436D01*
Y154232D01*
X288559D01*
Y154477D01*
X288682D01*
Y154600D01*
X288805D01*
Y154845D01*
X288927D01*
Y155091D01*
X289050D01*
Y155459D01*
X289173D01*
Y155827D01*
X289296D01*
Y156318D01*
X289418D01*
Y158527D01*
X289296D01*
Y159018D01*
X289173D01*
Y159386D01*
X289050D01*
Y160859D01*
X288927D01*
Y162577D01*
X288805D01*
Y163314D01*
X288682D01*
Y163804D01*
X288559D01*
Y164295D01*
X288436D01*
Y164541D01*
X288314D01*
Y164909D01*
X288191D01*
Y165032D01*
X288068D01*
Y165277D01*
X287946D01*
Y165523D01*
X287823D01*
Y165646D01*
X287700D01*
Y165891D01*
X287577D01*
Y166014D01*
X287455D01*
Y166259D01*
X287332D01*
Y166505D01*
X287209D01*
Y166627D01*
X287086D01*
Y166873D01*
X286964D01*
Y166996D01*
X286841D01*
Y167241D01*
X286718D01*
Y167364D01*
X286596D01*
Y167609D01*
X286473D01*
Y167732D01*
X286350D01*
Y167977D01*
X286227D01*
Y168223D01*
X286105D01*
Y168345D01*
X285982D01*
Y168591D01*
X285859D01*
Y168714D01*
X285736D01*
Y168959D01*
X285614D01*
Y169082D01*
X285491D01*
Y169327D01*
X285368D01*
Y169450D01*
X285245D01*
Y169695D01*
X285123D01*
Y169818D01*
X285000D01*
Y170064D01*
X284877D01*
Y170186D01*
X284755D01*
Y170432D01*
X284632D01*
Y170554D01*
X284509D01*
Y170800D01*
X284386D01*
Y170923D01*
X284264D01*
Y171045D01*
X284141D01*
Y171291D01*
X284018D01*
Y171414D01*
X283895D01*
Y171659D01*
X283773D01*
Y171782D01*
X283650D01*
Y172027D01*
X283527D01*
Y172150D01*
X283405D01*
Y172273D01*
X283282D01*
Y172518D01*
X283159D01*
Y172641D01*
X283036D01*
Y172764D01*
X282791D01*
Y172886D01*
X282668D01*
Y173009D01*
X282423D01*
Y173132D01*
X282177D01*
Y173255D01*
X281809D01*
Y173377D01*
X281073D01*
Y173500D01*
X280336D01*
Y173623D01*
X279600D01*
Y173746D01*
X278741D01*
Y173868D01*
X278005D01*
Y173991D01*
X277146D01*
Y174114D01*
X276409D01*
Y174236D01*
X275550D01*
Y174359D01*
X274568D01*
Y174482D01*
X273832D01*
Y174604D01*
X272973D01*
Y174727D01*
X272114D01*
Y174850D01*
X271132D01*
Y174973D01*
X270395D01*
Y175095D01*
D02*
G37*
%LPD*%
G36*
X273218Y167732D02*
X273586D01*
Y167609D01*
X274077D01*
Y167486D01*
X274446D01*
Y167364D01*
X274814D01*
Y167241D01*
X275305D01*
Y167118D01*
X275673D01*
Y166996D01*
X276041D01*
Y166873D01*
X276409D01*
Y166750D01*
X276900D01*
Y166627D01*
X277268D01*
Y166505D01*
X277636D01*
Y166382D01*
X278005D01*
Y166259D01*
X278373D01*
Y166136D01*
X278618D01*
Y165891D01*
X278741D01*
Y165155D01*
X278618D01*
Y164786D01*
X278496D01*
Y164541D01*
X278373D01*
Y164173D01*
X278250D01*
Y163804D01*
X278127D01*
Y163559D01*
X278005D01*
Y163191D01*
X277882D01*
Y162823D01*
X277759D01*
Y162577D01*
X277636D01*
Y162209D01*
X277514D01*
Y161841D01*
X277391D01*
Y161595D01*
X277268D01*
Y161227D01*
X277146D01*
Y160859D01*
X277023D01*
Y160614D01*
X276900D01*
Y160246D01*
X276777D01*
Y160000D01*
X276655D01*
Y159877D01*
X276532D01*
Y159755D01*
X275918D01*
Y159877D01*
X275796D01*
Y160000D01*
X275550D01*
Y160123D01*
X275427D01*
Y160246D01*
X275182D01*
Y160368D01*
X275059D01*
Y160491D01*
X274814D01*
Y160614D01*
X274691D01*
Y160736D01*
X274446D01*
Y160859D01*
X274200D01*
Y160982D01*
X274077D01*
Y161105D01*
X273832D01*
Y161227D01*
X273709D01*
Y161350D01*
X273464D01*
Y161473D01*
X273341D01*
Y161595D01*
X273095D01*
Y161718D01*
X272850D01*
Y161841D01*
X272727D01*
Y161964D01*
X272482D01*
Y162086D01*
X272359D01*
Y162209D01*
X272114D01*
Y162332D01*
X271991D01*
Y162454D01*
X271745D01*
Y162577D01*
X271623D01*
Y162700D01*
X271377D01*
Y162823D01*
X271132D01*
Y162945D01*
X271009D01*
Y163068D01*
X270764D01*
Y163191D01*
X270641D01*
Y163314D01*
X270395D01*
Y163436D01*
X270273D01*
Y163559D01*
X270027D01*
Y163682D01*
X269905D01*
Y163927D01*
X269782D01*
Y164295D01*
X269659D01*
Y164418D01*
X269782D01*
Y164541D01*
X269905D01*
Y164664D01*
X270027D01*
Y164786D01*
X270150D01*
Y164909D01*
X270273D01*
Y165155D01*
X270395D01*
Y165277D01*
X270518D01*
Y165400D01*
X270641D01*
Y165523D01*
X270764D01*
Y165646D01*
X270886D01*
Y165768D01*
X271009D01*
Y165891D01*
X271132D01*
Y166014D01*
X271255D01*
Y166136D01*
X271377D01*
Y166259D01*
X271500D01*
Y166382D01*
X271623D01*
Y166627D01*
X271745D01*
Y166750D01*
X271868D01*
Y166873D01*
X271991D01*
Y166996D01*
X272114D01*
Y167118D01*
X272236D01*
Y167241D01*
X272359D01*
Y167364D01*
X272482D01*
Y167486D01*
X272605D01*
Y167609D01*
X272727D01*
Y167732D01*
X273095D01*
Y167854D01*
X273218D01*
Y167732D01*
D02*
G37*
G36*
X282300Y161105D02*
X283405D01*
Y160982D01*
X284632D01*
Y160859D01*
X285491D01*
Y160736D01*
X285614D01*
Y160614D01*
X285491D01*
Y160491D01*
X284877D01*
Y160368D01*
X284141D01*
Y160246D01*
X284264D01*
Y160123D01*
X284632D01*
Y160000D01*
X285000D01*
Y159877D01*
X284755D01*
Y159755D01*
X284509D01*
Y159632D01*
X284141D01*
Y159509D01*
X283895D01*
Y156318D01*
X284141D01*
Y156195D01*
X284264D01*
Y156073D01*
X284386D01*
Y155950D01*
X284509D01*
Y155827D01*
X284755D01*
Y155704D01*
X284877D01*
Y155582D01*
X285000D01*
Y155336D01*
X284386D01*
Y155214D01*
X283895D01*
Y155091D01*
X283405D01*
Y154968D01*
X282914D01*
Y154845D01*
X282300D01*
Y154723D01*
X281932D01*
Y154845D01*
X282055D01*
Y154968D01*
X282177D01*
Y155091D01*
X282300D01*
Y155214D01*
X282423D01*
Y155336D01*
X282545D01*
Y155459D01*
X282668D01*
Y155582D01*
X282791D01*
Y155704D01*
X282914D01*
Y155827D01*
X283036D01*
Y156073D01*
X283159D01*
Y156195D01*
X283282D01*
Y156318D01*
X283405D01*
Y156564D01*
X283527D01*
Y157054D01*
X283650D01*
Y158282D01*
X283527D01*
Y159141D01*
X283405D01*
Y159264D01*
X283159D01*
Y159386D01*
X282914D01*
Y159509D01*
X282668D01*
Y159632D01*
X282545D01*
Y159755D01*
X282300D01*
Y159877D01*
X282055D01*
Y160000D01*
X281809D01*
Y160246D01*
X282177D01*
Y160368D01*
X282668D01*
Y160491D01*
X283159D01*
Y160614D01*
X282791D01*
Y160736D01*
X281932D01*
Y160859D01*
X281809D01*
Y161227D01*
X282300D01*
Y161105D01*
D02*
G37*
%LPC*%
G36*
X273218Y167364D02*
X272973D01*
Y166873D01*
X273341D01*
Y166750D01*
X273709D01*
Y166627D01*
X274077D01*
Y166505D01*
X274568D01*
Y166382D01*
X274936D01*
Y166259D01*
X275427D01*
Y166136D01*
X275796D01*
Y166014D01*
X276164D01*
Y165891D01*
X276655D01*
Y165768D01*
X277023D01*
Y165646D01*
X277514D01*
Y165523D01*
X277882D01*
Y165400D01*
X278250D01*
Y165646D01*
X278373D01*
Y165768D01*
X278250D01*
Y165891D01*
X277759D01*
Y166014D01*
X277391D01*
Y166136D01*
X277023D01*
Y166259D01*
X276532D01*
Y166382D01*
X276164D01*
Y166505D01*
X275673D01*
Y166627D01*
X275305D01*
Y166750D01*
X274936D01*
Y166873D01*
X274446D01*
Y166996D01*
X274077D01*
Y167118D01*
X273709D01*
Y167241D01*
X273218D01*
Y167364D01*
D02*
G37*
G36*
X272973Y166505D02*
X272605D01*
Y166382D01*
X272482D01*
Y166136D01*
X272359D01*
Y165768D01*
X272236D01*
Y165523D01*
X272114D01*
Y165277D01*
X271991D01*
Y165032D01*
X271868D01*
Y164786D01*
X271745D01*
Y164541D01*
X271623D01*
Y164418D01*
X271745D01*
Y164295D01*
X271991D01*
Y164173D01*
X272114D01*
Y164050D01*
X272359D01*
Y163927D01*
X272482D01*
Y163804D01*
X272727D01*
Y163682D01*
X272850D01*
Y163559D01*
X272973D01*
Y163436D01*
X273218D01*
Y163314D01*
X273341D01*
Y163191D01*
X273586D01*
Y163068D01*
X273709D01*
Y162945D01*
X273955D01*
Y162823D01*
X274077D01*
Y162700D01*
X274323D01*
Y162577D01*
X274446D01*
Y162454D01*
X274691D01*
Y162332D01*
X274814D01*
Y162209D01*
X275059D01*
Y162086D01*
X275182D01*
Y161964D01*
X275427D01*
Y161841D01*
X275550D01*
Y161718D01*
X275796D01*
Y161595D01*
X275918D01*
Y161473D01*
X276164D01*
Y161350D01*
X276286D01*
Y161227D01*
X276532D01*
Y161105D01*
X276655D01*
Y161227D01*
X276777D01*
Y161473D01*
X276900D01*
Y161841D01*
X277023D01*
Y162086D01*
X277146D01*
Y162454D01*
X277268D01*
Y162823D01*
X277391D01*
Y163191D01*
X277514D01*
Y163436D01*
X277636D01*
Y163804D01*
X277759D01*
Y164173D01*
X277882D01*
Y164418D01*
X278005D01*
Y164786D01*
X278127D01*
Y164909D01*
X278005D01*
Y165032D01*
X277514D01*
Y165155D01*
X277146D01*
Y165277D01*
X276777D01*
Y165400D01*
X276286D01*
Y165523D01*
X275918D01*
Y165646D01*
X275427D01*
Y165768D01*
X275059D01*
Y165891D01*
X274691D01*
Y166014D01*
X274200D01*
Y166136D01*
X273832D01*
Y166259D01*
X273464D01*
Y166382D01*
X272973D01*
Y166505D01*
D02*
G37*
G36*
X288682Y133123D02*
X286227D01*
Y131036D01*
X288682D01*
Y133123D01*
D02*
G37*
G36*
X283282D02*
X281195D01*
Y132509D01*
Y132386D01*
X283282D01*
Y133123D01*
D02*
G37*
G36*
Y131773D02*
X281195D01*
Y131036D01*
X283282D01*
Y131773D01*
D02*
G37*
G36*
X278005Y133123D02*
X275673D01*
Y133000D01*
X275550D01*
Y131036D01*
X278127D01*
Y132755D01*
Y132877D01*
Y133000D01*
X278005D01*
Y133123D01*
D02*
G37*
G36*
X272482D02*
X270518D01*
Y132264D01*
X270641D01*
Y132141D01*
X272482D01*
Y132264D01*
X272605D01*
Y132509D01*
Y132632D01*
Y133000D01*
X272482D01*
Y133123D01*
D02*
G37*
G36*
X257877D02*
X256405D01*
Y133000D01*
X256282D01*
Y131036D01*
X258123D01*
Y131159D01*
X258368D01*
Y131282D01*
X258491D01*
Y131404D01*
X258614D01*
Y131527D01*
X258736D01*
Y132141D01*
Y132264D01*
Y132509D01*
X258614D01*
Y132755D01*
X258491D01*
Y132877D01*
X258368D01*
Y133000D01*
X257877D01*
Y133123D01*
D02*
G37*
G36*
X298801Y127801D02*
X297336D01*
Y126474D01*
X298801D01*
Y127801D01*
D02*
G37*
G36*
X287639Y127785D02*
X286063D01*
Y126491D01*
X287639D01*
Y127785D01*
D02*
G37*
G36*
X283833Y127818D02*
X282685D01*
Y127381D01*
X283829D01*
X283854Y127385D01*
X283904Y127394D01*
X283929Y127398D01*
X283945Y127406D01*
X283949Y127410D01*
X283966Y127427D01*
X283979Y127452D01*
X283983Y127493D01*
Y127701D01*
Y127706D01*
Y127710D01*
X283979Y127735D01*
X283966Y127764D01*
X283945Y127789D01*
X283937Y127793D01*
X283929Y127797D01*
X283912Y127805D01*
X283891Y127810D01*
X283866Y127814D01*
X283833Y127818D01*
D02*
G37*
G36*
X283837Y126940D02*
X282685D01*
Y126474D01*
X283833D01*
X283862Y126478D01*
X283916Y126487D01*
X283941Y126495D01*
X283958Y126503D01*
X283962Y126512D01*
X283979Y126532D01*
X283983Y126549D01*
X283991Y126570D01*
X283995Y126595D01*
Y126624D01*
Y126786D01*
Y126790D01*
Y126803D01*
Y126815D01*
X283991Y126836D01*
X283979Y126878D01*
X283970Y126894D01*
X283958Y126907D01*
X283949Y126911D01*
X283941Y126919D01*
X283925Y126924D01*
X283899Y126932D01*
X283870Y126936D01*
X283837Y126940D01*
D02*
G37*
G36*
X280455Y127785D02*
X278878D01*
Y126491D01*
X280455D01*
Y127785D01*
D02*
G37*
G36*
X276599Y127797D02*
X275467D01*
Y127273D01*
X276595D01*
X276620Y127277D01*
X276669Y127285D01*
X276690Y127290D01*
X276707Y127298D01*
X276711Y127302D01*
X276728Y127323D01*
X276740Y127356D01*
X276744Y127377D01*
Y127402D01*
Y127664D01*
Y127668D01*
Y127676D01*
Y127689D01*
X276740Y127706D01*
X276728Y127739D01*
X276719Y127755D01*
X276707Y127768D01*
X276699Y127772D01*
X276690Y127776D01*
X276678Y127785D01*
X276657Y127789D01*
X276628Y127793D01*
X276599Y127797D01*
D02*
G37*
%LPD*%
D10*
X66142Y253374D02*
G03*
X66142Y253374I-492J0D01*
G01*
X170919Y168648D02*
G03*
X170919Y168648I-492J0D01*
G01*
X120956Y68028D02*
G03*
X120956Y68028I-492J0D01*
G01*
X174956D02*
G03*
X174956Y68028I-492J0D01*
G01*
X226456D02*
G03*
X226456Y68028I-492J0D01*
G01*
X67256D02*
G03*
X67256Y68028I-492J0D01*
G01*
X241382Y104500D02*
G03*
X241382Y104500I-492J0D01*
G01*
X265177Y118500D02*
G03*
X265177Y118500I-492J0D01*
G01*
X260992Y277315D02*
G03*
X260992Y277315I-492J0D01*
G01*
X101307Y257500D02*
G03*
X101307Y257500I-492J0D01*
G01*
X101807Y241000D02*
G03*
X101807Y241000I-492J0D01*
G01*
D11*
X175584Y177606D02*
G03*
X175584Y177606I-984J0D01*
G01*
D12*
X39504Y178886D02*
G03*
X39504Y178492I0J-197D01*
G01*
D02*
G03*
X39504Y178886I0J197D01*
G01*
D02*
G03*
X39504Y178492I0J-197D01*
G01*
X110461Y116858D02*
G03*
X110461Y116858I-205J0D01*
G01*
X171253Y174260D02*
Y247094D01*
X244088D01*
Y174260D02*
Y247094D01*
X171253Y174260D02*
X244088D01*
X261319Y76819D02*
X307579D01*
Y98000D01*
X257500D02*
X307579D01*
X156960Y15567D02*
Y48146D01*
X124440Y15567D02*
Y48146D01*
X156960D02*
X161369D01*
X120031D02*
X124440D01*
Y15567D02*
X156960D01*
X120031Y48146D02*
Y61433D01*
X161369D01*
Y48146D02*
Y61433D01*
X210960Y15567D02*
Y48146D01*
X178440Y15567D02*
Y48146D01*
X210960D02*
X215369D01*
X174031D02*
X178440D01*
Y15567D02*
X210960D01*
X174031Y48146D02*
Y61433D01*
X215369D01*
Y48146D02*
Y61433D01*
X262460Y15567D02*
Y48146D01*
X229940Y15567D02*
Y48146D01*
X262460D02*
X266869D01*
X225531D02*
X229940D01*
Y15567D02*
X262460D01*
X225531Y48146D02*
Y61433D01*
X266869D01*
Y48146D02*
Y61433D01*
X103260Y15567D02*
Y48146D01*
X70740Y15567D02*
Y48146D01*
X103260D02*
X107669D01*
X66331D02*
X70740D01*
Y15567D02*
X103260D01*
X66331Y48146D02*
Y61433D01*
X107669D01*
Y48146D02*
Y61433D01*
X21677Y51457D02*
Y112500D01*
Y51457D02*
X57110D01*
Y132559D01*
X34000D02*
X57110D01*
X69500Y95248D02*
Y107000D01*
Y95248D02*
X99500D01*
Y118752D01*
X79500D02*
X99500D01*
X91000Y294000D02*
Y304000D01*
X51000Y294000D02*
X91000D01*
X51000Y304000D02*
X91000D01*
X51000Y294000D02*
Y304000D01*
X81500Y151000D02*
Y161000D01*
X121500D01*
X81500Y151000D02*
X121500D01*
Y161000D01*
X135000Y275748D02*
Y287500D01*
Y275748D02*
X165000D01*
Y299252D01*
X145000D02*
X165000D01*
X99500Y275748D02*
Y287500D01*
Y275748D02*
X129500D01*
Y299252D01*
X109500D02*
X129500D01*
X221500Y294000D02*
Y304000D01*
X181500Y294000D02*
X221500D01*
X181500Y304000D02*
X221500D01*
X181500Y294000D02*
Y304000D01*
X239000Y285319D02*
Y287681D01*
X124189Y96189D02*
X147811D01*
Y119811D01*
X124189D02*
X147811D01*
X124189Y96189D02*
Y119811D01*
X184000Y95248D02*
X234000D01*
X184000Y113752D02*
X234000D01*
X184000Y95248D02*
Y98791D01*
Y110209D02*
Y113752D01*
X234000Y110209D02*
Y113752D01*
Y95248D02*
Y98791D01*
X254153Y121650D02*
X260846D01*
X254153Y115350D02*
X260846D01*
X263650Y281153D02*
Y287846D01*
X257350Y281153D02*
Y287846D01*
X91819Y221500D02*
X94181D01*
X48000Y257319D02*
Y259681D01*
X104654Y260650D02*
X111346D01*
X104654Y254350D02*
X111346D01*
X105154Y244150D02*
X111846D01*
X105154Y237850D02*
X111846D01*
X101819Y221000D02*
X104181D01*
X114819D02*
X117181D01*
X47850Y272819D02*
Y275181D01*
X71319Y271500D02*
X73681D01*
X127500Y239819D02*
Y242181D01*
Y256319D02*
Y258681D01*
X80319Y271650D02*
X82681D01*
D13*
X26906Y183098D02*
Y183217D01*
X23953D02*
X26906D01*
X23953Y183098D02*
Y183217D01*
Y183098D02*
X26906D01*
X6524D02*
X11157D01*
X6524D02*
X11157D01*
X6524Y147902D02*
Y183098D01*
Y147902D02*
Y183098D01*
Y147902D02*
X12142D01*
X6524D02*
X12142D01*
X23953D02*
X27890D01*
X23953D02*
X27890D01*
D14*
X33000Y135000D02*
X34000D01*
X33500D01*
Y137999D01*
X33000Y137499D01*
X44999Y135000D02*
X43000D01*
X44999Y136999D01*
Y137499D01*
X44499Y137999D01*
X43500D01*
X43000Y137499D01*
X42000Y46000D02*
X43000D01*
X42500D01*
Y48999D01*
X42000Y48499D01*
X44499D02*
X44999Y48999D01*
X45999D01*
X46499Y48499D01*
Y46500D01*
X45999Y46000D01*
X44999D01*
X44499Y46500D01*
Y48499D01*
X33000Y46500D02*
X33500Y46000D01*
X34499D01*
X34999Y46500D01*
Y48499D01*
X34499Y48999D01*
X33500D01*
X33000Y48499D01*
Y47999D01*
X33500Y47499D01*
X34999D01*
X83499Y141999D02*
X82999Y142499D01*
X82000D01*
X81500Y141999D01*
Y141499D01*
X82000Y140999D01*
X82999D01*
X83499Y140500D01*
Y140000D01*
X82999Y139500D01*
X82000D01*
X81500Y140000D01*
X86498Y141999D02*
X85999Y142499D01*
X84999D01*
X84499Y141999D01*
Y140000D01*
X84999Y139500D01*
X85999D01*
X86498Y140000D01*
X87498Y142499D02*
Y139500D01*
X89497D01*
X94499Y141999D02*
X93999Y142499D01*
X93000D01*
X92500Y141999D01*
Y141499D01*
X93000Y140999D01*
X93999D01*
X94499Y140500D01*
Y140000D01*
X93999Y139500D01*
X93000D01*
X92500Y140000D01*
X95499Y142499D02*
Y139500D01*
X96999D01*
X97498Y140000D01*
Y141999D01*
X96999Y142499D01*
X95499D01*
X98498Y139500D02*
Y141499D01*
X99498Y142499D01*
X100497Y141499D01*
Y139500D01*
Y140999D01*
X98498D01*
X103500Y142499D02*
Y140500D01*
X104500Y139500D01*
X105499Y140500D01*
Y142499D01*
X108498D02*
X106499D01*
Y140999D01*
X107499Y141499D01*
X107999D01*
X108498Y140999D01*
Y140000D01*
X107999Y139500D01*
X106999D01*
X106499Y140000D01*
X114499Y141999D02*
X113999Y142499D01*
X113000D01*
X112500Y141999D01*
Y140000D01*
X113000Y139500D01*
X113999D01*
X114499Y140000D01*
Y140999D01*
X113500D01*
X115499Y139500D02*
Y142499D01*
X117498Y139500D01*
Y142499D01*
X118498D02*
Y139500D01*
X119998D01*
X120497Y140000D01*
Y141999D01*
X119998Y142499D01*
X118498D01*
X115500Y90500D02*
Y93499D01*
X117499Y90500D01*
Y93499D01*
X118499Y90500D02*
Y93499D01*
X119999D01*
X120498Y92999D01*
Y92000D01*
X119999Y91500D01*
X118499D01*
X119499D02*
X120498Y90500D01*
X123497Y92999D02*
X122998Y93499D01*
X121998D01*
X121498Y92999D01*
Y92499D01*
X121998Y92000D01*
X122998D01*
X123497Y91500D01*
Y91000D01*
X122998Y90500D01*
X121998D01*
X121498Y91000D01*
X124497Y93499D02*
X126496D01*
X125497D01*
Y90500D01*
X230499Y75499D02*
X228500D01*
Y74000D01*
X229500Y74499D01*
X229999D01*
X230499Y74000D01*
Y73000D01*
X229999Y72500D01*
X229000D01*
X228500Y73000D01*
X231499Y75499D02*
Y73500D01*
X232499Y72500D01*
X233498Y73500D01*
Y75499D01*
X239499Y74999D02*
X239000Y75499D01*
X238000D01*
X237500Y74999D01*
Y73000D01*
X238000Y72500D01*
X239000D01*
X239499Y73000D01*
Y74000D01*
X238500D01*
X240499Y72500D02*
Y75499D01*
X242498Y72500D01*
Y75499D01*
X243498D02*
Y72500D01*
X244998D01*
X245497Y73000D01*
Y74999D01*
X244998Y75499D01*
X243498D01*
X250500Y72500D02*
Y75499D01*
X249000Y74000D01*
X250999D01*
X251999Y72500D02*
Y74499D01*
X252999Y75499D01*
X253998Y74499D01*
Y72500D01*
Y74000D01*
X251999D01*
X260500Y72500D02*
Y75499D01*
X259000Y74000D01*
X260999D01*
X261999Y75499D02*
Y72500D01*
X263498D01*
X263998Y73000D01*
Y73500D01*
X263498Y74000D01*
X261999D01*
X263498D01*
X263998Y74499D01*
Y74999D01*
X263498Y75499D01*
X261999D01*
X178999D02*
X177000D01*
Y74000D01*
X178000Y74499D01*
X178499D01*
X178999Y74000D01*
Y73000D01*
X178499Y72500D01*
X177500D01*
X177000Y73000D01*
X179999Y75499D02*
Y73500D01*
X180999Y72500D01*
X181998Y73500D01*
Y75499D01*
X187999Y74999D02*
X187499Y75499D01*
X186500D01*
X186000Y74999D01*
Y73000D01*
X186500Y72500D01*
X187499D01*
X187999Y73000D01*
Y74000D01*
X187000D01*
X188999Y72500D02*
Y75499D01*
X190998Y72500D01*
Y75499D01*
X191998D02*
Y72500D01*
X193498D01*
X193997Y73000D01*
Y74999D01*
X193498Y75499D01*
X191998D01*
X197500Y74999D02*
X198000Y75499D01*
X199000D01*
X199499Y74999D01*
Y74499D01*
X199000Y74000D01*
X198500D01*
X199000D01*
X199499Y73500D01*
Y73000D01*
X199000Y72500D01*
X198000D01*
X197500Y73000D01*
X200499Y72500D02*
Y74499D01*
X201499Y75499D01*
X202498Y74499D01*
Y72500D01*
Y74000D01*
X200499D01*
X207500Y74999D02*
X208000Y75499D01*
X208999D01*
X209499Y74999D01*
Y74499D01*
X208999Y74000D01*
X208500D01*
X208999D01*
X209499Y73500D01*
Y73000D01*
X208999Y72500D01*
X208000D01*
X207500Y73000D01*
X210499Y75499D02*
Y72500D01*
X211999D01*
X212498Y73000D01*
Y73500D01*
X211999Y74000D01*
X210499D01*
X211999D01*
X212498Y74499D01*
Y74999D01*
X211999Y75499D01*
X210499D01*
X125499D02*
X123500D01*
Y74000D01*
X124500Y74499D01*
X124999D01*
X125499Y74000D01*
Y73000D01*
X124999Y72500D01*
X124000D01*
X123500Y73000D01*
X126499Y75499D02*
Y73500D01*
X127499Y72500D01*
X128498Y73500D01*
Y75499D01*
X133499Y74999D02*
X133000Y75499D01*
X132000D01*
X131500Y74999D01*
Y73000D01*
X132000Y72500D01*
X133000D01*
X133499Y73000D01*
Y74000D01*
X132500D01*
X134499Y72500D02*
Y75499D01*
X136498Y72500D01*
Y75499D01*
X137498D02*
Y72500D01*
X138998D01*
X139497Y73000D01*
Y74999D01*
X138998Y75499D01*
X137498D01*
X144999Y72500D02*
X143000D01*
X144999Y74499D01*
Y74999D01*
X144500Y75499D01*
X143500D01*
X143000Y74999D01*
X145999Y72500D02*
Y74499D01*
X146999Y75499D01*
X147998Y74499D01*
Y72500D01*
Y74000D01*
X145999D01*
X154999Y72500D02*
X153000D01*
X154999Y74499D01*
Y74999D01*
X154499Y75499D01*
X153500D01*
X153000Y74999D01*
X155999Y75499D02*
Y72500D01*
X157499D01*
X157998Y73000D01*
Y73500D01*
X157499Y74000D01*
X155999D01*
X157499D01*
X157998Y74499D01*
Y74999D01*
X157499Y75499D01*
X155999D01*
X99500Y72500D02*
X100500D01*
X100000D01*
Y75499D01*
X99500Y74999D01*
X101999Y75499D02*
Y72500D01*
X103499D01*
X103998Y73000D01*
Y73500D01*
X103499Y74000D01*
X101999D01*
X103499D01*
X103998Y74499D01*
Y74999D01*
X103499Y75499D01*
X101999D01*
X89500Y72500D02*
X90500D01*
X90000D01*
Y75499D01*
X89500Y74999D01*
X91999Y72500D02*
Y74499D01*
X92999Y75499D01*
X93998Y74499D01*
Y72500D01*
Y74000D01*
X91999D01*
X79999Y74999D02*
X79500Y75499D01*
X78500D01*
X78000Y74999D01*
Y73000D01*
X78500Y72500D01*
X79500D01*
X79999Y73000D01*
Y74000D01*
X79000D01*
X80999Y72500D02*
Y75499D01*
X82998Y72500D01*
Y75499D01*
X83998D02*
Y72500D01*
X85498D01*
X85997Y73000D01*
Y74999D01*
X85498Y75499D01*
X83998D01*
X71499D02*
X69500D01*
Y74000D01*
X70500Y74499D01*
X70999D01*
X71499Y74000D01*
Y73000D01*
X70999Y72500D01*
X70000D01*
X69500Y73000D01*
X72499Y75499D02*
Y73500D01*
X73499Y72500D01*
X74498Y73500D01*
Y75499D01*
X245500Y94499D02*
Y92500D01*
X246500Y91500D01*
X247499Y92500D01*
Y94499D01*
X250498D02*
X248499D01*
Y93000D01*
X249499Y93499D01*
X249998D01*
X250498Y93000D01*
Y92000D01*
X249998Y91500D01*
X248999D01*
X248499Y92000D01*
X244499Y82999D02*
X244000Y83499D01*
X243000D01*
X242500Y82999D01*
Y81000D01*
X243000Y80500D01*
X244000D01*
X244499Y81000D01*
Y81999D01*
X243500D01*
X245499Y80500D02*
Y83499D01*
X247498Y80500D01*
Y83499D01*
X248498D02*
Y80500D01*
X249998D01*
X250497Y81000D01*
Y82999D01*
X249998Y83499D01*
X248498D01*
X74000Y90000D02*
Y92999D01*
X75999Y90000D01*
Y92999D01*
X76999Y90000D02*
Y92999D01*
X78499D01*
X78998Y92499D01*
Y91500D01*
X78499Y91000D01*
X76999D01*
X77999D02*
X78998Y90000D01*
X81997Y92499D02*
X81498Y92999D01*
X80498D01*
X79998Y92499D01*
Y91999D01*
X80498Y91500D01*
X81498D01*
X81997Y91000D01*
Y90500D01*
X81498Y90000D01*
X80498D01*
X79998Y90500D01*
X82997Y92999D02*
X84996D01*
X83997D01*
Y90000D01*
X195000Y282000D02*
Y284999D01*
X196500D01*
X196999Y284499D01*
Y283500D01*
X196500Y283000D01*
X195000D01*
X196000D02*
X196999Y282000D01*
X197999Y284999D02*
X199998Y282000D01*
Y284999D02*
X197999Y282000D01*
X215499Y284499D02*
X215000Y284999D01*
X214000D01*
X213500Y284499D01*
Y282500D01*
X214000Y282000D01*
X215000D01*
X215499Y282500D01*
Y283500D01*
X214500D01*
X216499Y282000D02*
Y284999D01*
X218498Y282000D01*
Y284999D01*
X219498D02*
Y282000D01*
X220998D01*
X221497Y282500D01*
Y284499D01*
X220998Y284999D01*
X219498D01*
X204500D02*
X206499D01*
X205500D01*
Y282000D01*
X207499Y284999D02*
X209498Y282000D01*
Y284999D02*
X207499Y282000D01*
X152999Y304499D02*
X152499Y304999D01*
X151500D01*
X151000Y304499D01*
Y302500D01*
X151500Y302000D01*
X152499D01*
X152999Y302500D01*
Y303500D01*
X152000D01*
X153999Y302000D02*
Y304999D01*
X155998Y302000D01*
Y304999D01*
X156998D02*
Y302000D01*
X158498D01*
X158997Y302500D01*
Y304499D01*
X158498Y304999D01*
X156998D01*
X180500Y284999D02*
Y283000D01*
X181500Y282000D01*
X182499Y283000D01*
Y284999D01*
X183499Y284499D02*
X183999Y284999D01*
X184999D01*
X185498Y284499D01*
Y283999D01*
X184999Y283500D01*
X184499D01*
X184999D01*
X185498Y283000D01*
Y282500D01*
X184999Y282000D01*
X183999D01*
X183499Y282500D01*
X186498Y282000D02*
Y282500D01*
X186998D01*
Y282000D01*
X186498D01*
X188997Y284499D02*
X189497Y284999D01*
X190497D01*
X190997Y284499D01*
Y283999D01*
X190497Y283500D01*
X189997D01*
X190497D01*
X190997Y283000D01*
Y282500D01*
X190497Y282000D01*
X189497D01*
X188997Y282500D01*
X74000Y284999D02*
X75999D01*
X75000D01*
Y282000D01*
X76999Y284999D02*
X78998Y282000D01*
Y284999D02*
X76999Y282000D01*
X84999Y284499D02*
X84500Y284999D01*
X83500D01*
X83000Y284499D01*
Y282500D01*
X83500Y282000D01*
X84500D01*
X84999Y282500D01*
Y283500D01*
X84000D01*
X85999Y282000D02*
Y284999D01*
X87998Y282000D01*
Y284999D01*
X88998D02*
Y282000D01*
X90498D01*
X90997Y282500D01*
Y284499D01*
X90498Y284999D01*
X88998D01*
X117499Y304499D02*
X116999Y304999D01*
X116000D01*
X115500Y304499D01*
Y302500D01*
X116000Y302000D01*
X116999D01*
X117499Y302500D01*
Y303500D01*
X116500D01*
X118499Y302000D02*
Y304999D01*
X120498Y302000D01*
Y304999D01*
X121498D02*
Y302000D01*
X122998D01*
X123497Y302500D01*
Y304499D01*
X122998Y304999D01*
X121498D01*
X50000Y284999D02*
Y283000D01*
X51000Y282000D01*
X51999Y283000D01*
Y284999D01*
X52999Y284499D02*
X53499Y284999D01*
X54499D01*
X54998Y284499D01*
Y283999D01*
X54499Y283500D01*
X53999D01*
X54499D01*
X54998Y283000D01*
Y282500D01*
X54499Y282000D01*
X53499D01*
X52999Y282500D01*
X55998Y282000D02*
Y282500D01*
X56498D01*
Y282000D01*
X55998D01*
X58497Y284499D02*
X58997Y284999D01*
X59997D01*
X60497Y284499D01*
Y283999D01*
X59997Y283500D01*
X59497D01*
X59997D01*
X60497Y283000D01*
Y282500D01*
X59997Y282000D01*
X58997D01*
X58497Y282500D01*
X64500Y282000D02*
Y284999D01*
X66000D01*
X66499Y284499D01*
Y283500D01*
X66000Y283000D01*
X64500D01*
X65500D02*
X66499Y282000D01*
X67499Y284999D02*
X69498Y282000D01*
Y284999D02*
X67499Y282000D01*
X15502Y193501D02*
Y197499D01*
X17501D01*
X18167Y196833D01*
Y195500D01*
X17501Y194834D01*
X15502D01*
X19500Y193501D02*
X20833D01*
X20167D01*
Y197499D01*
X19500Y196833D01*
X22833D02*
X23499Y197499D01*
X24832D01*
X25498Y196833D01*
Y196167D01*
X24832Y195500D01*
X24166D01*
X24832D01*
X25498Y194834D01*
Y194167D01*
X24832Y193501D01*
X23499D01*
X22833Y194167D01*
X214502Y63001D02*
Y66999D01*
X216501D01*
X217167Y66333D01*
Y65000D01*
X216501Y64334D01*
X214502D01*
X218500Y63001D02*
X219833D01*
X219167D01*
Y66999D01*
X218500Y66333D01*
X224498Y63001D02*
X221833D01*
X224498Y65666D01*
Y66333D01*
X223832Y66999D01*
X222499D01*
X221833Y66333D01*
X253502Y100501D02*
Y104499D01*
X255501D01*
X256167Y103833D01*
Y102500D01*
X255501Y101834D01*
X253502D01*
X257500Y100501D02*
X258833D01*
X258167D01*
Y104499D01*
X257500Y103833D01*
X262832Y100501D02*
Y104499D01*
X260833Y102500D01*
X263498D01*
X179800Y121199D02*
X182466Y117200D01*
Y121199D02*
X179800Y117200D01*
X183799D02*
X185132D01*
X184465D01*
Y121199D01*
X183799Y120532D01*
X85168Y255499D02*
Y252167D01*
X85834Y251501D01*
X87167D01*
X87834Y252167D01*
Y255499D01*
X89166Y254833D02*
X89833Y255499D01*
X91166D01*
X91832Y254833D01*
Y254166D01*
X91166Y253500D01*
X90499D01*
X91166D01*
X91832Y252834D01*
Y252167D01*
X91166Y251501D01*
X89833D01*
X89166Y252167D01*
X152834Y260999D02*
Y257667D01*
X153501Y257001D01*
X154833D01*
X155500Y257667D01*
Y260999D01*
X156833Y257001D02*
X158166D01*
X157499D01*
Y260999D01*
X156833Y260333D01*
X113366Y126532D02*
X112699Y127199D01*
X111366D01*
X110700Y126532D01*
Y125866D01*
X111366Y125199D01*
X112699D01*
X113366Y124533D01*
Y123866D01*
X112699Y123200D01*
X111366D01*
X110700Y123866D01*
X114699Y123200D02*
X116032D01*
X115365D01*
Y127199D01*
X114699Y126532D01*
X122500Y263600D02*
Y267599D01*
X124499D01*
X125166Y266932D01*
Y265599D01*
X124499Y264933D01*
X122500D01*
X123833D02*
X125166Y263600D01*
X129165D02*
X126499D01*
X129165Y266266D01*
Y266932D01*
X128498Y267599D01*
X127165D01*
X126499Y266932D01*
X133163Y267599D02*
X130497D01*
Y265599D01*
X131830Y266266D01*
X132497D01*
X133163Y265599D01*
Y264266D01*
X132497Y263600D01*
X131164D01*
X130497Y264266D01*
X122500Y247100D02*
Y251099D01*
X124499D01*
X125166Y250432D01*
Y249099D01*
X124499Y248433D01*
X122500D01*
X123833D02*
X125166Y247100D01*
X129165D02*
X126499D01*
X129165Y249766D01*
Y250432D01*
X128498Y251099D01*
X127165D01*
X126499Y250432D01*
X132497Y247100D02*
Y251099D01*
X130497Y249099D01*
X133163D01*
X83668Y264001D02*
Y267999D01*
X85668D01*
X86334Y267333D01*
Y266000D01*
X85668Y265334D01*
X83668D01*
X85001D02*
X86334Y264001D01*
X90333D02*
X87667D01*
X90333Y266666D01*
Y267333D01*
X89666Y267999D01*
X88334D01*
X87667Y267333D01*
X91666D02*
X92332Y267999D01*
X93665D01*
X94332Y267333D01*
Y266666D01*
X93665Y266000D01*
X92999D01*
X93665D01*
X94332Y265334D01*
Y264667D01*
X93665Y264001D01*
X92332D01*
X91666Y264667D01*
X58168Y264001D02*
Y267999D01*
X60168D01*
X60834Y267333D01*
Y266000D01*
X60168Y265334D01*
X58168D01*
X59501D02*
X60834Y264001D01*
X64833D02*
X62167D01*
X64833Y266666D01*
Y267333D01*
X64166Y267999D01*
X62834D01*
X62167Y267333D01*
X68832Y264001D02*
X66166D01*
X68832Y266666D01*
Y267333D01*
X68165Y267999D01*
X66832D01*
X66166Y267333D01*
X34335Y279001D02*
Y282999D01*
X36334D01*
X37001Y282333D01*
Y281000D01*
X36334Y280334D01*
X34335D01*
X35668D02*
X37001Y279001D01*
X40999D02*
X38334D01*
X40999Y281666D01*
Y282333D01*
X40333Y282999D01*
X39000D01*
X38334Y282333D01*
X42332Y279001D02*
X43665D01*
X42999D01*
Y282999D01*
X42332Y282333D01*
X43000Y264600D02*
Y268599D01*
X44999D01*
X45666Y267932D01*
Y266599D01*
X44999Y265933D01*
X43000D01*
X44333D02*
X45666Y264600D01*
X49665D02*
X46999D01*
X49665Y267266D01*
Y267932D01*
X48998Y268599D01*
X47665D01*
X46999Y267932D01*
X50997D02*
X51664Y268599D01*
X52997D01*
X53663Y267932D01*
Y265266D01*
X52997Y264600D01*
X51664D01*
X50997Y265266D01*
Y267932D01*
X113502Y229001D02*
Y232999D01*
X115501D01*
X116167Y232333D01*
Y231000D01*
X115501Y230334D01*
X113502D01*
X114834D02*
X116167Y229001D01*
X117500D02*
X118833D01*
X118167D01*
Y232999D01*
X117500Y232333D01*
X120833Y229667D02*
X121499Y229001D01*
X122832D01*
X123498Y229667D01*
Y232333D01*
X122832Y232999D01*
X121499D01*
X120833Y232333D01*
Y231666D01*
X121499Y231000D01*
X123498D01*
X101002Y229001D02*
Y232999D01*
X103001D01*
X103667Y232333D01*
Y231000D01*
X103001Y230334D01*
X101002D01*
X102334D02*
X103667Y229001D01*
X105000D02*
X106333D01*
X105667D01*
Y232999D01*
X105000Y232333D01*
X108333D02*
X108999Y232999D01*
X110332D01*
X110998Y232333D01*
Y231666D01*
X110332Y231000D01*
X110998Y230334D01*
Y229667D01*
X110332Y229001D01*
X108999D01*
X108333Y229667D01*
Y230334D01*
X108999Y231000D01*
X108333Y231666D01*
Y232333D01*
X108999Y231000D02*
X110332D01*
X87002Y228501D02*
Y232499D01*
X89001D01*
X89667Y231833D01*
Y230500D01*
X89001Y229834D01*
X87002D01*
X88335D02*
X89667Y228501D01*
X91000D02*
X92333D01*
X91667D01*
Y232499D01*
X91000Y231833D01*
X94333Y232499D02*
X96998D01*
Y231833D01*
X94333Y229167D01*
Y228501D01*
X234000Y292600D02*
Y296599D01*
X235999D01*
X236666Y295932D01*
Y294599D01*
X235999Y293933D01*
X234000D01*
X235333D02*
X236666Y292600D01*
X237999D02*
X239332D01*
X238665D01*
Y296599D01*
X237999Y295932D01*
X164168Y63001D02*
Y66999D01*
X166167D01*
X166834Y66333D01*
Y65000D01*
X166167Y64334D01*
X164168D01*
X168167Y63001D02*
X169500D01*
X168833D01*
Y66999D01*
X168167Y66333D01*
X171499Y63001D02*
X172832D01*
X172166D01*
Y66999D01*
X171499Y66333D01*
X109502Y62501D02*
Y66499D01*
X111501D01*
X112167Y65833D01*
Y64500D01*
X111501Y63834D01*
X109502D01*
X113500Y62501D02*
X114833D01*
X114167D01*
Y66499D01*
X113500Y65833D01*
X116833D02*
X117499Y66499D01*
X118832D01*
X119498Y65833D01*
Y63167D01*
X118832Y62501D01*
X117499D01*
X116833Y63167D01*
Y65833D01*
X59168Y62501D02*
Y66499D01*
X61167D01*
X61834Y65833D01*
Y64500D01*
X61167Y63834D01*
X59168D01*
X63166Y63167D02*
X63833Y62501D01*
X65166D01*
X65832Y63167D01*
Y65833D01*
X65166Y66499D01*
X63833D01*
X63166Y65833D01*
Y65166D01*
X63833Y64500D01*
X65832D01*
X15168Y44501D02*
Y48499D01*
X17167D01*
X17833Y47833D01*
Y46500D01*
X17167Y45834D01*
X15168D01*
X19166Y48499D02*
X21832D01*
Y47833D01*
X19166Y45167D01*
Y44501D01*
X82100Y164400D02*
Y168399D01*
X84099D01*
X84766Y167732D01*
Y166399D01*
X84099Y165733D01*
X82100D01*
X88765Y168399D02*
X87432Y167732D01*
X86099Y166399D01*
Y165067D01*
X86765Y164400D01*
X88098D01*
X88765Y165067D01*
Y165733D01*
X88098Y166399D01*
X86099D01*
X168668Y297001D02*
Y300999D01*
X170667D01*
X171334Y300333D01*
Y299000D01*
X170667Y298334D01*
X168668D01*
X175332Y300999D02*
X172667D01*
Y299000D01*
X173999Y299666D01*
X174666D01*
X175332Y299000D01*
Y297667D01*
X174666Y297001D01*
X173333D01*
X172667Y297667D01*
X38168Y297501D02*
Y301499D01*
X40167D01*
X40834Y300833D01*
Y299500D01*
X40167Y298834D01*
X38168D01*
X44166Y297501D02*
Y301499D01*
X42167Y299500D01*
X44832D01*
X95168Y302001D02*
Y305999D01*
X97167D01*
X97834Y305333D01*
Y304000D01*
X97167Y303334D01*
X95168D01*
X99167Y305333D02*
X99833Y305999D01*
X101166D01*
X101832Y305333D01*
Y304666D01*
X101166Y304000D01*
X100499D01*
X101166D01*
X101832Y303334D01*
Y302667D01*
X101166Y302001D01*
X99833D01*
X99167Y302667D01*
X134668Y302001D02*
Y305999D01*
X136667D01*
X137334Y305333D01*
Y304000D01*
X136667Y303334D01*
X134668D01*
X141332Y302001D02*
X138666D01*
X141332Y304666D01*
Y305333D01*
X140666Y305999D01*
X139333D01*
X138666Y305333D01*
X69400Y122800D02*
Y126799D01*
X71399D01*
X72066Y126132D01*
Y124799D01*
X71399Y124133D01*
X69400D01*
X73399Y122800D02*
X74732D01*
X74065D01*
Y126799D01*
X73399Y126132D01*
X100800Y267999D02*
Y264000D01*
X103466D01*
X107465Y267999D02*
X104799D01*
Y264000D01*
X107465D01*
X104799Y265999D02*
X106132D01*
X108797Y267999D02*
Y264000D01*
X110797D01*
X111463Y264666D01*
Y267332D01*
X110797Y267999D01*
X108797D01*
X114795Y264000D02*
Y267999D01*
X112796Y265999D01*
X115462D01*
X101300Y251499D02*
Y247500D01*
X103966D01*
X107965Y251499D02*
X105299D01*
Y247500D01*
X107965D01*
X105299Y249499D02*
X106632D01*
X109297Y251499D02*
Y247500D01*
X111297D01*
X111963Y248166D01*
Y250832D01*
X111297Y251499D01*
X109297D01*
X113296Y250832D02*
X113963Y251499D01*
X115296D01*
X115962Y250832D01*
Y250166D01*
X115296Y249499D01*
X114629D01*
X115296D01*
X115962Y248833D01*
Y248166D01*
X115296Y247500D01*
X113963D01*
X113296Y248166D01*
X252169Y112999D02*
Y109001D01*
X254835D01*
X258834Y112999D02*
X256168D01*
Y109001D01*
X258834D01*
X256168Y111000D02*
X257501D01*
X260167Y112999D02*
Y109001D01*
X262166D01*
X262832Y109667D01*
Y112333D01*
X262166Y112999D01*
X260167D01*
X266831Y109001D02*
X264165D01*
X266831Y111667D01*
Y112333D01*
X266164Y112999D01*
X264832D01*
X264165Y112333D01*
X266835Y288499D02*
Y284501D01*
X269501D01*
X273500Y288499D02*
X270834D01*
Y284501D01*
X273500D01*
X270834Y286500D02*
X272167D01*
X274833Y288499D02*
Y284501D01*
X276832D01*
X277499Y285167D01*
Y287833D01*
X276832Y288499D01*
X274833D01*
X278832Y284501D02*
X280165D01*
X279498D01*
Y288499D01*
X278832Y287833D01*
X51834Y224333D02*
X51168Y224999D01*
X49835D01*
X49168Y224333D01*
Y221667D01*
X49835Y221001D01*
X51168D01*
X51834Y221667D01*
X55833Y221001D02*
X53167D01*
X55833Y223666D01*
Y224333D01*
X55166Y224999D01*
X53834D01*
X53167Y224333D01*
X57166D02*
X57832Y224999D01*
X59165D01*
X59832Y224333D01*
Y223666D01*
X59165Y223000D01*
X59832Y222334D01*
Y221667D01*
X59165Y221001D01*
X57832D01*
X57166Y221667D01*
Y222334D01*
X57832Y223000D01*
X57166Y223666D01*
Y224333D01*
X57832Y223000D02*
X59165D01*
X52334Y246833D02*
X51668Y247499D01*
X50335D01*
X49668Y246833D01*
Y244167D01*
X50335Y243501D01*
X51668D01*
X52334Y244167D01*
X56333Y243501D02*
X53667D01*
X56333Y246166D01*
Y246833D01*
X55666Y247499D01*
X54334D01*
X53667Y246833D01*
X57666Y247499D02*
X60332D01*
Y246833D01*
X57666Y244167D01*
Y243501D01*
X81334Y212833D02*
X80668Y213499D01*
X79335D01*
X78668Y212833D01*
Y210167D01*
X79335Y209501D01*
X80668D01*
X81334Y210167D01*
X85333Y209501D02*
X82667D01*
X85333Y212166D01*
Y212833D01*
X84666Y213499D01*
X83334D01*
X82667Y212833D01*
X89332Y213499D02*
X87999Y212833D01*
X86666Y211500D01*
Y210167D01*
X87332Y209501D01*
X88665D01*
X89332Y210167D01*
Y210834D01*
X88665Y211500D01*
X86666D01*
X67834Y212833D02*
X67168Y213499D01*
X65835D01*
X65168Y212833D01*
Y210167D01*
X65835Y209501D01*
X67168D01*
X67834Y210167D01*
X71833Y209501D02*
X69167D01*
X71833Y212166D01*
Y212833D01*
X71166Y213499D01*
X69834D01*
X69167Y212833D01*
X75832Y213499D02*
X73166D01*
Y211500D01*
X74499Y212166D01*
X75165D01*
X75832Y211500D01*
Y210167D01*
X75165Y209501D01*
X73832D01*
X73166Y210167D01*
X146366Y185332D02*
X145699Y185999D01*
X144367D01*
X143700Y185332D01*
Y182667D01*
X144367Y182000D01*
X145699D01*
X146366Y182667D01*
X147699Y182000D02*
X149032D01*
X148365D01*
Y185999D01*
X147699Y185332D01*
X151031Y185999D02*
X153697D01*
Y185332D01*
X151031Y182667D01*
Y182000D01*
X146366Y210832D02*
X145699Y211499D01*
X144367D01*
X143700Y210832D01*
Y208166D01*
X144367Y207500D01*
X145699D01*
X146366Y208166D01*
X147699Y207500D02*
X149032D01*
X148365D01*
Y211499D01*
X147699Y210832D01*
X153697Y211499D02*
X152364Y210832D01*
X151031Y209499D01*
Y208166D01*
X151697Y207500D01*
X153030D01*
X153697Y208166D01*
Y208833D01*
X153030Y209499D01*
X151031D01*
X146366Y230832D02*
X145699Y231499D01*
X144367D01*
X143700Y230832D01*
Y228166D01*
X144367Y227500D01*
X145699D01*
X146366Y228166D01*
X147699Y227500D02*
X149032D01*
X148365D01*
Y231499D01*
X147699Y230832D01*
X153697Y231499D02*
X151031D01*
Y229499D01*
X152364Y230166D01*
X153030D01*
X153697Y229499D01*
Y228166D01*
X153030Y227500D01*
X151697D01*
X151031Y228166D01*
X157967Y269514D02*
X157301Y270181D01*
X155968D01*
X155302Y269514D01*
Y266848D01*
X155968Y266182D01*
X157301D01*
X157967Y266848D01*
X159300Y266182D02*
X160633D01*
X159967D01*
Y270181D01*
X159300Y269514D01*
X164632Y266182D02*
Y270181D01*
X162633Y268181D01*
X165298D01*
X185667Y269833D02*
X185001Y270499D01*
X183668D01*
X183002Y269833D01*
Y267167D01*
X183668Y266501D01*
X185001D01*
X185667Y267167D01*
X187000Y266501D02*
X188333D01*
X187667D01*
Y270499D01*
X187000Y269833D01*
X190333D02*
X190999Y270499D01*
X192332D01*
X192998Y269833D01*
Y269166D01*
X192332Y268500D01*
X191665D01*
X192332D01*
X192998Y267834D01*
Y267167D01*
X192332Y266501D01*
X190999D01*
X190333Y267167D01*
X208667Y269833D02*
X208001Y270499D01*
X206668D01*
X206002Y269833D01*
Y267167D01*
X206668Y266501D01*
X208001D01*
X208667Y267167D01*
X210000Y266501D02*
X211333D01*
X210667D01*
Y270499D01*
X210000Y269833D01*
X215998Y266501D02*
X213333D01*
X215998Y269166D01*
Y269833D01*
X215332Y270499D01*
X213999D01*
X213333Y269833D01*
X266366Y248332D02*
X265699Y248999D01*
X264366D01*
X263700Y248332D01*
Y245666D01*
X264366Y245000D01*
X265699D01*
X266366Y245666D01*
X267699Y245000D02*
X269032D01*
X268365D01*
Y248999D01*
X267699Y248332D01*
X271031Y245000D02*
X272364D01*
X271697D01*
Y248999D01*
X271031Y248332D01*
X266366Y234332D02*
X265699Y234999D01*
X264366D01*
X263700Y234332D01*
Y231666D01*
X264366Y231000D01*
X265699D01*
X266366Y231666D01*
X267699Y231000D02*
X269032D01*
X268365D01*
Y234999D01*
X267699Y234332D01*
X271031D02*
X271697Y234999D01*
X273030D01*
X273697Y234332D01*
Y231666D01*
X273030Y231000D01*
X271697D01*
X271031Y231666D01*
Y234332D01*
X266666Y215032D02*
X265999Y215699D01*
X264666D01*
X264000Y215032D01*
Y212366D01*
X264666Y211700D01*
X265999D01*
X266666Y212366D01*
X267999D02*
X268665Y211700D01*
X269998D01*
X270665Y212366D01*
Y215032D01*
X269998Y215699D01*
X268665D01*
X267999Y215032D01*
Y214366D01*
X268665Y213699D01*
X270665D01*
X266366Y189332D02*
X265699Y189999D01*
X264366D01*
X263700Y189332D01*
Y186667D01*
X264366Y186000D01*
X265699D01*
X266366Y186667D01*
X267699Y189332D02*
X268365Y189999D01*
X269698D01*
X270364Y189332D01*
Y188666D01*
X269698Y187999D01*
X270364Y187333D01*
Y186667D01*
X269698Y186000D01*
X268365D01*
X267699Y186667D01*
Y187333D01*
X268365Y187999D01*
X267699Y188666D01*
Y189332D01*
X268365Y187999D02*
X269698D01*
X242334Y160833D02*
X241667Y161499D01*
X240334D01*
X239668Y160833D01*
Y158167D01*
X240334Y157501D01*
X241667D01*
X242334Y158167D01*
X243667Y161499D02*
X246332D01*
Y160833D01*
X243667Y158167D01*
Y157501D01*
X231334Y160833D02*
X230667Y161499D01*
X229334D01*
X228668Y160833D01*
Y158167D01*
X229334Y157501D01*
X230667D01*
X231334Y158167D01*
X235332Y161499D02*
X233999Y160833D01*
X232666Y159500D01*
Y158167D01*
X233333Y157501D01*
X234666D01*
X235332Y158167D01*
Y158834D01*
X234666Y159500D01*
X232666D01*
X221834Y160833D02*
X221167Y161499D01*
X219834D01*
X219168Y160833D01*
Y158167D01*
X219834Y157501D01*
X221167D01*
X221834Y158167D01*
X225832Y161499D02*
X223166D01*
Y159500D01*
X224499Y160167D01*
X225166D01*
X225832Y159500D01*
Y158167D01*
X225166Y157501D01*
X223833D01*
X223166Y158167D01*
X205334Y160833D02*
X204667Y161499D01*
X203334D01*
X202668Y160833D01*
Y158167D01*
X203334Y157501D01*
X204667D01*
X205334Y158167D01*
X208666Y157501D02*
Y161499D01*
X206666Y159500D01*
X209332D01*
X182834Y160833D02*
X182167Y161499D01*
X180834D01*
X180168Y160833D01*
Y158167D01*
X180834Y157501D01*
X182167D01*
X182834Y158167D01*
X184167Y160833D02*
X184833Y161499D01*
X186166D01*
X186832Y160833D01*
Y160167D01*
X186166Y159500D01*
X185499D01*
X186166D01*
X186832Y158834D01*
Y158167D01*
X186166Y157501D01*
X184833D01*
X184167Y158167D01*
M02*
