G04*
G04 #@! TF.GenerationSoftware,Altium Limited,Altium Designer,22.9.1 (49)*
G04*
G04 Layer_Physical_Order=2*
G04 Layer_Color=32768*
%FSLAX25Y25*%
%MOIN*%
G70*
G04*
G04 #@! TF.SameCoordinates,F30A270F-9CF5-405F-8EA2-704C6F89508A*
G04*
G04*
G04 #@! TF.FilePolarity,Negative*
G04*
G01*
G75*
%ADD14C,0.01000*%
%ADD62C,0.04000*%
%ADD63C,0.08331*%
G04:AMPARAMS|DCode=64|XSize=103.307mil|YSize=103.307mil|CornerRadius=0mil|HoleSize=0mil|Usage=FLASHONLY|Rotation=0.000|XOffset=0mil|YOffset=0mil|HoleType=Round|Shape=Relief|Width=10mil|Gap=10mil|Entries=4|*
%AMTHD64*
7,0,0,0.10331,0.08331,0.01000,45*
%
%ADD64THD64*%
G04:AMPARAMS|DCode=65|XSize=99.37mil|YSize=99.37mil|CornerRadius=0mil|HoleSize=0mil|Usage=FLASHONLY|Rotation=0.000|XOffset=0mil|YOffset=0mil|HoleType=Round|Shape=Relief|Width=10mil|Gap=10mil|Entries=4|*
%AMTHD65*
7,0,0,0.09937,0.07937,0.01000,45*
%
%ADD65THD65*%
%ADD66C,0.07937*%
%ADD67C,0.06559*%
%ADD68C,0.08528*%
G04:AMPARAMS|DCode=69|XSize=105.276mil|YSize=105.276mil|CornerRadius=0mil|HoleSize=0mil|Usage=FLASHONLY|Rotation=0.000|XOffset=0mil|YOffset=0mil|HoleType=Round|Shape=Relief|Width=10mil|Gap=10mil|Entries=4|*
%AMTHD69*
7,0,0,0.10528,0.08528,0.01000,45*
%
%ADD69THD69*%
%ADD70C,0.07347*%
G04:AMPARAMS|DCode=71|XSize=95.433mil|YSize=95.433mil|CornerRadius=0mil|HoleSize=0mil|Usage=FLASHONLY|Rotation=0.000|XOffset=0mil|YOffset=0mil|HoleType=Round|Shape=Relief|Width=10mil|Gap=10mil|Entries=4|*
%AMTHD71*
7,0,0,0.09543,0.07543,0.01000,45*
%
%ADD71THD71*%
%ADD72C,0.07543*%
%ADD73C,0.05500*%
G04:AMPARAMS|DCode=74|XSize=75mil|YSize=75mil|CornerRadius=0mil|HoleSize=0mil|Usage=FLASHONLY|Rotation=0.000|XOffset=0mil|YOffset=0mil|HoleType=Round|Shape=Relief|Width=10mil|Gap=10mil|Entries=4|*
%AMTHD74*
7,0,0,0.07500,0.05500,0.01000,45*
%
%ADD74THD74*%
G36*
X299458Y290308D02*
X300368Y289931D01*
X301187Y289384D01*
X301884Y288687D01*
X302431Y287868D01*
X302808Y286958D01*
X303000Y285993D01*
Y285500D01*
Y285008D01*
X302808Y284042D01*
X302431Y283132D01*
X301884Y282313D01*
X301187Y281616D01*
X300368Y281069D01*
X299458Y280692D01*
X298493Y280500D01*
X297508D01*
X296542Y280692D01*
X295632Y281069D01*
X294813Y281616D01*
X294116Y282313D01*
X293569Y283132D01*
X293192Y284042D01*
X293000Y285008D01*
Y285500D01*
Y285993D01*
X293192Y286958D01*
X293569Y287868D01*
X294116Y288687D01*
X294813Y289384D01*
X295632Y289931D01*
X296542Y290308D01*
X297508Y290500D01*
X298493D01*
X299458Y290308D01*
D02*
G37*
G36*
X24458D02*
X25368Y289931D01*
X26187Y289384D01*
X26884Y288687D01*
X27431Y287868D01*
X27808Y286958D01*
X28000Y285993D01*
Y285500D01*
Y285008D01*
X27808Y284042D01*
X27431Y283132D01*
X26884Y282313D01*
X26187Y281616D01*
X25368Y281069D01*
X24458Y280692D01*
X23492Y280500D01*
X22508D01*
X21542Y280692D01*
X20632Y281069D01*
X19813Y281616D01*
X19116Y282313D01*
X18569Y283132D01*
X18192Y284042D01*
X18000Y285008D01*
Y285500D01*
Y285993D01*
X18192Y286958D01*
X18569Y287868D01*
X19116Y288687D01*
X19813Y289384D01*
X20632Y289931D01*
X21542Y290308D01*
X22508Y290500D01*
X23492D01*
X24458Y290308D01*
D02*
G37*
G36*
X299458Y35308D02*
X300368Y34931D01*
X301187Y34384D01*
X301884Y33687D01*
X302431Y32868D01*
X302808Y31958D01*
X303000Y30992D01*
Y30500D01*
Y30007D01*
X302808Y29042D01*
X302431Y28132D01*
X301884Y27313D01*
X301187Y26616D01*
X300368Y26069D01*
X299458Y25692D01*
X298493Y25500D01*
X297508D01*
X296542Y25692D01*
X295632Y26069D01*
X294813Y26616D01*
X294116Y27313D01*
X293569Y28132D01*
X293192Y29042D01*
X293000Y30007D01*
Y30500D01*
Y30992D01*
X293192Y31958D01*
X293569Y32868D01*
X294116Y33687D01*
X294813Y34384D01*
X295632Y34931D01*
X296542Y35308D01*
X297508Y35500D01*
X298493D01*
X299458Y35308D01*
D02*
G37*
G36*
X24458D02*
X25368Y34931D01*
X26187Y34384D01*
X26884Y33687D01*
X27431Y32868D01*
X27808Y31958D01*
X28000Y30992D01*
Y30500D01*
Y30007D01*
X27808Y29042D01*
X27431Y28132D01*
X26884Y27313D01*
X26187Y26616D01*
X25368Y26069D01*
X24458Y25692D01*
X23492Y25500D01*
X22508D01*
X21542Y25692D01*
X20632Y26069D01*
X19813Y26616D01*
X19116Y27313D01*
X18569Y28132D01*
X18192Y29042D01*
X18000Y30007D01*
Y30500D01*
Y30992D01*
X18192Y31958D01*
X18569Y32868D01*
X19116Y33687D01*
X19813Y34384D01*
X20632Y34931D01*
X21542Y35308D01*
X22508Y35500D01*
X23492D01*
X24458Y35308D01*
D02*
G37*
D14*
X263500Y89500D02*
Y91500D01*
X259500Y87500D02*
X261500D01*
X57000Y227000D02*
X60000Y224000D01*
X57000Y227000D02*
Y242500D01*
X59500Y245000D01*
X68500D01*
X70500Y243000D01*
Y237500D02*
Y243000D01*
Y237500D02*
X73500Y234500D01*
X60000Y224000D02*
X108000D01*
X80500Y171500D02*
X83000Y169000D01*
X97000D01*
X101500Y164500D01*
X108000Y224000D02*
X110500Y221500D01*
X125500D01*
X135000Y231000D01*
X80500Y187000D02*
X83500Y190000D01*
X80500Y171500D02*
Y187000D01*
X83500Y190000D02*
X119500D01*
X124500Y185000D01*
X265000Y14500D02*
X270000Y19500D01*
Y43500D01*
X267500Y46000D02*
X270000Y43500D01*
X241500Y46000D02*
X267500D01*
X221000Y45500D02*
X225500Y50000D01*
X236500Y51000D02*
X241500Y46000D01*
X225500Y50000D02*
Y71500D01*
X236500Y51000D02*
Y71000D01*
X234000Y73500D02*
X236500Y71000D01*
X225500Y71500D02*
X227500Y73500D01*
X234000D01*
X243500Y80500D02*
X249500Y86500D01*
X250500Y87500D01*
X259500D01*
X261500D02*
X263500Y89500D01*
Y91500D02*
Y101500D01*
X262500Y102500D02*
X263500Y101500D01*
X254000Y102500D02*
X262500D01*
X242000Y114500D02*
X254000Y102500D01*
X63500Y19000D02*
X68000Y14500D01*
X63500Y19000D02*
Y70000D01*
X67500Y74000D01*
X74500D01*
X77500Y71000D01*
Y49500D02*
Y71000D01*
Y49500D02*
X81500Y45500D01*
X115500D01*
X120500Y50500D01*
Y70500D01*
X122500Y72500D01*
X129000D01*
X131000Y70500D01*
Y49500D02*
Y70500D01*
Y49500D02*
X135000Y45500D01*
X168500D01*
X68000Y14500D02*
X265000D01*
X168500Y45500D02*
X174000Y51000D01*
Y69500D01*
X177000Y72500D01*
X183000D02*
X185500Y70000D01*
Y50000D02*
Y70000D01*
Y50000D02*
X190000Y45500D01*
X221000D01*
X101500Y86500D02*
Y164500D01*
Y86500D02*
X107500Y80500D01*
X124500Y125500D02*
Y185000D01*
Y125500D02*
X135500Y114500D01*
X143000D01*
X107500Y80500D02*
X243500D01*
X177000Y72500D02*
X183000D01*
X143000Y114500D02*
X242000D01*
X73500Y234500D02*
X119500D01*
X122000Y237000D01*
Y259500D01*
X124500Y262000D01*
X135000Y231000D02*
Y259500D01*
X124500Y262000D02*
X132500D01*
X135000Y259500D01*
D62*
X299458Y35308D02*
X300368Y34931D01*
X301187Y34384D01*
X301884Y33687D01*
X302431Y32868D01*
X302808Y31958D01*
X303000Y30992D01*
Y30500D02*
Y30992D01*
Y30007D02*
Y30500D01*
X302808Y29042D02*
X303000Y30007D01*
X302431Y28132D02*
X302808Y29042D01*
X301884Y27313D02*
X302431Y28132D01*
X301187Y26616D02*
X301884Y27313D01*
X300368Y26069D02*
X301187Y26616D01*
X299458Y25692D02*
X300368Y26069D01*
X298493Y290500D02*
X299458Y290308D01*
X300368Y289931D01*
X301187Y289384D01*
X301884Y288687D01*
X302431Y287868D01*
X302808Y286958D01*
X303000Y285993D01*
Y285500D02*
Y285993D01*
Y285008D02*
Y285500D01*
X302808Y284042D02*
X303000Y285008D01*
X302431Y283132D02*
X302808Y284042D01*
X301884Y282313D02*
X302431Y283132D01*
X301187Y281616D02*
X301884Y282313D01*
X300368Y281069D02*
X301187Y281616D01*
X299458Y280692D02*
X300368Y281069D01*
X294813Y289384D02*
X295632Y289931D01*
X296542Y290308D01*
X297508Y290500D01*
X298493D01*
X295500Y310500D02*
X310500Y295500D01*
X25500Y310500D02*
X295500D01*
X10500Y295500D02*
X25500Y310500D01*
X10500Y25500D02*
Y295500D01*
Y25500D02*
X25500Y10500D01*
X295500Y10500D01*
X310500Y25500D01*
Y295500D01*
X23492Y35500D02*
X24458Y35308D01*
X25368Y34931D01*
X26187Y34384D01*
X26884Y33687D01*
X27431Y32868D01*
X27808Y31958D01*
X28000Y30992D01*
Y30500D02*
Y30992D01*
Y30007D02*
Y30500D01*
X27808Y29042D02*
X28000Y30007D01*
X27431Y28132D02*
X27808Y29042D01*
X26884Y27313D02*
X27431Y28132D01*
X26187Y26616D02*
X26884Y27313D01*
X25368Y26069D02*
X26187Y26616D01*
X24458Y25692D02*
X25368Y26069D01*
X23492Y25500D02*
X24458Y25692D01*
X22508Y25500D02*
X23492D01*
X21542Y25692D02*
X22508Y25500D01*
X20632Y26069D02*
X21542Y25692D01*
X19813Y26616D02*
X20632Y26069D01*
X19116Y27313D02*
X19813Y26616D01*
X18569Y28132D02*
X19116Y27313D01*
X18192Y29042D02*
X18569Y28132D01*
X18000Y30007D02*
X18192Y29042D01*
X18000Y30007D02*
Y30500D01*
Y30992D01*
X18192Y31958D01*
X18569Y32868D01*
X19116Y33687D01*
X19813Y34384D01*
X20632Y34931D01*
X21542Y35308D01*
X22508Y35500D01*
X23492D01*
Y290500D02*
X24458Y290308D01*
X25368Y289931D01*
X26187Y289384D01*
X26884Y288687D01*
X27431Y287868D01*
X27808Y286958D01*
X28000Y285993D01*
Y285500D02*
Y285993D01*
Y285008D02*
Y285500D01*
X27808Y284042D02*
X28000Y285008D01*
X27431Y283132D02*
X27808Y284042D01*
X26884Y282313D02*
X27431Y283132D01*
X26187Y281616D02*
X26884Y282313D01*
X25368Y281069D02*
X26187Y281616D01*
X24458Y280692D02*
X25368Y281069D01*
X23492Y280500D02*
X24458Y280692D01*
X22508Y280500D02*
X23492D01*
X21542Y280692D02*
X22508Y280500D01*
X20632Y281069D02*
X21542Y280692D01*
X19813Y281616D02*
X20632Y281069D01*
X19116Y282313D02*
X19813Y281616D01*
X18569Y283132D02*
X19116Y282313D01*
X18192Y284042D02*
X18569Y283132D01*
X18000Y285008D02*
X18192Y284042D01*
X18000Y285008D02*
Y285500D01*
Y285993D01*
X18192Y286958D01*
X18569Y287868D01*
X19116Y288687D01*
X19813Y289384D01*
X20632Y289931D01*
X21542Y290308D01*
X22508Y290500D01*
X23492D01*
X298493Y25500D02*
X299458Y25692D01*
X297508Y25500D02*
X298493D01*
X296542Y25692D02*
X297508Y25500D01*
X295632Y26069D02*
X296542Y25692D01*
X294813Y26616D02*
X295632Y26069D01*
X294116Y27313D02*
X294813Y26616D01*
X293569Y28132D02*
X294116Y27313D01*
X293192Y29042D02*
X293569Y28132D01*
X293000Y30007D02*
X293192Y29042D01*
X293000Y30007D02*
Y30500D01*
Y30992D01*
X293192Y31958D01*
X293569Y32868D01*
X294116Y33687D01*
X294813Y34384D01*
X295632Y34931D01*
X296542Y35308D01*
X297508Y35500D01*
X298493D01*
X299458Y35308D01*
X298493Y280500D02*
X299458Y280692D01*
X297508Y280500D02*
X298493D01*
X296542Y280692D02*
X297508Y280500D01*
X295632Y281069D02*
X296542Y280692D01*
X294813Y281616D02*
X295632Y281069D01*
X294116Y282313D02*
X294813Y281616D01*
X293569Y283132D02*
X294116Y282313D01*
X293192Y284042D02*
X293569Y283132D01*
X293000Y285008D02*
X293192Y284042D01*
X293000Y285008D02*
Y285500D01*
Y285993D01*
X293192Y286958D01*
X293569Y287868D01*
X294116Y288687D01*
X294813Y289384D01*
D63*
X257500Y83000D02*
D03*
D64*
Y93000D02*
D03*
D65*
X125700Y67831D02*
D03*
X179700D02*
D03*
X231200D02*
D03*
X72000D02*
D03*
D66*
X135700D02*
D03*
X145700D02*
D03*
X155700D02*
D03*
X189700D02*
D03*
X199700D02*
D03*
X209700D02*
D03*
X241200D02*
D03*
X251200D02*
D03*
X261200D02*
D03*
X82000D02*
D03*
X92000D02*
D03*
X102000D02*
D03*
D67*
X31248Y176878D02*
D03*
Y154122D02*
D03*
D68*
X34000Y112500D02*
D03*
X44000D02*
D03*
X34000Y102500D02*
D03*
X44000D02*
D03*
X34000Y92500D02*
D03*
X44000D02*
D03*
X34000Y72500D02*
D03*
X44000D02*
D03*
D69*
X34000Y82500D02*
D03*
X44000D02*
D03*
D70*
X79500Y107000D02*
D03*
X89500D02*
D03*
X145000Y287500D02*
D03*
X155000D02*
D03*
X109500D02*
D03*
X119500D02*
D03*
D71*
X56000Y299000D02*
D03*
X106500Y156000D02*
D03*
X186500Y299000D02*
D03*
D72*
X66000D02*
D03*
X76000D02*
D03*
X86000D02*
D03*
X116500Y156000D02*
D03*
X96500D02*
D03*
X86500D02*
D03*
X196500Y299000D02*
D03*
X206500D02*
D03*
X216500D02*
D03*
D73*
X117000Y58000D02*
D03*
X247403Y56000D02*
D03*
X60000Y260500D02*
D03*
X71000Y131000D02*
D03*
X64000Y151000D02*
D03*
X214574Y131574D02*
D03*
X34000Y274500D02*
D03*
X60500Y275000D02*
D03*
X179500Y188000D02*
D03*
X209500D02*
D03*
X269500Y137500D02*
D03*
X94500Y177000D02*
D03*
X113500Y174000D02*
D03*
X68000Y190500D02*
D03*
X57500Y198000D02*
D03*
X112000Y271000D02*
D03*
X170000Y145500D02*
D03*
X243000Y121500D02*
D03*
Y128500D02*
D03*
X239000Y136500D02*
D03*
X232000D02*
D03*
X162000Y127000D02*
D03*
X169000Y120000D02*
D03*
X252000Y110000D02*
D03*
X50500Y162266D02*
D03*
X119501Y163501D02*
D03*
X89000Y194000D02*
D03*
X74000Y196500D02*
D03*
Y190500D02*
D03*
X221500Y217500D02*
D03*
Y223000D02*
D03*
Y229000D02*
D03*
X221250Y234250D02*
D03*
X50500Y183000D02*
D03*
X109500Y117000D02*
D03*
X148500Y215500D02*
D03*
X205000Y77000D02*
D03*
X169000Y75000D02*
D03*
X244500Y87500D02*
D03*
X151000Y151500D02*
D03*
X223500Y136500D02*
D03*
X209500Y141000D02*
D03*
X257000Y253000D02*
D03*
X50500Y171500D02*
D03*
X97500Y133000D02*
D03*
X117500Y134000D02*
D03*
X131000Y131000D02*
D03*
X132500Y122500D02*
D03*
X136000Y108500D02*
D03*
X67500Y219000D02*
D03*
X136500Y176000D02*
D03*
X151000Y191000D02*
D03*
X134000Y194500D02*
D03*
X134500Y206500D02*
D03*
Y222000D02*
D03*
X146500Y276500D02*
D03*
X205500Y109500D02*
D03*
X153000Y252500D02*
D03*
X245000Y33500D02*
D03*
X221000Y76000D02*
D03*
X232000Y94500D02*
D03*
X214500Y119500D02*
D03*
X246000Y151500D02*
D03*
X254000Y156000D02*
D03*
X229000Y180000D02*
D03*
X283000D02*
D03*
X175500Y237500D02*
D03*
X205500Y263500D02*
D03*
X179500Y194000D02*
D03*
X178500Y230000D02*
D03*
X180750Y241500D02*
D03*
X193000Y204500D02*
D03*
X199500Y226500D02*
D03*
X237000Y190500D02*
D03*
X283000Y206000D02*
D03*
X239500Y214000D02*
D03*
X283000Y221500D02*
D03*
X232000Y222500D02*
D03*
X283000Y232000D02*
D03*
X303000Y243000D02*
D03*
X224500Y244500D02*
D03*
X226500Y264000D02*
D03*
X206000Y273000D02*
D03*
X235500D02*
D03*
X205613Y279230D02*
D03*
X75000Y245500D02*
D03*
X102500Y230000D02*
D03*
X142000Y233000D02*
D03*
X139500Y246000D02*
D03*
X162000Y134000D02*
D03*
X193500Y130000D02*
D03*
X195500Y141500D02*
D03*
X272500Y105000D02*
D03*
D74*
X71000Y160000D02*
D03*
X102000Y17500D02*
D03*
X170000Y153500D02*
D03*
X143000Y133000D02*
D03*
X124000Y22000D02*
D03*
X267500Y216000D02*
D03*
X97000Y39000D02*
D03*
X71500Y55000D02*
D03*
X141000Y25000D02*
D03*
X220750Y159500D02*
D03*
X68000Y230500D02*
D03*
X94000Y184500D02*
D03*
X123000Y277000D02*
D03*
X158000Y171500D02*
D03*
X231000Y18000D02*
D03*
X251000Y33500D02*
D03*
X231000Y56500D02*
D03*
X211500Y157000D02*
D03*
X268000Y170000D02*
D03*
X175500Y207500D02*
D03*
X164500Y252730D02*
D03*
X176000Y222000D02*
D03*
X198500Y237000D02*
D03*
X268000Y195000D02*
D03*
X212000Y245000D02*
D03*
X268500Y258000D02*
D03*
X260500Y297500D02*
D03*
X126000Y229000D02*
D03*
X130500Y251500D02*
D03*
X97000Y267500D02*
D03*
M02*
