G04*
G04 #@! TF.GenerationSoftware,Altium Limited,Altium Designer,22.9.1 (49)*
G04*
G04 Layer_Color=16711935*
%FSLAX25Y25*%
%MOIN*%
G70*
G04*
G04 #@! TF.SameCoordinates,F30A270F-9CF5-405F-8EA2-704C6F89508A*
G04*
G04*
G04 #@! TF.FilePolarity,Negative*
G04*
G01*
G75*
%ADD36R,0.04343X0.04540*%
%ADD38R,0.04698X0.03871*%
%ADD41R,0.04540X0.04343*%
%ADD42C,0.07296*%
%ADD43R,0.07296X0.07296*%
%ADD44R,0.06706X0.06706*%
%ADD45C,0.06706*%
%ADD46C,0.02080*%
%ADD47R,0.07591X0.07591*%
%ADD48C,0.07591*%
%ADD49R,0.05820X0.05820*%
%ADD50C,0.05820*%
%ADD51C,0.03300*%
G04:AMPARAMS|DCode=85|XSize=39.54mil|YSize=125.28mil|CornerRadius=17.2mil|HoleSize=0mil|Usage=FLASHONLY|Rotation=180.000|XOffset=0mil|YOffset=0mil|HoleType=Round|Shape=RoundedRectangle|*
%AMROUNDEDRECTD85*
21,1,0.03954,0.09088,0,0,180.0*
21,1,0.00514,0.12528,0,0,180.0*
1,1,0.03440,-0.00257,0.04544*
1,1,0.03440,0.00257,0.04544*
1,1,0.03440,0.00257,-0.04544*
1,1,0.03440,-0.00257,-0.04544*
%
%ADD85ROUNDEDRECTD85*%
G04:AMPARAMS|DCode=86|XSize=39.54mil|YSize=34.34mil|CornerRadius=17.17mil|HoleSize=0mil|Usage=FLASHONLY|Rotation=180.000|XOffset=0mil|YOffset=0mil|HoleType=Round|Shape=RoundedRectangle|*
%AMROUNDEDRECTD86*
21,1,0.03954,0.00000,0,0,180.0*
21,1,0.00520,0.03434,0,0,180.0*
1,1,0.03434,-0.00260,0.00000*
1,1,0.03434,0.00260,0.00000*
1,1,0.03434,0.00260,0.00000*
1,1,0.03434,-0.00260,0.00000*
%
%ADD86ROUNDEDRECTD86*%
%ADD87R,0.03954X0.03434*%
%ADD88R,0.08674X0.03202*%
%ADD89R,0.14973X0.11351*%
%ADD90R,0.04540X0.04540*%
%ADD91R,0.03359X0.06804*%
%ADD92R,0.03556X0.03556*%
%ADD93R,0.09855X0.09461*%
%ADD94R,0.09580X0.07887*%
%ADD95R,0.03556X0.03556*%
%ADD96R,0.07887X0.09580*%
D36*
X64650Y137000D02*
D03*
X58350D02*
D03*
X137150Y84500D02*
D03*
X130850D02*
D03*
X189850Y188000D02*
D03*
X196150D02*
D03*
D38*
X198000Y118744D02*
D03*
Y124256D02*
D03*
X231000D02*
D03*
Y118744D02*
D03*
D41*
X83500Y174350D02*
D03*
Y180650D02*
D03*
X68500Y39650D02*
D03*
Y33350D02*
D03*
X131000D02*
D03*
Y39650D02*
D03*
X56500D02*
D03*
Y33350D02*
D03*
X141000D02*
D03*
Y39650D02*
D03*
X97070Y283701D02*
D03*
Y277402D02*
D03*
X104000Y180150D02*
D03*
Y173850D02*
D03*
X132500Y283650D02*
D03*
Y277350D02*
D03*
X184500Y118201D02*
D03*
Y124500D02*
D03*
X192000Y33350D02*
D03*
Y39650D02*
D03*
X202500Y33350D02*
D03*
Y39650D02*
D03*
X261000D02*
D03*
Y33350D02*
D03*
X271500D02*
D03*
Y39650D02*
D03*
X273000Y119000D02*
D03*
Y112701D02*
D03*
D42*
X257500Y83000D02*
D03*
D43*
Y93000D02*
D03*
D44*
X125700Y67831D02*
D03*
X179700D02*
D03*
X231200D02*
D03*
X72000D02*
D03*
X86000Y299000D02*
D03*
X116500Y156000D02*
D03*
X216500Y299000D02*
D03*
D45*
X135700Y67831D02*
D03*
X145700D02*
D03*
X155700D02*
D03*
X189700D02*
D03*
X199700D02*
D03*
X209700D02*
D03*
X241200D02*
D03*
X251200D02*
D03*
X261200D02*
D03*
X82000D02*
D03*
X92000D02*
D03*
X102000D02*
D03*
X56000Y299000D02*
D03*
X66000D02*
D03*
X76000D02*
D03*
X106500Y156000D02*
D03*
X96500D02*
D03*
X86500D02*
D03*
X186500Y299000D02*
D03*
X196500D02*
D03*
X206500D02*
D03*
D46*
X31248Y176878D02*
D03*
Y154122D02*
D03*
D47*
X34000Y112500D02*
D03*
D48*
X44000D02*
D03*
X34000Y102500D02*
D03*
X44000D02*
D03*
X34000Y92500D02*
D03*
X44000D02*
D03*
X34000Y82500D02*
D03*
X44000D02*
D03*
X34000Y72500D02*
D03*
X44000D02*
D03*
D49*
X79500Y107000D02*
D03*
X145000Y287500D02*
D03*
X109500D02*
D03*
D50*
X89500Y107000D02*
D03*
X155000Y287500D02*
D03*
X119500D02*
D03*
D51*
X117000Y58000D02*
D03*
X247403Y56000D02*
D03*
X60000Y260500D02*
D03*
X71000Y131000D02*
D03*
Y160000D02*
D03*
X64000Y151000D02*
D03*
X102000Y17500D02*
D03*
X214574Y131574D02*
D03*
X34000Y274500D02*
D03*
X60500Y275000D02*
D03*
X179500Y188000D02*
D03*
X209500D02*
D03*
X269500Y137500D02*
D03*
X94500Y177000D02*
D03*
X113500Y174000D02*
D03*
X68000Y190500D02*
D03*
X57500Y198000D02*
D03*
X112000Y271000D02*
D03*
X170000Y145500D02*
D03*
Y153500D02*
D03*
X243000Y121500D02*
D03*
Y128500D02*
D03*
X239000Y136500D02*
D03*
X232000D02*
D03*
X143000Y133000D02*
D03*
X162000Y127000D02*
D03*
X169000Y120000D02*
D03*
X252000Y110000D02*
D03*
X50500Y162266D02*
D03*
X119501Y163501D02*
D03*
X89000Y194000D02*
D03*
X74000Y196500D02*
D03*
Y190500D02*
D03*
X221500Y217500D02*
D03*
Y223000D02*
D03*
Y229000D02*
D03*
X221250Y234250D02*
D03*
X124000Y22000D02*
D03*
X50500Y183000D02*
D03*
X109500Y117000D02*
D03*
X267500Y216000D02*
D03*
X97000Y39000D02*
D03*
X71500Y55000D02*
D03*
X141000Y25000D02*
D03*
X148500Y215500D02*
D03*
X205000Y77000D02*
D03*
X169000Y75000D02*
D03*
X244500Y87500D02*
D03*
X151000Y151500D02*
D03*
X220750Y159500D02*
D03*
X223500Y136500D02*
D03*
X209500Y141000D02*
D03*
X257000Y253000D02*
D03*
X50500Y171500D02*
D03*
X97500Y133000D02*
D03*
X117500Y134000D02*
D03*
X131000Y131000D02*
D03*
X132500Y122500D02*
D03*
X136000Y108500D02*
D03*
X68000Y230500D02*
D03*
X67500Y219000D02*
D03*
X136500Y176000D02*
D03*
X94000Y184500D02*
D03*
X151000Y191000D02*
D03*
X134000Y194500D02*
D03*
X134500Y206500D02*
D03*
Y222000D02*
D03*
X146500Y276500D02*
D03*
X123000Y277000D02*
D03*
X205500Y109500D02*
D03*
X153000Y252500D02*
D03*
X158000Y171500D02*
D03*
X231000Y18000D02*
D03*
X245000Y33500D02*
D03*
X251000D02*
D03*
X231000Y56500D02*
D03*
X221000Y76000D02*
D03*
X232000Y94500D02*
D03*
X214500Y119500D02*
D03*
X246000Y151500D02*
D03*
X254000Y156000D02*
D03*
X211500Y157000D02*
D03*
X268000Y170000D02*
D03*
X229000Y180000D02*
D03*
X283000D02*
D03*
X175500Y237500D02*
D03*
Y207500D02*
D03*
X205500Y263500D02*
D03*
X179500Y194000D02*
D03*
X178500Y230000D02*
D03*
X164500Y252730D02*
D03*
X176000Y222000D02*
D03*
X180750Y241500D02*
D03*
X193000Y204500D02*
D03*
X198500Y237000D02*
D03*
X199500Y226500D02*
D03*
X237000Y190500D02*
D03*
X268000Y195000D02*
D03*
X283000Y206000D02*
D03*
X239500Y214000D02*
D03*
X283000Y221500D02*
D03*
X232000Y222500D02*
D03*
X283000Y232000D02*
D03*
X303000Y243000D02*
D03*
X224500Y244500D02*
D03*
X212000Y245000D02*
D03*
X268500Y258000D02*
D03*
X226500Y264000D02*
D03*
X206000Y273000D02*
D03*
X235500D02*
D03*
X205613Y279230D02*
D03*
X260500Y297500D02*
D03*
X75000Y245500D02*
D03*
X126000Y229000D02*
D03*
X102500Y230000D02*
D03*
X142000Y233000D02*
D03*
X139500Y246000D02*
D03*
X130500Y251500D02*
D03*
X97000Y267500D02*
D03*
X162000Y134000D02*
D03*
X193500Y130000D02*
D03*
X195500Y141500D02*
D03*
X272500Y105000D02*
D03*
D85*
X189000Y92500D02*
D03*
D86*
X214945Y83484D02*
D03*
Y92500D02*
D03*
D87*
Y101516D02*
D03*
D88*
X43598Y219721D02*
D03*
Y223657D02*
D03*
Y227594D02*
D03*
Y231532D02*
D03*
Y235469D02*
D03*
Y239405D02*
D03*
Y243342D02*
D03*
Y247280D02*
D03*
D89*
X32575Y207949D02*
D03*
Y259051D02*
D03*
D90*
X151500Y127000D02*
D03*
Y132905D02*
D03*
D91*
X82000Y25823D02*
D03*
X87000D02*
D03*
X92000D02*
D03*
X97000D02*
D03*
X102000D02*
D03*
X107000D02*
D03*
X112000D02*
D03*
Y47177D02*
D03*
X107000D02*
D03*
X102000D02*
D03*
X97000D02*
D03*
X92000D02*
D03*
X87000D02*
D03*
X82000D02*
D03*
X211000Y25823D02*
D03*
X216000D02*
D03*
X221000D02*
D03*
X226000D02*
D03*
X231000D02*
D03*
X236000D02*
D03*
X241000D02*
D03*
Y47177D02*
D03*
X236000D02*
D03*
X231000D02*
D03*
X226000D02*
D03*
X221000D02*
D03*
X216000D02*
D03*
X211000D02*
D03*
D92*
X87756Y137000D02*
D03*
X82244D02*
D03*
X131000D02*
D03*
X136512D02*
D03*
D93*
X169000Y83657D02*
D03*
Y103342D02*
D03*
X232000Y84158D02*
D03*
Y103842D02*
D03*
D94*
X187500Y216252D02*
D03*
Y227748D02*
D03*
D95*
X244500Y98244D02*
D03*
Y103756D02*
D03*
D96*
X292248Y243500D02*
D03*
X280752D02*
D03*
M02*
