M48
;Layer_Color=9474304
;FILE_FORMAT=2:5
INCH,LZ
;TYPE=PLATED
T1F00S00C0.01500
T2F00S00C0.03346
T3F00S00C0.03543
T4F00S00C0.03937
T5F00S00C0.04331
T6F00S00C0.04528
;TYPE=NON_PLATED
T7F00S00C0.02559
%
T01
X0102Y00175
X0124Y0022
X0141Y0025
X0097Y0039
X00715Y0055
X0071Y0131
X0064Y0151
X00975Y0133
X01175Y0134
X0131Y0131
X01325Y01225
X0136Y01085
X0143Y0133
X0151Y01515
X01095Y0117
X0162Y0127
Y0134
X017Y01455
Y01535
X0169Y012
X01935Y013
X01955Y01415
X02095Y0141
X0214574Y0131574
X02145Y01195
X02055Y01095
X0205Y0077
X0221Y0076
X0231Y00565
X0245Y00335
X0251
X0231Y0018
X0232Y00945
X02445Y00875
X0252Y011
X0243Y01215
Y01285
X0239Y01365
X0232
X02235
X0246Y01515
X0254Y0156
X02695Y01375
X02725Y0105
X0169Y0075
X0158Y01715
X01795Y0188
Y0194
X01755Y02075
X0176Y0222
X01785Y023
X01755Y02375
X018075Y02415
X01985Y0237
X01995Y02265
X02215Y0229
X022125Y023425
X02215Y0223
Y02175
X0232Y02225
X02395Y0214
X0237Y01905
X0229Y018
X02095Y0188
X02115Y0157
X022075Y01595
X0268Y017
X0283Y018
Y0206
Y02215
Y0232
X0303Y0243
X02685Y0258
X0257Y0253
X02245Y02445
X0212Y0245
X02055Y02635
X0206Y0273
X0205613Y027923
X02265Y0264
X02355Y0273
X02605Y02975
X02675Y0216
X0268Y0195
X0193Y02045
X01645Y025273
X0153Y02525
X01395Y0246
X01305Y02515
X0126Y0229
X01345Y0222
Y02065
X0134Y01945
X0151Y0191
X01485Y02155
X0142Y0233
X01025Y023
X0068Y02305
X00675Y0219
X0068Y01905
X0074
Y01965
X0089Y0194
X0094Y01845
X00945Y0177
X01135Y0174
X0119501Y0163501
X01365Y0176
X0071Y016
X00505Y0162266
Y01715
Y0183
X00575Y0198
X0075Y02455
X00605Y0275
X0034Y02745
X0097Y02675
X0112Y0271
X0123Y0277
X01465Y02765
T02
X00795Y0107
X00895
X01095Y02875
X01195
X0145
X0155
T03
X00865Y0156
X00965
X01065
X01165
X01865Y0299
X01965
X02065
X02165
X0086
X0076
X0066
X0056
T04
X0072Y0067831
X0082
X0092
X0102
X01257
X01357
X01457
X01557
X01797
X01897
X01997
X02097
X02312
X02412
X02512
X02612
T05
X02575Y0083
Y0093
T06
X0034Y00725
Y00825
Y00925
Y01025
Y01125
X0044
Y01025
Y00925
Y00825
Y00725
T07
X0031248Y0154122
Y0176878
M30
