G04*
G04 #@! TF.GenerationSoftware,Altium Limited,Altium Designer,22.9.1 (49)*
G04*
G04 Layer_Color=128*
%FSLAX25Y25*%
%MOIN*%
G70*
G04*
G04 #@! TF.SameCoordinates,4F3841DE-4AA8-461A-9A8C-39A9ABFBA23C*
G04*
G04*
G04 #@! TF.FilePolarity,Positive*
G04*
G01*
G75*
%ADD99C,0.00200*%
D99*
X255335Y83000D02*
X259665D01*
X257500Y80835D02*
Y85165D01*
X255335Y93000D02*
X259665D01*
X257500Y90835D02*
Y95165D01*
X123732Y67831D02*
X127668D01*
X125700Y65862D02*
Y69799D01*
X133731Y67831D02*
X137669D01*
X135700Y65862D02*
Y69799D01*
X143731Y67831D02*
X147669D01*
X145700Y65862D02*
Y69799D01*
X153732Y67831D02*
X157668D01*
X155700Y65862D02*
Y69799D01*
X177732Y67831D02*
X181668D01*
X179700Y65862D02*
Y69799D01*
X187732Y67831D02*
X191668D01*
X189700Y65862D02*
Y69799D01*
X197731Y67831D02*
X201669D01*
X199700Y65862D02*
Y69799D01*
X207732Y67831D02*
X211668D01*
X209700Y65862D02*
Y69799D01*
X229232Y67831D02*
X233169D01*
X231200Y65862D02*
Y69799D01*
X239231Y67831D02*
X243168D01*
X241200Y65862D02*
Y69799D01*
X249232Y67831D02*
X253169D01*
X251200Y65862D02*
Y69799D01*
X259231Y67831D02*
X263169D01*
X261200Y65862D02*
Y69799D01*
X70031Y67831D02*
X73968D01*
X72000Y65862D02*
Y69799D01*
X80032Y67831D02*
X83969D01*
X82000Y65862D02*
Y69799D01*
X90031Y67831D02*
X93968D01*
X92000Y65862D02*
Y69799D01*
X100031Y67831D02*
X103969D01*
X102000Y65862D02*
Y69799D01*
X29969Y176878D02*
X32528D01*
X31248Y175598D02*
Y178157D01*
X29969Y154122D02*
X32528D01*
X31248Y152842D02*
Y155402D01*
X31736Y112500D02*
X36264D01*
X34000Y110236D02*
Y114764D01*
X41736Y112500D02*
X46264D01*
X44000Y110236D02*
Y114764D01*
X31736Y102500D02*
X36264D01*
X34000Y100236D02*
Y104764D01*
X41736Y102500D02*
X46264D01*
X44000Y100236D02*
Y104764D01*
X31736Y92500D02*
X36264D01*
X34000Y90236D02*
Y94764D01*
X41736Y92500D02*
X46264D01*
X44000Y90236D02*
Y94764D01*
X31736Y82500D02*
X36264D01*
X34000Y80236D02*
Y84764D01*
X41736Y82500D02*
X46264D01*
X44000Y80236D02*
Y84764D01*
X31736Y72500D02*
X36264D01*
X34000Y70236D02*
Y74764D01*
X41736Y72500D02*
X46264D01*
X44000Y70236D02*
Y74764D01*
X77827Y107000D02*
X81173D01*
X79500Y105327D02*
Y108673D01*
X87827Y107000D02*
X91173D01*
X89500Y105327D02*
Y108673D01*
X54228Y299000D02*
X57772D01*
X56000Y297228D02*
Y300772D01*
X64228Y299000D02*
X67772D01*
X66000Y297228D02*
Y300772D01*
X74228Y299000D02*
X77772D01*
X76000Y297228D02*
Y300772D01*
X84228Y299000D02*
X87772D01*
X86000Y297228D02*
Y300772D01*
X114728Y156000D02*
X118272D01*
X116500Y154228D02*
Y157772D01*
X104728Y156000D02*
X108272D01*
X106500Y154228D02*
Y157772D01*
X94728Y156000D02*
X98272D01*
X96500Y154228D02*
Y157772D01*
X84728Y156000D02*
X88272D01*
X86500Y154228D02*
Y157772D01*
X143327Y287500D02*
X146673D01*
X145000Y285827D02*
Y289173D01*
X153327Y287500D02*
X156673D01*
X155000Y285827D02*
Y289173D01*
X107827Y287500D02*
X111173D01*
X109500Y285827D02*
Y289173D01*
X117827Y287500D02*
X121173D01*
X119500Y285827D02*
Y289173D01*
X184728Y299000D02*
X188272D01*
X186500Y297228D02*
Y300772D01*
X194728Y299000D02*
X198272D01*
X196500Y297228D02*
Y300772D01*
X204728Y299000D02*
X208272D01*
X206500Y297228D02*
Y300772D01*
X214728Y299000D02*
X218272D01*
X216500Y297228D02*
Y300772D01*
X70250Y131000D02*
X71750D01*
X71000Y130250D02*
Y131750D01*
X70250Y160000D02*
X71750D01*
X71000Y159250D02*
Y160750D01*
X63250Y151000D02*
X64750D01*
X64000Y150250D02*
Y151750D01*
X101250Y17500D02*
X102750D01*
X102000Y16750D02*
Y18250D01*
X213824Y131574D02*
X215324D01*
X214574Y130824D02*
Y132324D01*
X33250Y274500D02*
X34750D01*
X34000Y273750D02*
Y275250D01*
X59750Y275000D02*
X61250D01*
X60500Y274250D02*
Y275750D01*
X178750Y188000D02*
X180250D01*
X179500Y187250D02*
Y188750D01*
X208750Y188000D02*
X210250D01*
X209500Y187250D02*
Y188750D01*
X268750Y137500D02*
X270250D01*
X269500Y136750D02*
Y138250D01*
X93750Y177000D02*
X95250D01*
X94500Y176250D02*
Y177750D01*
X112750Y174000D02*
X114250D01*
X113500Y173250D02*
Y174750D01*
X67250Y190500D02*
X68750D01*
X68000Y189750D02*
Y191250D01*
X56750Y198000D02*
X58250D01*
X57500Y197250D02*
Y198750D01*
X111250Y271000D02*
X112750D01*
X112000Y270250D02*
Y271750D01*
X169250Y145500D02*
X170750D01*
X170000Y144750D02*
Y146250D01*
X169250Y153500D02*
X170750D01*
X170000Y152750D02*
Y154250D01*
X242250Y121500D02*
X243750D01*
X243000Y120750D02*
Y122250D01*
X242250Y128500D02*
X243750D01*
X243000Y127750D02*
Y129250D01*
X238250Y136500D02*
X239750D01*
X239000Y135750D02*
Y137250D01*
X231250Y136500D02*
X232750D01*
X232000Y135750D02*
Y137250D01*
X142250Y133000D02*
X143750D01*
X143000Y132250D02*
Y133750D01*
X161250Y127000D02*
X162750D01*
X162000Y126250D02*
Y127750D01*
X168250Y120000D02*
X169750D01*
X169000Y119250D02*
Y120750D01*
X251250Y110000D02*
X252750D01*
X252000Y109250D02*
Y110750D01*
X49750Y162266D02*
X51250D01*
X50500Y161516D02*
Y163016D01*
X118751Y163501D02*
X120251D01*
X119501Y162751D02*
Y164251D01*
X88250Y194000D02*
X89750D01*
X89000Y193250D02*
Y194750D01*
X73250Y196500D02*
X74750D01*
X74000Y195750D02*
Y197250D01*
X73250Y190500D02*
X74750D01*
X74000Y189750D02*
Y191250D01*
X220750Y217500D02*
X222250D01*
X221500Y216750D02*
Y218250D01*
X220750Y223000D02*
X222250D01*
X221500Y222250D02*
Y223750D01*
X220750Y229000D02*
X222250D01*
X221500Y228250D02*
Y229750D01*
X220500Y234250D02*
X222000D01*
X221250Y233500D02*
Y235000D01*
X123250Y22000D02*
X124750D01*
X124000Y21250D02*
Y22750D01*
X49750Y183000D02*
X51250D01*
X50500Y182250D02*
Y183750D01*
X108750Y117000D02*
X110250D01*
X109500Y116250D02*
Y117750D01*
X266750Y216000D02*
X268250D01*
X267500Y215250D02*
Y216750D01*
X96250Y39000D02*
X97750D01*
X97000Y38250D02*
Y39750D01*
X70750Y55000D02*
X72250D01*
X71500Y54250D02*
Y55750D01*
X140250Y25000D02*
X141750D01*
X141000Y24250D02*
Y25750D01*
X147750Y215500D02*
X149250D01*
X148500Y214750D02*
Y216250D01*
X204250Y77000D02*
X205750D01*
X205000Y76250D02*
Y77750D01*
X168250Y75000D02*
X169750D01*
X169000Y74250D02*
Y75750D01*
X243750Y87500D02*
X245250D01*
X244500Y86750D02*
Y88250D01*
X150250Y151500D02*
X151750D01*
X151000Y150750D02*
Y152250D01*
X220000Y159500D02*
X221500D01*
X220750Y158750D02*
Y160250D01*
X222750Y136500D02*
X224250D01*
X223500Y135750D02*
Y137250D01*
X208750Y141000D02*
X210250D01*
X209500Y140250D02*
Y141750D01*
X256250Y253000D02*
X257750D01*
X257000Y252250D02*
Y253750D01*
X49750Y171500D02*
X51250D01*
X50500Y170750D02*
Y172250D01*
X96750Y133000D02*
X98250D01*
X97500Y132250D02*
Y133750D01*
X116750Y134000D02*
X118250D01*
X117500Y133250D02*
Y134750D01*
X130250Y131000D02*
X131750D01*
X131000Y130250D02*
Y131750D01*
X131750Y122500D02*
X133250D01*
X132500Y121750D02*
Y123250D01*
X135250Y108500D02*
X136750D01*
X136000Y107750D02*
Y109250D01*
X67250Y230500D02*
X68750D01*
X68000Y229750D02*
Y231250D01*
X66750Y219000D02*
X68250D01*
X67500Y218250D02*
Y219750D01*
X135750Y176000D02*
X137250D01*
X136500Y175250D02*
Y176750D01*
X93250Y184500D02*
X94750D01*
X94000Y183750D02*
Y185250D01*
X150250Y191000D02*
X151750D01*
X151000Y190250D02*
Y191750D01*
X133250Y194500D02*
X134750D01*
X134000Y193750D02*
Y195250D01*
X133750Y206500D02*
X135250D01*
X134500Y205750D02*
Y207250D01*
X133750Y222000D02*
X135250D01*
X134500Y221250D02*
Y222750D01*
X145750Y276500D02*
X147250D01*
X146500Y275750D02*
Y277250D01*
X122250Y277000D02*
X123750D01*
X123000Y276250D02*
Y277750D01*
X204750Y109500D02*
X206250D01*
X205500Y108750D02*
Y110250D01*
X152250Y252500D02*
X153750D01*
X153000Y251750D02*
Y253250D01*
X157250Y171500D02*
X158750D01*
X158000Y170750D02*
Y172250D01*
X230250Y18000D02*
X231750D01*
X231000Y17250D02*
Y18750D01*
X244250Y33500D02*
X245750D01*
X245000Y32750D02*
Y34250D01*
X250250Y33500D02*
X251750D01*
X251000Y32750D02*
Y34250D01*
X230250Y56500D02*
X231750D01*
X231000Y55750D02*
Y57250D01*
X220250Y76000D02*
X221750D01*
X221000Y75250D02*
Y76750D01*
X231250Y94500D02*
X232750D01*
X232000Y93750D02*
Y95250D01*
X213750Y119500D02*
X215250D01*
X214500Y118750D02*
Y120250D01*
X245250Y151500D02*
X246750D01*
X246000Y150750D02*
Y152250D01*
X253250Y156000D02*
X254750D01*
X254000Y155250D02*
Y156750D01*
X210750Y157000D02*
X212250D01*
X211500Y156250D02*
Y157750D01*
X267250Y170000D02*
X268750D01*
X268000Y169250D02*
Y170750D01*
X228250Y180000D02*
X229750D01*
X229000Y179250D02*
Y180750D01*
X282250Y180000D02*
X283750D01*
X283000Y179250D02*
Y180750D01*
X174750Y237500D02*
X176250D01*
X175500Y236750D02*
Y238250D01*
X174750Y207500D02*
X176250D01*
X175500Y206750D02*
Y208250D01*
X204750Y263500D02*
X206250D01*
X205500Y262750D02*
Y264250D01*
X178750Y194000D02*
X180250D01*
X179500Y193250D02*
Y194750D01*
X177750Y230000D02*
X179250D01*
X178500Y229250D02*
Y230750D01*
X163750Y252730D02*
X165250D01*
X164500Y251980D02*
Y253480D01*
X175250Y222000D02*
X176750D01*
X176000Y221250D02*
Y222750D01*
X180000Y241500D02*
X181500D01*
X180750Y240750D02*
Y242250D01*
X192250Y204500D02*
X193750D01*
X193000Y203750D02*
Y205250D01*
X197750Y237000D02*
X199250D01*
X198500Y236250D02*
Y237750D01*
X198750Y226500D02*
X200250D01*
X199500Y225750D02*
Y227250D01*
X236250Y190500D02*
X237750D01*
X237000Y189750D02*
Y191250D01*
X267250Y195000D02*
X268750D01*
X268000Y194250D02*
Y195750D01*
X282250Y206000D02*
X283750D01*
X283000Y205250D02*
Y206750D01*
X238750Y214000D02*
X240250D01*
X239500Y213250D02*
Y214750D01*
X282250Y221500D02*
X283750D01*
X283000Y220750D02*
Y222250D01*
X231250Y222500D02*
X232750D01*
X232000Y221750D02*
Y223250D01*
X282250Y232000D02*
X283750D01*
X283000Y231250D02*
Y232750D01*
X302250Y243000D02*
X303750D01*
X303000Y242250D02*
Y243750D01*
X223750Y244500D02*
X225250D01*
X224500Y243750D02*
Y245250D01*
X211250Y245000D02*
X212750D01*
X212000Y244250D02*
Y245750D01*
X267750Y258000D02*
X269250D01*
X268500Y257250D02*
Y258750D01*
X225750Y264000D02*
X227250D01*
X226500Y263250D02*
Y264750D01*
X205250Y273000D02*
X206750D01*
X206000Y272250D02*
Y273750D01*
X234750Y273000D02*
X236250D01*
X235500Y272250D02*
Y273750D01*
X204863Y279230D02*
X206363D01*
X205613Y278480D02*
Y279980D01*
X259750Y297500D02*
X261250D01*
X260500Y296750D02*
Y298250D01*
X74250Y245500D02*
X75750D01*
X75000Y244750D02*
Y246250D01*
X125250Y229000D02*
X126750D01*
X126000Y228250D02*
Y229750D01*
X101750Y230000D02*
X103250D01*
X102500Y229250D02*
Y230750D01*
X141250Y233000D02*
X142750D01*
X142000Y232250D02*
Y233750D01*
X138750Y246000D02*
X140250D01*
X139500Y245250D02*
Y246750D01*
X129750Y251500D02*
X131250D01*
X130500Y250750D02*
Y252250D01*
X96250Y267500D02*
X97750D01*
X97000Y266750D02*
Y268250D01*
X161250Y134000D02*
X162750D01*
X162000Y133250D02*
Y134750D01*
X192750Y130000D02*
X194250D01*
X193500Y129250D02*
Y130750D01*
X194750Y141500D02*
X196250D01*
X195500Y140750D02*
Y142250D01*
X271750Y105000D02*
X273250D01*
X272500Y104250D02*
Y105750D01*
M02*
