G04*
G04 #@! TF.GenerationSoftware,Altium Limited,Altium Designer,22.9.1 (49)*
G04*
G04 Layer_Physical_Order=4*
G04 Layer_Color=16711680*
%FSLAX25Y25*%
%MOIN*%
G70*
G04*
G04 #@! TF.SameCoordinates,4F3841DE-4AA8-461A-9A8C-39A9ABFBA23C*
G04*
G04*
G04 #@! TF.FilePolarity,Positive*
G04*
G01*
G75*
%ADD14C,0.01000*%
%ADD23R,0.03543X0.03740*%
%ADD25R,0.03898X0.03071*%
%ADD30R,0.03740X0.03543*%
%ADD52C,0.06496*%
%ADD53R,0.06496X0.06496*%
%ADD54R,0.05906X0.05906*%
%ADD55C,0.05906*%
%ADD56C,0.01280*%
%ADD57R,0.06791X0.06791*%
%ADD58C,0.06791*%
%ADD59R,0.05020X0.05020*%
%ADD60C,0.05020*%
%ADD61C,0.02500*%
%ADD76R,0.07874X0.02402*%
%ADD77R,0.14173X0.10551*%
%ADD78R,0.03740X0.03740*%
%ADD79R,0.02559X0.06004*%
%ADD80R,0.02756X0.02756*%
%ADD81R,0.09055X0.08661*%
%ADD82R,0.08780X0.07087*%
%ADD83R,0.02756X0.02756*%
%ADD84R,0.07087X0.08780*%
G04:AMPARAMS|DCode=85|XSize=39.54mil|YSize=125.28mil|CornerRadius=17.2mil|HoleSize=0mil|Usage=FLASHONLY|Rotation=180.000|XOffset=0mil|YOffset=0mil|HoleType=Round|Shape=RoundedRectangle|*
%AMROUNDEDRECTD85*
21,1,0.03954,0.09088,0,0,180.0*
21,1,0.00514,0.12528,0,0,180.0*
1,1,0.03440,-0.00257,0.04544*
1,1,0.03440,0.00257,0.04544*
1,1,0.03440,0.00257,-0.04544*
1,1,0.03440,-0.00257,-0.04544*
%
%ADD85ROUNDEDRECTD85*%
G04:AMPARAMS|DCode=86|XSize=39.54mil|YSize=34.34mil|CornerRadius=17.17mil|HoleSize=0mil|Usage=FLASHONLY|Rotation=180.000|XOffset=0mil|YOffset=0mil|HoleType=Round|Shape=RoundedRectangle|*
%AMROUNDEDRECTD86*
21,1,0.03954,0.00000,0,0,180.0*
21,1,0.00520,0.03434,0,0,180.0*
1,1,0.03434,-0.00260,0.00000*
1,1,0.03434,0.00260,0.00000*
1,1,0.03434,0.00260,0.00000*
1,1,0.03434,-0.00260,0.00000*
%
%ADD86ROUNDEDRECTD86*%
%ADD87R,0.03954X0.03434*%
G36*
X177250Y109250D02*
Y101750D01*
X190250D01*
X193250Y98750D01*
X217250D01*
X218632Y97368D01*
X216265Y95002D01*
X215914Y95147D01*
X215445Y95209D01*
Y93000D01*
X217879D01*
X217852Y93209D01*
X217707Y93560D01*
X219222Y95075D01*
X219684Y94884D01*
Y88750D01*
X212250D01*
X207750Y84250D01*
X183250D01*
X174250Y93250D01*
X172750Y94750D01*
X163250D01*
X160250Y97750D01*
Y109750D01*
X162750Y112250D01*
X167980D01*
Y108673D01*
X163472D01*
Y103842D01*
X169000D01*
X174528D01*
Y108673D01*
X170020D01*
Y112250D01*
X174250D01*
X177250Y109250D01*
D02*
G37*
%LPC*%
G36*
X174528Y102842D02*
X169500D01*
Y98012D01*
X174528D01*
Y102842D01*
D02*
G37*
G36*
X168500D02*
X163472D01*
Y98012D01*
X168500D01*
Y102842D01*
D02*
G37*
G36*
X188500Y99756D02*
X188033Y99694D01*
X187371Y99420D01*
X186803Y98984D01*
X186367Y98416D01*
X186093Y97754D01*
X186000Y97044D01*
Y93000D01*
X188500D01*
Y99756D01*
D02*
G37*
G36*
X217879Y92000D02*
X215445D01*
Y89791D01*
X215914Y89853D01*
X216575Y90127D01*
X217143Y90562D01*
X217578Y91130D01*
X217852Y91791D01*
X217879Y92000D01*
D02*
G37*
G36*
X189500Y99756D02*
Y92500D01*
Y85245D01*
X189967Y85306D01*
X190629Y85580D01*
X191197Y86016D01*
X191633Y86584D01*
X191907Y87246D01*
X192000Y87956D01*
Y91480D01*
X212166D01*
X212312Y91130D01*
X212747Y90562D01*
X213315Y90127D01*
X213976Y89853D01*
X214445Y89791D01*
Y92500D01*
Y95209D01*
X213976Y95147D01*
X213315Y94873D01*
X212747Y94438D01*
X212312Y93870D01*
X212166Y93520D01*
X192000D01*
Y97044D01*
X191907Y97754D01*
X191633Y98416D01*
X191197Y98984D01*
X190629Y99420D01*
X189967Y99694D01*
X189500Y99756D01*
D02*
G37*
G36*
X188500Y92000D02*
X186000D01*
Y87956D01*
X186093Y87246D01*
X186367Y86584D01*
X186803Y86016D01*
X187371Y85580D01*
X188033Y85306D01*
X188500Y85245D01*
Y92000D01*
D02*
G37*
%LPD*%
D14*
X77000Y137000D02*
X82244D01*
X71000Y131000D02*
X77000Y137000D01*
X137150Y84598D02*
X140247Y87696D01*
Y130247D02*
X143000Y133000D01*
X137150Y84500D02*
Y84598D01*
X140247Y87696D02*
Y130247D01*
X130850Y84598D02*
X136000Y89748D01*
Y108500D01*
X130850Y84500D02*
Y84598D01*
X71000Y143449D02*
Y160000D01*
X64650Y137000D02*
Y137098D01*
X71000Y143449D01*
X58350Y145350D02*
X64000Y151000D01*
X58350Y137000D02*
Y145350D01*
X102000Y17500D02*
Y25823D01*
X226000Y19818D02*
Y25823D01*
Y19818D02*
X230068Y15750D01*
X198000Y124256D02*
X207256D01*
X214574Y131574D01*
X180750Y241500D02*
X187500Y234750D01*
Y227748D02*
Y234750D01*
X189500Y188000D02*
X189540Y188040D01*
X179500Y188000D02*
X189500D01*
X196150D02*
X209500D01*
X220500Y194000D02*
X261748Y152752D01*
X179500Y194000D02*
X220500D01*
X261748Y89338D02*
Y152752D01*
X269500Y137500D02*
X273000Y134000D01*
Y119000D02*
Y134000D01*
X86248Y177000D02*
X94500D01*
X83850Y174602D02*
X86248Y177000D01*
X83850Y174000D02*
Y174602D01*
X83701Y173850D02*
X83850Y174000D01*
X83701Y158799D02*
X86500Y156000D01*
X83701Y158799D02*
Y173850D01*
X83500Y180650D02*
X83598D01*
X84870Y181921D02*
Y182020D01*
X87350Y184500D02*
X94000D01*
X83598Y180650D02*
X84870Y181921D01*
Y182020D02*
X87350Y184500D01*
X226256Y103756D02*
X244500D01*
X99551Y184500D02*
X103902Y180150D01*
X94000Y184500D02*
X99551D01*
X103902Y180150D02*
X103993D01*
X101650Y174000D02*
X113500D01*
X94976Y188024D02*
X109976D01*
X119589Y163589D02*
Y178411D01*
X109976Y188024D02*
X119589Y178411D01*
X58500Y199336D02*
Y215500D01*
X54280Y219721D02*
X58500Y215500D01*
X43598Y219721D02*
X54280D01*
X57500Y198000D02*
Y198336D01*
X58500Y199336D01*
X57416Y247280D02*
X72136Y262000D01*
X43598Y247280D02*
X57416D01*
X72136Y262000D02*
X182743D01*
X73000Y260500D02*
X181500D01*
X43598Y243342D02*
X55600D01*
X72818Y260318D02*
X73000Y260500D01*
X72575Y260318D02*
X72818D01*
X55600Y243342D02*
X72575Y260318D01*
X43598Y239405D02*
X53784D01*
X73197Y258818D02*
X181682D01*
X53784Y239405D02*
X73197Y258818D01*
X51968Y235469D02*
X73818Y257318D01*
X43598Y235469D02*
X51968D01*
X63000Y207500D02*
X74000Y196500D01*
X63000Y207500D02*
Y218121D01*
X49590Y231532D02*
X63000Y218121D01*
X60000Y198500D02*
Y216879D01*
X43598Y223657D02*
X53221D01*
X60000Y216879D01*
X43598Y231532D02*
X49590D01*
X43598Y227594D02*
X51406D01*
X61500Y217500D01*
Y203000D02*
Y217500D01*
Y203000D02*
X74000Y190500D01*
X60000Y198500D02*
X68000Y190500D01*
X148343Y271000D02*
X155843Y263500D01*
X112000Y271000D02*
X148343D01*
X73818Y257318D02*
X174682D01*
X214500Y217500D01*
X230587Y118744D02*
X239838D01*
X242594Y121500D01*
X243000D01*
X232035Y125291D02*
X239791D01*
X243000Y128500D01*
X231000Y124256D02*
X232035Y125291D01*
X143000Y133000D02*
X151406D01*
X151500Y132905D01*
X169000Y103342D02*
X169197D01*
X151500Y127000D02*
X162000D01*
X227885Y110000D02*
X252000D01*
X221364Y103480D02*
X227885Y110000D01*
X221364Y98659D02*
Y103480D01*
X215205Y92500D02*
X221364Y98659D01*
X214945Y92500D02*
X215205D01*
X119501Y163501D02*
X119589Y163589D01*
X89000Y194000D02*
X94976Y188024D01*
X80500Y190879D02*
X131121Y241500D01*
X80500Y145000D02*
Y190879D01*
X182743Y262000D02*
X210493Y234250D01*
X221250D01*
X181500Y260500D02*
X181682Y260318D01*
X182303D01*
X213621Y229000D02*
X221500D01*
X182303Y260318D02*
X213621Y229000D01*
X217500Y223000D02*
X221500D01*
X181682Y258818D02*
X217500Y223000D01*
X214500Y217500D02*
X221500D01*
X126250Y116250D02*
Y140750D01*
X142000Y156500D01*
X98047Y88047D02*
X126250Y116250D01*
X54500Y164000D02*
Y170000D01*
X50500Y171500D02*
X53000D01*
X54500Y170000D01*
X53053Y162553D02*
X54500Y164000D01*
X50787Y162553D02*
X53053D01*
X50500Y162266D02*
X50787Y162553D01*
X112000Y25823D02*
X115141D01*
X125440Y36122D01*
X124000Y22000D02*
X131000Y29000D01*
Y33350D01*
X113000Y17000D02*
X125000D01*
X136457Y28457D01*
Y37957D01*
X107780Y22220D02*
X113000Y17000D01*
X229000Y56500D02*
X231000D01*
X226000Y53500D02*
X229000Y56500D01*
X226000Y47177D02*
Y53500D01*
X122000Y152910D02*
Y184500D01*
X132000Y194500D02*
X134000D01*
X122000Y184500D02*
X132000Y194500D01*
X97000Y39000D02*
Y47177D01*
X73298Y52202D02*
X78323Y47177D01*
X71500Y54707D02*
X73298Y52909D01*
X71500Y54707D02*
Y55000D01*
X73298Y52202D02*
Y52909D01*
X58972Y47177D02*
X78323D01*
X141000Y25000D02*
Y33350D01*
X114609Y41150D02*
X141747Y68288D01*
X110528Y41150D02*
X114609D01*
X103379Y34000D02*
X110528Y41150D01*
X205000Y64900D02*
X221000Y48900D01*
X205000Y64900D02*
Y77000D01*
X169000Y75000D02*
Y83657D01*
X244500Y98244D02*
X247500Y95244D01*
Y90500D02*
Y95244D01*
X244500Y87500D02*
X247500Y90500D01*
X151000Y151488D02*
Y151500D01*
X136256Y136744D02*
X151000Y151488D01*
X209787Y139544D02*
Y140713D01*
Y139544D02*
X230587Y118744D01*
X209500Y141000D02*
X209787Y140713D01*
X257000Y253000D02*
X262610Y247390D01*
X280752Y243500D02*
Y244346D01*
X262610Y247390D02*
X277709D01*
X280752Y244346D01*
X105701Y283701D02*
X109500Y287500D01*
X97000Y267500D02*
Y277331D01*
X97070Y277402D01*
X97220Y277551D01*
X97070Y283701D02*
X105701D01*
X123406Y277000D02*
X123906Y277500D01*
X123000Y277000D02*
X123406D01*
X123906Y277500D02*
X132350D01*
X96500Y168949D02*
X101402Y173850D01*
X101500D01*
X101650Y174000D01*
X79000Y191500D02*
X133500Y246000D01*
X184500Y124500D02*
X184598D01*
X184500Y113500D02*
X188000Y110000D01*
X184598Y124500D02*
X189500Y129402D01*
X184598Y118201D02*
X197457D01*
X188000Y110000D02*
X205000D01*
X197457Y118201D02*
X198000Y118744D01*
X205000Y110000D02*
X205500Y109500D01*
X214500Y101961D02*
Y119500D01*
X132500Y98637D02*
Y122500D01*
X136000Y108500D02*
X136256Y108756D01*
Y136744D01*
X169000Y103342D02*
Y120000D01*
X141747Y98050D02*
X197447Y153750D01*
X149653Y103835D02*
X197568Y151750D01*
X184500Y113500D02*
Y118201D01*
X263248Y111070D02*
X274370Y99948D01*
X272500Y105000D02*
Y110850D01*
X260850Y33500D02*
X261000Y33350D01*
X251000Y33500D02*
X260850D01*
X266000Y34248D02*
X271402Y39650D01*
X231833Y38378D02*
X260228D01*
X261200Y39350D01*
X260902Y39650D02*
X261000D01*
X259630Y40921D02*
X260902Y39650D01*
X251200Y49450D02*
X259630Y41020D01*
Y40921D02*
Y41020D01*
X261200Y49851D02*
X271402Y39650D01*
X117500Y134000D02*
Y148410D01*
X122000Y152910D01*
X131000Y131000D02*
Y137000D01*
X192902Y129402D02*
X193500Y130000D01*
X189500Y129402D02*
X192902D01*
X187500Y210000D02*
X193000Y204500D01*
X187500Y210000D02*
Y216252D01*
X160000Y230000D02*
X178500D01*
X133500Y246000D02*
X139500D01*
X132000Y281650D02*
X139150D01*
X132350Y277500D02*
X132500Y277350D01*
X139150Y281650D02*
X145000Y287500D01*
X155843Y263500D02*
X205500D01*
X146500Y276500D02*
X202686D01*
X263248Y111070D02*
Y161070D01*
X229750Y194568D02*
Y239250D01*
X196500Y294000D02*
Y299000D01*
X202686Y276500D02*
X205416Y279230D01*
X205613D01*
X206500Y294000D02*
Y299000D01*
X196500Y294000D02*
X226500Y264000D01*
X206500Y294000D02*
X232000Y268500D01*
X224500Y244500D02*
X229750Y239250D01*
X292748Y243000D02*
X303000D01*
X292248Y243500D02*
X292748Y243000D01*
X232000Y222500D02*
Y268500D01*
X131121Y241500D02*
X148500D01*
X160000Y230000D01*
X151000Y182500D02*
X162000Y171500D01*
X151000Y182500D02*
Y191000D01*
X142000Y156500D02*
Y233000D01*
X162000Y134000D02*
Y171500D01*
X245750Y151750D02*
X246000Y151500D01*
X197568Y151750D02*
X245750D01*
X197447Y153750D02*
X251750D01*
X254000Y156000D01*
X229750Y194568D02*
X263248Y161070D01*
X72650Y35500D02*
X97833D01*
X89720Y22407D02*
Y29239D01*
Y22407D02*
X90306Y21821D01*
X92000Y25823D02*
Y27545D01*
X89720Y29239D02*
X94481Y34000D01*
X92000Y27545D02*
X92779Y28325D01*
X90306Y21821D02*
X94721D01*
X92779Y28325D02*
X93013D01*
X94513Y29825D01*
X94721Y21821D02*
X97000Y24100D01*
Y25823D01*
X53630Y36122D02*
Y41835D01*
Y36122D02*
X56402Y33350D01*
X53630Y41835D02*
X58972Y47177D01*
X56402Y33350D02*
X56500D01*
Y39650D02*
X56598D01*
X56500Y40150D02*
X57000Y40650D01*
X56598Y39650D02*
X59747Y42798D01*
X56500Y33350D02*
X68500D01*
X68598D01*
X68500Y39650D02*
X72650Y35500D01*
X72000Y67831D02*
Y72000D01*
X59747Y42798D02*
X84343D01*
X68598Y33350D02*
X76126Y25823D01*
X82000D01*
X78323Y47177D02*
X82000D01*
Y25823D02*
X87000D01*
X32000Y120500D02*
X53879D01*
X44000Y112500D02*
X44310Y112810D01*
X48310D01*
X38500Y108000D02*
X78500D01*
X48310Y112810D02*
X80500Y145000D01*
X53879Y120500D02*
X79000Y145621D01*
X78500Y108000D02*
X79500Y107000D01*
Y134256D01*
X82244Y137000D01*
X94513Y29825D02*
X101325D01*
X94481Y34000D02*
X103379D01*
X97833Y35500D02*
X102000Y39667D01*
Y47177D01*
X101325Y29825D02*
X111150Y39650D01*
X107000Y25823D02*
X107780Y25043D01*
Y22220D02*
Y25043D01*
X72000Y72000D02*
X99000Y99000D01*
X84343Y42798D02*
X87000Y45455D01*
Y47177D01*
Y62831D01*
X92000Y67831D01*
X87756Y137000D02*
X93500D01*
X92000Y47177D02*
Y62241D01*
X98047Y68288D01*
X93500Y137000D02*
X97500Y133000D01*
X96500Y156000D02*
Y168949D01*
X98047Y68288D02*
Y88047D01*
X99000Y99000D02*
Y113658D01*
X102000Y47177D02*
Y67831D01*
X99000Y113658D02*
X106500Y121158D01*
Y156000D01*
X107000Y47177D02*
Y73137D01*
X79000Y145621D02*
Y191500D01*
X29500Y100784D02*
Y118000D01*
X32000Y120500D01*
X29500Y100784D02*
X32179Y98104D01*
X38396D01*
X34000Y112500D02*
X38500Y108000D01*
X38396Y98104D02*
X44000Y92500D01*
X231000Y18000D02*
Y24100D01*
X234780Y20321D01*
X236000Y24100D02*
X238280Y21821D01*
X231000Y24100D02*
Y25823D01*
X236000Y24100D02*
Y25823D01*
X221000D02*
Y27545D01*
X241000Y25823D02*
Y27545D01*
X111150Y39650D02*
X131000D01*
X125440Y36122D02*
X132528D01*
X134957Y38551D01*
X136457Y37957D02*
X138150Y39650D01*
X192000Y33350D02*
X202402D01*
X199630Y36122D02*
Y41835D01*
Y36122D02*
X202402Y33350D01*
X202500D01*
X202598D01*
X210126Y25823D01*
X211000D01*
X216000D01*
X202500Y39650D02*
X225195D01*
X131000D02*
X131098D01*
X134957Y38551D02*
Y41387D01*
X131098Y39650D02*
X145700Y54251D01*
X138150Y39650D02*
X141098D01*
X134957Y41387D02*
X149653Y56083D01*
X145700Y54251D02*
Y67831D01*
X141098Y39650D02*
X155700Y54251D01*
Y67831D01*
X192000Y39650D02*
Y45500D01*
X197679Y51179D01*
X199630Y41835D02*
X204972Y47177D01*
X197679Y51179D02*
X213720D01*
X199700Y67831D02*
X216000Y51531D01*
X204972Y47177D02*
X211000D01*
Y45455D02*
Y47177D01*
Y45455D02*
X213955Y42500D01*
X213720Y51179D02*
X216000Y48900D01*
Y47177D02*
Y48900D01*
Y51531D01*
X213955Y42500D02*
X223045D01*
X107000Y73137D02*
X132500Y98637D01*
X141747Y68288D02*
Y98050D01*
X149653Y56083D02*
Y103835D01*
X214945Y83484D02*
X219484D01*
X189000Y92500D02*
X214945D01*
X209700Y67831D02*
X215369Y62162D01*
X214500Y101961D02*
X214945Y101516D01*
X221000Y27545D02*
X231833Y38378D01*
X225195Y39650D02*
X231000Y45455D01*
X223045Y42500D02*
X226000Y45455D01*
Y47177D01*
X231000Y45455D02*
Y47177D01*
X231540Y47717D01*
X221000Y47177D02*
Y48900D01*
X231540Y47717D02*
Y51040D01*
X234000Y53500D01*
X271402Y33350D02*
X271500D01*
X258956Y15750D02*
X274370Y31165D01*
X258942Y20321D02*
X267500Y28879D01*
X258321Y21821D02*
X266000Y29500D01*
X267500Y28879D02*
Y29449D01*
X271402Y33350D01*
X266000Y29500D02*
Y34248D01*
X230068Y15750D02*
X258956D01*
X234780Y20321D02*
X258942D01*
X238280Y21821D02*
X258321D01*
X241000Y27545D02*
X244713Y31258D01*
Y33213D01*
X245000Y33500D01*
X234000Y53500D02*
Y59500D01*
X236000Y47177D02*
Y68221D01*
X231338Y62162D02*
X234000Y59500D01*
X215369Y62162D02*
X231338D01*
X221000Y76000D02*
X221765Y76765D01*
X224411D01*
X231803Y84158D01*
X232000D01*
X219484Y83484D02*
X224000Y88000D01*
Y101500D01*
X226256Y103756D01*
X251200Y49450D02*
Y67831D01*
X261200Y49851D02*
Y67831D01*
X274370Y31165D02*
Y99948D01*
X236000Y68221D02*
X255027Y87248D01*
X259658D01*
X261748Y89338D01*
X246792Y103708D02*
X257500Y93000D01*
X244548Y103708D02*
X246792D01*
X244500Y103756D02*
X244548Y103708D01*
D23*
X64650Y137000D02*
D03*
X58350D02*
D03*
X137150Y84500D02*
D03*
X130850D02*
D03*
X189850Y188000D02*
D03*
X196150D02*
D03*
D25*
X198000Y118744D02*
D03*
Y124256D02*
D03*
X231000D02*
D03*
Y118744D02*
D03*
D30*
X83500Y174350D02*
D03*
Y180650D02*
D03*
X68500Y39650D02*
D03*
Y33350D02*
D03*
X131000D02*
D03*
Y39650D02*
D03*
X56500D02*
D03*
Y33350D02*
D03*
X141000D02*
D03*
Y39650D02*
D03*
X97070Y283701D02*
D03*
Y277402D02*
D03*
X104000Y180150D02*
D03*
Y173850D02*
D03*
X132500Y283650D02*
D03*
Y277350D02*
D03*
X184500Y118201D02*
D03*
Y124500D02*
D03*
X192000Y33350D02*
D03*
Y39650D02*
D03*
X202500Y33350D02*
D03*
Y39650D02*
D03*
X261000D02*
D03*
Y33350D02*
D03*
X271500D02*
D03*
Y39650D02*
D03*
X273000Y119000D02*
D03*
Y112701D02*
D03*
D52*
X257500Y83000D02*
D03*
D53*
Y93000D02*
D03*
D54*
X125700Y67831D02*
D03*
X179700D02*
D03*
X231200D02*
D03*
X72000D02*
D03*
X86000Y299000D02*
D03*
X116500Y156000D02*
D03*
X216500Y299000D02*
D03*
D55*
X135700Y67831D02*
D03*
X145700D02*
D03*
X155700D02*
D03*
X189700D02*
D03*
X199700D02*
D03*
X209700D02*
D03*
X241200D02*
D03*
X251200D02*
D03*
X261200D02*
D03*
X82000D02*
D03*
X92000D02*
D03*
X102000D02*
D03*
X56000Y299000D02*
D03*
X66000D02*
D03*
X76000D02*
D03*
X106500Y156000D02*
D03*
X96500D02*
D03*
X86500D02*
D03*
X186500Y299000D02*
D03*
X196500D02*
D03*
X206500D02*
D03*
D56*
X31248Y176878D02*
D03*
Y154122D02*
D03*
D57*
X34000Y112500D02*
D03*
D58*
X44000D02*
D03*
X34000Y102500D02*
D03*
X44000D02*
D03*
X34000Y92500D02*
D03*
X44000D02*
D03*
X34000Y82500D02*
D03*
X44000D02*
D03*
X34000Y72500D02*
D03*
X44000D02*
D03*
D59*
X79500Y107000D02*
D03*
X145000Y287500D02*
D03*
X109500D02*
D03*
D60*
X89500Y107000D02*
D03*
X155000Y287500D02*
D03*
X119500D02*
D03*
D61*
X71000Y131000D02*
D03*
Y160000D02*
D03*
X64000Y151000D02*
D03*
X102000Y17500D02*
D03*
X214574Y131574D02*
D03*
X34000Y274500D02*
D03*
X60500Y275000D02*
D03*
X179500Y188000D02*
D03*
X209500D02*
D03*
X269500Y137500D02*
D03*
X94500Y177000D02*
D03*
X113500Y174000D02*
D03*
X68000Y190500D02*
D03*
X57500Y198000D02*
D03*
X112000Y271000D02*
D03*
X170000Y145500D02*
D03*
Y153500D02*
D03*
X243000Y121500D02*
D03*
Y128500D02*
D03*
X239000Y136500D02*
D03*
X232000D02*
D03*
X143000Y133000D02*
D03*
X162000Y127000D02*
D03*
X169000Y120000D02*
D03*
X252000Y110000D02*
D03*
X50500Y162266D02*
D03*
X119501Y163501D02*
D03*
X89000Y194000D02*
D03*
X74000Y196500D02*
D03*
Y190500D02*
D03*
X221500Y217500D02*
D03*
Y223000D02*
D03*
Y229000D02*
D03*
X221250Y234250D02*
D03*
X124000Y22000D02*
D03*
X50500Y183000D02*
D03*
X109500Y117000D02*
D03*
X267500Y216000D02*
D03*
X97000Y39000D02*
D03*
X71500Y55000D02*
D03*
X141000Y25000D02*
D03*
X148500Y215500D02*
D03*
X205000Y77000D02*
D03*
X169000Y75000D02*
D03*
X244500Y87500D02*
D03*
X151000Y151500D02*
D03*
X220750Y159500D02*
D03*
X223500Y136500D02*
D03*
X209500Y141000D02*
D03*
X257000Y253000D02*
D03*
X50500Y171500D02*
D03*
X97500Y133000D02*
D03*
X117500Y134000D02*
D03*
X131000Y131000D02*
D03*
X132500Y122500D02*
D03*
X136000Y108500D02*
D03*
X68000Y230500D02*
D03*
X67500Y219000D02*
D03*
X136500Y176000D02*
D03*
X94000Y184500D02*
D03*
X151000Y191000D02*
D03*
X134000Y194500D02*
D03*
X134500Y206500D02*
D03*
Y222000D02*
D03*
X146500Y276500D02*
D03*
X123000Y277000D02*
D03*
X205500Y109500D02*
D03*
X153000Y252500D02*
D03*
X158000Y171500D02*
D03*
X231000Y18000D02*
D03*
X245000Y33500D02*
D03*
X251000D02*
D03*
X231000Y56500D02*
D03*
X221000Y76000D02*
D03*
X232000Y94500D02*
D03*
X214500Y119500D02*
D03*
X246000Y151500D02*
D03*
X254000Y156000D02*
D03*
X211500Y157000D02*
D03*
X268000Y170000D02*
D03*
X229000Y180000D02*
D03*
X283000D02*
D03*
X175500Y237500D02*
D03*
Y207500D02*
D03*
X205500Y263500D02*
D03*
X179500Y194000D02*
D03*
X178500Y230000D02*
D03*
X164500Y252730D02*
D03*
X176000Y222000D02*
D03*
X180750Y241500D02*
D03*
X193000Y204500D02*
D03*
X198500Y237000D02*
D03*
X199500Y226500D02*
D03*
X237000Y190500D02*
D03*
X268000Y195000D02*
D03*
X283000Y206000D02*
D03*
X239500Y214000D02*
D03*
X283000Y221500D02*
D03*
X232000Y222500D02*
D03*
X283000Y232000D02*
D03*
X303000Y243000D02*
D03*
X224500Y244500D02*
D03*
X212000Y245000D02*
D03*
X268500Y258000D02*
D03*
X226500Y264000D02*
D03*
X206000Y273000D02*
D03*
X235500D02*
D03*
X205613Y279230D02*
D03*
X260500Y297500D02*
D03*
X75000Y245500D02*
D03*
X126000Y229000D02*
D03*
X102500Y230000D02*
D03*
X142000Y233000D02*
D03*
X139500Y246000D02*
D03*
X130500Y251500D02*
D03*
X97000Y267500D02*
D03*
X162000Y134000D02*
D03*
X193500Y130000D02*
D03*
X195500Y141500D02*
D03*
X272500Y105000D02*
D03*
D76*
X43598Y219721D02*
D03*
Y223657D02*
D03*
Y227594D02*
D03*
Y231532D02*
D03*
Y235469D02*
D03*
Y239405D02*
D03*
Y243342D02*
D03*
Y247280D02*
D03*
D77*
X32575Y207949D02*
D03*
Y259051D02*
D03*
D78*
X151500Y127000D02*
D03*
Y132905D02*
D03*
D79*
X82000Y25823D02*
D03*
X87000D02*
D03*
X92000D02*
D03*
X97000D02*
D03*
X102000D02*
D03*
X107000D02*
D03*
X112000D02*
D03*
Y47177D02*
D03*
X107000D02*
D03*
X102000D02*
D03*
X97000D02*
D03*
X92000D02*
D03*
X87000D02*
D03*
X82000D02*
D03*
X211000Y25823D02*
D03*
X216000D02*
D03*
X221000D02*
D03*
X226000D02*
D03*
X231000D02*
D03*
X236000D02*
D03*
X241000D02*
D03*
Y47177D02*
D03*
X236000D02*
D03*
X231000D02*
D03*
X226000D02*
D03*
X221000D02*
D03*
X216000D02*
D03*
X211000D02*
D03*
D80*
X87756Y137000D02*
D03*
X82244D02*
D03*
X131000D02*
D03*
X136512D02*
D03*
D81*
X169000Y83657D02*
D03*
Y103342D02*
D03*
X232000Y84158D02*
D03*
Y103842D02*
D03*
D82*
X187500Y216252D02*
D03*
Y227748D02*
D03*
D83*
X244500Y98244D02*
D03*
Y103756D02*
D03*
D84*
X292248Y243500D02*
D03*
X280752D02*
D03*
D85*
X189000Y92500D02*
D03*
D86*
X214945Y83484D02*
D03*
Y92500D02*
D03*
D87*
Y101516D02*
D03*
M02*
