G04*
G04 #@! TF.GenerationSoftware,Altium Limited,Altium Designer,22.9.1 (49)*
G04*
G04 Layer_Color=2752767*
%FSLAX25Y25*%
%MOIN*%
G70*
G04*
G04 #@! TF.SameCoordinates,4F3841DE-4AA8-461A-9A8C-39A9ABFBA23C*
G04*
G04*
G04 #@! TF.FilePolarity,Positive*
G04*
G01*
G75*
%ADD99C,0.00200*%
%ADD100C,0.00267*%
D99*
X257100Y82600D02*
Y82200D01*
X257900D01*
Y82600D01*
X258300D01*
Y83400D01*
X257900D01*
Y83800D01*
X257100D01*
Y83400D01*
X256700D01*
Y82600D01*
X257100D01*
Y92600D02*
Y92200D01*
X257900D01*
Y92600D01*
X258300D01*
Y93400D01*
X257900D01*
Y93800D01*
X257100D01*
Y93400D01*
X256700D01*
Y92600D01*
X257100D01*
X31248Y176078D02*
X31648Y176478D01*
X32048D01*
X31648Y176878D01*
X32048Y177278D01*
X31648D01*
X31248Y177678D01*
X30848Y177278D01*
X30448D01*
X30848Y176878D01*
X30448Y176478D01*
X30848D01*
X31248Y176078D01*
Y153322D02*
X31648Y153722D01*
X32048D01*
X31648Y154122D01*
X32048Y154522D01*
X31648D01*
X31248Y154922D01*
X30848Y154522D01*
X30448D01*
X30848Y154122D01*
X30448Y153722D01*
X30848D01*
X31248Y153322D01*
X34000Y111700D02*
X33200Y113300D01*
X34800D01*
X34000Y111700D01*
X44000D02*
X43200Y113300D01*
X44800D01*
X44000Y111700D01*
X34000Y101700D02*
X33200Y103300D01*
X34800D01*
X34000Y101700D01*
X44000D02*
X43200Y103300D01*
X44800D01*
X44000Y101700D01*
X34000Y91700D02*
X33200Y93300D01*
X34800D01*
X34000Y91700D01*
X44000D02*
X43200Y93300D01*
X44800D01*
X44000Y91700D01*
X34000Y81700D02*
X33200Y83300D01*
X34800D01*
X34000Y81700D01*
X44000D02*
X43200Y83300D01*
X44800D01*
X44000Y81700D01*
X34000Y71700D02*
X33200Y73300D01*
X34800D01*
X34000Y71700D01*
X44000D02*
X43200Y73300D01*
X44800D01*
X44000Y71700D01*
X78700Y106200D02*
X79100Y107000D01*
X78700Y107800D01*
X79500Y107400D01*
X80300Y107800D01*
X79900Y107000D01*
X80300Y106200D01*
X79500Y106600D01*
X78700Y106200D01*
X88700D02*
X89100Y107000D01*
X88700Y107800D01*
X89500Y107400D01*
X90300Y107800D01*
X89900Y107000D01*
X90300Y106200D01*
X89500Y106600D01*
X88700Y106200D01*
X55200Y298200D02*
Y299800D01*
X56800D01*
Y298200D01*
X55200D01*
X65200D02*
Y299800D01*
X66800D01*
Y298200D01*
X65200D01*
X75200D02*
Y299800D01*
X76800D01*
Y298200D01*
X75200D01*
X85200D02*
Y299800D01*
X86800D01*
Y298200D01*
X85200D01*
X115700Y155200D02*
Y156800D01*
X117300D01*
Y155200D01*
X115700D01*
X105700D02*
Y156800D01*
X107300D01*
Y155200D01*
X105700D01*
X95700D02*
Y156800D01*
X97300D01*
Y155200D01*
X95700D01*
X85700D02*
Y156800D01*
X87300D01*
Y155200D01*
X85700D01*
X144200Y286700D02*
X144600Y287500D01*
X144200Y288300D01*
X145000Y287900D01*
X145800Y288300D01*
X145400Y287500D01*
X145800Y286700D01*
X145000Y287100D01*
X144200Y286700D01*
X154200D02*
X154600Y287500D01*
X154200Y288300D01*
X155000Y287900D01*
X155800Y288300D01*
X155400Y287500D01*
X155800Y286700D01*
X155000Y287100D01*
X154200Y286700D01*
X108700D02*
X109100Y287500D01*
X108700Y288300D01*
X109500Y287900D01*
X110300Y288300D01*
X109900Y287500D01*
X110300Y286700D01*
X109500Y287100D01*
X108700Y286700D01*
X118700D02*
X119100Y287500D01*
X118700Y288300D01*
X119500Y287900D01*
X120300Y288300D01*
X119900Y287500D01*
X120300Y286700D01*
X119500Y287100D01*
X118700Y286700D01*
X185700Y298200D02*
Y299800D01*
X187300D01*
Y298200D01*
X185700D01*
X195700D02*
Y299800D01*
X197300D01*
Y298200D01*
X195700D01*
X205700D02*
Y299800D01*
X207300D01*
Y298200D01*
X205700D01*
X215700D02*
Y299800D01*
X217300D01*
Y298200D01*
X215700D01*
X70200Y131000D02*
X71000Y131800D01*
X71800Y131000D01*
X71000Y130200D01*
X70200Y131000D01*
Y160000D02*
X71000Y160800D01*
X71800Y160000D01*
X71000Y159200D01*
X70200Y160000D01*
X63200Y151000D02*
X64000Y151800D01*
X64800Y151000D01*
X64000Y150200D01*
X63200Y151000D01*
X101200Y17500D02*
X102000Y18300D01*
X102800Y17500D01*
X102000Y16700D01*
X101200Y17500D01*
X213774Y131574D02*
X214574Y132374D01*
X215374Y131574D01*
X214574Y130774D01*
X213774Y131574D01*
X33200Y274500D02*
X34000Y275300D01*
X34800Y274500D01*
X34000Y273700D01*
X33200Y274500D01*
X59700Y275000D02*
X60500Y275800D01*
X61300Y275000D01*
X60500Y274200D01*
X59700Y275000D01*
X178700Y188000D02*
X179500Y188800D01*
X180300Y188000D01*
X179500Y187200D01*
X178700Y188000D01*
X208700D02*
X209500Y188800D01*
X210300Y188000D01*
X209500Y187200D01*
X208700Y188000D01*
X268700Y137500D02*
X269500Y138300D01*
X270300Y137500D01*
X269500Y136700D01*
X268700Y137500D01*
X93700Y177000D02*
X94500Y177800D01*
X95300Y177000D01*
X94500Y176200D01*
X93700Y177000D01*
X112700Y174000D02*
X113500Y174800D01*
X114300Y174000D01*
X113500Y173200D01*
X112700Y174000D01*
X67200Y190500D02*
X68000Y191300D01*
X68800Y190500D01*
X68000Y189700D01*
X67200Y190500D01*
X56700Y198000D02*
X57500Y198800D01*
X58300Y198000D01*
X57500Y197200D01*
X56700Y198000D01*
X111200Y271000D02*
X112000Y271800D01*
X112800Y271000D01*
X112000Y270200D01*
X111200Y271000D01*
X169200Y145500D02*
X170000Y146300D01*
X170800Y145500D01*
X170000Y144700D01*
X169200Y145500D01*
Y153500D02*
X170000Y154300D01*
X170800Y153500D01*
X170000Y152700D01*
X169200Y153500D01*
X242200Y121500D02*
X243000Y122300D01*
X243800Y121500D01*
X243000Y120700D01*
X242200Y121500D01*
Y128500D02*
X243000Y129300D01*
X243800Y128500D01*
X243000Y127700D01*
X242200Y128500D01*
X238200Y136500D02*
X239000Y137300D01*
X239800Y136500D01*
X239000Y135700D01*
X238200Y136500D01*
X231200D02*
X232000Y137300D01*
X232800Y136500D01*
X232000Y135700D01*
X231200Y136500D01*
X142200Y133000D02*
X143000Y133800D01*
X143800Y133000D01*
X143000Y132200D01*
X142200Y133000D01*
X161200Y127000D02*
X162000Y127800D01*
X162800Y127000D01*
X162000Y126200D01*
X161200Y127000D01*
X168200Y120000D02*
X169000Y120800D01*
X169800Y120000D01*
X169000Y119200D01*
X168200Y120000D01*
X251200Y110000D02*
X252000Y110800D01*
X252800Y110000D01*
X252000Y109200D01*
X251200Y110000D01*
X49700Y162266D02*
X50500Y163066D01*
X51300Y162266D01*
X50500Y161466D01*
X49700Y162266D01*
X118701Y163501D02*
X119501Y164301D01*
X120301Y163501D01*
X119501Y162701D01*
X118701Y163501D01*
X88200Y194000D02*
X89000Y194800D01*
X89800Y194000D01*
X89000Y193200D01*
X88200Y194000D01*
X73200Y196500D02*
X74000Y197300D01*
X74800Y196500D01*
X74000Y195700D01*
X73200Y196500D01*
Y190500D02*
X74000Y191300D01*
X74800Y190500D01*
X74000Y189700D01*
X73200Y190500D01*
X220700Y217500D02*
X221500Y218300D01*
X222300Y217500D01*
X221500Y216700D01*
X220700Y217500D01*
Y223000D02*
X221500Y223800D01*
X222300Y223000D01*
X221500Y222200D01*
X220700Y223000D01*
Y229000D02*
X221500Y229800D01*
X222300Y229000D01*
X221500Y228200D01*
X220700Y229000D01*
X220450Y234250D02*
X221250Y235050D01*
X222050Y234250D01*
X221250Y233450D01*
X220450Y234250D01*
X123200Y22000D02*
X124000Y22800D01*
X124800Y22000D01*
X124000Y21200D01*
X123200Y22000D01*
X49700Y183000D02*
X50500Y183800D01*
X51300Y183000D01*
X50500Y182200D01*
X49700Y183000D01*
X108700Y117000D02*
X109500Y117800D01*
X110300Y117000D01*
X109500Y116200D01*
X108700Y117000D01*
X266700Y216000D02*
X267500Y216800D01*
X268300Y216000D01*
X267500Y215200D01*
X266700Y216000D01*
X96200Y39000D02*
X97000Y39800D01*
X97800Y39000D01*
X97000Y38200D01*
X96200Y39000D01*
X70700Y55000D02*
X71500Y55800D01*
X72300Y55000D01*
X71500Y54200D01*
X70700Y55000D01*
X140200Y25000D02*
X141000Y25800D01*
X141800Y25000D01*
X141000Y24200D01*
X140200Y25000D01*
X147700Y215500D02*
X148500Y216300D01*
X149300Y215500D01*
X148500Y214700D01*
X147700Y215500D01*
X204200Y77000D02*
X205000Y77800D01*
X205800Y77000D01*
X205000Y76200D01*
X204200Y77000D01*
X168200Y75000D02*
X169000Y75800D01*
X169800Y75000D01*
X169000Y74200D01*
X168200Y75000D01*
X243700Y87500D02*
X244500Y88300D01*
X245300Y87500D01*
X244500Y86700D01*
X243700Y87500D01*
X150200Y151500D02*
X151000Y152300D01*
X151800Y151500D01*
X151000Y150700D01*
X150200Y151500D01*
X219950Y159500D02*
X220750Y160300D01*
X221550Y159500D01*
X220750Y158700D01*
X219950Y159500D01*
X222700Y136500D02*
X223500Y137300D01*
X224300Y136500D01*
X223500Y135700D01*
X222700Y136500D01*
X208700Y141000D02*
X209500Y141800D01*
X210300Y141000D01*
X209500Y140200D01*
X208700Y141000D01*
X256200Y253000D02*
X257000Y253800D01*
X257800Y253000D01*
X257000Y252200D01*
X256200Y253000D01*
X49700Y171500D02*
X50500Y172300D01*
X51300Y171500D01*
X50500Y170700D01*
X49700Y171500D01*
X96700Y133000D02*
X97500Y133800D01*
X98300Y133000D01*
X97500Y132200D01*
X96700Y133000D01*
X116700Y134000D02*
X117500Y134800D01*
X118300Y134000D01*
X117500Y133200D01*
X116700Y134000D01*
X130200Y131000D02*
X131000Y131800D01*
X131800Y131000D01*
X131000Y130200D01*
X130200Y131000D01*
X131700Y122500D02*
X132500Y123300D01*
X133300Y122500D01*
X132500Y121700D01*
X131700Y122500D01*
X135200Y108500D02*
X136000Y109300D01*
X136800Y108500D01*
X136000Y107700D01*
X135200Y108500D01*
X67200Y230500D02*
X68000Y231300D01*
X68800Y230500D01*
X68000Y229700D01*
X67200Y230500D01*
X66700Y219000D02*
X67500Y219800D01*
X68300Y219000D01*
X67500Y218200D01*
X66700Y219000D01*
X135700Y176000D02*
X136500Y176800D01*
X137300Y176000D01*
X136500Y175200D01*
X135700Y176000D01*
X93200Y184500D02*
X94000Y185300D01*
X94800Y184500D01*
X94000Y183700D01*
X93200Y184500D01*
X150200Y191000D02*
X151000Y191800D01*
X151800Y191000D01*
X151000Y190200D01*
X150200Y191000D01*
X133200Y194500D02*
X134000Y195300D01*
X134800Y194500D01*
X134000Y193700D01*
X133200Y194500D01*
X133700Y206500D02*
X134500Y207300D01*
X135300Y206500D01*
X134500Y205700D01*
X133700Y206500D01*
Y222000D02*
X134500Y222800D01*
X135300Y222000D01*
X134500Y221200D01*
X133700Y222000D01*
X145700Y276500D02*
X146500Y277300D01*
X147300Y276500D01*
X146500Y275700D01*
X145700Y276500D01*
X122200Y277000D02*
X123000Y277800D01*
X123800Y277000D01*
X123000Y276200D01*
X122200Y277000D01*
X204700Y109500D02*
X205500Y110300D01*
X206300Y109500D01*
X205500Y108700D01*
X204700Y109500D01*
X152200Y252500D02*
X153000Y253300D01*
X153800Y252500D01*
X153000Y251700D01*
X152200Y252500D01*
X157200Y171500D02*
X158000Y172300D01*
X158800Y171500D01*
X158000Y170700D01*
X157200Y171500D01*
X230200Y18000D02*
X231000Y18800D01*
X231800Y18000D01*
X231000Y17200D01*
X230200Y18000D01*
X244200Y33500D02*
X245000Y34300D01*
X245800Y33500D01*
X245000Y32700D01*
X244200Y33500D01*
X250200D02*
X251000Y34300D01*
X251800Y33500D01*
X251000Y32700D01*
X250200Y33500D01*
X230200Y56500D02*
X231000Y57300D01*
X231800Y56500D01*
X231000Y55700D01*
X230200Y56500D01*
X220200Y76000D02*
X221000Y76800D01*
X221800Y76000D01*
X221000Y75200D01*
X220200Y76000D01*
X231200Y94500D02*
X232000Y95300D01*
X232800Y94500D01*
X232000Y93700D01*
X231200Y94500D01*
X213700Y119500D02*
X214500Y120300D01*
X215300Y119500D01*
X214500Y118700D01*
X213700Y119500D01*
X245200Y151500D02*
X246000Y152300D01*
X246800Y151500D01*
X246000Y150700D01*
X245200Y151500D01*
X253200Y156000D02*
X254000Y156800D01*
X254800Y156000D01*
X254000Y155200D01*
X253200Y156000D01*
X210700Y157000D02*
X211500Y157800D01*
X212300Y157000D01*
X211500Y156200D01*
X210700Y157000D01*
X267200Y170000D02*
X268000Y170800D01*
X268800Y170000D01*
X268000Y169200D01*
X267200Y170000D01*
X228200Y180000D02*
X229000Y180800D01*
X229800Y180000D01*
X229000Y179200D01*
X228200Y180000D01*
X282200D02*
X283000Y180800D01*
X283800Y180000D01*
X283000Y179200D01*
X282200Y180000D01*
X174700Y237500D02*
X175500Y238300D01*
X176300Y237500D01*
X175500Y236700D01*
X174700Y237500D01*
Y207500D02*
X175500Y208300D01*
X176300Y207500D01*
X175500Y206700D01*
X174700Y207500D01*
X204700Y263500D02*
X205500Y264300D01*
X206300Y263500D01*
X205500Y262700D01*
X204700Y263500D01*
X178700Y194000D02*
X179500Y194800D01*
X180300Y194000D01*
X179500Y193200D01*
X178700Y194000D01*
X177700Y230000D02*
X178500Y230800D01*
X179300Y230000D01*
X178500Y229200D01*
X177700Y230000D01*
X163700Y252730D02*
X164500Y253530D01*
X165300Y252730D01*
X164500Y251930D01*
X163700Y252730D01*
X175200Y222000D02*
X176000Y222800D01*
X176800Y222000D01*
X176000Y221200D01*
X175200Y222000D01*
X179950Y241500D02*
X180750Y242300D01*
X181550Y241500D01*
X180750Y240700D01*
X179950Y241500D01*
X192200Y204500D02*
X193000Y205300D01*
X193800Y204500D01*
X193000Y203700D01*
X192200Y204500D01*
X197700Y237000D02*
X198500Y237800D01*
X199300Y237000D01*
X198500Y236200D01*
X197700Y237000D01*
X198700Y226500D02*
X199500Y227300D01*
X200300Y226500D01*
X199500Y225700D01*
X198700Y226500D01*
X236200Y190500D02*
X237000Y191300D01*
X237800Y190500D01*
X237000Y189700D01*
X236200Y190500D01*
X267200Y195000D02*
X268000Y195800D01*
X268800Y195000D01*
X268000Y194200D01*
X267200Y195000D01*
X282200Y206000D02*
X283000Y206800D01*
X283800Y206000D01*
X283000Y205200D01*
X282200Y206000D01*
X238700Y214000D02*
X239500Y214800D01*
X240300Y214000D01*
X239500Y213200D01*
X238700Y214000D01*
X282200Y221500D02*
X283000Y222300D01*
X283800Y221500D01*
X283000Y220700D01*
X282200Y221500D01*
X231200Y222500D02*
X232000Y223300D01*
X232800Y222500D01*
X232000Y221700D01*
X231200Y222500D01*
X282200Y232000D02*
X283000Y232800D01*
X283800Y232000D01*
X283000Y231200D01*
X282200Y232000D01*
X302200Y243000D02*
X303000Y243800D01*
X303800Y243000D01*
X303000Y242200D01*
X302200Y243000D01*
X223700Y244500D02*
X224500Y245300D01*
X225300Y244500D01*
X224500Y243700D01*
X223700Y244500D01*
X211200Y245000D02*
X212000Y245800D01*
X212800Y245000D01*
X212000Y244200D01*
X211200Y245000D01*
X267700Y258000D02*
X268500Y258800D01*
X269300Y258000D01*
X268500Y257200D01*
X267700Y258000D01*
X225700Y264000D02*
X226500Y264800D01*
X227300Y264000D01*
X226500Y263200D01*
X225700Y264000D01*
X205200Y273000D02*
X206000Y273800D01*
X206800Y273000D01*
X206000Y272200D01*
X205200Y273000D01*
X234700D02*
X235500Y273800D01*
X236300Y273000D01*
X235500Y272200D01*
X234700Y273000D01*
X204813Y279230D02*
X205613Y280030D01*
X206413Y279230D01*
X205613Y278430D01*
X204813Y279230D01*
X259700Y297500D02*
X260500Y298300D01*
X261300Y297500D01*
X260500Y296700D01*
X259700Y297500D01*
X74200Y245500D02*
X75000Y246300D01*
X75800Y245500D01*
X75000Y244700D01*
X74200Y245500D01*
X125200Y229000D02*
X126000Y229800D01*
X126800Y229000D01*
X126000Y228200D01*
X125200Y229000D01*
X101700Y230000D02*
X102500Y230800D01*
X103300Y230000D01*
X102500Y229200D01*
X101700Y230000D01*
X141200Y233000D02*
X142000Y233800D01*
X142800Y233000D01*
X142000Y232200D01*
X141200Y233000D01*
X138700Y246000D02*
X139500Y246800D01*
X140300Y246000D01*
X139500Y245200D01*
X138700Y246000D01*
X129700Y251500D02*
X130500Y252300D01*
X131300Y251500D01*
X130500Y250700D01*
X129700Y251500D01*
X96200Y267500D02*
X97000Y268300D01*
X97800Y267500D01*
X97000Y266700D01*
X96200Y267500D01*
X161200Y134000D02*
X162000Y134800D01*
X162800Y134000D01*
X162000Y133200D01*
X161200Y134000D01*
X192700Y130000D02*
X193500Y130800D01*
X194300Y130000D01*
X193500Y129200D01*
X192700Y130000D01*
X194700Y141500D02*
X195500Y142300D01*
X196300Y141500D01*
X195500Y140700D01*
X194700Y141500D01*
X271700Y105000D02*
X272500Y105800D01*
X273300Y105000D01*
X272500Y104200D01*
X271700Y105000D01*
D100*
X126500Y67831D02*
G03*
X126500Y67831I-800J0D01*
G01*
X136500D02*
G03*
X136500Y67831I-800J0D01*
G01*
X146500D02*
G03*
X146500Y67831I-800J0D01*
G01*
X156500D02*
G03*
X156500Y67831I-800J0D01*
G01*
X180500D02*
G03*
X180500Y67831I-800J0D01*
G01*
X190500D02*
G03*
X190500Y67831I-800J0D01*
G01*
X200500D02*
G03*
X200500Y67831I-800J0D01*
G01*
X210500D02*
G03*
X210500Y67831I-800J0D01*
G01*
X232000D02*
G03*
X232000Y67831I-800J0D01*
G01*
X242000D02*
G03*
X242000Y67831I-800J0D01*
G01*
X252000D02*
G03*
X252000Y67831I-800J0D01*
G01*
X262000D02*
G03*
X262000Y67831I-800J0D01*
G01*
X72800D02*
G03*
X72800Y67831I-800J0D01*
G01*
X82800D02*
G03*
X82800Y67831I-800J0D01*
G01*
X92800D02*
G03*
X92800Y67831I-800J0D01*
G01*
X102800D02*
G03*
X102800Y67831I-800J0D01*
G01*
M02*
