G04*
G04 #@! TF.GenerationSoftware,Altium Limited,Altium Designer,22.9.1 (49)*
G04*
G04 Layer_Color=16711935*
%FSLAX24Y24*%
%MOIN*%
G70*
G04*
G04 #@! TF.SameCoordinates,54DEFAFE-76A2-4419-BEBC-3D5CD7468304*
G04*
G04*
G04 #@! TF.FilePolarity,Positive*
G04*
G01*
G75*
%ADD14C,0.0100*%
%ADD64C,0.0400*%
%ADD96C,0.0060*%
D14*
X35700Y600D02*
X35900Y0D01*
X36100Y600D01*
X35900Y30000D02*
X36100Y29400D01*
X35700D02*
X35900Y30000D01*
Y0D02*
Y12731D01*
Y16949D02*
Y30000D01*
X34550Y0D02*
X36000D01*
X34000Y30000D02*
X36000D01*
X0Y33350D02*
X600Y33550D01*
X0Y33350D02*
X600Y33150D01*
X29400D02*
X30000Y33350D01*
X29400Y33550D02*
X30000Y33350D01*
X0D02*
X12731D01*
X16949D02*
X30000D01*
X0Y31000D02*
Y33450D01*
X30000Y31900D02*
Y33450D01*
D64*
X29250Y2000D02*
G03*
X29250Y2000I-500J0D01*
G01*
Y27500D02*
G03*
X29250Y27500I-500J0D01*
G01*
X1750Y2000D02*
G03*
X1750Y2000I-500J0D01*
G01*
Y27500D02*
G03*
X1750Y27500I-500J0D01*
G01*
X0Y1500D02*
Y28500D01*
X1500Y30000D01*
X28500D01*
X30000Y28500D01*
Y1500D02*
Y28500D01*
X28500Y0D02*
X30000Y1500D01*
X1500Y-0D02*
X28500Y0D01*
X0Y1500D02*
X1500Y0D01*
D96*
X35760Y12891D02*
X35660Y12991D01*
Y13191D01*
X35760Y13290D01*
X35860D01*
X35960Y13191D01*
Y13091D01*
Y13191D01*
X36060Y13290D01*
X36160D01*
X36260Y13191D01*
Y12991D01*
X36160Y12891D01*
X35760Y13490D02*
X35660Y13590D01*
Y13790D01*
X35760Y13890D01*
X36160D01*
X36260Y13790D01*
Y13590D01*
X36160Y13490D01*
X35760D01*
Y14090D02*
X35660Y14190D01*
Y14390D01*
X35760Y14490D01*
X36160D01*
X36260Y14390D01*
Y14190D01*
X36160Y14090D01*
X35760D01*
Y14690D02*
X35660Y14790D01*
Y14990D01*
X35760Y15090D01*
X36160D01*
X36260Y14990D01*
Y14790D01*
X36160Y14690D01*
X35760D01*
X36260Y15290D02*
X36160D01*
Y15390D01*
X36260D01*
Y15290D01*
X35760Y15790D02*
X35660Y15890D01*
Y16090D01*
X35760Y16190D01*
X36160D01*
X36260Y16090D01*
Y15890D01*
X36160Y15790D01*
X35760D01*
Y16389D02*
X35660Y16489D01*
Y16689D01*
X35760Y16789D01*
X36160D01*
X36260Y16689D01*
Y16489D01*
X36160Y16389D01*
X35760D01*
X12891Y33490D02*
X12991Y33590D01*
X13191D01*
X13290Y33490D01*
Y33390D01*
X13191Y33290D01*
X13091D01*
X13191D01*
X13290Y33190D01*
Y33090D01*
X13191Y32990D01*
X12991D01*
X12891Y33090D01*
X13490Y33490D02*
X13590Y33590D01*
X13790D01*
X13890Y33490D01*
Y33090D01*
X13790Y32990D01*
X13590D01*
X13490Y33090D01*
Y33490D01*
X14090D02*
X14190Y33590D01*
X14390D01*
X14490Y33490D01*
Y33090D01*
X14390Y32990D01*
X14190D01*
X14090Y33090D01*
Y33490D01*
X14690D02*
X14790Y33590D01*
X14990D01*
X15090Y33490D01*
Y33090D01*
X14990Y32990D01*
X14790D01*
X14690Y33090D01*
Y33490D01*
X15290Y32990D02*
Y33090D01*
X15390D01*
Y32990D01*
X15290D01*
X15790Y33490D02*
X15890Y33590D01*
X16090D01*
X16190Y33490D01*
Y33090D01*
X16090Y32990D01*
X15890D01*
X15790Y33090D01*
Y33490D01*
X16389D02*
X16489Y33590D01*
X16689D01*
X16789Y33490D01*
Y33090D01*
X16689Y32990D01*
X16489D01*
X16389Y33090D01*
Y33490D01*
M02*
