G04*
G04 #@! TF.GenerationSoftware,Altium Limited,Altium Designer,22.9.1 (49)*
G04*
G04 Layer_Color=8388736*
%FSLAX24Y24*%
%MOIN*%
G70*
G04*
G04 #@! TF.SameCoordinates,54DEFAFE-76A2-4419-BEBC-3D5CD7468304*
G04*
G04*
G04 #@! TF.FilePolarity,Negative*
G04*
G01*
G75*
%ADD17R,0.0315X0.0315*%
%ADD18R,0.0123X0.0770*%
G04:AMPARAMS|DCode=19|XSize=77mil|YSize=12.3mil|CornerRadius=6.2mil|HoleSize=0mil|Usage=FLASHONLY|Rotation=90.000|XOffset=0mil|YOffset=0mil|HoleType=Round|Shape=RoundedRectangle|*
%AMROUNDEDRECTD19*
21,1,0.0770,0.0000,0,0,90.0*
21,1,0.0647,0.0123,0,0,90.0*
1,1,0.0123,0.0000,0.0323*
1,1,0.0123,0.0000,-0.0323*
1,1,0.0123,0.0000,-0.0323*
1,1,0.0123,0.0000,0.0323*
%
%ADD19ROUNDEDRECTD19*%
G04:AMPARAMS|DCode=20|XSize=12.3mil|YSize=77mil|CornerRadius=6.2mil|HoleSize=0mil|Usage=FLASHONLY|Rotation=90.000|XOffset=0mil|YOffset=0mil|HoleType=Round|Shape=RoundedRectangle|*
%AMROUNDEDRECTD20*
21,1,0.0123,0.0647,0,0,90.0*
21,1,0.0000,0.0770,0,0,90.0*
1,1,0.0123,0.0323,0.0000*
1,1,0.0123,0.0323,0.0000*
1,1,0.0123,-0.0323,0.0000*
1,1,0.0123,-0.0323,0.0000*
%
%ADD20ROUNDEDRECTD20*%
%ADD30R,0.0315X0.0315*%
%ADD31R,0.0533X0.0198*%
%ADD32R,0.0867X0.0938*%
%ADD33R,0.0470X0.0387*%
%ADD34R,0.0415X0.0198*%
%ADD35R,0.0198X0.0415*%
%ADD36R,0.1084X0.1084*%
%ADD37R,0.0387X0.0470*%
%ADD38R,0.0907X0.0631*%
%ADD39R,0.2285X0.0907*%
%ADD40R,0.0454X0.0434*%
%ADD41R,0.0434X0.0454*%
%ADD42C,0.0759*%
%ADD43R,0.0759X0.0759*%
%ADD44C,0.0208*%
%ADD45R,0.0671X0.0671*%
%ADD46C,0.0671*%
%ADD47C,0.0730*%
%ADD48R,0.0730X0.0730*%
%ADD49C,0.0582*%
%ADD50R,0.0582X0.0582*%
%ADD51C,0.0330*%
%ADD52C,0.0580*%
D17*
X25015Y10800D02*
D03*
X24385D02*
D03*
X10065Y24700D02*
D03*
X9435D02*
D03*
X10115Y23050D02*
D03*
X9485D02*
D03*
D18*
X16272Y15815D02*
D03*
D19*
X16469D02*
D03*
X16666D02*
D03*
X16863D02*
D03*
X17060D02*
D03*
X17256D02*
D03*
X17453D02*
D03*
X17650D02*
D03*
X17847D02*
D03*
X18044D02*
D03*
X18241D02*
D03*
X18438D02*
D03*
X18634D02*
D03*
X18831D02*
D03*
X19028D02*
D03*
X19225D02*
D03*
X19422D02*
D03*
X19619D02*
D03*
X19815D02*
D03*
X20012D02*
D03*
X20209D02*
D03*
X20406D02*
D03*
X20603D02*
D03*
X20800D02*
D03*
X20997D02*
D03*
X21193D02*
D03*
X21390D02*
D03*
X21587D02*
D03*
X21784D02*
D03*
X21981D02*
D03*
X22178D02*
D03*
X22375D02*
D03*
X22571D02*
D03*
X22768D02*
D03*
X22965D02*
D03*
X23162D02*
D03*
Y24221D02*
D03*
X22965D02*
D03*
X22768D02*
D03*
X22571D02*
D03*
X22375D02*
D03*
X22178D02*
D03*
X21981D02*
D03*
X21784D02*
D03*
X21587D02*
D03*
X21390D02*
D03*
X21193D02*
D03*
X20997D02*
D03*
X20800D02*
D03*
X20603D02*
D03*
X20406D02*
D03*
X20209D02*
D03*
X20012D02*
D03*
X19815D02*
D03*
X19619D02*
D03*
X19422D02*
D03*
X19225D02*
D03*
X19028D02*
D03*
X18831D02*
D03*
X18634D02*
D03*
X18438D02*
D03*
X18241D02*
D03*
X18044D02*
D03*
X17847D02*
D03*
X17650D02*
D03*
X17453D02*
D03*
X17256D02*
D03*
X17060D02*
D03*
X16863D02*
D03*
X16666D02*
D03*
X16469D02*
D03*
X16272D02*
D03*
D20*
X23920Y16573D02*
D03*
Y16770D02*
D03*
Y16967D02*
D03*
Y17163D02*
D03*
Y17360D02*
D03*
Y17557D02*
D03*
Y17754D02*
D03*
Y17951D02*
D03*
Y18148D02*
D03*
Y18344D02*
D03*
Y18541D02*
D03*
Y18738D02*
D03*
Y18935D02*
D03*
Y19132D02*
D03*
Y19329D02*
D03*
Y19526D02*
D03*
Y19722D02*
D03*
Y19919D02*
D03*
Y20116D02*
D03*
Y20313D02*
D03*
Y20510D02*
D03*
Y20707D02*
D03*
Y20904D02*
D03*
Y21100D02*
D03*
Y21297D02*
D03*
Y21494D02*
D03*
Y21691D02*
D03*
Y21888D02*
D03*
Y22085D02*
D03*
Y22281D02*
D03*
Y22478D02*
D03*
Y22675D02*
D03*
Y22872D02*
D03*
Y23069D02*
D03*
Y23266D02*
D03*
Y23463D02*
D03*
X15514D02*
D03*
Y23266D02*
D03*
Y23069D02*
D03*
Y22872D02*
D03*
Y22675D02*
D03*
Y22478D02*
D03*
Y22281D02*
D03*
Y22085D02*
D03*
Y21888D02*
D03*
Y21691D02*
D03*
Y21494D02*
D03*
Y21297D02*
D03*
Y21100D02*
D03*
Y20904D02*
D03*
Y20707D02*
D03*
Y20510D02*
D03*
Y20313D02*
D03*
Y20116D02*
D03*
Y19919D02*
D03*
Y19722D02*
D03*
Y19526D02*
D03*
Y19329D02*
D03*
Y19132D02*
D03*
Y18935D02*
D03*
Y18738D02*
D03*
Y18541D02*
D03*
Y18344D02*
D03*
Y18148D02*
D03*
Y17951D02*
D03*
Y17754D02*
D03*
Y17557D02*
D03*
Y17360D02*
D03*
Y17163D02*
D03*
Y16967D02*
D03*
Y16770D02*
D03*
Y16573D02*
D03*
D30*
X25000Y27715D02*
D03*
Y27085D02*
D03*
D31*
X4473Y17181D02*
D03*
Y16866D02*
D03*
Y16354D02*
D03*
Y15961D02*
D03*
Y15764D02*
D03*
Y15370D02*
D03*
Y14858D02*
D03*
Y14543D02*
D03*
Y14661D02*
D03*
Y14976D02*
D03*
Y15173D02*
D03*
Y15567D02*
D03*
Y16157D02*
D03*
Y16551D02*
D03*
Y16748D02*
D03*
Y17063D02*
D03*
D32*
X2700Y17874D02*
D03*
Y13850D02*
D03*
X4247Y17874D02*
D03*
Y13850D02*
D03*
D33*
X18820Y25706D02*
D03*
Y26257D02*
D03*
X16270Y25706D02*
D03*
Y26257D02*
D03*
X17220Y14307D02*
D03*
Y13756D02*
D03*
X19420Y14307D02*
D03*
Y13756D02*
D03*
X22120Y14307D02*
D03*
Y13756D02*
D03*
X21320Y14307D02*
D03*
Y13756D02*
D03*
X22820Y14307D02*
D03*
Y13756D02*
D03*
X20970Y25706D02*
D03*
Y26257D02*
D03*
X6350Y21376D02*
D03*
Y20824D02*
D03*
X7100Y21376D02*
D03*
Y20824D02*
D03*
D34*
X5682Y23992D02*
D03*
Y23795D02*
D03*
Y23598D02*
D03*
Y23402D02*
D03*
Y23205D02*
D03*
Y23008D02*
D03*
X7218D02*
D03*
Y23205D02*
D03*
Y23402D02*
D03*
Y23598D02*
D03*
Y23795D02*
D03*
Y23992D02*
D03*
D35*
X5958Y22732D02*
D03*
X6155D02*
D03*
X6352D02*
D03*
X6548D02*
D03*
X6745D02*
D03*
X6942D02*
D03*
Y24268D02*
D03*
X6745D02*
D03*
X6548D02*
D03*
X6352D02*
D03*
X6155D02*
D03*
X5958D02*
D03*
D36*
X6450Y23500D02*
D03*
D37*
X4926Y21950D02*
D03*
X4374D02*
D03*
X25474Y19550D02*
D03*
X26026D02*
D03*
X25444Y22882D02*
D03*
X25996D02*
D03*
X13996Y21132D02*
D03*
X13444D02*
D03*
X13996Y19132D02*
D03*
X13444D02*
D03*
X25444Y21482D02*
D03*
X25996D02*
D03*
X25444Y16982D02*
D03*
X25996D02*
D03*
X13996Y16582D02*
D03*
X13444D02*
D03*
X4926Y22850D02*
D03*
X4374D02*
D03*
D38*
X14341Y8864D02*
D03*
X10759D02*
D03*
X14341Y10636D02*
D03*
X10759D02*
D03*
D39*
X17980Y9400D02*
D03*
X21720D02*
D03*
D40*
X10550Y20735D02*
D03*
Y21365D02*
D03*
X8250Y21415D02*
D03*
Y20785D02*
D03*
X9250Y21365D02*
D03*
Y20735D02*
D03*
X6200Y26415D02*
D03*
Y25785D02*
D03*
X7100Y26430D02*
D03*
Y25800D02*
D03*
D41*
X3420Y26350D02*
D03*
X4050D02*
D03*
X3435Y24800D02*
D03*
X4065D02*
D03*
X12015Y24700D02*
D03*
X11385D02*
D03*
X12015Y23050D02*
D03*
X11385D02*
D03*
X23165Y27600D02*
D03*
X22535D02*
D03*
D42*
X3350Y6200D02*
D03*
X2350D02*
D03*
X3350Y7200D02*
D03*
X2350D02*
D03*
X3350Y8200D02*
D03*
X2350D02*
D03*
X3350Y9200D02*
D03*
X2350D02*
D03*
X3350Y10200D02*
D03*
D43*
X2350D02*
D03*
D44*
X4050Y17000D02*
D03*
Y14724D02*
D03*
D45*
X7550Y28850D02*
D03*
X6150Y5733D02*
D03*
X20600Y28850D02*
D03*
X16920Y5733D02*
D03*
X11520D02*
D03*
X10600Y14550D02*
D03*
X22070Y5733D02*
D03*
D46*
X6550Y28850D02*
D03*
X5550D02*
D03*
X4550D02*
D03*
X7150Y5733D02*
D03*
X8150D02*
D03*
X9150D02*
D03*
X17600Y28850D02*
D03*
X18600D02*
D03*
X19600D02*
D03*
X19920Y5733D02*
D03*
X18920D02*
D03*
X17920D02*
D03*
X14520D02*
D03*
X13520D02*
D03*
X12520D02*
D03*
X7600Y14550D02*
D03*
X8600D02*
D03*
X9600D02*
D03*
X25070Y5733D02*
D03*
X24070D02*
D03*
X23070D02*
D03*
D47*
X24700Y7250D02*
D03*
D48*
Y8250D02*
D03*
D49*
X7900Y9650D02*
D03*
X14450Y27700D02*
D03*
X10900D02*
D03*
D50*
X6900Y9650D02*
D03*
X13450Y27700D02*
D03*
X9900D02*
D03*
D51*
X15500Y6000D02*
D03*
X7850Y20150D02*
D03*
X20400Y10900D02*
D03*
X16800Y21950D02*
D03*
X25000Y28700D02*
D03*
X15850Y10950D02*
D03*
X27000Y11450D02*
D03*
X5550Y17500D02*
D03*
Y14950D02*
D03*
X18500Y13100D02*
D03*
X20100Y14650D02*
D03*
X20150Y23450D02*
D03*
X16500Y22700D02*
D03*
X17025Y23100D02*
D03*
X18900Y21600D02*
D03*
X14100Y20200D02*
D03*
X22650Y18000D02*
D03*
X22900Y20350D02*
D03*
X21850Y16950D02*
D03*
X10700Y12350D02*
D03*
X22150Y8400D02*
D03*
X8350Y17400D02*
D03*
X5450Y22300D02*
D03*
X11550Y21850D02*
D03*
X12000Y24100D02*
D03*
X9200Y21950D02*
D03*
X19200Y11350D02*
D03*
X11450Y26500D02*
D03*
X13600Y26600D02*
D03*
X8650Y25700D02*
D03*
X6650Y2900D02*
D03*
X9200Y2050D02*
D03*
X14500Y2000D02*
D03*
X19900Y1850D02*
D03*
X25100Y2250D02*
D03*
X16500Y19700D02*
D03*
X14750Y16100D02*
D03*
X17755Y14130D02*
D03*
X16200Y13450D02*
D03*
X21250Y14950D02*
D03*
X24600Y10000D02*
D03*
X25750Y18450D02*
D03*
Y15950D02*
D03*
X25600Y20800D02*
D03*
X25800Y24750D02*
D03*
X18800Y22650D02*
D03*
X15400Y24223D02*
D03*
X16550Y21150D02*
D03*
X16924Y17426D02*
D03*
X21550Y22850D02*
D03*
X20573Y21173D02*
D03*
X21450Y22000D02*
D03*
X21500Y21200D02*
D03*
X11800Y11850D02*
D03*
X9850Y9950D02*
D03*
X2750Y24403D02*
D03*
X2850Y26358D02*
D03*
X6450Y23500D02*
D03*
X5700Y20850D02*
D03*
X3500Y13600D02*
D03*
X3550Y15700D02*
D03*
X8700Y12250D02*
D03*
X3150Y16800D02*
D03*
X27250Y19550D02*
D03*
Y16950D02*
D03*
Y21100D02*
D03*
Y22150D02*
D03*
X29250Y23250D02*
D03*
X22250Y26650D02*
D03*
X19850Y26050D02*
D03*
X19511Y26873D02*
D03*
X15150Y25950D02*
D03*
X12400Y21150D02*
D03*
Y19600D02*
D03*
X12600Y16550D02*
D03*
X22900Y12650D02*
D03*
X23400Y11400D02*
D03*
X22000Y12650D02*
D03*
X21050Y12600D02*
D03*
X20400Y13900D02*
D03*
X23400Y7950D02*
D03*
X21050Y6550D02*
D03*
X17050Y6850D02*
D03*
X16500Y17850D02*
D03*
X18900Y17750D02*
D03*
X18250Y19400D02*
D03*
X19500Y25300D02*
D03*
X21600Y25350D02*
D03*
X26200Y9450D02*
D03*
X22150Y21200D02*
D03*
X7050Y20150D02*
D03*
X6300Y20100D02*
D03*
X5700Y19550D02*
D03*
X25350Y23650D02*
D03*
X8350Y16350D02*
D03*
X9700D02*
D03*
X12900Y23550D02*
D03*
X12350Y18400D02*
D03*
X18300Y11950D02*
D03*
X14150Y14050D02*
D03*
X16450Y18550D02*
D03*
X13800Y22250D02*
D03*
X10600Y26000D02*
D03*
D52*
X19500Y9900D02*
D03*
X19850Y9150D02*
D03*
X22000Y10200D02*
D03*
X12550Y9800D02*
D03*
M02*
