M48
;Layer_Color=9474304
;FILE_FORMAT=2:5
INCH,LZ
;TYPE=PLATED
T1F00S00C0.01500
T2F00S00C0.02800
T3F00S00C0.03346
T4F00S00C0.03543
T5F00S00C0.03937
T6F00S00C0.04331
T7F00S00C0.04528
;TYPE=NON_PLATED
T8F00S00C0.02559
%
T01
X00665Y0029
X0092Y00205
X0145Y002
X0155Y006
X01415Y01405
X0118Y01185
X0107Y01235
X0087Y01225
X00985Y00995
X00555Y01495
X0035Y0136
X0162Y01345
X0177553Y0141303
X0185Y0131
X0183Y01195
X0192Y01135
X0204Y0109
X02105Y0126
X022Y01265
X0229
X0234Y0114
X0246Y01
X0262Y00945
X027Y01145
X0234Y00795
X02215Y0084
X02105Y00655
X01705Y00685
X01585Y01095
X0204Y0139
X0201Y01465
X02125Y01495
X0199Y00185
X0251Y00225
X02575Y01595
Y01845
X0256Y0208
X02725Y0211
Y02215
Y01955
Y01695
X02185
X02265Y018
X0229Y02035
X02215Y0212
X0215
X02145Y022
X02155Y02285
X02015Y02345
X0188Y02265
X0189Y0216
X0205732Y0211732
X01655Y02115
X0168Y02195
X0165Y0227
X017025Y0231
X0165Y0197
X01645Y01855
X0165Y01785
X0169243Y0174257
X0189Y01775
X01825Y0194
X0195Y0253
X01985Y02605
X0195113Y026873
X02225Y02665
X0216Y02535
X0258Y02475
X02535Y02365
X02925Y02325
X025Y0287
X01515Y02595
X0154Y024223
X0129Y02355
X012Y0241
X01155Y02185
X0124Y02115
Y0196
X01235Y0184
X0126Y01655
X01475Y0161
X0141Y0202
X0138Y02225
X0136Y0266
X01145Y0265
X0106Y026
X00865Y0257
X0092Y02195
X00785Y02015
X00705
X0063Y0201
X0057Y01955
Y02085
X00545Y0223
X00645Y0235
X00275Y0244026
X00285Y0263577
X00315Y0168
X00355Y0157
X00555Y0175
X00835Y0174
Y01635
X0097
T02
X01255Y0098
X0195Y0099
X01985Y00915
X022Y0102
T03
X0069Y00965
X0079
X0099Y0277
X0109
X01345
X01445
T04
X0076Y01455
X0086
X0096
X0106
X0176Y02885
X0186
X0196
X0206
X00755
X00655
X00555
X00455
T05
X00615Y0057331
X00715
X00815
X00915
X01152
X01252
X01352
X01452
X01692
X01792
X01892
X01992
X02207
X02307
X02407
X02507
T06
X0247Y00725
Y00825
T07
X00235Y0062
X00335
Y0072
X00235
Y0082
X00335
Y0092
X00235
Y0102
X00335
T08
X00405Y0147244
Y017
M30
