G04*
G04 #@! TF.GenerationSoftware,Altium Limited,Altium Designer,22.9.1 (49)*
G04*
G04 Layer_Color=32896*
%FSLAX24Y24*%
%MOIN*%
G70*
G04*
G04 #@! TF.SameCoordinates,54DEFAFE-76A2-4419-BEBC-3D5CD7468304*
G04*
G04*
G04 #@! TF.FilePolarity,Positive*
G04*
G01*
G75*
%ADD10C,0.0079*%
%ADD11C,0.0098*%
%ADD13C,0.0039*%
%ADD14C,0.0100*%
D10*
X12956Y12650D02*
G03*
X12956Y12650I-20J0D01*
G01*
X6859D02*
G03*
X6859Y12650I-20J0D01*
G01*
X26513Y23300D02*
G03*
X26513Y23300I-20J0D01*
G01*
X17720Y22256D02*
G03*
X17720Y22256I-20J0D01*
G01*
X23420Y9660D02*
G03*
X23420Y9660I-20J0D01*
G01*
X18457Y9481D02*
X19837D01*
X18457Y6919D02*
Y9481D01*
Y6919D02*
X19837D01*
Y9481D01*
X7982Y3500D02*
X8218D01*
X9082D02*
X9318D01*
X18832D02*
X19068D01*
X19782D02*
X20018D01*
X13432D02*
X13668D01*
X14432D02*
X14668D01*
X17500Y17632D02*
Y17868D01*
X17282Y11085D02*
X17518D01*
X8982Y16650D02*
X9218D01*
X7482D02*
X7718D01*
X23932Y3550D02*
X24168D01*
X24982D02*
X25218D01*
X21530Y7169D02*
Y9767D01*
X22770Y7169D02*
Y9531D01*
X15230Y7119D02*
Y9717D01*
X16470Y7119D02*
Y9481D01*
X26132Y10535D02*
X26368D01*
X12032Y26800D02*
X12268D01*
X8539Y27005D02*
X8775D01*
D11*
X20494Y9578D02*
G03*
X20494Y9578I-49J0D01*
G01*
D13*
X1490Y25734D02*
X1963D01*
X1490Y19466D02*
Y25734D01*
Y19466D02*
X1963D01*
X26911Y22749D02*
X28289D01*
X26911Y23851D02*
X28289D01*
X17149Y20461D02*
Y21839D01*
X18251Y20461D02*
Y21839D01*
D14*
X7700Y14090D02*
X7800Y14190D01*
X8000D01*
X8100Y14090D01*
Y13690D01*
X8000Y13590D01*
X7800D01*
X7700Y13690D01*
X7100Y13590D02*
X7500D01*
X7100Y13990D01*
Y14090D01*
X7200Y14190D01*
X7400D01*
X7500Y14090D01*
X6600Y13590D02*
Y14190D01*
X6900Y13890D01*
X6501D01*
X12790Y14090D02*
X12890Y14190D01*
X13090D01*
X13190Y14090D01*
Y13690D01*
X13090Y13590D01*
X12890D01*
X12790Y13690D01*
X12190Y13590D02*
X12590D01*
X12190Y13990D01*
Y14090D01*
X12290Y14190D01*
X12490D01*
X12590Y14090D01*
X11990D02*
X11890Y14190D01*
X11690D01*
X11591Y14090D01*
Y13990D01*
X11690Y13890D01*
X11790D01*
X11690D01*
X11591Y13790D01*
Y13690D01*
X11690Y13590D01*
X11890D01*
X11990Y13690D01*
X18340Y10380D02*
Y10047D01*
X18273Y9980D01*
X18140D01*
X18073Y10047D01*
Y10380D01*
X17674Y9980D02*
X17940D01*
X17674Y10247D01*
Y10313D01*
X17740Y10380D01*
X17873D01*
X17940Y10313D01*
X25340Y4450D02*
Y5050D01*
X25040D01*
X24940Y4950D01*
Y4750D01*
X25040Y4650D01*
X25340D01*
X25140D02*
X24940Y4450D01*
X24740D02*
X24540D01*
X24640D01*
Y5050D01*
X24740Y4950D01*
X23840Y5050D02*
X24040Y4950D01*
X24240Y4750D01*
Y4550D01*
X24140Y4450D01*
X23940D01*
X23840Y4550D01*
Y4650D01*
X23940Y4750D01*
X24240D01*
X26390Y4450D02*
Y5050D01*
X26090D01*
X25990Y4950D01*
Y4750D01*
X26090Y4650D01*
X26390D01*
X26190D02*
X25990Y4450D01*
X25790D02*
X25590D01*
X25690D01*
Y5050D01*
X25790Y4950D01*
X24890Y5050D02*
X25290D01*
Y4750D01*
X25090Y4850D01*
X24990D01*
X24890Y4750D01*
Y4550D01*
X24990Y4450D01*
X25190D01*
X25290Y4550D01*
X19300Y4400D02*
Y4800D01*
X19100D01*
X19033Y4733D01*
Y4600D01*
X19100Y4533D01*
X19300D01*
X19167D02*
X19033Y4400D01*
X18900D02*
X18767D01*
X18833D01*
Y4800D01*
X18900Y4733D01*
X18367Y4400D02*
Y4800D01*
X18567Y4600D01*
X18300D01*
X20690Y4400D02*
Y4800D01*
X20490D01*
X20423Y4733D01*
Y4600D01*
X20490Y4533D01*
X20690D01*
X20557D02*
X20423Y4400D01*
X20290D02*
X20157D01*
X20223D01*
Y4800D01*
X20290Y4733D01*
X19957D02*
X19890Y4800D01*
X19757D01*
X19690Y4733D01*
Y4667D01*
X19757Y4600D01*
X19824D01*
X19757D01*
X19690Y4533D01*
Y4467D01*
X19757Y4400D01*
X19890D01*
X19957Y4467D01*
X13900Y4400D02*
Y4800D01*
X13700D01*
X13633Y4733D01*
Y4600D01*
X13700Y4533D01*
X13900D01*
X13767D02*
X13633Y4400D01*
X13500D02*
X13367D01*
X13433D01*
Y4800D01*
X13500Y4733D01*
X12900Y4400D02*
X13167D01*
X12900Y4667D01*
Y4733D01*
X12967Y4800D01*
X13100D01*
X13167Y4733D01*
X15333Y4400D02*
Y4800D01*
X15133D01*
X15067Y4733D01*
Y4600D01*
X15133Y4533D01*
X15333D01*
X15200D02*
X15067Y4400D01*
X14933D02*
X14800D01*
X14867D01*
Y4800D01*
X14933Y4733D01*
X14600Y4400D02*
X14467D01*
X14533D01*
Y4800D01*
X14600Y4733D01*
X8550Y4400D02*
Y4800D01*
X8350D01*
X8283Y4733D01*
Y4600D01*
X8350Y4533D01*
X8550D01*
X8417D02*
X8283Y4400D01*
X8150D02*
X8017D01*
X8083D01*
Y4800D01*
X8150Y4733D01*
X7817D02*
X7750Y4800D01*
X7617D01*
X7550Y4733D01*
Y4467D01*
X7617Y4400D01*
X7750D01*
X7817Y4467D01*
Y4733D01*
X9660Y4400D02*
Y4800D01*
X9460D01*
X9393Y4733D01*
Y4600D01*
X9460Y4533D01*
X9660D01*
X9527D02*
X9393Y4400D01*
X9260Y4467D02*
X9193Y4400D01*
X9060D01*
X8994Y4467D01*
Y4733D01*
X9060Y4800D01*
X9193D01*
X9260Y4733D01*
Y4667D01*
X9193Y4600D01*
X8994D01*
X8100Y17450D02*
Y18050D01*
X7800D01*
X7700Y17950D01*
Y17750D01*
X7800Y17650D01*
X8100D01*
X7900D02*
X7700Y17450D01*
X7500Y17950D02*
X7400Y18050D01*
X7200D01*
X7100Y17950D01*
Y17850D01*
X7200Y17750D01*
X7100Y17650D01*
Y17550D01*
X7200Y17450D01*
X7400D01*
X7500Y17550D01*
Y17650D01*
X7400Y17750D01*
X7500Y17850D01*
Y17950D01*
X7400Y17750D02*
X7200D01*
X9600Y17450D02*
Y18050D01*
X9300D01*
X9200Y17950D01*
Y17750D01*
X9300Y17650D01*
X9600D01*
X9400D02*
X9200Y17450D01*
X9000Y18050D02*
X8600D01*
Y17950D01*
X9000Y17550D01*
Y17450D01*
X8860Y27910D02*
Y28510D01*
X8560D01*
X8460Y28410D01*
Y28210D01*
X8560Y28110D01*
X8860D01*
X8660D02*
X8460Y27910D01*
X7860Y28510D02*
X8060Y28410D01*
X8260Y28210D01*
Y28010D01*
X8160Y27910D01*
X7960D01*
X7860Y28010D01*
Y28110D01*
X7960Y28210D01*
X8260D01*
X12360Y27700D02*
Y28300D01*
X12060D01*
X11960Y28200D01*
Y28000D01*
X12060Y27900D01*
X12360D01*
X12160D02*
X11960Y27700D01*
X11360Y28300D02*
X11760D01*
Y28000D01*
X11560Y28100D01*
X11460D01*
X11360Y28000D01*
Y27800D01*
X11460Y27700D01*
X11660D01*
X11760Y27800D01*
X26710Y11435D02*
Y11835D01*
X26510D01*
X26443Y11768D01*
Y11635D01*
X26510Y11568D01*
X26710D01*
X26577D02*
X26443Y11435D01*
X26110D02*
Y11835D01*
X26310Y11635D01*
X26044D01*
X18190Y11990D02*
Y12590D01*
X17890D01*
X17790Y12490D01*
Y12290D01*
X17890Y12190D01*
X18190D01*
X17990D02*
X17790Y11990D01*
X17590Y12490D02*
X17490Y12590D01*
X17290D01*
X17190Y12490D01*
Y12390D01*
X17290Y12290D01*
X17390D01*
X17290D01*
X17190Y12190D01*
Y12090D01*
X17290Y11990D01*
X17490D01*
X17590Y12090D01*
X18000Y18360D02*
Y18960D01*
X17700D01*
X17600Y18860D01*
Y18660D01*
X17700Y18560D01*
X18000D01*
X17800D02*
X17600Y18360D01*
X17000D02*
X17400D01*
X17000Y18760D01*
Y18860D01*
X17100Y18960D01*
X17300D01*
X17400Y18860D01*
X2180Y26450D02*
Y27050D01*
X1880D01*
X1780Y26950D01*
Y26750D01*
X1880Y26650D01*
X2180D01*
X1580Y26950D02*
X1480Y27050D01*
X1280D01*
X1180Y26950D01*
Y26850D01*
X1280Y26750D01*
X1180Y26650D01*
Y26550D01*
X1280Y26450D01*
X1480D01*
X1580Y26550D01*
Y26650D01*
X1480Y26750D01*
X1580Y26850D01*
Y26950D01*
X1480Y26750D02*
X1280D01*
X15993Y10463D02*
X16060Y10530D01*
X16193D01*
X16260Y10463D01*
Y10197D01*
X16193Y10130D01*
X16060D01*
X15993Y10197D01*
X15594Y10130D02*
X15860D01*
X15594Y10397D01*
Y10463D01*
X15660Y10530D01*
X15793D01*
X15860Y10463D01*
X15194Y10130D02*
X15460D01*
X15194Y10397D01*
Y10463D01*
X15260Y10530D01*
X15394D01*
X15460Y10463D01*
X23523Y10739D02*
X23590Y10805D01*
X23723D01*
X23790Y10739D01*
Y10472D01*
X23723Y10406D01*
X23590D01*
X23523Y10472D01*
X23124Y10406D02*
X23390D01*
X23124Y10672D01*
Y10739D01*
X23190Y10805D01*
X23323D01*
X23390Y10739D01*
X22990Y10406D02*
X22857D01*
X22924D01*
Y10805D01*
X22990Y10739D01*
X22293Y10513D02*
X22360Y10580D01*
X22493D01*
X22560Y10513D01*
Y10247D01*
X22493Y10180D01*
X22360D01*
X22293Y10247D01*
X21894Y10180D02*
X22160D01*
X21894Y10447D01*
Y10513D01*
X21960Y10580D01*
X22093D01*
X22160Y10513D01*
X21760D02*
X21694Y10580D01*
X21560D01*
X21494Y10513D01*
Y10247D01*
X21560Y10180D01*
X21694D01*
X21760Y10247D01*
Y10513D01*
X19680Y12400D02*
X19780Y12500D01*
X19980D01*
X20080Y12400D01*
Y12000D01*
X19980Y11900D01*
X19780D01*
X19680Y12000D01*
X19480Y11900D02*
X19280D01*
X19380D01*
Y12500D01*
X19480Y12400D01*
X18980Y12000D02*
X18880Y11900D01*
X18680D01*
X18580Y12000D01*
Y12400D01*
X18680Y12500D01*
X18880D01*
X18980Y12400D01*
Y12300D01*
X18880Y12200D01*
X18580D01*
X22980Y12400D02*
X23080Y12500D01*
X23280D01*
X23380Y12400D01*
Y12000D01*
X23280Y11900D01*
X23080D01*
X22980Y12000D01*
X22780Y11900D02*
X22580D01*
X22680D01*
Y12500D01*
X22780Y12400D01*
X22280D02*
X22180Y12500D01*
X21980D01*
X21880Y12400D01*
Y12300D01*
X21980Y12200D01*
X21880Y12100D01*
Y12000D01*
X21980Y11900D01*
X22180D01*
X22280Y12000D01*
Y12100D01*
X22180Y12200D01*
X22280Y12300D01*
Y12400D01*
X22180Y12200D02*
X21980D01*
X17440Y23200D02*
X17540Y23300D01*
X17740D01*
X17840Y23200D01*
Y22800D01*
X17740Y22700D01*
X17540D01*
X17440Y22800D01*
X16840Y22700D02*
X17240D01*
X16840Y23100D01*
Y23200D01*
X16940Y23300D01*
X17140D01*
X17240Y23200D01*
X26850Y25050D02*
X26950Y25150D01*
X27150D01*
X27250Y25050D01*
Y24650D01*
X27150Y24550D01*
X26950D01*
X26850Y24650D01*
X26650Y24550D02*
X26450D01*
X26550D01*
Y25150D01*
X26650Y25050D01*
M02*
