G04*
G04 #@! TF.GenerationSoftware,Altium Limited,Altium Designer,22.9.1 (49)*
G04*
G04 Layer_Color=16711935*
%FSLAX25Y25*%
%MOIN*%
G70*
G04*
G04 #@! TF.SameCoordinates,F30A270F-9CF5-405F-8EA2-704C6F89508A*
G04*
G04*
G04 #@! TF.FilePolarity,Positive*
G04*
G01*
G75*
%ADD12C,0.00787*%
G36*
X208368Y213942D02*
X206399D01*
X206402Y213939D01*
X206417Y213920D01*
X206439Y213899D01*
X206464Y213862D01*
X206497Y213822D01*
X206533Y213771D01*
X206574Y213713D01*
X206613Y213647D01*
Y213644D01*
X206617Y213640D01*
X206632Y213618D01*
X206650Y213582D01*
X206672Y213538D01*
X206697Y213487D01*
X206723Y213433D01*
X206748Y213378D01*
X206770Y213323D01*
X206471D01*
Y213327D01*
X206464Y213334D01*
X206461Y213349D01*
X206450Y213367D01*
X206439Y213389D01*
X206424Y213415D01*
X206388Y213476D01*
X206348Y213549D01*
X206297Y213622D01*
X206239Y213698D01*
X206177Y213775D01*
X206173Y213778D01*
X206169Y213782D01*
X206158Y213793D01*
X206148Y213808D01*
X206111Y213840D01*
X206067Y213884D01*
X206016Y213928D01*
X205958Y213975D01*
X205900Y214015D01*
X205838Y214052D01*
Y214252D01*
X208368D01*
Y213942D01*
D02*
G37*
G36*
X207400Y212654D02*
X207436D01*
X207480Y212650D01*
X207523Y212646D01*
X207622Y212635D01*
X207724Y212621D01*
X207822Y212599D01*
X207869Y212584D01*
X207913Y212570D01*
X207917D01*
X207924Y212566D01*
X207935Y212559D01*
X207949Y212552D01*
X207989Y212530D01*
X208040Y212497D01*
X208099Y212454D01*
X208157Y212403D01*
X208219Y212337D01*
X208273Y212257D01*
Y212253D01*
X208281Y212246D01*
X208284Y212235D01*
X208295Y212217D01*
X208306Y212195D01*
X208317Y212166D01*
X208328Y212137D01*
X208343Y212100D01*
X208357Y212060D01*
X208368Y212017D01*
X208379Y211969D01*
X208390Y211915D01*
X208397Y211860D01*
X208404Y211802D01*
X208412Y211671D01*
Y211638D01*
X208408Y211613D01*
Y211583D01*
X208404Y211547D01*
X208401Y211507D01*
X208397Y211467D01*
X208383Y211376D01*
X208361Y211278D01*
X208332Y211183D01*
X208292Y211092D01*
Y211088D01*
X208284Y211081D01*
X208277Y211070D01*
X208270Y211056D01*
X208241Y211016D01*
X208201Y210968D01*
X208150Y210914D01*
X208091Y210863D01*
X208018Y210812D01*
X207939Y210772D01*
X207935D01*
X207927Y210768D01*
X207913Y210765D01*
X207895Y210757D01*
X207873Y210750D01*
X207844Y210743D01*
X207811Y210732D01*
X207771Y210724D01*
X207727Y210717D01*
X207680Y210706D01*
X207629Y210699D01*
X207574Y210692D01*
X207513Y210684D01*
X207447Y210681D01*
X207378Y210677D01*
X207305D01*
X205849D01*
Y211012D01*
X207305D01*
X207309D01*
X207320D01*
X207338D01*
X207360D01*
X207385Y211016D01*
X207418D01*
X207487Y211019D01*
X207567Y211027D01*
X207647Y211037D01*
X207724Y211052D01*
X207756Y211059D01*
X207789Y211070D01*
X207797Y211074D01*
X207815Y211081D01*
X207840Y211099D01*
X207877Y211121D01*
X207913Y211147D01*
X207953Y211183D01*
X207993Y211227D01*
X208026Y211278D01*
X208029Y211285D01*
X208040Y211303D01*
X208051Y211336D01*
X208066Y211380D01*
X208084Y211431D01*
X208095Y211496D01*
X208106Y211565D01*
X208109Y211642D01*
Y211678D01*
X208106Y211700D01*
Y211733D01*
X208102Y211766D01*
X208088Y211846D01*
X208069Y211933D01*
X208040Y212017D01*
X208000Y212097D01*
X207975Y212133D01*
X207946Y212166D01*
X207942Y212170D01*
X207939Y212173D01*
X207927Y212180D01*
X207913Y212191D01*
X207891Y212202D01*
X207869Y212217D01*
X207837Y212231D01*
X207804Y212246D01*
X207764Y212261D01*
X207716Y212271D01*
X207662Y212286D01*
X207604Y212297D01*
X207538Y212308D01*
X207469Y212315D01*
X207389Y212322D01*
X207305D01*
X205849D01*
Y212657D01*
X207305D01*
X207309D01*
X207323D01*
X207342D01*
X207367D01*
X207400Y212654D01*
D02*
G37*
G36*
X257500Y116722D02*
X257165D01*
Y118943D01*
X255924D01*
Y119241D01*
X257500D01*
Y116722D01*
D02*
G37*
G36*
X255523D02*
X253700D01*
Y117021D01*
X255189D01*
Y117789D01*
X253795D01*
Y118087D01*
X255189D01*
Y118943D01*
X253642D01*
Y119241D01*
X255523D01*
Y116722D01*
D02*
G37*
G36*
X253179D02*
X252211D01*
X252146Y116726D01*
X252073Y116729D01*
X252000Y116737D01*
X251927Y116748D01*
X251865Y116759D01*
X251862D01*
X251854Y116762D01*
X251843D01*
X251829Y116770D01*
X251789Y116780D01*
X251738Y116799D01*
X251680Y116824D01*
X251618Y116857D01*
X251556Y116893D01*
X251498Y116941D01*
X251494Y116944D01*
X251490Y116948D01*
X251479Y116959D01*
X251465Y116970D01*
X251429Y117006D01*
X251385Y117057D01*
X251338Y117119D01*
X251287Y117192D01*
X251239Y117276D01*
X251199Y117370D01*
Y117374D01*
X251196Y117381D01*
X251188Y117396D01*
X251185Y117418D01*
X251174Y117443D01*
X251166Y117472D01*
X251159Y117505D01*
X251148Y117545D01*
X251137Y117585D01*
X251130Y117632D01*
X251112Y117734D01*
X251101Y117847D01*
X251097Y117971D01*
Y117974D01*
Y117982D01*
Y118000D01*
Y118018D01*
X251101Y118044D01*
Y118073D01*
X251104Y118142D01*
X251115Y118222D01*
X251126Y118306D01*
X251145Y118393D01*
X251166Y118480D01*
Y118484D01*
X251170Y118491D01*
X251174Y118502D01*
X251177Y118517D01*
X251192Y118557D01*
X251214Y118608D01*
X251236Y118666D01*
X251265Y118724D01*
X251301Y118786D01*
X251338Y118844D01*
X251341Y118852D01*
X251356Y118870D01*
X251378Y118895D01*
X251407Y118928D01*
X251439Y118965D01*
X251479Y119001D01*
X251519Y119041D01*
X251567Y119074D01*
X251574Y119077D01*
X251589Y119088D01*
X251614Y119103D01*
X251651Y119121D01*
X251694Y119143D01*
X251745Y119161D01*
X251803Y119183D01*
X251869Y119201D01*
X251876D01*
X251887Y119205D01*
X251898Y119208D01*
X251934Y119212D01*
X251985Y119219D01*
X252044Y119227D01*
X252113Y119234D01*
X252189Y119237D01*
X252273Y119241D01*
X253179D01*
Y116722D01*
D02*
G37*
G36*
X250810Y119237D02*
Y119223D01*
Y119201D01*
X250806Y119172D01*
X250802Y119139D01*
X250795Y119103D01*
X250788Y119066D01*
X250773Y119026D01*
Y119023D01*
X250770Y119019D01*
X250762Y118997D01*
X250748Y118965D01*
X250726Y118921D01*
X250697Y118870D01*
X250660Y118812D01*
X250620Y118753D01*
X250569Y118692D01*
Y118688D01*
X250562Y118684D01*
X250544Y118662D01*
X250511Y118630D01*
X250464Y118582D01*
X250409Y118528D01*
X250340Y118462D01*
X250256Y118389D01*
X250165Y118313D01*
X250162Y118309D01*
X250147Y118298D01*
X250125Y118280D01*
X250100Y118258D01*
X250067Y118229D01*
X250027Y118196D01*
X249987Y118160D01*
X249940Y118120D01*
X249849Y118033D01*
X249758Y117945D01*
X249714Y117902D01*
X249674Y117858D01*
X249638Y117818D01*
X249608Y117778D01*
Y117774D01*
X249601Y117771D01*
X249594Y117760D01*
X249587Y117745D01*
X249561Y117705D01*
X249532Y117658D01*
X249507Y117599D01*
X249481Y117538D01*
X249466Y117468D01*
X249459Y117403D01*
Y117399D01*
Y117396D01*
X249463Y117374D01*
X249466Y117337D01*
X249477Y117297D01*
X249492Y117246D01*
X249517Y117195D01*
X249550Y117145D01*
X249594Y117094D01*
X249601Y117086D01*
X249619Y117072D01*
X249645Y117053D01*
X249685Y117028D01*
X249736Y117006D01*
X249794Y116984D01*
X249863Y116970D01*
X249940Y116966D01*
X249962D01*
X249976Y116970D01*
X250020Y116973D01*
X250071Y116984D01*
X250125Y116999D01*
X250187Y117024D01*
X250245Y117057D01*
X250300Y117101D01*
X250307Y117108D01*
X250322Y117126D01*
X250344Y117155D01*
X250366Y117199D01*
X250391Y117250D01*
X250413Y117316D01*
X250428Y117388D01*
X250435Y117472D01*
X250751Y117439D01*
Y117436D01*
X250748Y117425D01*
Y117407D01*
X250744Y117381D01*
X250737Y117352D01*
X250730Y117319D01*
X250719Y117279D01*
X250708Y117239D01*
X250679Y117152D01*
X250635Y117064D01*
X250609Y117021D01*
X250577Y116977D01*
X250544Y116937D01*
X250508Y116901D01*
X250504Y116897D01*
X250497Y116893D01*
X250486Y116882D01*
X250467Y116872D01*
X250446Y116857D01*
X250420Y116842D01*
X250391Y116824D01*
X250355Y116806D01*
X250315Y116788D01*
X250271Y116770D01*
X250224Y116755D01*
X250173Y116740D01*
X250118Y116729D01*
X250060Y116719D01*
X249998Y116715D01*
X249932Y116711D01*
X249896D01*
X249871Y116715D01*
X249841Y116719D01*
X249805Y116722D01*
X249765Y116729D01*
X249725Y116737D01*
X249630Y116762D01*
X249536Y116799D01*
X249488Y116821D01*
X249441Y116846D01*
X249397Y116879D01*
X249357Y116915D01*
X249354Y116919D01*
X249346Y116922D01*
X249339Y116937D01*
X249325Y116952D01*
X249306Y116970D01*
X249288Y116995D01*
X249270Y117021D01*
X249248Y117053D01*
X249212Y117123D01*
X249175Y117210D01*
X249161Y117254D01*
X249153Y117305D01*
X249146Y117356D01*
X249143Y117410D01*
Y117418D01*
Y117436D01*
X249146Y117465D01*
X249150Y117505D01*
X249157Y117549D01*
X249172Y117599D01*
X249186Y117654D01*
X249208Y117709D01*
X249212Y117716D01*
X249219Y117734D01*
X249234Y117763D01*
X249255Y117803D01*
X249285Y117847D01*
X249321Y117902D01*
X249365Y117956D01*
X249416Y118018D01*
X249423Y118025D01*
X249441Y118047D01*
X249459Y118065D01*
X249477Y118084D01*
X249499Y118105D01*
X249528Y118135D01*
X249557Y118164D01*
X249594Y118196D01*
X249630Y118233D01*
X249674Y118273D01*
X249721Y118313D01*
X249772Y118360D01*
X249831Y118408D01*
X249889Y118458D01*
X249892Y118462D01*
X249900Y118469D01*
X249914Y118480D01*
X249932Y118495D01*
X249954Y118517D01*
X249980Y118539D01*
X250038Y118586D01*
X250100Y118640D01*
X250158Y118695D01*
X250209Y118742D01*
X250231Y118761D01*
X250249Y118779D01*
X250253Y118782D01*
X250264Y118793D01*
X250278Y118808D01*
X250296Y118830D01*
X250315Y118855D01*
X250337Y118881D01*
X250380Y118943D01*
X249139D01*
Y119241D01*
X250810D01*
Y119237D01*
D02*
G37*
G36*
X261241Y292089D02*
X259272D01*
X259276Y292086D01*
X259290Y292068D01*
X259312Y292046D01*
X259337Y292009D01*
X259370Y291969D01*
X259407Y291918D01*
X259447Y291860D01*
X259487Y291795D01*
Y291791D01*
X259490Y291787D01*
X259505Y291765D01*
X259523Y291729D01*
X259545Y291685D01*
X259570Y291634D01*
X259596Y291580D01*
X259621Y291525D01*
X259643Y291471D01*
X259345D01*
Y291474D01*
X259337Y291481D01*
X259334Y291496D01*
X259323Y291514D01*
X259312Y291536D01*
X259297Y291562D01*
X259261Y291623D01*
X259221Y291696D01*
X259170Y291769D01*
X259112Y291845D01*
X259050Y291922D01*
X259046Y291926D01*
X259043Y291929D01*
X259032Y291940D01*
X259021Y291955D01*
X258984Y291987D01*
X258941Y292031D01*
X258890Y292075D01*
X258831Y292122D01*
X258773Y292162D01*
X258711Y292199D01*
Y292399D01*
X261241D01*
Y292089D01*
D02*
G37*
G36*
X260044Y290899D02*
X260073D01*
X260142Y290896D01*
X260222Y290885D01*
X260306Y290874D01*
X260393Y290855D01*
X260480Y290834D01*
X260484D01*
X260491Y290830D01*
X260502Y290826D01*
X260517Y290823D01*
X260557Y290808D01*
X260608Y290786D01*
X260666Y290764D01*
X260724Y290735D01*
X260786Y290699D01*
X260844Y290663D01*
X260852Y290659D01*
X260870Y290644D01*
X260895Y290622D01*
X260928Y290593D01*
X260964Y290561D01*
X261001Y290521D01*
X261041Y290480D01*
X261074Y290433D01*
X261077Y290426D01*
X261088Y290411D01*
X261103Y290386D01*
X261121Y290350D01*
X261143Y290306D01*
X261161Y290255D01*
X261183Y290197D01*
X261201Y290131D01*
Y290124D01*
X261205Y290113D01*
X261208Y290102D01*
X261212Y290066D01*
X261219Y290015D01*
X261227Y289956D01*
X261234Y289887D01*
X261238Y289811D01*
X261241Y289727D01*
Y288821D01*
X258722D01*
Y289789D01*
X258726Y289854D01*
X258730Y289927D01*
X258737Y290000D01*
X258748Y290073D01*
X258759Y290135D01*
Y290138D01*
X258762Y290146D01*
Y290157D01*
X258770Y290171D01*
X258781Y290211D01*
X258799Y290262D01*
X258824Y290320D01*
X258857Y290382D01*
X258893Y290444D01*
X258941Y290502D01*
X258944Y290506D01*
X258948Y290510D01*
X258959Y290521D01*
X258970Y290535D01*
X259006Y290571D01*
X259057Y290615D01*
X259119Y290663D01*
X259192Y290714D01*
X259276Y290761D01*
X259370Y290801D01*
X259374D01*
X259381Y290805D01*
X259396Y290812D01*
X259418Y290815D01*
X259443Y290826D01*
X259472Y290834D01*
X259505Y290841D01*
X259545Y290852D01*
X259585Y290863D01*
X259632Y290870D01*
X259734Y290888D01*
X259847Y290899D01*
X259971Y290903D01*
X259974D01*
X259982D01*
X260000D01*
X260018D01*
X260044Y290899D01*
D02*
G37*
G36*
X261241Y286476D02*
X258722D01*
Y288300D01*
X259021D01*
Y286811D01*
X259789D01*
Y288206D01*
X260087D01*
Y286811D01*
X260943D01*
Y288358D01*
X261241D01*
Y286476D01*
D02*
G37*
G36*
Y284500D02*
X258722D01*
Y284835D01*
X260943D01*
Y286076D01*
X261241D01*
Y284500D01*
D02*
G37*
G36*
X116033Y257647D02*
X116376D01*
Y257363D01*
X116033D01*
Y256759D01*
X115724D01*
Y257363D01*
X114628D01*
Y257647D01*
X115782Y259278D01*
X116033D01*
Y257647D01*
D02*
G37*
G36*
X113354Y259274D02*
X113427Y259271D01*
X113500Y259263D01*
X113573Y259252D01*
X113635Y259241D01*
X113638D01*
X113646Y259238D01*
X113657D01*
X113671Y259230D01*
X113711Y259220D01*
X113762Y259201D01*
X113820Y259176D01*
X113882Y259143D01*
X113944Y259107D01*
X114002Y259059D01*
X114006Y259056D01*
X114010Y259052D01*
X114021Y259041D01*
X114035Y259030D01*
X114072Y258994D01*
X114115Y258943D01*
X114163Y258881D01*
X114214Y258808D01*
X114261Y258724D01*
X114301Y258630D01*
Y258626D01*
X114304Y258619D01*
X114312Y258604D01*
X114315Y258582D01*
X114326Y258557D01*
X114334Y258528D01*
X114341Y258495D01*
X114352Y258455D01*
X114363Y258415D01*
X114370Y258368D01*
X114388Y258266D01*
X114399Y258153D01*
X114403Y258029D01*
Y258026D01*
Y258018D01*
Y258000D01*
Y257982D01*
X114399Y257956D01*
Y257927D01*
X114395Y257858D01*
X114385Y257778D01*
X114374Y257694D01*
X114355Y257607D01*
X114334Y257520D01*
Y257516D01*
X114330Y257509D01*
X114326Y257498D01*
X114323Y257483D01*
X114308Y257443D01*
X114286Y257392D01*
X114264Y257334D01*
X114235Y257276D01*
X114199Y257214D01*
X114163Y257156D01*
X114159Y257148D01*
X114144Y257130D01*
X114122Y257105D01*
X114093Y257072D01*
X114061Y257035D01*
X114021Y256999D01*
X113980Y256959D01*
X113933Y256926D01*
X113926Y256923D01*
X113911Y256912D01*
X113886Y256897D01*
X113849Y256879D01*
X113806Y256857D01*
X113755Y256839D01*
X113697Y256817D01*
X113631Y256799D01*
X113624D01*
X113613Y256795D01*
X113602Y256792D01*
X113566Y256788D01*
X113515Y256781D01*
X113456Y256773D01*
X113387Y256766D01*
X113311Y256763D01*
X113227Y256759D01*
X112321D01*
Y259278D01*
X113289D01*
X113354Y259274D01*
D02*
G37*
G36*
X111800Y258979D02*
X110311D01*
Y258211D01*
X111706D01*
Y257913D01*
X110311D01*
Y257057D01*
X111858D01*
Y256759D01*
X109976D01*
Y259278D01*
X111800D01*
Y258979D01*
D02*
G37*
G36*
X108335Y257057D02*
X109576D01*
Y256759D01*
X108000D01*
Y259278D01*
X108335D01*
Y257057D01*
D02*
G37*
G36*
X116100Y242829D02*
X116148Y242821D01*
X116206Y242811D01*
X116271Y242792D01*
X116337Y242771D01*
X116402Y242741D01*
X116406D01*
X116410Y242738D01*
X116432Y242727D01*
X116464Y242705D01*
X116501Y242680D01*
X116544Y242643D01*
X116588Y242603D01*
X116632Y242556D01*
X116668Y242501D01*
X116672Y242494D01*
X116683Y242476D01*
X116697Y242443D01*
X116716Y242403D01*
X116734Y242355D01*
X116748Y242301D01*
X116759Y242239D01*
X116763Y242177D01*
Y242170D01*
Y242148D01*
X116759Y242119D01*
X116752Y242079D01*
X116741Y242032D01*
X116723Y241981D01*
X116701Y241930D01*
X116672Y241879D01*
X116668Y241871D01*
X116657Y241857D01*
X116635Y241831D01*
X116606Y241802D01*
X116570Y241770D01*
X116526Y241733D01*
X116475Y241700D01*
X116413Y241668D01*
X116417D01*
X116424Y241664D01*
X116435Y241660D01*
X116450Y241657D01*
X116490Y241642D01*
X116541Y241620D01*
X116599Y241591D01*
X116657Y241555D01*
X116712Y241507D01*
X116763Y241453D01*
X116766Y241445D01*
X116781Y241424D01*
X116803Y241387D01*
X116825Y241340D01*
X116847Y241282D01*
X116868Y241213D01*
X116883Y241132D01*
X116887Y241045D01*
Y241041D01*
Y241031D01*
Y241012D01*
X116883Y240990D01*
X116879Y240961D01*
X116872Y240929D01*
X116865Y240892D01*
X116857Y240852D01*
X116828Y240765D01*
X116806Y240718D01*
X116785Y240674D01*
X116755Y240627D01*
X116723Y240579D01*
X116686Y240532D01*
X116643Y240488D01*
X116639Y240485D01*
X116632Y240477D01*
X116617Y240466D01*
X116599Y240452D01*
X116577Y240434D01*
X116548Y240415D01*
X116515Y240394D01*
X116475Y240375D01*
X116435Y240353D01*
X116388Y240332D01*
X116341Y240314D01*
X116286Y240295D01*
X116228Y240281D01*
X116166Y240270D01*
X116104Y240263D01*
X116035Y240259D01*
X116002D01*
X115980Y240263D01*
X115951Y240266D01*
X115918Y240270D01*
X115882Y240277D01*
X115842Y240284D01*
X115754Y240306D01*
X115664Y240343D01*
X115616Y240364D01*
X115573Y240390D01*
X115529Y240423D01*
X115485Y240455D01*
X115481Y240459D01*
X115474Y240466D01*
X115463Y240477D01*
X115452Y240492D01*
X115434Y240510D01*
X115416Y240535D01*
X115394Y240561D01*
X115372Y240594D01*
X115350Y240630D01*
X115329Y240667D01*
X115289Y240754D01*
X115256Y240856D01*
X115245Y240910D01*
X115238Y240969D01*
X115547Y241009D01*
Y241005D01*
X115551Y240998D01*
X115554Y240983D01*
X115558Y240965D01*
X115562Y240943D01*
X115569Y240918D01*
X115587Y240863D01*
X115613Y240798D01*
X115645Y240736D01*
X115682Y240677D01*
X115725Y240627D01*
X115733Y240623D01*
X115747Y240608D01*
X115776Y240590D01*
X115813Y240572D01*
X115856Y240550D01*
X115911Y240532D01*
X115973Y240517D01*
X116038Y240514D01*
X116060D01*
X116075Y240517D01*
X116115Y240521D01*
X116166Y240532D01*
X116224Y240550D01*
X116286Y240576D01*
X116348Y240612D01*
X116406Y240663D01*
X116413Y240670D01*
X116432Y240692D01*
X116453Y240725D01*
X116482Y240769D01*
X116512Y240823D01*
X116534Y240885D01*
X116552Y240958D01*
X116559Y241038D01*
Y241041D01*
Y241049D01*
Y241060D01*
X116555Y241074D01*
X116552Y241114D01*
X116541Y241162D01*
X116526Y241220D01*
X116501Y241278D01*
X116464Y241336D01*
X116417Y241391D01*
X116410Y241398D01*
X116392Y241413D01*
X116362Y241435D01*
X116322Y241460D01*
X116271Y241486D01*
X116209Y241507D01*
X116140Y241522D01*
X116064Y241529D01*
X116031D01*
X116006Y241526D01*
X115973Y241522D01*
X115937Y241515D01*
X115893Y241507D01*
X115846Y241496D01*
X115882Y241770D01*
X115900D01*
X115915Y241766D01*
X115962D01*
X116002Y241773D01*
X116049Y241780D01*
X116104Y241791D01*
X116166Y241810D01*
X116224Y241835D01*
X116286Y241868D01*
X116290D01*
X116293Y241871D01*
X116311Y241886D01*
X116337Y241911D01*
X116366Y241944D01*
X116395Y241991D01*
X116421Y242046D01*
X116439Y242108D01*
X116446Y242144D01*
Y242184D01*
Y242188D01*
Y242192D01*
Y242214D01*
X116439Y242243D01*
X116432Y242283D01*
X116417Y242326D01*
X116399Y242374D01*
X116370Y242421D01*
X116330Y242465D01*
X116326Y242468D01*
X116308Y242483D01*
X116282Y242501D01*
X116250Y242523D01*
X116206Y242541D01*
X116155Y242559D01*
X116097Y242574D01*
X116031Y242578D01*
X116002D01*
X115969Y242570D01*
X115926Y242563D01*
X115878Y242548D01*
X115831Y242530D01*
X115780Y242501D01*
X115733Y242465D01*
X115729Y242461D01*
X115715Y242443D01*
X115693Y242417D01*
X115667Y242381D01*
X115642Y242334D01*
X115616Y242275D01*
X115594Y242206D01*
X115580Y242126D01*
X115270Y242181D01*
Y242184D01*
X115274Y242195D01*
X115278Y242210D01*
X115281Y242232D01*
X115289Y242257D01*
X115299Y242286D01*
X115321Y242355D01*
X115358Y242436D01*
X115401Y242516D01*
X115456Y242592D01*
X115525Y242661D01*
X115529Y242665D01*
X115536Y242669D01*
X115547Y242676D01*
X115562Y242687D01*
X115580Y242701D01*
X115605Y242716D01*
X115631Y242730D01*
X115664Y242749D01*
X115736Y242778D01*
X115820Y242807D01*
X115918Y242825D01*
X115969Y242832D01*
X116060D01*
X116100Y242829D01*
D02*
G37*
G36*
X113854Y242818D02*
X113927Y242814D01*
X114000Y242807D01*
X114073Y242796D01*
X114135Y242785D01*
X114138D01*
X114146Y242781D01*
X114157D01*
X114171Y242774D01*
X114211Y242763D01*
X114262Y242745D01*
X114320Y242720D01*
X114382Y242687D01*
X114444Y242650D01*
X114502Y242603D01*
X114506Y242599D01*
X114510Y242596D01*
X114521Y242585D01*
X114535Y242574D01*
X114571Y242537D01*
X114615Y242487D01*
X114663Y242425D01*
X114714Y242352D01*
X114761Y242268D01*
X114801Y242174D01*
Y242170D01*
X114804Y242163D01*
X114812Y242148D01*
X114815Y242126D01*
X114826Y242101D01*
X114834Y242072D01*
X114841Y242039D01*
X114852Y241999D01*
X114863Y241959D01*
X114870Y241911D01*
X114888Y241810D01*
X114899Y241697D01*
X114903Y241573D01*
Y241569D01*
Y241562D01*
Y241544D01*
Y241526D01*
X114899Y241500D01*
Y241471D01*
X114895Y241402D01*
X114885Y241322D01*
X114874Y241238D01*
X114855Y241151D01*
X114834Y241063D01*
Y241060D01*
X114830Y241052D01*
X114826Y241041D01*
X114823Y241027D01*
X114808Y240987D01*
X114786Y240936D01*
X114764Y240878D01*
X114735Y240819D01*
X114699Y240758D01*
X114663Y240699D01*
X114659Y240692D01*
X114644Y240674D01*
X114622Y240648D01*
X114593Y240616D01*
X114561Y240579D01*
X114521Y240543D01*
X114480Y240503D01*
X114433Y240470D01*
X114426Y240466D01*
X114411Y240455D01*
X114386Y240441D01*
X114349Y240423D01*
X114306Y240401D01*
X114255Y240383D01*
X114197Y240361D01*
X114131Y240343D01*
X114124D01*
X114113Y240339D01*
X114102Y240335D01*
X114066Y240332D01*
X114015Y240324D01*
X113956Y240317D01*
X113887Y240310D01*
X113811Y240306D01*
X113727Y240303D01*
X112821D01*
Y242821D01*
X113789D01*
X113854Y242818D01*
D02*
G37*
G36*
X112300Y242523D02*
X110811D01*
Y241755D01*
X112206D01*
Y241456D01*
X110811D01*
Y240601D01*
X112358D01*
Y240303D01*
X110477D01*
Y242821D01*
X112300D01*
Y242523D01*
D02*
G37*
G36*
X108835Y240601D02*
X110076D01*
Y240303D01*
X108500D01*
Y242821D01*
X108835D01*
Y240601D01*
D02*
G37*
%LPC*%
G36*
X252844Y118943D02*
X252248D01*
X252222Y118939D01*
X252167Y118935D01*
X252105Y118932D01*
X252040Y118924D01*
X251975Y118913D01*
X251920Y118899D01*
X251913Y118895D01*
X251894Y118892D01*
X251869Y118881D01*
X251836Y118866D01*
X251800Y118844D01*
X251763Y118823D01*
X251727Y118797D01*
X251691Y118768D01*
X251687Y118761D01*
X251672Y118746D01*
X251651Y118721D01*
X251625Y118684D01*
X251596Y118637D01*
X251563Y118582D01*
X251534Y118520D01*
X251509Y118451D01*
Y118448D01*
X251505Y118440D01*
X251501Y118429D01*
X251498Y118415D01*
X251494Y118397D01*
X251487Y118371D01*
X251479Y118346D01*
X251472Y118317D01*
X251461Y118244D01*
X251450Y118160D01*
X251443Y118065D01*
X251439Y117964D01*
Y117960D01*
Y117945D01*
Y117927D01*
X251443Y117898D01*
Y117865D01*
X251447Y117829D01*
X251450Y117785D01*
X251454Y117741D01*
X251472Y117643D01*
X251494Y117541D01*
X251527Y117447D01*
X251549Y117399D01*
X251570Y117359D01*
Y117356D01*
X251578Y117348D01*
X251585Y117337D01*
X251592Y117323D01*
X251621Y117286D01*
X251658Y117243D01*
X251705Y117195D01*
X251760Y117148D01*
X251822Y117108D01*
X251887Y117075D01*
X251894Y117072D01*
X251913Y117068D01*
X251945Y117057D01*
X251993Y117046D01*
X252051Y117039D01*
X252124Y117028D01*
X252167Y117024D01*
X252215D01*
X252262Y117021D01*
X252844D01*
Y118943D01*
D02*
G37*
G36*
X259963Y290561D02*
X259960D01*
X259945D01*
X259927D01*
X259898Y290557D01*
X259865D01*
X259829Y290553D01*
X259785Y290550D01*
X259741Y290546D01*
X259643Y290528D01*
X259541Y290506D01*
X259447Y290473D01*
X259399Y290451D01*
X259359Y290430D01*
X259356D01*
X259348Y290422D01*
X259337Y290415D01*
X259323Y290408D01*
X259286Y290379D01*
X259243Y290342D01*
X259195Y290295D01*
X259148Y290240D01*
X259108Y290178D01*
X259075Y290113D01*
X259072Y290106D01*
X259068Y290087D01*
X259057Y290055D01*
X259046Y290007D01*
X259039Y289949D01*
X259028Y289876D01*
X259024Y289833D01*
Y289785D01*
X259021Y289738D01*
Y289156D01*
X260943D01*
Y289753D01*
X260939Y289778D01*
X260935Y289833D01*
X260932Y289895D01*
X260924Y289960D01*
X260913Y290025D01*
X260899Y290080D01*
X260895Y290087D01*
X260892Y290106D01*
X260881Y290131D01*
X260866Y290164D01*
X260844Y290200D01*
X260823Y290237D01*
X260797Y290273D01*
X260768Y290309D01*
X260761Y290313D01*
X260746Y290328D01*
X260721Y290350D01*
X260684Y290375D01*
X260637Y290404D01*
X260582Y290437D01*
X260520Y290466D01*
X260451Y290491D01*
X260448D01*
X260440Y290495D01*
X260429Y290499D01*
X260415Y290502D01*
X260397Y290506D01*
X260371Y290513D01*
X260346Y290521D01*
X260317Y290528D01*
X260244Y290539D01*
X260160Y290550D01*
X260065Y290557D01*
X259963Y290561D01*
D02*
G37*
G36*
X115724Y258775D02*
X114931Y257647D01*
X115724D01*
Y258775D01*
D02*
G37*
G36*
X113238Y258979D02*
X112656D01*
Y257057D01*
X113252D01*
X113278Y257061D01*
X113333Y257065D01*
X113394Y257068D01*
X113460Y257076D01*
X113525Y257086D01*
X113580Y257101D01*
X113587Y257105D01*
X113606Y257108D01*
X113631Y257119D01*
X113664Y257134D01*
X113700Y257156D01*
X113737Y257177D01*
X113773Y257203D01*
X113809Y257232D01*
X113813Y257239D01*
X113828Y257254D01*
X113849Y257279D01*
X113875Y257316D01*
X113904Y257363D01*
X113937Y257418D01*
X113966Y257480D01*
X113991Y257549D01*
Y257552D01*
X113995Y257560D01*
X113999Y257571D01*
X114002Y257585D01*
X114006Y257603D01*
X114013Y257629D01*
X114021Y257654D01*
X114028Y257683D01*
X114039Y257756D01*
X114050Y257840D01*
X114057Y257935D01*
X114061Y258036D01*
Y258040D01*
Y258055D01*
Y258073D01*
X114057Y258102D01*
Y258135D01*
X114053Y258171D01*
X114050Y258215D01*
X114046Y258259D01*
X114028Y258357D01*
X114006Y258459D01*
X113973Y258553D01*
X113951Y258601D01*
X113930Y258641D01*
Y258644D01*
X113922Y258652D01*
X113915Y258663D01*
X113908Y258677D01*
X113879Y258714D01*
X113842Y258757D01*
X113795Y258805D01*
X113740Y258852D01*
X113678Y258892D01*
X113613Y258925D01*
X113606Y258928D01*
X113587Y258932D01*
X113555Y258943D01*
X113507Y258954D01*
X113449Y258961D01*
X113376Y258972D01*
X113333Y258976D01*
X113285D01*
X113238Y258979D01*
D02*
G37*
G36*
X113738Y242523D02*
X113156D01*
Y240601D01*
X113752D01*
X113778Y240605D01*
X113833Y240608D01*
X113894Y240612D01*
X113960Y240619D01*
X114025Y240630D01*
X114080Y240645D01*
X114087Y240648D01*
X114106Y240652D01*
X114131Y240663D01*
X114164Y240677D01*
X114200Y240699D01*
X114237Y240721D01*
X114273Y240747D01*
X114309Y240776D01*
X114313Y240783D01*
X114328Y240798D01*
X114349Y240823D01*
X114375Y240860D01*
X114404Y240907D01*
X114437Y240961D01*
X114466Y241023D01*
X114491Y241092D01*
Y241096D01*
X114495Y241103D01*
X114499Y241114D01*
X114502Y241129D01*
X114506Y241147D01*
X114513Y241173D01*
X114521Y241198D01*
X114528Y241227D01*
X114539Y241300D01*
X114550Y241384D01*
X114557Y241478D01*
X114561Y241580D01*
Y241584D01*
Y241598D01*
Y241617D01*
X114557Y241646D01*
Y241679D01*
X114553Y241715D01*
X114550Y241759D01*
X114546Y241802D01*
X114528Y241900D01*
X114506Y242002D01*
X114473Y242097D01*
X114451Y242144D01*
X114430Y242184D01*
Y242188D01*
X114422Y242195D01*
X114415Y242206D01*
X114408Y242221D01*
X114379Y242257D01*
X114342Y242301D01*
X114295Y242348D01*
X114240Y242396D01*
X114178Y242436D01*
X114113Y242468D01*
X114106Y242472D01*
X114087Y242476D01*
X114055Y242487D01*
X114007Y242497D01*
X113949Y242505D01*
X113876Y242516D01*
X113833Y242519D01*
X113785D01*
X113738Y242523D01*
D02*
G37*
%LPD*%
D12*
X159824Y162830D02*
Y258524D01*
X255517D01*
Y162830D02*
Y258524D01*
X159824Y162830D02*
X255517D01*
X262618Y116335D02*
Y120665D01*
X252382D02*
X262618D01*
X252382Y116335D02*
Y120665D01*
Y116335D02*
X262618D01*
X258335Y279382D02*
X262665D01*
Y289618D01*
X258335D02*
X262665D01*
X258335Y279382D02*
Y289618D01*
X102882Y259665D02*
X113118D01*
Y255335D02*
Y259665D01*
X102882Y255335D02*
X113118D01*
X102882D02*
Y259665D01*
X103382Y243165D02*
X113618D01*
Y238835D02*
Y243165D01*
X103382Y238835D02*
X113618D01*
X103382D02*
Y243165D01*
M02*
