G04*
G04 #@! TF.GenerationSoftware,Altium Limited,Altium Designer,22.9.1 (49)*
G04*
G04 Layer_Color=8421504*
%FSLAX24Y24*%
%MOIN*%
G70*
G04*
G04 #@! TF.SameCoordinates,54DEFAFE-76A2-4419-BEBC-3D5CD7468304*
G04*
G04*
G04 #@! TF.FilePolarity,Positive*
G04*
G01*
G75*
%ADD15R,0.0453X0.0118*%
%ADD16R,0.0787X0.0858*%
%ADD17R,0.0315X0.0315*%
%ADD18R,0.0123X0.0770*%
G04:AMPARAMS|DCode=19|XSize=77mil|YSize=12.3mil|CornerRadius=6.2mil|HoleSize=0mil|Usage=FLASHONLY|Rotation=90.000|XOffset=0mil|YOffset=0mil|HoleType=Round|Shape=RoundedRectangle|*
%AMROUNDEDRECTD19*
21,1,0.0770,0.0000,0,0,90.0*
21,1,0.0647,0.0123,0,0,90.0*
1,1,0.0123,0.0000,0.0323*
1,1,0.0123,0.0000,-0.0323*
1,1,0.0123,0.0000,-0.0323*
1,1,0.0123,0.0000,0.0323*
%
%ADD19ROUNDEDRECTD19*%
G04:AMPARAMS|DCode=20|XSize=12.3mil|YSize=77mil|CornerRadius=6.2mil|HoleSize=0mil|Usage=FLASHONLY|Rotation=90.000|XOffset=0mil|YOffset=0mil|HoleType=Round|Shape=RoundedRectangle|*
%AMROUNDEDRECTD20*
21,1,0.0123,0.0647,0,0,90.0*
21,1,0.0000,0.0770,0,0,90.0*
1,1,0.0123,0.0323,0.0000*
1,1,0.0123,0.0323,0.0000*
1,1,0.0123,-0.0323,0.0000*
1,1,0.0123,-0.0323,0.0000*
%
%ADD20ROUNDEDRECTD20*%
%ADD21R,0.0390X0.0307*%
%ADD22R,0.0335X0.0118*%
%ADD23R,0.0118X0.0335*%
%ADD24R,0.1004X0.1004*%
%ADD25R,0.0307X0.0390*%
%ADD26R,0.0827X0.0551*%
%ADD27R,0.2205X0.0827*%
%ADD28R,0.0374X0.0354*%
%ADD29R,0.0354X0.0374*%
%ADD30R,0.0315X0.0315*%
D15*
X4473Y17181D02*
D03*
Y16866D02*
D03*
Y16354D02*
D03*
Y15961D02*
D03*
Y15764D02*
D03*
Y15370D02*
D03*
Y14858D02*
D03*
Y14543D02*
D03*
Y14661D02*
D03*
Y14976D02*
D03*
Y15173D02*
D03*
Y15567D02*
D03*
Y16157D02*
D03*
Y16551D02*
D03*
Y16748D02*
D03*
Y17063D02*
D03*
D16*
X2700Y17874D02*
D03*
Y13850D02*
D03*
X4247Y17874D02*
D03*
Y13850D02*
D03*
D17*
X25015Y10800D02*
D03*
X24385D02*
D03*
X10065Y24700D02*
D03*
X9435D02*
D03*
X10115Y23050D02*
D03*
X9485D02*
D03*
D18*
X16272Y15815D02*
D03*
D19*
X16469D02*
D03*
X16666D02*
D03*
X16863D02*
D03*
X17060D02*
D03*
X17256D02*
D03*
X17453D02*
D03*
X17650D02*
D03*
X17847D02*
D03*
X18044D02*
D03*
X18241D02*
D03*
X18438D02*
D03*
X18634D02*
D03*
X18831D02*
D03*
X19028D02*
D03*
X19225D02*
D03*
X19422D02*
D03*
X19619D02*
D03*
X19815D02*
D03*
X20012D02*
D03*
X20209D02*
D03*
X20406D02*
D03*
X20603D02*
D03*
X20800D02*
D03*
X20997D02*
D03*
X21193D02*
D03*
X21390D02*
D03*
X21587D02*
D03*
X21784D02*
D03*
X21981D02*
D03*
X22178D02*
D03*
X22375D02*
D03*
X22571D02*
D03*
X22768D02*
D03*
X22965D02*
D03*
X23162D02*
D03*
Y24221D02*
D03*
X22965D02*
D03*
X22768D02*
D03*
X22571D02*
D03*
X22375D02*
D03*
X22178D02*
D03*
X21981D02*
D03*
X21784D02*
D03*
X21587D02*
D03*
X21390D02*
D03*
X21193D02*
D03*
X20997D02*
D03*
X20800D02*
D03*
X20603D02*
D03*
X20406D02*
D03*
X20209D02*
D03*
X20012D02*
D03*
X19815D02*
D03*
X19619D02*
D03*
X19422D02*
D03*
X19225D02*
D03*
X19028D02*
D03*
X18831D02*
D03*
X18634D02*
D03*
X18438D02*
D03*
X18241D02*
D03*
X18044D02*
D03*
X17847D02*
D03*
X17650D02*
D03*
X17453D02*
D03*
X17256D02*
D03*
X17060D02*
D03*
X16863D02*
D03*
X16666D02*
D03*
X16469D02*
D03*
X16272D02*
D03*
D20*
X23920Y16573D02*
D03*
Y16770D02*
D03*
Y16967D02*
D03*
Y17163D02*
D03*
Y17360D02*
D03*
Y17557D02*
D03*
Y17754D02*
D03*
Y17951D02*
D03*
Y18148D02*
D03*
Y18344D02*
D03*
Y18541D02*
D03*
Y18738D02*
D03*
Y18935D02*
D03*
Y19132D02*
D03*
Y19329D02*
D03*
Y19526D02*
D03*
Y19722D02*
D03*
Y19919D02*
D03*
Y20116D02*
D03*
Y20313D02*
D03*
Y20510D02*
D03*
Y20707D02*
D03*
Y20904D02*
D03*
Y21100D02*
D03*
Y21297D02*
D03*
Y21494D02*
D03*
Y21691D02*
D03*
Y21888D02*
D03*
Y22085D02*
D03*
Y22281D02*
D03*
Y22478D02*
D03*
Y22675D02*
D03*
Y22872D02*
D03*
Y23069D02*
D03*
Y23266D02*
D03*
Y23463D02*
D03*
X15514D02*
D03*
Y23266D02*
D03*
Y23069D02*
D03*
Y22872D02*
D03*
Y22675D02*
D03*
Y22478D02*
D03*
Y22281D02*
D03*
Y22085D02*
D03*
Y21888D02*
D03*
Y21691D02*
D03*
Y21494D02*
D03*
Y21297D02*
D03*
Y21100D02*
D03*
Y20904D02*
D03*
Y20707D02*
D03*
Y20510D02*
D03*
Y20313D02*
D03*
Y20116D02*
D03*
Y19919D02*
D03*
Y19722D02*
D03*
Y19526D02*
D03*
Y19329D02*
D03*
Y19132D02*
D03*
Y18935D02*
D03*
Y18738D02*
D03*
Y18541D02*
D03*
Y18344D02*
D03*
Y18148D02*
D03*
Y17951D02*
D03*
Y17754D02*
D03*
Y17557D02*
D03*
Y17360D02*
D03*
Y17163D02*
D03*
Y16967D02*
D03*
Y16770D02*
D03*
Y16573D02*
D03*
D21*
X18820Y25706D02*
D03*
Y26257D02*
D03*
X16270Y25706D02*
D03*
Y26257D02*
D03*
X17220Y14307D02*
D03*
Y13756D02*
D03*
X19420Y14307D02*
D03*
Y13756D02*
D03*
X22120Y14307D02*
D03*
Y13756D02*
D03*
X21320Y14307D02*
D03*
Y13756D02*
D03*
X22820Y14307D02*
D03*
Y13756D02*
D03*
X20970Y25706D02*
D03*
Y26257D02*
D03*
X6350Y21376D02*
D03*
Y20824D02*
D03*
X7100Y21376D02*
D03*
Y20824D02*
D03*
D22*
X5682Y23992D02*
D03*
Y23795D02*
D03*
Y23598D02*
D03*
Y23402D02*
D03*
Y23205D02*
D03*
Y23008D02*
D03*
X7218D02*
D03*
Y23205D02*
D03*
Y23402D02*
D03*
Y23598D02*
D03*
Y23795D02*
D03*
Y23992D02*
D03*
D23*
X5958Y22732D02*
D03*
X6155D02*
D03*
X6352D02*
D03*
X6548D02*
D03*
X6745D02*
D03*
X6942D02*
D03*
Y24268D02*
D03*
X6745D02*
D03*
X6548D02*
D03*
X6352D02*
D03*
X6155D02*
D03*
X5958D02*
D03*
D24*
X6450Y23500D02*
D03*
D25*
X4926Y21950D02*
D03*
X4374D02*
D03*
X25474Y19550D02*
D03*
X26026D02*
D03*
X25444Y22882D02*
D03*
X25996D02*
D03*
X13996Y21132D02*
D03*
X13444D02*
D03*
X13996Y19132D02*
D03*
X13444D02*
D03*
X25444Y21482D02*
D03*
X25996D02*
D03*
X25444Y16982D02*
D03*
X25996D02*
D03*
X13996Y16582D02*
D03*
X13444D02*
D03*
X4926Y22850D02*
D03*
X4374D02*
D03*
D26*
X14341Y8864D02*
D03*
X10759D02*
D03*
X14341Y10636D02*
D03*
X10759D02*
D03*
D27*
X17980Y9400D02*
D03*
X21720D02*
D03*
D28*
X10550Y20735D02*
D03*
Y21365D02*
D03*
X8250Y21415D02*
D03*
Y20785D02*
D03*
X9250Y21365D02*
D03*
Y20735D02*
D03*
X6200Y26415D02*
D03*
Y25785D02*
D03*
X7100Y26430D02*
D03*
Y25800D02*
D03*
D29*
X3420Y26350D02*
D03*
X4050D02*
D03*
X3435Y24800D02*
D03*
X4065D02*
D03*
X12015Y24700D02*
D03*
X11385D02*
D03*
X12015Y23050D02*
D03*
X11385D02*
D03*
X23165Y27600D02*
D03*
X22535D02*
D03*
D30*
X25000Y27715D02*
D03*
Y27085D02*
D03*
M02*
