G04*
G04 #@! TF.GenerationSoftware,Altium Limited,Altium Designer,22.9.1 (49)*
G04*
G04 Layer_Color=128*
%FSLAX24Y24*%
%MOIN*%
G70*
G04*
G04 #@! TF.SameCoordinates,54DEFAFE-76A2-4419-BEBC-3D5CD7468304*
G04*
G04*
G04 #@! TF.FilePolarity,Positive*
G04*
G01*
G75*
%ADD97C,0.0020*%
D97*
X3124Y6200D02*
X3576D01*
X3350Y5974D02*
Y6426D01*
X2124Y6200D02*
X2576D01*
X2350Y5974D02*
Y6426D01*
X3124Y7200D02*
X3576D01*
X3350Y6974D02*
Y7426D01*
X2124Y7200D02*
X2576D01*
X2350Y6974D02*
Y7426D01*
X3124Y8200D02*
X3576D01*
X3350Y7974D02*
Y8426D01*
X2124Y8200D02*
X2576D01*
X2350Y7974D02*
Y8426D01*
X3124Y9200D02*
X3576D01*
X3350Y8974D02*
Y9426D01*
X2124Y9200D02*
X2576D01*
X2350Y8974D02*
Y9426D01*
X3124Y10200D02*
X3576D01*
X3350Y9974D02*
Y10426D01*
X2124Y10200D02*
X2576D01*
X2350Y9974D02*
Y10426D01*
X3922Y17000D02*
X4178D01*
X4050Y16872D02*
Y17128D01*
X3922Y14724D02*
X4178D01*
X4050Y14596D02*
Y14852D01*
X7373Y28850D02*
X7727D01*
X7550Y28673D02*
Y29027D01*
X6373Y28850D02*
X6727D01*
X6550Y28673D02*
Y29027D01*
X5373Y28850D02*
X5727D01*
X5550Y28673D02*
Y29027D01*
X4373Y28850D02*
X4727D01*
X4550Y28673D02*
Y29027D01*
X24483Y7250D02*
X24917D01*
X24700Y7033D02*
Y7467D01*
X24483Y8250D02*
X24917D01*
X24700Y8033D02*
Y8467D01*
X5953Y5733D02*
X6347D01*
X6150Y5536D02*
Y5930D01*
X6953Y5733D02*
X7347D01*
X7150Y5536D02*
Y5930D01*
X7953Y5733D02*
X8347D01*
X8150Y5536D02*
Y5930D01*
X8953Y5733D02*
X9347D01*
X9150Y5536D02*
Y5930D01*
X7733Y9650D02*
X8067D01*
X7900Y9483D02*
Y9817D01*
X6733Y9650D02*
X7067D01*
X6900Y9483D02*
Y9817D01*
X17423Y28850D02*
X17777D01*
X17600Y28673D02*
Y29027D01*
X18423Y28850D02*
X18777D01*
X18600Y28673D02*
Y29027D01*
X19423Y28850D02*
X19777D01*
X19600Y28673D02*
Y29027D01*
X20423Y28850D02*
X20777D01*
X20600Y28673D02*
Y29027D01*
X19723Y5733D02*
X20117D01*
X19920Y5536D02*
Y5930D01*
X18723Y5733D02*
X19117D01*
X18920Y5536D02*
Y5930D01*
X17723Y5733D02*
X18117D01*
X17920Y5536D02*
Y5930D01*
X16723Y5733D02*
X17117D01*
X16920Y5536D02*
Y5930D01*
X14323Y5733D02*
X14717D01*
X14520Y5536D02*
Y5930D01*
X13323Y5733D02*
X13717D01*
X13520Y5536D02*
Y5930D01*
X12323Y5733D02*
X12717D01*
X12520Y5536D02*
Y5930D01*
X11323Y5733D02*
X11717D01*
X11520Y5536D02*
Y5930D01*
X13283Y27700D02*
X13617D01*
X13450Y27533D02*
Y27867D01*
X14283Y27700D02*
X14617D01*
X14450Y27533D02*
Y27867D01*
X9733Y27700D02*
X10067D01*
X9900Y27533D02*
Y27867D01*
X10733Y27700D02*
X11067D01*
X10900Y27533D02*
Y27867D01*
X7423Y14550D02*
X7777D01*
X7600Y14373D02*
Y14727D01*
X8423Y14550D02*
X8777D01*
X8600Y14373D02*
Y14727D01*
X9423Y14550D02*
X9777D01*
X9600Y14373D02*
Y14727D01*
X10423Y14550D02*
X10777D01*
X10600Y14373D02*
Y14727D01*
X24873Y5733D02*
X25267D01*
X25070Y5536D02*
Y5930D01*
X23873Y5733D02*
X24267D01*
X24070Y5536D02*
Y5930D01*
X22873Y5733D02*
X23267D01*
X23070Y5536D02*
Y5930D01*
X21873Y5733D02*
X22267D01*
X22070Y5536D02*
Y5930D01*
X15425Y6000D02*
X15575D01*
X15500Y5925D02*
Y6075D01*
X19360Y9900D02*
X19640D01*
X19500Y9760D02*
Y10040D01*
X19710Y9150D02*
X19990D01*
X19850Y9010D02*
Y9290D01*
X7775Y20150D02*
X7925D01*
X7850Y20075D02*
Y20225D01*
X20325Y10900D02*
X20475D01*
X20400Y10825D02*
Y10975D01*
X16725Y21950D02*
X16875D01*
X16800Y21875D02*
Y22025D01*
X24925Y28700D02*
X25075D01*
X25000Y28625D02*
Y28775D01*
X15775Y10950D02*
X15925D01*
X15850Y10875D02*
Y11025D01*
X26925Y11450D02*
X27075D01*
X27000Y11375D02*
Y11525D01*
X5475Y17500D02*
X5625D01*
X5550Y17425D02*
Y17575D01*
X5475Y14950D02*
X5625D01*
X5550Y14875D02*
Y15025D01*
X18425Y13100D02*
X18575D01*
X18500Y13025D02*
Y13175D01*
X20025Y14650D02*
X20175D01*
X20100Y14575D02*
Y14725D01*
X20075Y23450D02*
X20225D01*
X20150Y23375D02*
Y23525D01*
X16425Y22700D02*
X16575D01*
X16500Y22625D02*
Y22775D01*
X16950Y23100D02*
X17100D01*
X17025Y23025D02*
Y23175D01*
X18825Y21600D02*
X18975D01*
X18900Y21525D02*
Y21675D01*
X14025Y20200D02*
X14175D01*
X14100Y20125D02*
Y20275D01*
X22575Y18000D02*
X22725D01*
X22650Y17925D02*
Y18075D01*
X22825Y20350D02*
X22975D01*
X22900Y20275D02*
Y20425D01*
X21775Y16950D02*
X21925D01*
X21850Y16875D02*
Y17025D01*
X10625Y12350D02*
X10775D01*
X10700Y12275D02*
Y12425D01*
X22075Y8400D02*
X22225D01*
X22150Y8325D02*
Y8475D01*
X8275Y17400D02*
X8425D01*
X8350Y17325D02*
Y17475D01*
X5375Y22300D02*
X5525D01*
X5450Y22225D02*
Y22375D01*
X11475Y21850D02*
X11625D01*
X11550Y21775D02*
Y21925D01*
X11925Y24100D02*
X12075D01*
X12000Y24025D02*
Y24175D01*
X9125Y21950D02*
X9275D01*
X9200Y21875D02*
Y22025D01*
X19125Y11350D02*
X19275D01*
X19200Y11275D02*
Y11425D01*
X11375Y26500D02*
X11525D01*
X11450Y26425D02*
Y26575D01*
X13525Y26600D02*
X13675D01*
X13600Y26525D02*
Y26675D01*
X8575Y25700D02*
X8725D01*
X8650Y25625D02*
Y25775D01*
X6575Y2900D02*
X6725D01*
X6650Y2825D02*
Y2975D01*
X9125Y2050D02*
X9275D01*
X9200Y1975D02*
Y2125D01*
X14425Y2000D02*
X14575D01*
X14500Y1925D02*
Y2075D01*
X19825Y1850D02*
X19975D01*
X19900Y1775D02*
Y1925D01*
X25025Y2250D02*
X25175D01*
X25100Y2175D02*
Y2325D01*
X16425Y19700D02*
X16575D01*
X16500Y19625D02*
Y19775D01*
X14675Y16100D02*
X14825D01*
X14750Y16025D02*
Y16175D01*
X17680Y14130D02*
X17830D01*
X17755Y14055D02*
Y14205D01*
X16125Y13450D02*
X16275D01*
X16200Y13375D02*
Y13525D01*
X21175Y14950D02*
X21325D01*
X21250Y14875D02*
Y15025D01*
X24525Y10000D02*
X24675D01*
X24600Y9925D02*
Y10075D01*
X25675Y18450D02*
X25825D01*
X25750Y18375D02*
Y18525D01*
X25675Y15950D02*
X25825D01*
X25750Y15875D02*
Y16025D01*
X25525Y20800D02*
X25675D01*
X25600Y20725D02*
Y20875D01*
X25725Y24750D02*
X25875D01*
X25800Y24675D02*
Y24825D01*
X18725Y22650D02*
X18875D01*
X18800Y22575D02*
Y22725D01*
X15325Y24223D02*
X15475D01*
X15400Y24148D02*
Y24298D01*
X16475Y21150D02*
X16625D01*
X16550Y21075D02*
Y21225D01*
X16849Y17426D02*
X16999D01*
X16924Y17351D02*
Y17501D01*
X21475Y22850D02*
X21625D01*
X21550Y22775D02*
Y22925D01*
X20498Y21173D02*
X20648D01*
X20573Y21098D02*
Y21248D01*
X21375Y22000D02*
X21525D01*
X21450Y21925D02*
Y22075D01*
X21425Y21200D02*
X21575D01*
X21500Y21125D02*
Y21275D01*
X11725Y11850D02*
X11875D01*
X11800Y11775D02*
Y11925D01*
X9775Y9950D02*
X9925D01*
X9850Y9875D02*
Y10025D01*
X2675Y24403D02*
X2825D01*
X2750Y24328D02*
Y24478D01*
X2775Y26358D02*
X2925D01*
X2850Y26283D02*
Y26433D01*
X6375Y23500D02*
X6525D01*
X6450Y23425D02*
Y23575D01*
X5625Y20850D02*
X5775D01*
X5700Y20775D02*
Y20925D01*
X3425Y13600D02*
X3575D01*
X3500Y13525D02*
Y13675D01*
X3475Y15700D02*
X3625D01*
X3550Y15625D02*
Y15775D01*
X8625Y12250D02*
X8775D01*
X8700Y12175D02*
Y12325D01*
X3075Y16800D02*
X3225D01*
X3150Y16725D02*
Y16875D01*
X27175Y19550D02*
X27325D01*
X27250Y19475D02*
Y19625D01*
X27175Y16950D02*
X27325D01*
X27250Y16875D02*
Y17025D01*
X27175Y21100D02*
X27325D01*
X27250Y21025D02*
Y21175D01*
X27175Y22150D02*
X27325D01*
X27250Y22075D02*
Y22225D01*
X29175Y23250D02*
X29325D01*
X29250Y23175D02*
Y23325D01*
X22175Y26650D02*
X22325D01*
X22250Y26575D02*
Y26725D01*
X19775Y26050D02*
X19925D01*
X19850Y25975D02*
Y26125D01*
X19436Y26873D02*
X19586D01*
X19511Y26798D02*
Y26948D01*
X15075Y25950D02*
X15225D01*
X15150Y25875D02*
Y26025D01*
X12325Y21150D02*
X12475D01*
X12400Y21075D02*
Y21225D01*
X12325Y19600D02*
X12475D01*
X12400Y19525D02*
Y19675D01*
X12525Y16550D02*
X12675D01*
X12600Y16475D02*
Y16625D01*
X22825Y12650D02*
X22975D01*
X22900Y12575D02*
Y12725D01*
X23325Y11400D02*
X23475D01*
X23400Y11325D02*
Y11475D01*
X21925Y12650D02*
X22075D01*
X22000Y12575D02*
Y12725D01*
X20975Y12600D02*
X21125D01*
X21050Y12525D02*
Y12675D01*
X20325Y13900D02*
X20475D01*
X20400Y13825D02*
Y13975D01*
X23325Y7950D02*
X23475D01*
X23400Y7875D02*
Y8025D01*
X20975Y6550D02*
X21125D01*
X21050Y6475D02*
Y6625D01*
X16975Y6850D02*
X17125D01*
X17050Y6775D02*
Y6925D01*
X16425Y17850D02*
X16575D01*
X16500Y17775D02*
Y17925D01*
X18825Y17750D02*
X18975D01*
X18900Y17675D02*
Y17825D01*
X18175Y19400D02*
X18325D01*
X18250Y19325D02*
Y19475D01*
X19425Y25300D02*
X19575D01*
X19500Y25225D02*
Y25375D01*
X21525Y25350D02*
X21675D01*
X21600Y25275D02*
Y25425D01*
X26125Y9450D02*
X26275D01*
X26200Y9375D02*
Y9525D01*
X22075Y21200D02*
X22225D01*
X22150Y21125D02*
Y21275D01*
X6975Y20150D02*
X7125D01*
X7050Y20075D02*
Y20225D01*
X6225Y20100D02*
X6375D01*
X6300Y20025D02*
Y20175D01*
X5625Y19550D02*
X5775D01*
X5700Y19475D02*
Y19625D01*
X25275Y23650D02*
X25425D01*
X25350Y23575D02*
Y23725D01*
X8275Y16350D02*
X8425D01*
X8350Y16275D02*
Y16425D01*
X9625Y16350D02*
X9775D01*
X9700Y16275D02*
Y16425D01*
X12825Y23550D02*
X12975D01*
X12900Y23475D02*
Y23625D01*
X12275Y18400D02*
X12425D01*
X12350Y18325D02*
Y18475D01*
X18225Y11950D02*
X18375D01*
X18300Y11875D02*
Y12025D01*
X21860Y10200D02*
X22140D01*
X22000Y10060D02*
Y10340D01*
X12410Y9800D02*
X12690D01*
X12550Y9660D02*
Y9940D01*
X14075Y14050D02*
X14225D01*
X14150Y13975D02*
Y14125D01*
X16375Y18550D02*
X16525D01*
X16450Y18475D02*
Y18625D01*
X13725Y22250D02*
X13875D01*
X13800Y22175D02*
Y22325D01*
X10525Y26000D02*
X10675D01*
X10600Y25925D02*
Y26075D01*
M02*
