G04*
G04 #@! TF.GenerationSoftware,Altium Limited,Altium Designer,22.9.1 (49)*
G04*
G04 Layer_Physical_Order=4*
G04 Layer_Color=16711680*
%FSLAX24Y24*%
%MOIN*%
G70*
G04*
G04 #@! TF.SameCoordinates,54DEFAFE-76A2-4419-BEBC-3D5CD7468304*
G04*
G04*
G04 #@! TF.FilePolarity,Positive*
G04*
G01*
G75*
%ADD14C,0.0100*%
%ADD21R,0.0390X0.0307*%
%ADD28R,0.0374X0.0354*%
%ADD29R,0.0354X0.0374*%
%ADD53C,0.0679*%
%ADD54R,0.0679X0.0679*%
%ADD55C,0.0128*%
%ADD56R,0.0591X0.0591*%
%ADD57C,0.0591*%
%ADD58C,0.0650*%
%ADD59R,0.0650X0.0650*%
%ADD60C,0.0502*%
%ADD61R,0.0502X0.0502*%
%ADD62C,0.0250*%
%ADD63C,0.0500*%
%ADD79R,0.0395X0.0343*%
G04:AMPARAMS|DCode=80|XSize=39.5mil|YSize=34.3mil|CornerRadius=17.2mil|HoleSize=0mil|Usage=FLASHONLY|Rotation=180.000|XOffset=0mil|YOffset=0mil|HoleType=Round|Shape=RoundedRectangle|*
%AMROUNDEDRECTD80*
21,1,0.0395,0.0000,0,0,180.0*
21,1,0.0052,0.0343,0,0,180.0*
1,1,0.0343,-0.0026,0.0000*
1,1,0.0343,0.0026,0.0000*
1,1,0.0343,0.0026,0.0000*
1,1,0.0343,-0.0026,0.0000*
%
%ADD80ROUNDEDRECTD80*%
G04:AMPARAMS|DCode=81|XSize=39.5mil|YSize=125.3mil|CornerRadius=17.2mil|HoleSize=0mil|Usage=FLASHONLY|Rotation=180.000|XOffset=0mil|YOffset=0mil|HoleType=Round|Shape=RoundedRectangle|*
%AMROUNDEDRECTD81*
21,1,0.0395,0.0909,0,0,180.0*
21,1,0.0051,0.1253,0,0,180.0*
1,1,0.0344,-0.0026,0.0454*
1,1,0.0344,0.0026,0.0454*
1,1,0.0344,0.0026,-0.0454*
1,1,0.0344,-0.0026,-0.0454*
%
%ADD81ROUNDEDRECTD81*%
%ADD82R,0.1417X0.1055*%
%ADD83R,0.0787X0.0240*%
%ADD84R,0.0276X0.0276*%
%ADD85R,0.0709X0.0878*%
%ADD86R,0.0878X0.0709*%
%ADD87R,0.0276X0.0276*%
%ADD88R,0.0906X0.0866*%
G36*
X16700Y9800D02*
Y9050D01*
X18000D01*
X18300Y8750D01*
X20700D01*
X20943Y8507D01*
Y7750D01*
X20200D01*
X19750Y7300D01*
X17300D01*
X16400Y8200D01*
X16250Y8350D01*
X15300D01*
X15000Y8650D01*
Y9850D01*
X15250Y10100D01*
X15697D01*
Y9817D01*
X15297D01*
Y9334D01*
X15850D01*
X16403D01*
Y9817D01*
X16003D01*
Y10100D01*
X16400D01*
X16700Y9800D01*
D02*
G37*
%LPC*%
G36*
X16403Y9234D02*
X15900D01*
Y8751D01*
X16403D01*
Y9234D01*
D02*
G37*
G36*
X15800D02*
X15297D01*
Y8751D01*
X15800D01*
Y9234D01*
D02*
G37*
G36*
X20494Y8471D02*
Y8250D01*
X20738D01*
X20735Y8271D01*
X20708Y8337D01*
X20664Y8394D01*
X20608Y8437D01*
X20541Y8465D01*
X20494Y8471D01*
D02*
G37*
G36*
X17800Y8926D02*
X17753Y8919D01*
X17687Y8892D01*
X17630Y8848D01*
X17587Y8792D01*
X17559Y8725D01*
X17550Y8654D01*
Y8250D01*
X17800D01*
Y8926D01*
D02*
G37*
G36*
X20738Y8150D02*
X20494D01*
Y7929D01*
X20541Y7935D01*
X20608Y7963D01*
X20664Y8006D01*
X20708Y8063D01*
X20735Y8129D01*
X20738Y8150D01*
D02*
G37*
G36*
X17900Y8926D02*
Y8200D01*
Y7474D01*
X17947Y7481D01*
X18013Y7508D01*
X18070Y7552D01*
X18113Y7608D01*
X18141Y7675D01*
X18150Y7746D01*
Y8047D01*
X20193D01*
X20225Y8006D01*
X20281Y7963D01*
X20348Y7935D01*
X20394Y7929D01*
Y8200D01*
Y8471D01*
X20348Y8465D01*
X20281Y8437D01*
X20225Y8394D01*
X20193Y8353D01*
X18150D01*
Y8654D01*
X18141Y8725D01*
X18113Y8792D01*
X18070Y8848D01*
X18013Y8892D01*
X17947Y8919D01*
X17900Y8926D01*
D02*
G37*
G36*
X17800Y8150D02*
X17550D01*
Y7746D01*
X17559Y7675D01*
X17587Y7608D01*
X17630Y7552D01*
X17687Y7508D01*
X17753Y7481D01*
X17800Y7474D01*
Y8150D01*
D02*
G37*
%LPD*%
D14*
X6800Y9750D02*
X6900Y9650D01*
X2350Y10200D02*
X2800Y9750D01*
X6800D01*
X14700Y6800D02*
Y13550D01*
Y6800D02*
X15500Y6000D01*
X17400Y10300D02*
X17750Y9950D01*
X17400Y10300D02*
Y10770D01*
X17750Y9950D02*
X19450D01*
X19500Y9900D01*
X19850Y9150D02*
Y12424D01*
X17538Y14737D02*
X19850Y12424D01*
X17410Y10770D02*
X18696D01*
X7850Y20150D02*
Y20750D01*
X5254Y23346D02*
X7850Y20750D01*
X20400Y9146D02*
X20444Y9102D01*
X20400Y9146D02*
Y10900D01*
X13800Y23100D02*
X14950Y21950D01*
X16800D01*
X15850Y9284D02*
Y10950D01*
X17850Y8200D02*
X20444D01*
X9600Y11066D02*
Y14550D01*
X7600Y14439D02*
Y16335D01*
X8600Y14550D02*
Y15845D01*
X19600Y28350D02*
Y28850D01*
X18600Y28350D02*
Y28850D01*
X26260Y10850D02*
X26599Y11189D01*
X26739D02*
X27000Y11450D01*
X26250Y10850D02*
X26260D01*
X26599Y11189D02*
X26739D01*
X26250Y10650D02*
Y10850D01*
X17025Y23100D02*
X17311Y22814D01*
Y22029D02*
X17615Y21725D01*
X17311Y22029D02*
Y22814D01*
X10700Y13791D02*
X11150Y14241D01*
Y18333D02*
X11467Y18650D01*
X11150Y14241D02*
Y18333D01*
X11300Y12342D02*
Y18200D01*
X11500Y18400D01*
X9150Y10192D02*
X11300Y12342D01*
X11500Y18400D02*
X12284D01*
X12034Y18650D02*
X12284Y18400D01*
X11467Y18650D02*
X12034D01*
X12284Y18400D02*
X12350D01*
X10700Y12350D02*
Y13791D01*
X22150Y8400D02*
Y9334D01*
X21250Y7550D02*
Y8950D01*
X20998Y7298D02*
X21250Y7550D01*
X20444Y7298D02*
X20998D01*
X9066Y16999D02*
Y17234D01*
X8900Y17400D02*
X9066Y17234D01*
Y16999D02*
X9100Y16965D01*
X8350Y17400D02*
X8900D01*
X8045D02*
X8350D01*
X7600Y16965D02*
X7610D01*
X8045Y17400D01*
X18776Y11350D02*
X19200D01*
X18750Y11376D02*
X18776Y11350D01*
X17615Y21725D02*
X17700D01*
X12062Y23100D02*
X13800D01*
X11450Y26500D02*
X12135D01*
X12150Y26485D01*
X19492Y26873D02*
X19511D01*
X19219Y26600D02*
X19492Y26873D01*
X13600Y26600D02*
X19219D01*
X12865Y27115D02*
X13450Y27700D01*
X12150Y27115D02*
X12865D01*
X8650Y25700D02*
Y26683D01*
X8657Y26690D01*
X9520Y27320D02*
X9900Y27700D01*
X8657Y27320D02*
X9520D01*
X8657Y26690D02*
X8672Y26705D01*
X7755Y4905D02*
Y6305D01*
X6650Y3800D02*
X7755Y4905D01*
X6650Y2900D02*
Y3800D01*
X7755Y6305D02*
X8850Y7400D01*
Y10316D01*
X9600Y11066D01*
X8150Y5733D02*
X9000Y6583D01*
Y10254D01*
X10150Y11404D01*
X8150Y3865D02*
Y5733D01*
X9200Y2050D02*
Y3185D01*
X14500Y2041D02*
X14550Y2091D01*
Y3185D01*
X14500Y2000D02*
Y2041D01*
X19900Y1850D02*
Y3185D01*
X25100Y2250D02*
Y3235D01*
X24050D02*
X25100D01*
X18950Y3185D02*
X19900D01*
X13550D02*
X14550D01*
X8100D02*
X9200D01*
X17185Y17740D02*
Y17750D01*
X16924Y17426D02*
Y17479D01*
X17185Y17740D01*
X20100Y22850D02*
X21550D01*
X18002Y24948D02*
X20100Y22850D01*
X20527Y21220D02*
Y21573D01*
X17602Y24498D02*
X20527Y21573D01*
Y21220D02*
X20573Y21173D01*
X21433Y22000D02*
X21450D01*
X20250Y22274D02*
X21159D01*
X21433Y22000D01*
X17726Y24798D02*
X20250Y22274D01*
X21488Y21212D02*
X21500Y21200D01*
X17664Y24648D02*
X21100Y21212D01*
X21488D01*
X12050Y12100D02*
Y12650D01*
X11800Y11850D02*
X12050Y12100D01*
X5254Y23346D02*
Y23771D01*
X4746Y24278D02*
X5254Y23771D01*
X3513Y24348D02*
X4652D01*
X4722Y24278D01*
X4746D01*
X5104Y23259D02*
Y23709D01*
X4684Y24128D02*
X5104Y23709D01*
X4515Y24128D02*
X4684D01*
X4445Y24198D02*
X4515Y24128D01*
X5104Y23259D02*
X6487Y21875D01*
X3516Y24139D02*
X3575Y24198D01*
X6487Y21813D02*
X7050Y21250D01*
Y20150D02*
Y21250D01*
X3575Y24198D02*
X4445D01*
X6487Y21813D02*
Y21875D01*
X4954Y23196D02*
X6337Y21813D01*
X4950Y23462D02*
X4954Y23459D01*
X4950Y23462D02*
Y23650D01*
X6337Y20137D02*
Y21813D01*
X4954Y23196D02*
Y23459D01*
X3550Y15700D02*
Y16400D01*
X3150Y16800D02*
X3550Y16400D01*
X7726Y12650D02*
X8300D01*
X8700Y12250D01*
X1900Y10750D02*
X2150Y11000D01*
X4338D02*
X6850Y13512D01*
X2150Y11000D02*
X4338D01*
X1900Y9028D02*
Y10750D01*
X6850Y13512D02*
Y18100D01*
X1900Y9028D02*
X2168Y8760D01*
X3350Y10200D02*
X3381Y10231D01*
X3781D02*
X7000Y13450D01*
Y17575D01*
X3381Y10231D02*
X3781D01*
X28225Y23250D02*
X29250D01*
X28175Y23300D02*
X28225Y23250D01*
X22074Y11400D02*
X23400D01*
X22050Y11376D02*
X22074Y11400D01*
X20400Y12433D02*
Y13900D01*
X22009Y10824D02*
X22050D01*
X20400Y12433D02*
X22009Y10824D01*
X23400Y7950D02*
Y8774D01*
X23950Y7450D02*
X24150Y7250D01*
X23950Y7450D02*
Y8776D01*
X23400Y9326D02*
X23950Y8776D01*
X22130Y7366D02*
X22150D01*
X21050Y6550D02*
X21127Y6627D01*
X21391D01*
X22130Y7366D01*
X16584Y7316D02*
X17050Y6850D01*
X15850Y7316D02*
X16584D01*
X16100Y16450D02*
X16500Y16850D01*
Y17850D01*
X17815Y17750D02*
X18900D01*
X17700Y19950D02*
Y20575D01*
Y19950D02*
X18250Y19400D01*
X14700Y13550D02*
X16100Y14950D01*
Y16450D01*
X26200Y9450D02*
Y10035D01*
X5364Y24798D02*
X17726D01*
X5450Y24948D02*
X18002D01*
X1799Y25848D02*
X2033Y26083D01*
X4315D01*
X5450Y24948D01*
X1799Y23159D02*
Y25848D01*
Y23159D02*
X3736Y21222D01*
X4010D01*
X5302Y24648D02*
X17664D01*
X2095Y25933D02*
X4229D01*
X5364Y24798D01*
X1949Y23403D02*
Y25786D01*
X2095Y25933D01*
X1949Y23403D02*
X3736Y21616D01*
X4010D01*
X2157Y25783D02*
X4167D01*
X5302Y24648D01*
X22150Y21200D02*
Y25800D01*
X2099Y25724D02*
X2157Y25783D01*
X2099Y23647D02*
Y25724D01*
Y23647D02*
X3736Y22009D01*
X4010D01*
X3450Y24498D02*
X17602D01*
X3216Y22923D02*
Y24264D01*
X3450Y24498D01*
X3216Y22923D02*
X3736Y22403D01*
X4010D01*
X3366Y24202D02*
X3513Y24348D01*
X3366Y23167D02*
Y24202D01*
Y23167D02*
X3736Y22797D01*
X4010D01*
X3516Y23411D02*
Y24139D01*
Y23411D02*
X3736Y23191D01*
X4010D01*
X6300Y20100D02*
X6337Y20137D01*
X4804Y20446D02*
Y23396D01*
Y20446D02*
X5700Y19550D01*
X4622Y23978D02*
X4950Y23650D01*
X4010Y23978D02*
X4622D01*
X4616Y23584D02*
X4804Y23396D01*
X4010Y23584D02*
X4616D01*
X26721Y23650D02*
X27025Y23346D01*
Y23300D02*
Y23346D01*
X25350Y23650D02*
X26721D01*
X18600Y28350D02*
X21600Y25350D01*
X19600Y28350D02*
X22150Y25800D01*
X8050Y19088D02*
X12062Y23100D01*
X7764Y17705D02*
X8050Y17991D01*
Y19088D01*
X7615Y16350D02*
X8350D01*
X7600Y16335D02*
X7615Y16350D01*
X9115D02*
X9700D01*
X9100Y16335D02*
X9115Y16350D01*
X7130Y17705D02*
X7764D01*
X7000Y17575D02*
X7130Y17705D01*
X6850Y18100D02*
X12300Y23550D01*
X12900D01*
X8600Y15845D02*
X9090Y16335D01*
X9100D01*
X9150Y3865D02*
X9200Y3815D01*
X9150Y5733D02*
Y10192D01*
Y3865D02*
Y5733D01*
X2168Y8760D02*
X2790D01*
X3350Y8200D01*
X17400Y11400D02*
X17410D01*
X17900Y11890D01*
X18240D01*
X18300Y11950D01*
X18696Y10770D02*
X18750Y10824D01*
X22000Y10200D02*
Y10774D01*
X22050Y10824D01*
X10150Y19800D02*
X12700Y22350D01*
X10150Y11404D02*
Y19800D01*
X6900Y12376D02*
X7174Y12650D01*
X6900Y9650D02*
Y12376D01*
X12576Y9826D02*
Y12624D01*
X12550Y9800D02*
X12576Y9826D01*
Y12624D02*
X12601Y12650D01*
X13925Y13973D02*
X14073D01*
X12601Y12650D02*
X13925Y13973D01*
X14073D02*
X14150Y14050D01*
X17538Y14737D02*
Y17903D01*
X17215Y18226D02*
X17538Y17903D01*
X16450Y18550D02*
X16774Y18226D01*
X17215D01*
X12700Y22350D02*
X13741D01*
X13800Y22291D01*
Y22250D02*
Y22291D01*
X25070Y3895D02*
Y5733D01*
Y3895D02*
X25100Y3865D01*
X24050D02*
X24070Y3885D01*
Y5733D01*
X19920Y3835D02*
Y5733D01*
X19900Y3815D02*
X19920Y3835D01*
X18920Y3845D02*
Y5733D01*
Y3845D02*
X18950Y3815D01*
X14520Y3845D02*
X14550Y3815D01*
X14520Y3845D02*
Y5733D01*
X13520Y3845D02*
Y5733D01*
Y3845D02*
X13550Y3815D01*
X8100D02*
X8150Y3865D01*
X21250Y8950D02*
X21606Y9306D01*
X22122D01*
X22150Y9334D01*
X24150Y7250D02*
X24700D01*
X22150Y9334D02*
X22159Y9326D01*
X23400D01*
X14534Y25300D02*
X19500D01*
X13834Y26000D02*
X14534Y25300D01*
X10600Y26000D02*
X13834D01*
D21*
X18750Y10824D02*
D03*
Y11376D02*
D03*
X22050Y10824D02*
D03*
Y11376D02*
D03*
D28*
X8100Y3815D02*
D03*
Y3185D02*
D03*
X9200Y3815D02*
D03*
Y3185D02*
D03*
X18950D02*
D03*
Y3815D02*
D03*
X19900Y3185D02*
D03*
Y3815D02*
D03*
X13550Y3185D02*
D03*
Y3815D02*
D03*
X14550Y3185D02*
D03*
Y3815D02*
D03*
X17400Y11400D02*
D03*
Y10770D02*
D03*
X9100Y16335D02*
D03*
Y16965D02*
D03*
X7600Y16335D02*
D03*
Y16965D02*
D03*
X24050Y3235D02*
D03*
Y3865D02*
D03*
X25100Y3235D02*
D03*
Y3865D02*
D03*
X26250Y10220D02*
D03*
Y10850D02*
D03*
X12150Y26485D02*
D03*
Y27115D02*
D03*
X8657Y26690D02*
D03*
Y27320D02*
D03*
D29*
X17815Y17750D02*
D03*
X17185D02*
D03*
D53*
X3350Y6200D02*
D03*
X2350D02*
D03*
X3350Y7200D02*
D03*
X2350D02*
D03*
X3350Y8200D02*
D03*
X2350D02*
D03*
X3350Y9200D02*
D03*
X2350D02*
D03*
X3350Y10200D02*
D03*
D54*
X2350D02*
D03*
D55*
X4050Y17000D02*
D03*
Y14724D02*
D03*
D56*
X7550Y28850D02*
D03*
X6150Y5733D02*
D03*
X20600Y28850D02*
D03*
X16920Y5733D02*
D03*
X11520D02*
D03*
X10600Y14550D02*
D03*
X22070Y5733D02*
D03*
D57*
X6550Y28850D02*
D03*
X5550D02*
D03*
X4550D02*
D03*
X7150Y5733D02*
D03*
X8150D02*
D03*
X9150D02*
D03*
X17600Y28850D02*
D03*
X18600D02*
D03*
X19600D02*
D03*
X19920Y5733D02*
D03*
X18920D02*
D03*
X17920D02*
D03*
X14520D02*
D03*
X13520D02*
D03*
X12520D02*
D03*
X7600Y14550D02*
D03*
X8600D02*
D03*
X9600D02*
D03*
X25070Y5733D02*
D03*
X24070D02*
D03*
X23070D02*
D03*
D58*
X24700Y7250D02*
D03*
D59*
Y8250D02*
D03*
D60*
X7900Y9650D02*
D03*
X14450Y27700D02*
D03*
X10900D02*
D03*
D61*
X6900Y9650D02*
D03*
X13450Y27700D02*
D03*
X9900D02*
D03*
D62*
X15500Y6000D02*
D03*
X7850Y20150D02*
D03*
X20400Y10900D02*
D03*
X16800Y21950D02*
D03*
X25000Y28700D02*
D03*
X15850Y10950D02*
D03*
X27000Y11450D02*
D03*
X5550Y17500D02*
D03*
Y14950D02*
D03*
X18500Y13100D02*
D03*
X20100Y14650D02*
D03*
X20150Y23450D02*
D03*
X16500Y22700D02*
D03*
X17025Y23100D02*
D03*
X18900Y21600D02*
D03*
X14100Y20200D02*
D03*
X22650Y18000D02*
D03*
X22900Y20350D02*
D03*
X21850Y16950D02*
D03*
X10700Y12350D02*
D03*
X22150Y8400D02*
D03*
X8350Y17400D02*
D03*
X5450Y22300D02*
D03*
X11550Y21850D02*
D03*
X12000Y24100D02*
D03*
X9200Y21950D02*
D03*
X19200Y11350D02*
D03*
X11450Y26500D02*
D03*
X13600Y26600D02*
D03*
X8650Y25700D02*
D03*
X6650Y2900D02*
D03*
X9200Y2050D02*
D03*
X14500Y2000D02*
D03*
X19900Y1850D02*
D03*
X25100Y2250D02*
D03*
X16500Y19700D02*
D03*
X14750Y16100D02*
D03*
X17755Y14130D02*
D03*
X16200Y13450D02*
D03*
X21250Y14950D02*
D03*
X24600Y10000D02*
D03*
X25750Y18450D02*
D03*
Y15950D02*
D03*
X25600Y20800D02*
D03*
X25800Y24750D02*
D03*
X18800Y22650D02*
D03*
X15400Y24223D02*
D03*
X16550Y21150D02*
D03*
X16924Y17426D02*
D03*
X21550Y22850D02*
D03*
X20573Y21173D02*
D03*
X21450Y22000D02*
D03*
X21500Y21200D02*
D03*
X11800Y11850D02*
D03*
X9850Y9950D02*
D03*
X2750Y24403D02*
D03*
X2850Y26358D02*
D03*
X6450Y23500D02*
D03*
X5700Y20850D02*
D03*
X3500Y13600D02*
D03*
X3550Y15700D02*
D03*
X8700Y12250D02*
D03*
X3150Y16800D02*
D03*
X27250Y19550D02*
D03*
Y16950D02*
D03*
Y21100D02*
D03*
Y22150D02*
D03*
X29250Y23250D02*
D03*
X22250Y26650D02*
D03*
X19850Y26050D02*
D03*
X19511Y26873D02*
D03*
X15150Y25950D02*
D03*
X12400Y21150D02*
D03*
Y19600D02*
D03*
X12600Y16550D02*
D03*
X22900Y12650D02*
D03*
X23400Y11400D02*
D03*
X22000Y12650D02*
D03*
X21050Y12600D02*
D03*
X20400Y13900D02*
D03*
X23400Y7950D02*
D03*
X21050Y6550D02*
D03*
X17050Y6850D02*
D03*
X16500Y17850D02*
D03*
X18900Y17750D02*
D03*
X18250Y19400D02*
D03*
X19500Y25300D02*
D03*
X21600Y25350D02*
D03*
X26200Y9450D02*
D03*
X22150Y21200D02*
D03*
X7050Y20150D02*
D03*
X6300Y20100D02*
D03*
X5700Y19550D02*
D03*
X25350Y23650D02*
D03*
X8350Y16350D02*
D03*
X9700D02*
D03*
X12900Y23550D02*
D03*
X12350Y18400D02*
D03*
X18300Y11950D02*
D03*
X14150Y14050D02*
D03*
X16450Y18550D02*
D03*
X13800Y22250D02*
D03*
X10600Y26000D02*
D03*
D63*
X19500Y9900D02*
D03*
X19850Y9150D02*
D03*
X22000Y10200D02*
D03*
X12550Y9800D02*
D03*
D79*
X20444Y9102D02*
D03*
D80*
Y8200D02*
D03*
Y7298D02*
D03*
D81*
X17850Y8200D02*
D03*
D82*
X2907Y25155D02*
D03*
Y20045D02*
D03*
D83*
X4010Y23978D02*
D03*
Y23584D02*
D03*
Y23191D02*
D03*
Y22797D02*
D03*
Y22403D02*
D03*
Y22009D02*
D03*
Y21616D02*
D03*
Y21222D02*
D03*
D84*
X12601Y12650D02*
D03*
X12050D02*
D03*
X7174D02*
D03*
X7726D02*
D03*
D85*
X27025Y23300D02*
D03*
X28175D02*
D03*
D86*
X17700Y21725D02*
D03*
Y20575D02*
D03*
D87*
X23400Y9326D02*
D03*
Y8774D02*
D03*
D88*
X22150Y9334D02*
D03*
Y7366D02*
D03*
X15850Y9284D02*
D03*
Y7316D02*
D03*
M02*
