G04*
G04 #@! TF.GenerationSoftware,Altium Limited,Altium Designer,22.9.1 (49)*
G04*
G04 Layer_Color=32896*
%FSLAX24Y24*%
%MOIN*%
G70*
G04*
G04 #@! TF.SameCoordinates,54DEFAFE-76A2-4419-BEBC-3D5CD7468304*
G04*
G04*
G04 #@! TF.FilePolarity,Positive*
G04*
G01*
G75*
%ADD10C,0.0079*%
G36*
X18829Y8457D02*
X18836Y8457D01*
X18841Y8456D01*
X18847Y8454D01*
X18852Y8453D01*
X18857Y8452D01*
X18861Y8450D01*
X18865Y8448D01*
X18869Y8446D01*
X18872Y8444D01*
X18874Y8443D01*
X18876Y8441D01*
X18878Y8440D01*
X18879Y8439D01*
X18880Y8439D01*
X18880Y8438D01*
X18884Y8435D01*
X18887Y8431D01*
X18891Y8426D01*
X18893Y8422D01*
X18898Y8413D01*
X18900Y8405D01*
X18902Y8401D01*
X18903Y8397D01*
X18903Y8393D01*
X18904Y8390D01*
X18904Y8388D01*
Y8386D01*
X18905Y8385D01*
Y8385D01*
X18873Y8381D01*
X18872Y8390D01*
X18871Y8397D01*
X18869Y8403D01*
X18866Y8409D01*
X18864Y8413D01*
X18862Y8416D01*
X18860Y8418D01*
X18860Y8418D01*
X18854Y8423D01*
X18848Y8426D01*
X18842Y8429D01*
X18837Y8430D01*
X18832Y8431D01*
X18827Y8432D01*
X18826Y8432D01*
X18824D01*
X18816Y8432D01*
X18809Y8430D01*
X18803Y8428D01*
X18798Y8426D01*
X18794Y8423D01*
X18792Y8421D01*
X18790Y8420D01*
X18789Y8419D01*
X18785Y8414D01*
X18781Y8409D01*
X18779Y8404D01*
X18777Y8399D01*
X18776Y8395D01*
X18776Y8391D01*
X18776Y8389D01*
Y8389D01*
Y8388D01*
X18776Y8382D01*
X18778Y8375D01*
X18780Y8369D01*
X18783Y8363D01*
X18786Y8358D01*
X18788Y8354D01*
X18789Y8353D01*
X18790Y8351D01*
X18791Y8351D01*
Y8351D01*
X18793Y8347D01*
X18797Y8343D01*
X18801Y8338D01*
X18805Y8334D01*
X18815Y8325D01*
X18824Y8316D01*
X18828Y8312D01*
X18832Y8309D01*
X18836Y8306D01*
X18840Y8303D01*
X18842Y8300D01*
X18844Y8299D01*
X18846Y8298D01*
X18846Y8297D01*
X18855Y8290D01*
X18864Y8282D01*
X18871Y8276D01*
X18876Y8270D01*
X18881Y8266D01*
X18884Y8262D01*
X18886Y8260D01*
X18887Y8260D01*
Y8259D01*
X18892Y8253D01*
X18896Y8247D01*
X18899Y8241D01*
X18902Y8236D01*
X18904Y8232D01*
X18906Y8229D01*
X18907Y8227D01*
X18907Y8226D01*
Y8226D01*
X18908Y8222D01*
X18909Y8218D01*
X18910Y8215D01*
X18910Y8211D01*
X18911Y8208D01*
Y8206D01*
Y8205D01*
Y8204D01*
X18744D01*
Y8234D01*
X18868D01*
X18863Y8240D01*
X18861Y8243D01*
X18859Y8245D01*
X18858Y8248D01*
X18856Y8249D01*
X18855Y8250D01*
X18855Y8251D01*
X18853Y8252D01*
X18851Y8254D01*
X18845Y8259D01*
X18840Y8264D01*
X18833Y8270D01*
X18828Y8275D01*
X18825Y8277D01*
X18823Y8279D01*
X18821Y8280D01*
X18820Y8282D01*
X18819Y8282D01*
X18819Y8283D01*
X18813Y8288D01*
X18807Y8292D01*
X18802Y8297D01*
X18797Y8301D01*
X18793Y8305D01*
X18789Y8309D01*
X18785Y8312D01*
X18783Y8315D01*
X18780Y8318D01*
X18777Y8320D01*
X18776Y8322D01*
X18774Y8324D01*
X18772Y8326D01*
X18771Y8327D01*
X18766Y8333D01*
X18762Y8338D01*
X18758Y8344D01*
X18755Y8348D01*
X18753Y8352D01*
X18752Y8355D01*
X18751Y8357D01*
X18750Y8358D01*
X18748Y8363D01*
X18747Y8369D01*
X18745Y8374D01*
X18745Y8378D01*
X18744Y8382D01*
X18744Y8385D01*
Y8387D01*
Y8387D01*
X18744Y8393D01*
X18745Y8398D01*
X18746Y8403D01*
X18747Y8407D01*
X18751Y8416D01*
X18754Y8423D01*
X18757Y8426D01*
X18758Y8429D01*
X18760Y8432D01*
X18762Y8433D01*
X18764Y8435D01*
X18764Y8436D01*
X18765Y8437D01*
X18765Y8437D01*
X18769Y8441D01*
X18774Y8444D01*
X18779Y8446D01*
X18783Y8449D01*
X18793Y8452D01*
X18802Y8455D01*
X18806Y8456D01*
X18810Y8456D01*
X18814Y8457D01*
X18817Y8457D01*
X18819Y8457D01*
X18823D01*
X18829Y8457D01*
D02*
G37*
G36*
X19147Y8311D02*
Y8303D01*
X19147Y8296D01*
X19147Y8290D01*
X19146Y8284D01*
X19145Y8278D01*
X19144Y8273D01*
X19143Y8268D01*
X19143Y8264D01*
X19142Y8260D01*
X19141Y8257D01*
X19140Y8254D01*
X19139Y8252D01*
X19139Y8250D01*
X19138Y8248D01*
X19138Y8248D01*
Y8247D01*
X19134Y8239D01*
X19129Y8232D01*
X19124Y8226D01*
X19118Y8221D01*
X19113Y8217D01*
X19109Y8214D01*
X19108Y8213D01*
X19107Y8213D01*
X19106Y8212D01*
X19106D01*
X19097Y8208D01*
X19087Y8205D01*
X19077Y8203D01*
X19068Y8201D01*
X19064Y8201D01*
X19060Y8201D01*
X19057Y8200D01*
X19054D01*
X19051Y8200D01*
X19048D01*
X19035Y8201D01*
X19029Y8201D01*
X19023Y8202D01*
X19018Y8203D01*
X19013Y8204D01*
X19009Y8205D01*
X19005Y8207D01*
X19001Y8208D01*
X18998Y8209D01*
X18995Y8211D01*
X18993Y8212D01*
X18991Y8213D01*
X18990Y8213D01*
X18990Y8214D01*
X18989D01*
X18981Y8219D01*
X18975Y8225D01*
X18970Y8231D01*
X18965Y8237D01*
X18962Y8242D01*
X18960Y8246D01*
X18959Y8248D01*
X18958Y8249D01*
X18958Y8249D01*
Y8250D01*
X18957Y8254D01*
X18955Y8259D01*
X18953Y8269D01*
X18951Y8279D01*
X18950Y8289D01*
X18950Y8293D01*
X18950Y8298D01*
Y8301D01*
X18949Y8304D01*
Y8307D01*
Y8309D01*
Y8310D01*
Y8311D01*
Y8456D01*
X18983D01*
Y8311D01*
Y8302D01*
X18983Y8294D01*
X18984Y8287D01*
X18985Y8281D01*
X18986Y8275D01*
X18988Y8270D01*
X18989Y8265D01*
X18990Y8261D01*
X18992Y8258D01*
X18993Y8254D01*
X18995Y8252D01*
X18996Y8250D01*
X18997Y8248D01*
X18998Y8247D01*
X18998Y8247D01*
X18998Y8247D01*
X19002Y8244D01*
X19005Y8241D01*
X19013Y8237D01*
X19022Y8234D01*
X19030Y8232D01*
X19038Y8231D01*
X19042Y8231D01*
X19045D01*
X19047Y8230D01*
X19051D01*
X19058Y8231D01*
X19065Y8232D01*
X19072Y8233D01*
X19077Y8235D01*
X19081Y8236D01*
X19085Y8237D01*
X19086Y8238D01*
X19087Y8239D01*
X19092Y8242D01*
X19097Y8246D01*
X19100Y8250D01*
X19103Y8253D01*
X19105Y8257D01*
X19107Y8260D01*
X19108Y8262D01*
X19108Y8262D01*
X19109Y8266D01*
X19110Y8269D01*
X19111Y8276D01*
X19112Y8284D01*
X19113Y8292D01*
X19113Y8299D01*
Y8303D01*
X19114Y8305D01*
Y8307D01*
Y8309D01*
Y8310D01*
Y8311D01*
Y8456D01*
X19147D01*
Y8311D01*
D02*
G37*
D10*
X17613Y9520D02*
X20682D01*
X17613Y6880D02*
Y9520D01*
Y6880D02*
X20682D01*
Y9520D01*
M02*
