G04*
G04 #@! TF.GenerationSoftware,Altium Limited,Altium Designer,22.9.1 (49)*
G04*
G04 Layer_Color=32896*
%FSLAX25Y25*%
%MOIN*%
G70*
G04*
G04 #@! TF.SameCoordinates,F30A270F-9CF5-405F-8EA2-704C6F89508A*
G04*
G04*
G04 #@! TF.FilePolarity,Positive*
G04*
G01*
G75*
%ADD12C,0.00787*%
G36*
X198795Y95070D02*
X198857Y95066D01*
X198915Y95055D01*
X198969Y95044D01*
X199021Y95030D01*
X199068Y95015D01*
X199111Y94997D01*
X199152Y94979D01*
X199188Y94961D01*
X199217Y94942D01*
X199242Y94928D01*
X199264Y94913D01*
X199283Y94902D01*
X199293Y94891D01*
X199301Y94888D01*
X199304Y94884D01*
X199341Y94848D01*
X199373Y94808D01*
X199406Y94764D01*
X199432Y94720D01*
X199476Y94633D01*
X199505Y94546D01*
X199515Y94506D01*
X199526Y94466D01*
X199534Y94433D01*
X199541Y94404D01*
X199545Y94378D01*
Y94360D01*
X199548Y94349D01*
Y94345D01*
X199232Y94313D01*
X199224Y94396D01*
X199210Y94469D01*
X199188Y94535D01*
X199162Y94586D01*
X199141Y94629D01*
X199119Y94658D01*
X199104Y94677D01*
X199097Y94684D01*
X199042Y94728D01*
X198984Y94760D01*
X198922Y94786D01*
X198868Y94800D01*
X198817Y94811D01*
X198773Y94815D01*
X198758Y94819D01*
X198737D01*
X198660Y94815D01*
X198591Y94800D01*
X198533Y94779D01*
X198482Y94757D01*
X198442Y94731D01*
X198416Y94713D01*
X198398Y94699D01*
X198391Y94691D01*
X198347Y94640D01*
X198314Y94589D01*
X198289Y94538D01*
X198274Y94487D01*
X198263Y94447D01*
X198260Y94411D01*
X198256Y94389D01*
Y94385D01*
Y94382D01*
X198263Y94316D01*
X198278Y94247D01*
X198303Y94185D01*
X198329Y94127D01*
X198358Y94080D01*
X198383Y94040D01*
X198391Y94025D01*
X198398Y94014D01*
X198405Y94011D01*
Y94007D01*
X198434Y93967D01*
X198471Y93927D01*
X198511Y93883D01*
X198555Y93840D01*
X198645Y93752D01*
X198737Y93665D01*
X198784Y93625D01*
X198824Y93588D01*
X198864Y93556D01*
X198897Y93526D01*
X198922Y93505D01*
X198944Y93486D01*
X198959Y93476D01*
X198962Y93472D01*
X199053Y93395D01*
X199137Y93323D01*
X199206Y93257D01*
X199261Y93203D01*
X199308Y93155D01*
X199341Y93122D01*
X199359Y93101D01*
X199366Y93097D01*
Y93093D01*
X199417Y93031D01*
X199457Y92973D01*
X199494Y92915D01*
X199523Y92864D01*
X199545Y92820D01*
X199559Y92787D01*
X199566Y92766D01*
X199570Y92762D01*
Y92758D01*
X199585Y92718D01*
X199592Y92682D01*
X199599Y92646D01*
X199603Y92613D01*
X199607Y92584D01*
Y92562D01*
Y92547D01*
Y92544D01*
X197936D01*
Y92842D01*
X199177D01*
X199133Y92904D01*
X199111Y92930D01*
X199093Y92955D01*
X199075Y92977D01*
X199060Y92991D01*
X199050Y93002D01*
X199046Y93006D01*
X199028Y93024D01*
X199006Y93042D01*
X198955Y93090D01*
X198897Y93144D01*
X198835Y93199D01*
X198777Y93246D01*
X198751Y93268D01*
X198729Y93290D01*
X198711Y93304D01*
X198696Y93315D01*
X198689Y93323D01*
X198686Y93326D01*
X198627Y93377D01*
X198569Y93424D01*
X198518Y93472D01*
X198471Y93512D01*
X198427Y93552D01*
X198391Y93588D01*
X198354Y93621D01*
X198325Y93650D01*
X198296Y93679D01*
X198274Y93701D01*
X198256Y93719D01*
X198238Y93738D01*
X198220Y93759D01*
X198212Y93767D01*
X198161Y93828D01*
X198118Y93883D01*
X198081Y93938D01*
X198052Y93981D01*
X198030Y94021D01*
X198016Y94051D01*
X198009Y94069D01*
X198005Y94076D01*
X197983Y94131D01*
X197968Y94185D01*
X197954Y94236D01*
X197947Y94280D01*
X197943Y94320D01*
X197939Y94349D01*
Y94367D01*
Y94375D01*
X197943Y94429D01*
X197950Y94480D01*
X197958Y94531D01*
X197972Y94575D01*
X198009Y94662D01*
X198045Y94731D01*
X198067Y94764D01*
X198085Y94789D01*
X198103Y94815D01*
X198121Y94833D01*
X198136Y94848D01*
X198143Y94862D01*
X198151Y94866D01*
X198154Y94870D01*
X198194Y94906D01*
X198238Y94939D01*
X198285Y94964D01*
X198333Y94986D01*
X198427Y95022D01*
X198522Y95048D01*
X198562Y95055D01*
X198602Y95063D01*
X198638Y95066D01*
X198667Y95070D01*
X198693Y95073D01*
X198729D01*
X198795Y95070D01*
D02*
G37*
G36*
X201973Y93607D02*
Y93534D01*
X201969Y93464D01*
X201965Y93399D01*
X201958Y93337D01*
X201951Y93283D01*
X201943Y93232D01*
X201932Y93184D01*
X201925Y93141D01*
X201918Y93101D01*
X201907Y93068D01*
X201900Y93039D01*
X201892Y93017D01*
X201885Y92999D01*
X201882Y92984D01*
X201878Y92977D01*
Y92973D01*
X201838Y92893D01*
X201787Y92820D01*
X201736Y92762D01*
X201681Y92711D01*
X201634Y92671D01*
X201594Y92642D01*
X201579Y92635D01*
X201569Y92627D01*
X201561Y92620D01*
X201557D01*
X201466Y92580D01*
X201372Y92551D01*
X201274Y92529D01*
X201183Y92514D01*
X201143Y92511D01*
X201102Y92507D01*
X201066Y92504D01*
X201037D01*
X201011Y92500D01*
X200979D01*
X200848Y92507D01*
X200789Y92514D01*
X200735Y92522D01*
X200680Y92533D01*
X200633Y92544D01*
X200589Y92554D01*
X200549Y92569D01*
X200513Y92584D01*
X200484Y92595D01*
X200455Y92606D01*
X200433Y92616D01*
X200415Y92627D01*
X200404Y92631D01*
X200396Y92638D01*
X200393D01*
X200313Y92693D01*
X200247Y92755D01*
X200196Y92813D01*
X200152Y92871D01*
X200120Y92922D01*
X200098Y92962D01*
X200091Y92977D01*
X200083Y92988D01*
X200080Y92995D01*
Y92999D01*
X200065Y93042D01*
X200051Y93090D01*
X200029Y93188D01*
X200014Y93290D01*
X200003Y93388D01*
X200000Y93432D01*
X199996Y93476D01*
Y93512D01*
X199992Y93545D01*
Y93570D01*
Y93588D01*
Y93603D01*
Y93607D01*
Y95063D01*
X200327D01*
Y93607D01*
Y93523D01*
X200335Y93443D01*
X200342Y93374D01*
X200353Y93308D01*
X200364Y93250D01*
X200378Y93195D01*
X200389Y93148D01*
X200404Y93108D01*
X200418Y93075D01*
X200433Y93042D01*
X200447Y93020D01*
X200458Y92999D01*
X200469Y92984D01*
X200476Y92973D01*
X200480Y92970D01*
X200484Y92966D01*
X200517Y92937D01*
X200553Y92911D01*
X200633Y92871D01*
X200717Y92842D01*
X200804Y92824D01*
X200884Y92809D01*
X200917Y92806D01*
X200950D01*
X200972Y92802D01*
X201008D01*
X201084Y92806D01*
X201153Y92817D01*
X201219Y92827D01*
X201270Y92846D01*
X201314Y92860D01*
X201346Y92871D01*
X201365Y92882D01*
X201372Y92886D01*
X201423Y92919D01*
X201466Y92959D01*
X201503Y92999D01*
X201528Y93035D01*
X201550Y93071D01*
X201569Y93097D01*
X201576Y93115D01*
X201579Y93122D01*
X201590Y93155D01*
X201598Y93188D01*
X201612Y93264D01*
X201623Y93344D01*
X201630Y93424D01*
X201634Y93494D01*
Y93526D01*
X201638Y93552D01*
Y93574D01*
Y93592D01*
Y93603D01*
Y93607D01*
Y95063D01*
X201973D01*
Y93607D01*
D02*
G37*
D12*
X217316Y79301D02*
Y105699D01*
X186629Y79301D02*
X217316D01*
X186629D02*
Y105699D01*
X217316D01*
M02*
