G04*
G04 #@! TF.GenerationSoftware,Altium Limited,Altium Designer,22.9.1 (49)*
G04*
G04 Layer_Color=65535*
%FSLAX24Y24*%
%MOIN*%
G70*
G04*
G04 #@! TF.SameCoordinates,54DEFAFE-76A2-4419-BEBC-3D5CD7468304*
G04*
G04*
G04 #@! TF.FilePolarity,Positive*
G04*
G01*
G75*
%ADD10C,0.0079*%
%ADD11C,0.0098*%
%ADD12C,0.0197*%
%ADD13C,0.0039*%
%ADD14C,0.0100*%
G36*
X26542Y16877D02*
X26591D01*
Y16865D01*
X26628D01*
Y16852D01*
X26652D01*
Y16840D01*
X26677D01*
Y16828D01*
X26689D01*
Y16815D01*
X26701D01*
Y16803D01*
X26714D01*
Y16791D01*
X26726D01*
Y16779D01*
X26738D01*
Y16766D01*
X26750D01*
Y16742D01*
X26763D01*
Y16717D01*
X26775D01*
Y16680D01*
X26787D01*
Y16521D01*
X26750D01*
Y16533D01*
X26701D01*
Y16545D01*
X26652D01*
Y16558D01*
X26591D01*
Y16570D01*
X26542D01*
Y16582D01*
X26493D01*
Y16595D01*
X26260D01*
Y16607D01*
X26186D01*
Y16656D01*
X26198D01*
Y16668D01*
X26210D01*
Y16680D01*
X26223D01*
Y16693D01*
X26235D01*
Y16717D01*
X26247D01*
Y16730D01*
X26260D01*
Y16742D01*
X26272D01*
Y16754D01*
Y16766D01*
X26284D01*
Y16779D01*
X26296D01*
Y16791D01*
X26309D01*
Y16803D01*
X26321D01*
Y16815D01*
X26333D01*
Y16828D01*
X26345D01*
Y16840D01*
X26358D01*
Y16852D01*
X26382D01*
Y16865D01*
X26407D01*
Y16877D01*
X26444D01*
Y16889D01*
X26456D01*
Y16877D01*
X26468D01*
Y16889D01*
X26517D01*
Y16877D01*
X26530D01*
Y16889D01*
X26542D01*
Y16877D01*
D02*
G37*
G36*
X25339Y16742D02*
X25364D01*
Y16730D01*
X25376D01*
Y16705D01*
X25388D01*
Y16693D01*
X25400D01*
Y16668D01*
X25413D01*
Y16656D01*
X25425D01*
Y16644D01*
X25437D01*
Y16656D01*
X25450D01*
Y16668D01*
X25474D01*
Y16680D01*
X25486D01*
Y16693D01*
X25499D01*
Y16705D01*
X25523D01*
Y16717D01*
X25535D01*
Y16730D01*
X25560D01*
Y16656D01*
X25572D01*
Y16631D01*
X25585D01*
Y16619D01*
X25609D01*
Y16607D01*
X25720D01*
Y16619D01*
X25744D01*
Y16582D01*
X25732D01*
Y16521D01*
X25720D01*
Y16496D01*
X25707D01*
Y16484D01*
X25695D01*
Y16472D01*
X25683D01*
Y16460D01*
X25670D01*
Y16447D01*
X25658D01*
Y16435D01*
X25646D01*
Y16410D01*
X25634D01*
Y16398D01*
X25621D01*
Y16386D01*
X25609D01*
Y16374D01*
X25597D01*
Y16361D01*
X25585D01*
Y16349D01*
X25572D01*
Y16337D01*
X25560D01*
Y16325D01*
X25548D01*
Y16300D01*
X25535D01*
Y16288D01*
X25523D01*
Y16275D01*
X25511D01*
Y16263D01*
X25499D01*
Y16251D01*
X25486D01*
Y16239D01*
X25474D01*
Y16226D01*
X25462D01*
Y16214D01*
X25450D01*
Y16202D01*
X25315D01*
Y16190D01*
X25290D01*
Y16177D01*
X25278D01*
Y16018D01*
X25265D01*
Y16005D01*
X25253D01*
Y15993D01*
X25241D01*
Y15981D01*
X25229D01*
Y15956D01*
X25216D01*
Y15944D01*
X25204D01*
Y15932D01*
X25192D01*
Y15920D01*
X25180D01*
Y15907D01*
X25167D01*
Y15895D01*
X25155D01*
Y15883D01*
X25143D01*
Y15870D01*
X25130D01*
Y15858D01*
X25118D01*
Y15846D01*
X25106D01*
Y15834D01*
X25094D01*
Y15821D01*
X25081D01*
Y15797D01*
X25069D01*
Y15785D01*
X25057D01*
Y15772D01*
X25045D01*
Y15760D01*
X25032D01*
Y15748D01*
X25020D01*
Y15735D01*
X25008D01*
Y15723D01*
X24995D01*
Y15711D01*
X24983D01*
Y15699D01*
X24971D01*
Y15686D01*
X24959D01*
Y15674D01*
X24946D01*
Y15662D01*
X24934D01*
Y15637D01*
X24922D01*
Y15662D01*
X24910D01*
Y15711D01*
X24922D01*
Y15735D01*
X24934D01*
Y15760D01*
X24946D01*
Y15809D01*
X24934D01*
Y15821D01*
X24885D01*
Y15809D01*
X24848D01*
Y15797D01*
X24824D01*
Y15809D01*
X24799D01*
Y15821D01*
X24787D01*
Y15870D01*
X24799D01*
Y15895D01*
X24811D01*
Y15907D01*
X24824D01*
Y15920D01*
X24836D01*
Y15932D01*
X24848D01*
Y15944D01*
X24860D01*
Y15969D01*
X24824D01*
Y15981D01*
X24787D01*
Y15993D01*
X24762D01*
Y16005D01*
X24738D01*
Y16018D01*
X24713D01*
Y16042D01*
X24725D01*
Y16055D01*
X24738D01*
Y16079D01*
X24762D01*
Y16091D01*
X24775D01*
Y16104D01*
X24799D01*
Y16116D01*
X24811D01*
Y16128D01*
X24824D01*
Y16153D01*
X24811D01*
Y16165D01*
X24787D01*
Y16177D01*
X24775D01*
Y16190D01*
X24750D01*
Y16202D01*
X24738D01*
Y16214D01*
X24725D01*
Y16239D01*
X24713D01*
Y16263D01*
X24738D01*
Y16275D01*
X24750D01*
Y16288D01*
X24824D01*
Y16300D01*
X24848D01*
Y16349D01*
X24836D01*
Y16361D01*
X24824D01*
Y16374D01*
X24811D01*
Y16398D01*
X24799D01*
Y16435D01*
X24787D01*
Y16460D01*
X24836D01*
Y16472D01*
X24873D01*
Y16460D01*
X24934D01*
Y16472D01*
X24946D01*
Y16521D01*
X24934D01*
Y16545D01*
X24922D01*
Y16619D01*
X24959D01*
Y16607D01*
X25020D01*
Y16595D01*
X25045D01*
Y16582D01*
X25057D01*
Y16570D01*
X25069D01*
Y16595D01*
X25081D01*
Y16631D01*
X25094D01*
Y16680D01*
X25106D01*
Y16730D01*
X25130D01*
Y16717D01*
X25143D01*
Y16705D01*
X25167D01*
Y16693D01*
X25180D01*
Y16680D01*
X25204D01*
Y16668D01*
X25229D01*
Y16656D01*
X25253D01*
Y16668D01*
X25265D01*
Y16693D01*
X25278D01*
Y16705D01*
X25290D01*
Y16717D01*
X25302D01*
Y16730D01*
X25315D01*
Y16742D01*
X25327D01*
Y16754D01*
X25339D01*
Y16742D01*
D02*
G37*
G36*
X28825Y15024D02*
X28886D01*
Y15011D01*
X28923D01*
Y14999D01*
X28984D01*
Y14987D01*
X29033D01*
Y14999D01*
X29156D01*
Y14950D01*
X29144D01*
Y14889D01*
X29131D01*
Y14864D01*
X29119D01*
Y14852D01*
X29107D01*
Y14840D01*
X29021D01*
Y14852D01*
X28984D01*
Y14864D01*
X28947D01*
Y14876D01*
X28861D01*
Y14864D01*
X28825D01*
Y14852D01*
X28812D01*
Y14840D01*
X28800D01*
Y14827D01*
X28788D01*
Y14815D01*
X28775D01*
Y14803D01*
X28763D01*
Y14778D01*
X28751D01*
Y14741D01*
X28739D01*
Y14692D01*
X28726D01*
Y14655D01*
X28714D01*
Y14619D01*
X28702D01*
Y14570D01*
X28690D01*
Y14533D01*
X28677D01*
Y14484D01*
X28665D01*
Y14447D01*
X28653D01*
Y14410D01*
X28640D01*
Y14361D01*
X28628D01*
Y14324D01*
X28616D01*
Y14275D01*
X28604D01*
Y14238D01*
X28591D01*
Y14189D01*
X28579D01*
Y14177D01*
Y14152D01*
X28567D01*
Y14115D01*
X28555D01*
Y14066D01*
X28542D01*
Y14030D01*
X28530D01*
Y13980D01*
X28518D01*
Y13944D01*
X28505D01*
Y13907D01*
X28493D01*
Y13895D01*
X28456D01*
Y13907D01*
X28407D01*
Y13919D01*
X28370D01*
Y13931D01*
X28321D01*
Y13968D01*
X28334D01*
Y14005D01*
X28346D01*
Y14054D01*
X28358D01*
Y14091D01*
X28370D01*
Y14128D01*
X28383D01*
Y14177D01*
X28395D01*
Y14214D01*
X28407D01*
Y14263D01*
X28420D01*
Y14300D01*
X28432D01*
Y14349D01*
X28444D01*
Y14385D01*
X28456D01*
Y14422D01*
X28469D01*
Y14471D01*
X28481D01*
Y14508D01*
X28493D01*
Y14557D01*
X28505D01*
Y14594D01*
X28518D01*
Y14631D01*
X28530D01*
Y14680D01*
X28542D01*
Y14717D01*
X28555D01*
Y14754D01*
X28567D01*
Y14803D01*
X28579D01*
Y14840D01*
X28591D01*
Y14889D01*
X28567D01*
Y14876D01*
X28518D01*
Y14864D01*
X28481D01*
Y14852D01*
X28432D01*
Y14840D01*
X28395D01*
Y14827D01*
X28346D01*
Y14815D01*
X28309D01*
Y14803D01*
X28285D01*
Y14864D01*
X28297D01*
Y14889D01*
X28309D01*
Y14901D01*
X28321D01*
Y14913D01*
X28334D01*
Y14925D01*
X28346D01*
Y14938D01*
X28370D01*
Y14950D01*
X28395D01*
Y14962D01*
X28420D01*
Y14975D01*
X28444D01*
Y14987D01*
X28481D01*
Y14999D01*
X28518D01*
Y15011D01*
X28555D01*
Y15024D01*
X28616D01*
Y15036D01*
X28825D01*
Y15024D01*
D02*
G37*
G36*
X26014Y16570D02*
X26088D01*
Y16558D01*
X26186D01*
Y16545D01*
X26272D01*
Y16533D01*
X26345D01*
Y16521D01*
X26444D01*
Y16509D01*
X26517D01*
Y16496D01*
X26603D01*
Y16484D01*
X26677D01*
Y16472D01*
X26775D01*
Y16460D01*
X26861D01*
Y16447D01*
X26935D01*
Y16435D01*
X27033D01*
Y16423D01*
X27119D01*
Y16410D01*
X27192D01*
Y16398D01*
X27229D01*
Y16386D01*
X27241D01*
Y16374D01*
X27266D01*
Y16361D01*
X27278D01*
Y16349D01*
X27290D01*
Y16337D01*
X27303D01*
Y16325D01*
X27315D01*
Y16300D01*
X27327D01*
Y16288D01*
X27340D01*
Y16263D01*
X27352D01*
Y16251D01*
X27364D01*
Y16226D01*
X27376D01*
Y16202D01*
X27389D01*
Y16190D01*
X27401D01*
Y16165D01*
X27413D01*
Y16153D01*
X27425D01*
Y16128D01*
X27438D01*
Y16116D01*
X27450D01*
Y16091D01*
X27462D01*
Y16079D01*
X27475D01*
Y16055D01*
X27487D01*
Y16042D01*
X27499D01*
Y16018D01*
X27511D01*
Y16005D01*
X27524D01*
Y15981D01*
X27536D01*
Y15956D01*
X27548D01*
Y15944D01*
X27560D01*
Y15920D01*
X27573D01*
Y15907D01*
X27585D01*
Y15883D01*
X27597D01*
Y15870D01*
X27610D01*
Y15846D01*
X27622D01*
Y15834D01*
X27634D01*
Y15809D01*
X27646D01*
Y15797D01*
X27659D01*
Y15772D01*
X27671D01*
Y15760D01*
X27683D01*
Y15735D01*
X27695D01*
Y15723D01*
X27708D01*
Y15699D01*
X27720D01*
Y15686D01*
X27732D01*
Y15662D01*
X27745D01*
Y15650D01*
X27757D01*
Y15625D01*
X27769D01*
Y15613D01*
X27781D01*
Y15588D01*
X27794D01*
Y15576D01*
X27806D01*
Y15551D01*
X27818D01*
Y15539D01*
X27830D01*
Y15515D01*
X27843D01*
Y15502D01*
X27855D01*
Y15478D01*
X27867D01*
Y15453D01*
X27880D01*
Y15429D01*
X27892D01*
Y15404D01*
X27904D01*
Y15355D01*
X27916D01*
Y15257D01*
X27929D01*
Y15073D01*
X27941D01*
Y14876D01*
X27953D01*
Y14680D01*
X27965D01*
Y14496D01*
X27953D01*
Y14459D01*
X27941D01*
Y14435D01*
X27929D01*
Y14410D01*
X27916D01*
Y14385D01*
X27904D01*
Y14373D01*
X27892D01*
Y14349D01*
X27880D01*
Y14336D01*
X27867D01*
Y14312D01*
X27855D01*
Y14300D01*
X27843D01*
Y14287D01*
X27830D01*
Y14263D01*
X27818D01*
Y14250D01*
X27806D01*
Y14238D01*
X27794D01*
Y14214D01*
X27781D01*
Y14201D01*
X27769D01*
Y14189D01*
X27757D01*
Y14177D01*
X27745D01*
Y14165D01*
X27732D01*
Y14152D01*
X27720D01*
Y14140D01*
X27708D01*
Y14128D01*
X27695D01*
Y14115D01*
X27683D01*
Y14103D01*
X27671D01*
Y14091D01*
X27659D01*
Y14079D01*
X27634D01*
Y14066D01*
X27622D01*
Y14054D01*
X27610D01*
Y14042D01*
X27585D01*
Y14030D01*
X27573D01*
Y14017D01*
X27560D01*
Y14005D01*
X27536D01*
Y13993D01*
X27511D01*
Y13980D01*
X27499D01*
Y13968D01*
X27475D01*
Y13956D01*
X27450D01*
Y13944D01*
X27425D01*
Y13931D01*
X27401D01*
Y13919D01*
X27376D01*
Y13907D01*
X27340D01*
Y13895D01*
X27303D01*
Y13882D01*
X27266D01*
Y13870D01*
X27229D01*
Y13858D01*
X27180D01*
Y13845D01*
X27106D01*
Y13833D01*
X27020D01*
Y13821D01*
X26922D01*
Y13809D01*
X26824D01*
Y13796D01*
X26750D01*
Y13784D01*
X26677D01*
Y13772D01*
X26591D01*
Y13760D01*
X26505D01*
Y13747D01*
X26431D01*
Y13735D01*
X26345D01*
Y13723D01*
X26333D01*
Y13735D01*
X26321D01*
Y13760D01*
X25879D01*
Y13772D01*
X25830D01*
Y13784D01*
X25793D01*
Y13796D01*
X25781D01*
Y13809D01*
X25756D01*
Y13821D01*
X25732D01*
Y13833D01*
X25720D01*
Y13845D01*
X25695D01*
Y13858D01*
X25670D01*
Y13870D01*
X25646D01*
Y13882D01*
X25634D01*
Y13895D01*
X25609D01*
Y13907D01*
X25597D01*
Y13919D01*
X25572D01*
Y13931D01*
X25548D01*
Y13944D01*
X25535D01*
Y13956D01*
X25511D01*
Y13968D01*
X25486D01*
Y13980D01*
X25474D01*
Y13993D01*
X25450D01*
Y14005D01*
X25425D01*
Y14017D01*
X25413D01*
Y14030D01*
X25388D01*
Y14042D01*
X25376D01*
Y14054D01*
X25351D01*
Y14066D01*
X25339D01*
Y14079D01*
X25315D01*
Y14091D01*
X25302D01*
Y14103D01*
X25278D01*
Y14115D01*
X25265D01*
Y14128D01*
X25241D01*
Y14140D01*
X25229D01*
Y14152D01*
X25216D01*
Y14165D01*
X25204D01*
Y14177D01*
X25192D01*
Y14201D01*
X25180D01*
Y14214D01*
X25167D01*
Y14238D01*
X25155D01*
Y14263D01*
X25143D01*
Y14324D01*
X25130D01*
Y14373D01*
X25118D01*
Y14435D01*
X25106D01*
Y14496D01*
X25094D01*
Y14545D01*
X25081D01*
Y14606D01*
X25069D01*
Y14668D01*
X25057D01*
Y14729D01*
X25045D01*
Y14778D01*
X25032D01*
Y14840D01*
X25020D01*
Y14901D01*
X25008D01*
Y14962D01*
X24995D01*
Y15024D01*
X24983D01*
Y15085D01*
X24971D01*
Y15159D01*
X24959D01*
Y15220D01*
X24946D01*
Y15281D01*
X24934D01*
Y15343D01*
X24922D01*
Y15416D01*
X24910D01*
Y15490D01*
X24922D01*
Y15539D01*
X24934D01*
Y15564D01*
X24946D01*
Y15588D01*
X24959D01*
Y15600D01*
X24971D01*
Y15613D01*
X24983D01*
Y15625D01*
X24995D01*
Y15637D01*
X25008D01*
Y15662D01*
X25020D01*
Y15674D01*
X25032D01*
Y15686D01*
X25045D01*
Y15699D01*
X25057D01*
Y15711D01*
X25069D01*
Y15723D01*
X25081D01*
Y15735D01*
X25094D01*
Y15748D01*
X25106D01*
Y15760D01*
X25118D01*
Y15772D01*
X25130D01*
Y15785D01*
X25143D01*
Y15809D01*
X25155D01*
Y15821D01*
X25167D01*
Y15834D01*
X25180D01*
Y15846D01*
X25192D01*
Y15858D01*
X25204D01*
Y15870D01*
X25216D01*
Y15883D01*
X25229D01*
Y15895D01*
X25241D01*
Y15907D01*
X25253D01*
Y15920D01*
X25265D01*
Y15932D01*
X25278D01*
Y15944D01*
X25290D01*
Y15969D01*
X25302D01*
Y15981D01*
X25315D01*
Y15993D01*
X25327D01*
Y16005D01*
X25339D01*
Y16018D01*
X25351D01*
Y16030D01*
X25364D01*
Y16042D01*
X25376D01*
Y16055D01*
X25388D01*
Y16067D01*
X25400D01*
Y16079D01*
X25413D01*
Y16091D01*
X25425D01*
Y16104D01*
X25437D01*
Y16128D01*
X25450D01*
Y16140D01*
X25462D01*
Y16153D01*
X25474D01*
Y16165D01*
X25486D01*
Y16177D01*
X25499D01*
Y16190D01*
X25511D01*
Y16202D01*
X25523D01*
Y16214D01*
X25535D01*
Y16226D01*
X25548D01*
Y16239D01*
X25560D01*
Y16251D01*
X25572D01*
Y16263D01*
X25585D01*
Y16275D01*
X25597D01*
Y16288D01*
X25609D01*
Y16312D01*
X25621D01*
Y16325D01*
X25634D01*
Y16337D01*
X25646D01*
Y16349D01*
X25658D01*
Y16361D01*
X25670D01*
Y16374D01*
X25683D01*
Y16386D01*
X25695D01*
Y16398D01*
X25707D01*
Y16410D01*
X25720D01*
Y16423D01*
X25732D01*
Y16435D01*
X25744D01*
Y16447D01*
X25756D01*
Y16460D01*
X25769D01*
Y16472D01*
X25781D01*
Y16484D01*
X25793D01*
Y16509D01*
X25805D01*
Y16521D01*
X25818D01*
Y16533D01*
X25830D01*
Y16545D01*
X25842D01*
Y16558D01*
X25867D01*
Y16570D01*
X25891D01*
Y16582D01*
X26014D01*
Y16570D01*
D02*
G37*
G36*
X28334Y14152D02*
X28346D01*
Y14128D01*
X28334D01*
Y14079D01*
X28321D01*
Y14030D01*
X28309D01*
Y13980D01*
X28297D01*
Y13931D01*
X28285D01*
Y13895D01*
X28297D01*
Y13882D01*
X28334D01*
Y13870D01*
X28370D01*
Y13858D01*
X28420D01*
Y13845D01*
X28456D01*
Y13833D01*
X28505D01*
Y13821D01*
X28518D01*
Y13796D01*
X28505D01*
Y13784D01*
X28493D01*
Y13760D01*
X28481D01*
Y13747D01*
X28469D01*
Y13723D01*
X28456D01*
Y13710D01*
X28444D01*
Y13698D01*
X28432D01*
Y13674D01*
X28420D01*
Y13661D01*
X28407D01*
Y13649D01*
X28395D01*
Y13637D01*
X28383D01*
Y13625D01*
X28370D01*
Y13612D01*
X28358D01*
Y13600D01*
X28346D01*
Y13588D01*
X28334D01*
Y13575D01*
X28309D01*
Y13563D01*
X28297D01*
Y13551D01*
X28260D01*
Y13539D01*
X28186D01*
Y13551D01*
X28162D01*
Y13563D01*
X28150D01*
Y13575D01*
X28137D01*
Y13588D01*
X28125D01*
Y13600D01*
X28113D01*
Y13625D01*
X28100D01*
Y13637D01*
X28088D01*
Y13661D01*
X28076D01*
Y13674D01*
X28064D01*
Y13698D01*
X28051D01*
Y13723D01*
X28039D01*
Y13760D01*
X28027D01*
Y13821D01*
X28039D01*
Y13858D01*
X28051D01*
Y13882D01*
X28064D01*
Y13895D01*
X28076D01*
Y13907D01*
X28088D01*
Y13919D01*
X28100D01*
Y13931D01*
X28113D01*
Y13944D01*
X28125D01*
Y13956D01*
X28137D01*
Y13968D01*
X28150D01*
Y13980D01*
X28162D01*
Y13993D01*
X28174D01*
Y14005D01*
X28186D01*
Y14017D01*
X28199D01*
Y14030D01*
X28211D01*
Y14054D01*
X28223D01*
Y14066D01*
X28235D01*
Y14079D01*
X28248D01*
Y14091D01*
X28260D01*
Y14103D01*
X28272D01*
Y14115D01*
X28285D01*
Y14128D01*
X28297D01*
Y14152D01*
X28309D01*
Y14165D01*
X28334D01*
Y14152D01*
D02*
G37*
G36*
X27794Y13710D02*
X27818D01*
Y13686D01*
X27806D01*
Y13649D01*
X27794D01*
Y13612D01*
X27781D01*
Y13575D01*
X27769D01*
Y13539D01*
X27757D01*
Y13502D01*
X27745D01*
Y13465D01*
X27732D01*
Y13416D01*
X27720D01*
Y13391D01*
X27708D01*
Y13342D01*
X27695D01*
Y13305D01*
X27683D01*
Y13269D01*
X27671D01*
Y13232D01*
X27659D01*
Y13207D01*
X27646D01*
Y13158D01*
X27634D01*
Y13121D01*
X27622D01*
Y13085D01*
X27610D01*
Y13048D01*
X27597D01*
Y13011D01*
X27585D01*
Y12974D01*
X27573D01*
Y12937D01*
X27560D01*
Y12900D01*
X27548D01*
Y12864D01*
X27536D01*
Y12827D01*
X27524D01*
Y12790D01*
X27511D01*
Y12753D01*
X27499D01*
Y12741D01*
X27450D01*
Y12753D01*
X27413D01*
Y12765D01*
X27352D01*
Y12778D01*
X27315D01*
Y12790D01*
X27266D01*
Y12802D01*
X27217D01*
Y12815D01*
X27180D01*
Y12827D01*
X27143D01*
Y12839D01*
X27106D01*
Y12851D01*
X27082D01*
Y12864D01*
X27045D01*
Y12876D01*
X27008D01*
Y12888D01*
X26984D01*
Y12900D01*
X26947D01*
Y12913D01*
X26922D01*
Y12925D01*
X26885D01*
Y12937D01*
X26861D01*
Y12950D01*
X26824D01*
Y12962D01*
X26800D01*
Y12974D01*
X26775D01*
Y12986D01*
X26738D01*
Y12999D01*
X26714D01*
Y13011D01*
X26677D01*
Y13023D01*
X26652D01*
Y13035D01*
X26615D01*
Y13048D01*
X26591D01*
Y13060D01*
X26566D01*
Y13072D01*
X26530D01*
Y13085D01*
X26480D01*
Y13097D01*
X26358D01*
Y13085D01*
X26321D01*
Y13072D01*
X26296D01*
Y13060D01*
X26272D01*
Y13048D01*
X26247D01*
Y13035D01*
X26235D01*
Y13023D01*
X26223D01*
Y13011D01*
X26198D01*
Y12999D01*
X26174D01*
Y12986D01*
X26125D01*
Y12974D01*
X26112D01*
Y12999D01*
X26125D01*
Y13011D01*
X26137D01*
Y13023D01*
X26149D01*
Y13048D01*
X26161D01*
Y13060D01*
X26174D01*
Y13085D01*
X26186D01*
Y13097D01*
X26198D01*
Y13121D01*
X26210D01*
Y13134D01*
X26223D01*
Y13158D01*
X26235D01*
Y13170D01*
X26247D01*
Y13195D01*
X26260D01*
Y13207D01*
X26272D01*
Y13232D01*
X26284D01*
Y13244D01*
X26296D01*
Y13269D01*
X26309D01*
Y13281D01*
X26321D01*
Y13305D01*
X26333D01*
Y13318D01*
X26345D01*
Y13342D01*
X26358D01*
Y13355D01*
X26370D01*
Y13367D01*
X26382D01*
Y13391D01*
X26395D01*
Y13404D01*
X26407D01*
Y13428D01*
X26419D01*
Y13440D01*
X26431D01*
Y13453D01*
X26468D01*
Y13465D01*
X26530D01*
Y13453D01*
X26640D01*
Y13440D01*
X26763D01*
Y13428D01*
X26849D01*
Y13416D01*
X26947D01*
Y13404D01*
X27131D01*
Y13416D01*
X27192D01*
Y13428D01*
X27229D01*
Y13440D01*
X27266D01*
Y13453D01*
X27290D01*
Y13465D01*
X27315D01*
Y13477D01*
X27340D01*
Y13490D01*
X27352D01*
Y13502D01*
X27376D01*
Y13514D01*
X27389D01*
Y13526D01*
X27413D01*
Y13539D01*
X27425D01*
Y13551D01*
X27438D01*
Y13563D01*
X27450D01*
Y13575D01*
X27462D01*
Y13588D01*
X27475D01*
Y13600D01*
X27487D01*
Y13612D01*
X27499D01*
Y13625D01*
X27511D01*
Y13637D01*
X27524D01*
Y13649D01*
X27536D01*
Y13661D01*
X27548D01*
Y13674D01*
X27573D01*
Y13686D01*
X27585D01*
Y13698D01*
X27610D01*
Y13710D01*
X27646D01*
Y13723D01*
X27794D01*
Y13710D01*
D02*
G37*
G36*
X25744Y13588D02*
X25781D01*
Y13575D01*
X25805D01*
Y13563D01*
X25830D01*
Y13551D01*
X25867D01*
Y13539D01*
X25891D01*
Y13526D01*
X25916D01*
Y13514D01*
X25940D01*
Y13502D01*
X25965D01*
Y13490D01*
X25977D01*
Y13477D01*
X25990D01*
Y13453D01*
X26002D01*
Y13355D01*
X25990D01*
Y13318D01*
X25977D01*
Y13293D01*
X25965D01*
Y13269D01*
X25953D01*
Y13244D01*
X25940D01*
Y13220D01*
X25928D01*
Y13207D01*
X25916D01*
Y13195D01*
X25904D01*
Y13170D01*
X25891D01*
Y13158D01*
X25879D01*
Y13146D01*
X25867D01*
Y13134D01*
X25855D01*
Y13121D01*
X25830D01*
Y13109D01*
X25818D01*
Y13097D01*
X25805D01*
Y13085D01*
X25781D01*
Y13072D01*
X25756D01*
Y13060D01*
X25732D01*
Y13048D01*
X25707D01*
Y13035D01*
X25670D01*
Y13023D01*
X25634D01*
Y13011D01*
X25585D01*
Y12999D01*
X25511D01*
Y12986D01*
X25413D01*
Y12974D01*
X25364D01*
Y12986D01*
X25327D01*
Y12999D01*
X25290D01*
Y13011D01*
X25265D01*
Y13023D01*
X25241D01*
Y13035D01*
X25216D01*
Y13048D01*
X25204D01*
Y13060D01*
X25192D01*
Y13072D01*
X25180D01*
Y13109D01*
X25167D01*
Y13146D01*
X25180D01*
Y13183D01*
X25192D01*
Y13195D01*
X25204D01*
Y13220D01*
X25216D01*
Y13232D01*
X25229D01*
Y13244D01*
X25241D01*
Y13256D01*
X25253D01*
Y13269D01*
X25265D01*
Y13281D01*
X25278D01*
Y13293D01*
X25290D01*
Y13318D01*
X25302D01*
Y13330D01*
X25315D01*
Y13342D01*
X25327D01*
Y13355D01*
X25339D01*
Y13367D01*
X25364D01*
Y13379D01*
X25376D01*
Y13391D01*
X25388D01*
Y13404D01*
X25400D01*
Y13416D01*
X25413D01*
Y13428D01*
X25425D01*
Y13440D01*
X25437D01*
Y13453D01*
X25462D01*
Y13465D01*
X25474D01*
Y13477D01*
X25486D01*
Y13490D01*
X25499D01*
Y13502D01*
X25511D01*
Y13514D01*
X25523D01*
Y13526D01*
X25548D01*
Y13539D01*
X25560D01*
Y13551D01*
X25572D01*
Y13563D01*
X25597D01*
Y13575D01*
X25621D01*
Y13588D01*
X25646D01*
Y13600D01*
X25744D01*
Y13588D01*
D02*
G37*
G36*
X28518Y12311D02*
X28530D01*
Y12287D01*
Y12275D01*
Y11992D01*
X28456D01*
Y12311D01*
X28469D01*
Y12324D01*
X28481D01*
Y12311D01*
X28505D01*
Y12324D01*
X28518D01*
Y12311D01*
D02*
G37*
G36*
X28358Y12262D02*
X28211D01*
Y11992D01*
X28137D01*
Y12250D01*
X28125D01*
Y12262D01*
X27978D01*
Y12311D01*
X27990D01*
Y12324D01*
X28002D01*
Y12311D01*
X28334D01*
Y12324D01*
X28358D01*
Y12262D01*
D02*
G37*
G36*
X25585Y12311D02*
X25597D01*
Y12262D01*
X25450D01*
Y12250D01*
X25437D01*
Y11992D01*
X25364D01*
Y12262D01*
X25216D01*
Y12324D01*
X25229D01*
Y12311D01*
X25572D01*
Y12324D01*
X25585D01*
Y12311D01*
D02*
G37*
G36*
X25118Y12238D02*
Y12225D01*
Y11992D01*
X25045D01*
Y12311D01*
X25057D01*
Y12324D01*
X25069D01*
Y12311D01*
X25094D01*
Y12324D01*
X25118D01*
Y12238D01*
D02*
G37*
G36*
X29524Y12299D02*
X29536D01*
Y12275D01*
X29549D01*
Y12238D01*
X29524D01*
Y12225D01*
X29475D01*
Y12262D01*
X29266D01*
Y12189D01*
X29512D01*
Y12176D01*
X29536D01*
Y12152D01*
X29549D01*
Y12017D01*
X29536D01*
Y12005D01*
X29524D01*
Y11992D01*
X29205D01*
Y12005D01*
X29193D01*
Y12029D01*
X29180D01*
Y12078D01*
X29230D01*
Y12090D01*
X29254D01*
Y12054D01*
X29487D01*
Y12066D01*
X29475D01*
Y12078D01*
X29487D01*
Y12115D01*
X29475D01*
Y12127D01*
X29230D01*
Y12140D01*
X29205D01*
Y12176D01*
X29193D01*
Y12275D01*
X29205D01*
Y12299D01*
X29217D01*
Y12311D01*
X29524D01*
Y12299D01*
D02*
G37*
G36*
X29021D02*
X29033D01*
Y12287D01*
X29045D01*
Y12201D01*
X28972D01*
Y12262D01*
X28775D01*
Y12250D01*
X28763D01*
Y12054D01*
X28972D01*
Y12115D01*
X29033D01*
Y12103D01*
X29045D01*
Y12017D01*
X29033D01*
Y12005D01*
X29021D01*
Y11992D01*
X28714D01*
Y12005D01*
X28702D01*
Y12017D01*
X28690D01*
Y12287D01*
X28702D01*
Y12299D01*
X28714D01*
Y12311D01*
X29021D01*
Y12299D01*
D02*
G37*
G36*
X27880Y12287D02*
X27892D01*
Y12225D01*
Y12213D01*
Y12017D01*
X27880D01*
Y12005D01*
X27867D01*
Y11992D01*
X27524D01*
Y12005D01*
X27499D01*
Y12041D01*
X27487D01*
Y12262D01*
X27499D01*
Y12299D01*
X27511D01*
Y12311D01*
X27880D01*
Y12287D01*
D02*
G37*
G36*
X27020Y12311D02*
X27327D01*
Y12299D01*
X27340D01*
Y12287D01*
X27352D01*
Y12189D01*
X27340D01*
Y12176D01*
X27327D01*
Y12164D01*
X27315D01*
Y12152D01*
X27327D01*
Y12140D01*
X27340D01*
Y12127D01*
X27352D01*
Y12017D01*
X27340D01*
Y12005D01*
X27315D01*
Y11992D01*
X26996D01*
Y12311D01*
X27008D01*
Y12324D01*
X27020D01*
Y12311D01*
D02*
G37*
G36*
X26812Y12299D02*
X26824D01*
Y12287D01*
X26836D01*
Y12029D01*
X26824D01*
Y12005D01*
X26812D01*
Y11992D01*
X26456D01*
Y12005D01*
X26444D01*
Y12017D01*
X26431D01*
Y12287D01*
X26444D01*
Y12299D01*
X26456D01*
Y12311D01*
X26812D01*
Y12299D01*
D02*
G37*
G36*
X25953Y12311D02*
X26260D01*
Y12299D01*
X26272D01*
Y12287D01*
X26284D01*
Y12140D01*
X26272D01*
Y12127D01*
X26260D01*
Y12115D01*
X26174D01*
Y12103D01*
X26186D01*
Y12090D01*
X26198D01*
Y12078D01*
X26223D01*
Y12066D01*
X26235D01*
Y12054D01*
X26247D01*
Y12041D01*
X26260D01*
Y12029D01*
X26284D01*
Y12017D01*
X26296D01*
Y12005D01*
X26309D01*
Y11992D01*
X26198D01*
Y12005D01*
X26186D01*
Y12017D01*
X26174D01*
Y12029D01*
X26161D01*
Y12041D01*
X26149D01*
Y12054D01*
X26137D01*
Y12066D01*
X26125D01*
Y12078D01*
X26112D01*
Y12090D01*
X26088D01*
Y12103D01*
X26075D01*
Y12115D01*
X26002D01*
Y12041D01*
Y12029D01*
Y11992D01*
X25928D01*
Y12311D01*
X25940D01*
Y12324D01*
X25953D01*
Y12311D01*
D02*
G37*
G36*
X24529D02*
X24799D01*
Y12299D01*
X24824D01*
Y12287D01*
X24848D01*
Y12275D01*
X24860D01*
Y12262D01*
X24873D01*
Y12250D01*
X24885D01*
Y12225D01*
X24897D01*
Y12189D01*
X24910D01*
Y12127D01*
X24897D01*
Y12078D01*
X24885D01*
Y12054D01*
X24873D01*
Y12041D01*
X24860D01*
Y12029D01*
X24848D01*
Y12017D01*
X24824D01*
Y12005D01*
X24799D01*
Y11992D01*
X24505D01*
Y12176D01*
Y12189D01*
Y12311D01*
X24517D01*
Y12324D01*
X24529D01*
Y12311D01*
D02*
G37*
%LPC*%
G36*
X25990Y16460D02*
X25953D01*
Y16447D01*
X25916D01*
Y16435D01*
X25904D01*
Y16423D01*
X25891D01*
Y16410D01*
X25879D01*
Y16398D01*
X25867D01*
Y16386D01*
X25855D01*
Y16374D01*
X25842D01*
Y16361D01*
X25830D01*
Y16349D01*
X25818D01*
Y16337D01*
X25805D01*
Y16325D01*
X25793D01*
Y16312D01*
X25781D01*
Y16300D01*
X25769D01*
Y16288D01*
X25756D01*
Y16263D01*
X25744D01*
Y16251D01*
X25732D01*
Y16239D01*
X25720D01*
Y16226D01*
X25707D01*
Y16214D01*
X25695D01*
Y16202D01*
X25683D01*
Y16190D01*
X25670D01*
Y16177D01*
X25658D01*
Y16165D01*
X25646D01*
Y16153D01*
X25634D01*
Y16140D01*
X25621D01*
Y16128D01*
X25609D01*
Y16104D01*
X25597D01*
Y16091D01*
X25585D01*
Y16079D01*
X25572D01*
Y16067D01*
X25560D01*
Y16055D01*
X25548D01*
Y16042D01*
X25535D01*
Y16030D01*
X25523D01*
Y16018D01*
X25511D01*
Y16005D01*
X25499D01*
Y15993D01*
X25486D01*
Y15981D01*
X25474D01*
Y15969D01*
X25462D01*
Y15944D01*
X25450D01*
Y15932D01*
X25437D01*
Y15920D01*
X25425D01*
Y15907D01*
X25413D01*
Y15895D01*
X25400D01*
Y15883D01*
X25388D01*
Y15870D01*
X25376D01*
Y15858D01*
X25364D01*
Y15846D01*
X25351D01*
Y15834D01*
X25339D01*
Y15821D01*
X25327D01*
Y15797D01*
X25315D01*
Y15785D01*
X25302D01*
Y15772D01*
X25290D01*
Y15760D01*
X25278D01*
Y15748D01*
X25265D01*
Y15735D01*
X25253D01*
Y15723D01*
X25241D01*
Y15711D01*
X25229D01*
Y15699D01*
X25216D01*
Y15686D01*
X25204D01*
Y15674D01*
X25192D01*
Y15662D01*
X25180D01*
Y15650D01*
X25167D01*
Y15637D01*
X25155D01*
Y15625D01*
X25143D01*
Y15613D01*
X25130D01*
Y15588D01*
X25118D01*
Y15576D01*
X25106D01*
Y15551D01*
X25094D01*
Y15490D01*
X25081D01*
Y15478D01*
X25094D01*
Y15404D01*
X25106D01*
Y15343D01*
X25118D01*
Y15281D01*
X25130D01*
Y15220D01*
X25143D01*
Y15171D01*
X25155D01*
Y15097D01*
X25167D01*
Y15036D01*
X25180D01*
Y14975D01*
X25192D01*
Y14913D01*
X25204D01*
Y14852D01*
X25216D01*
Y14790D01*
X25229D01*
Y14741D01*
X25241D01*
Y14668D01*
X25253D01*
Y14606D01*
X25265D01*
Y14557D01*
X25278D01*
Y14496D01*
X25290D01*
Y14422D01*
X25302D01*
Y14373D01*
X25315D01*
Y14312D01*
X25327D01*
Y14263D01*
X25339D01*
Y14250D01*
X25351D01*
Y14226D01*
X25364D01*
Y14214D01*
X25376D01*
Y14201D01*
X25400D01*
Y14189D01*
X25425D01*
Y14177D01*
X25437D01*
Y14165D01*
X25462D01*
Y14152D01*
X25474D01*
Y14140D01*
X25499D01*
Y14128D01*
X25511D01*
Y14115D01*
X25535D01*
Y14103D01*
X25560D01*
Y14091D01*
X25572D01*
Y14079D01*
X25597D01*
Y14066D01*
X25609D01*
Y14054D01*
X25634D01*
Y14042D01*
X25658D01*
Y14030D01*
X25670D01*
Y14017D01*
X25695D01*
Y14005D01*
X25720D01*
Y13993D01*
X25732D01*
Y13980D01*
X25756D01*
Y13968D01*
X25769D01*
Y13956D01*
X25793D01*
Y13944D01*
X25818D01*
Y13931D01*
X25830D01*
Y13919D01*
X25855D01*
Y13907D01*
X25879D01*
Y13895D01*
X25891D01*
Y13882D01*
X25916D01*
Y13870D01*
X25940D01*
Y13858D01*
X26002D01*
Y13845D01*
X26677D01*
Y13858D01*
X26812D01*
Y13870D01*
X26910D01*
Y13882D01*
X26984D01*
Y13895D01*
X27045D01*
Y13907D01*
X27106D01*
Y13919D01*
X27155D01*
Y13931D01*
X27205D01*
Y13944D01*
X27241D01*
Y13956D01*
X27278D01*
Y13968D01*
X27315D01*
Y13980D01*
X27352D01*
Y13993D01*
X27389D01*
Y14005D01*
X27413D01*
Y14017D01*
X27438D01*
Y14030D01*
X27462D01*
Y14042D01*
X27487D01*
Y14054D01*
X27511D01*
Y14066D01*
X27524D01*
Y14079D01*
X27536D01*
Y14091D01*
X27560D01*
Y14103D01*
X27573D01*
Y14115D01*
X27585D01*
Y14128D01*
X27597D01*
Y14140D01*
X27610D01*
Y14152D01*
X27622D01*
Y14165D01*
X27634D01*
Y14177D01*
X27646D01*
Y14189D01*
X27659D01*
Y14201D01*
X27671D01*
Y14214D01*
X27683D01*
Y14226D01*
X27695D01*
Y14238D01*
X27708D01*
Y14263D01*
X27720D01*
Y14275D01*
X27732D01*
Y14287D01*
X27745D01*
Y14300D01*
X27757D01*
Y14324D01*
X27769D01*
Y14336D01*
X27781D01*
Y14349D01*
X27794D01*
Y14373D01*
X27806D01*
Y14398D01*
X27818D01*
Y14410D01*
X27830D01*
Y14435D01*
X27843D01*
Y14459D01*
X27855D01*
Y14496D01*
X27867D01*
Y14533D01*
X27880D01*
Y14582D01*
X27892D01*
Y14803D01*
X27880D01*
Y14852D01*
X27867D01*
Y14889D01*
X27855D01*
Y15036D01*
X27843D01*
Y15208D01*
X27830D01*
Y15281D01*
X27818D01*
Y15330D01*
X27806D01*
Y15380D01*
X27794D01*
Y15404D01*
X27781D01*
Y15441D01*
X27769D01*
Y15453D01*
X27757D01*
Y15478D01*
X27745D01*
Y15502D01*
X27732D01*
Y15515D01*
X27720D01*
Y15539D01*
X27708D01*
Y15551D01*
X27695D01*
Y15576D01*
X27683D01*
Y15600D01*
X27671D01*
Y15613D01*
X27659D01*
Y15637D01*
X27646D01*
Y15650D01*
X27634D01*
Y15674D01*
X27622D01*
Y15686D01*
X27610D01*
Y15711D01*
X27597D01*
Y15723D01*
X27585D01*
Y15748D01*
X27573D01*
Y15772D01*
X27560D01*
Y15785D01*
X27548D01*
Y15809D01*
X27536D01*
Y15821D01*
X27524D01*
Y15846D01*
X27511D01*
Y15858D01*
X27499D01*
Y15883D01*
X27487D01*
Y15895D01*
X27475D01*
Y15920D01*
X27462D01*
Y15932D01*
X27450D01*
Y15956D01*
X27438D01*
Y15969D01*
X27425D01*
Y15993D01*
X27413D01*
Y16005D01*
X27401D01*
Y16030D01*
X27389D01*
Y16042D01*
X27376D01*
Y16055D01*
X27364D01*
Y16079D01*
X27352D01*
Y16091D01*
X27340D01*
Y16116D01*
X27327D01*
Y16128D01*
X27315D01*
Y16153D01*
X27303D01*
Y16165D01*
X27290D01*
Y16177D01*
X27278D01*
Y16202D01*
X27266D01*
Y16214D01*
X27254D01*
Y16226D01*
X27229D01*
Y16239D01*
X27217D01*
Y16251D01*
X27192D01*
Y16263D01*
X27168D01*
Y16275D01*
X27131D01*
Y16288D01*
X27057D01*
Y16300D01*
X26984D01*
Y16312D01*
X26910D01*
Y16325D01*
X26824D01*
Y16337D01*
X26750D01*
Y16349D01*
X26665D01*
Y16361D01*
X26591D01*
Y16374D01*
X26505D01*
Y16386D01*
X26407D01*
Y16398D01*
X26333D01*
Y16410D01*
X26247D01*
Y16423D01*
X26161D01*
Y16435D01*
X26063D01*
Y16447D01*
X25990D01*
Y16460D01*
D02*
G37*
%LPD*%
G36*
X26272Y15723D02*
X26309D01*
Y15711D01*
X26358D01*
Y15699D01*
X26395D01*
Y15686D01*
X26431D01*
Y15674D01*
X26480D01*
Y15662D01*
X26517D01*
Y15650D01*
X26554D01*
Y15637D01*
X26591D01*
Y15625D01*
X26640D01*
Y15613D01*
X26677D01*
Y15600D01*
X26714D01*
Y15588D01*
X26750D01*
Y15576D01*
X26787D01*
Y15564D01*
X26812D01*
Y15539D01*
X26824D01*
Y15465D01*
X26812D01*
Y15429D01*
X26800D01*
Y15404D01*
X26787D01*
Y15367D01*
X26775D01*
Y15330D01*
X26763D01*
Y15306D01*
X26750D01*
Y15269D01*
X26738D01*
Y15232D01*
X26726D01*
Y15208D01*
X26714D01*
Y15171D01*
X26701D01*
Y15134D01*
X26689D01*
Y15110D01*
X26677D01*
Y15073D01*
X26665D01*
Y15036D01*
X26652D01*
Y15011D01*
X26640D01*
Y14975D01*
X26628D01*
Y14950D01*
X26615D01*
Y14938D01*
X26603D01*
Y14925D01*
X26542D01*
Y14938D01*
X26530D01*
Y14950D01*
X26505D01*
Y14962D01*
X26493D01*
Y14975D01*
X26468D01*
Y14987D01*
X26456D01*
Y14999D01*
X26431D01*
Y15011D01*
X26419D01*
Y15024D01*
X26395D01*
Y15036D01*
X26370D01*
Y15048D01*
X26358D01*
Y15060D01*
X26333D01*
Y15073D01*
X26321D01*
Y15085D01*
X26296D01*
Y15097D01*
X26284D01*
Y15110D01*
X26260D01*
Y15122D01*
X26235D01*
Y15134D01*
X26223D01*
Y15146D01*
X26198D01*
Y15159D01*
X26186D01*
Y15171D01*
X26161D01*
Y15183D01*
X26149D01*
Y15195D01*
X26125D01*
Y15208D01*
X26112D01*
Y15220D01*
X26088D01*
Y15232D01*
X26063D01*
Y15245D01*
X26051D01*
Y15257D01*
X26026D01*
Y15269D01*
X26014D01*
Y15281D01*
X25990D01*
Y15294D01*
X25977D01*
Y15306D01*
X25953D01*
Y15318D01*
X25940D01*
Y15343D01*
X25928D01*
Y15380D01*
X25916D01*
Y15392D01*
X25928D01*
Y15404D01*
X25940D01*
Y15416D01*
X25953D01*
Y15429D01*
X25965D01*
Y15441D01*
X25977D01*
Y15465D01*
X25990D01*
Y15478D01*
X26002D01*
Y15490D01*
X26014D01*
Y15502D01*
X26026D01*
Y15515D01*
X26039D01*
Y15527D01*
X26051D01*
Y15539D01*
X26063D01*
Y15551D01*
X26075D01*
Y15564D01*
X26088D01*
Y15576D01*
X26100D01*
Y15588D01*
X26112D01*
Y15613D01*
X26125D01*
Y15625D01*
X26137D01*
Y15637D01*
X26149D01*
Y15650D01*
X26161D01*
Y15662D01*
X26174D01*
Y15674D01*
X26186D01*
Y15686D01*
X26198D01*
Y15699D01*
X26210D01*
Y15711D01*
X26223D01*
Y15723D01*
X26260D01*
Y15735D01*
X26272D01*
Y15723D01*
D02*
G37*
G36*
X27180Y15060D02*
X27290D01*
Y15048D01*
X27413D01*
Y15036D01*
X27499D01*
Y15024D01*
X27511D01*
Y15011D01*
X27499D01*
Y14999D01*
X27438D01*
Y14987D01*
X27364D01*
Y14975D01*
X27376D01*
Y14962D01*
X27413D01*
Y14950D01*
X27450D01*
Y14938D01*
X27425D01*
Y14925D01*
X27401D01*
Y14913D01*
X27364D01*
Y14901D01*
X27340D01*
Y14582D01*
X27364D01*
Y14570D01*
X27376D01*
Y14557D01*
X27389D01*
Y14545D01*
X27401D01*
Y14533D01*
X27425D01*
Y14520D01*
X27438D01*
Y14508D01*
X27450D01*
Y14484D01*
X27389D01*
Y14471D01*
X27340D01*
Y14459D01*
X27290D01*
Y14447D01*
X27241D01*
Y14435D01*
X27180D01*
Y14422D01*
X27143D01*
Y14435D01*
X27155D01*
Y14447D01*
X27168D01*
Y14459D01*
X27180D01*
Y14471D01*
X27192D01*
Y14484D01*
X27205D01*
Y14496D01*
X27217D01*
Y14508D01*
X27229D01*
Y14520D01*
X27241D01*
Y14533D01*
X27254D01*
Y14557D01*
X27266D01*
Y14570D01*
X27278D01*
Y14582D01*
X27290D01*
Y14606D01*
X27303D01*
Y14655D01*
X27315D01*
Y14778D01*
X27303D01*
Y14864D01*
X27290D01*
Y14876D01*
X27266D01*
Y14889D01*
X27241D01*
Y14901D01*
X27217D01*
Y14913D01*
X27205D01*
Y14925D01*
X27180D01*
Y14938D01*
X27155D01*
Y14950D01*
X27131D01*
Y14975D01*
X27168D01*
Y14987D01*
X27217D01*
Y14999D01*
X27266D01*
Y15011D01*
X27229D01*
Y15024D01*
X27143D01*
Y15036D01*
X27131D01*
Y15073D01*
X27180D01*
Y15060D01*
D02*
G37*
%LPC*%
G36*
X26272Y15686D02*
X26247D01*
Y15637D01*
X26284D01*
Y15625D01*
X26321D01*
Y15613D01*
X26358D01*
Y15600D01*
X26407D01*
Y15588D01*
X26444D01*
Y15576D01*
X26493D01*
Y15564D01*
X26530D01*
Y15551D01*
X26566D01*
Y15539D01*
X26615D01*
Y15527D01*
X26652D01*
Y15515D01*
X26701D01*
Y15502D01*
X26738D01*
Y15490D01*
X26775D01*
Y15515D01*
X26787D01*
Y15527D01*
X26775D01*
Y15539D01*
X26726D01*
Y15551D01*
X26689D01*
Y15564D01*
X26652D01*
Y15576D01*
X26603D01*
Y15588D01*
X26566D01*
Y15600D01*
X26517D01*
Y15613D01*
X26480D01*
Y15625D01*
X26444D01*
Y15637D01*
X26395D01*
Y15650D01*
X26358D01*
Y15662D01*
X26321D01*
Y15674D01*
X26272D01*
Y15686D01*
D02*
G37*
G36*
X26247Y15600D02*
X26210D01*
Y15588D01*
X26198D01*
Y15564D01*
X26186D01*
Y15527D01*
X26174D01*
Y15502D01*
X26161D01*
Y15478D01*
X26149D01*
Y15453D01*
X26137D01*
Y15429D01*
X26125D01*
Y15404D01*
X26112D01*
Y15392D01*
X26125D01*
Y15380D01*
X26149D01*
Y15367D01*
X26161D01*
Y15355D01*
X26186D01*
Y15343D01*
X26198D01*
Y15330D01*
X26223D01*
Y15318D01*
X26235D01*
Y15306D01*
X26247D01*
Y15294D01*
X26272D01*
Y15281D01*
X26284D01*
Y15269D01*
X26309D01*
Y15257D01*
X26321D01*
Y15245D01*
X26345D01*
Y15232D01*
X26358D01*
Y15220D01*
X26382D01*
Y15208D01*
X26395D01*
Y15195D01*
X26419D01*
Y15183D01*
X26431D01*
Y15171D01*
X26456D01*
Y15159D01*
X26468D01*
Y15146D01*
X26493D01*
Y15134D01*
X26505D01*
Y15122D01*
X26530D01*
Y15110D01*
X26542D01*
Y15097D01*
X26566D01*
Y15085D01*
X26579D01*
Y15073D01*
X26603D01*
Y15060D01*
X26615D01*
Y15073D01*
X26628D01*
Y15097D01*
X26640D01*
Y15134D01*
X26652D01*
Y15159D01*
X26665D01*
Y15195D01*
X26677D01*
Y15232D01*
X26689D01*
Y15269D01*
X26701D01*
Y15294D01*
X26714D01*
Y15330D01*
X26726D01*
Y15367D01*
X26738D01*
Y15392D01*
X26750D01*
Y15429D01*
X26763D01*
Y15441D01*
X26750D01*
Y15453D01*
X26701D01*
Y15465D01*
X26665D01*
Y15478D01*
X26628D01*
Y15490D01*
X26579D01*
Y15502D01*
X26542D01*
Y15515D01*
X26493D01*
Y15527D01*
X26456D01*
Y15539D01*
X26419D01*
Y15551D01*
X26370D01*
Y15564D01*
X26333D01*
Y15576D01*
X26296D01*
Y15588D01*
X26247D01*
Y15600D01*
D02*
G37*
G36*
X27818Y12262D02*
X27573D01*
Y12054D01*
X27818D01*
Y12262D01*
D02*
G37*
G36*
X27278D02*
X27070D01*
Y12201D01*
Y12189D01*
X27278D01*
Y12262D01*
D02*
G37*
G36*
Y12127D02*
X27070D01*
Y12054D01*
X27278D01*
Y12127D01*
D02*
G37*
G36*
X26750Y12262D02*
X26517D01*
Y12250D01*
X26505D01*
Y12054D01*
X26763D01*
Y12225D01*
Y12238D01*
Y12250D01*
X26750D01*
Y12262D01*
D02*
G37*
G36*
X26198D02*
X26002D01*
Y12176D01*
X26014D01*
Y12164D01*
X26198D01*
Y12176D01*
X26210D01*
Y12201D01*
Y12213D01*
Y12250D01*
X26198D01*
Y12262D01*
D02*
G37*
G36*
X24738D02*
X24590D01*
Y12250D01*
X24578D01*
Y12054D01*
X24762D01*
Y12066D01*
X24787D01*
Y12078D01*
X24799D01*
Y12090D01*
X24811D01*
Y12103D01*
X24824D01*
Y12164D01*
Y12176D01*
Y12201D01*
X24811D01*
Y12225D01*
X24799D01*
Y12238D01*
X24787D01*
Y12250D01*
X24738D01*
Y12262D01*
D02*
G37*
%LPD*%
D10*
X4876Y17201D02*
G03*
X4876Y17161I0J-20D01*
G01*
D02*
G03*
X4876Y17201I0J20D01*
G01*
D02*
G03*
X4876Y17161I0J-20D01*
G01*
X9996Y10636D02*
G03*
X9996Y10636I-20J0D01*
G01*
X2350Y12206D02*
X4661D01*
Y4096D02*
Y12206D01*
X1118Y4096D02*
X4661D01*
X1118D02*
Y10200D01*
X4050Y28350D02*
Y29350D01*
X8050D01*
X4050Y28350D02*
X8050D01*
Y29350D01*
X24365Y10485D02*
X25035D01*
X24365Y11115D02*
X25035D01*
X16075Y16376D02*
Y23659D01*
X23359D01*
Y16376D02*
Y23659D01*
X16075Y16376D02*
X23359D01*
X25082Y6632D02*
X29708D01*
Y8750D01*
X24700D02*
X29708D01*
X9276Y507D02*
Y3765D01*
X6024Y507D02*
Y3765D01*
X9276D02*
X9717D01*
X5583D02*
X6024D01*
Y507D02*
X9276D01*
X5583Y3765D02*
Y5093D01*
X9717D01*
Y3765D02*
Y5093D01*
X6900Y10825D02*
X8900D01*
Y8475D02*
Y10825D01*
X5900Y8475D02*
X8900D01*
X5900D02*
Y9650D01*
X21100Y28350D02*
Y29350D01*
X17100Y28350D02*
X21100D01*
X17100Y29350D02*
X21100D01*
X17100Y28350D02*
Y29350D01*
X20487Y3765D02*
Y5093D01*
X16353D02*
X20487D01*
X16353Y3765D02*
Y5093D01*
X16794Y507D02*
X20046D01*
X16353Y3765D02*
X16794D01*
X20046D02*
X20487D01*
X16794Y507D02*
Y3765D01*
X20046Y507D02*
Y3765D01*
X15087D02*
Y5093D01*
X10953D02*
X15087D01*
X10953Y3765D02*
Y5093D01*
X11394Y507D02*
X14646D01*
X10953Y3765D02*
X11394D01*
X14646D02*
X15087D01*
X11394Y507D02*
Y3765D01*
X14646Y507D02*
Y3765D01*
X12450Y26525D02*
Y27700D01*
Y26525D02*
X15450D01*
Y28875D01*
X13450D02*
X15450D01*
X8900Y26525D02*
Y27700D01*
Y26525D02*
X11900D01*
Y28875D01*
X9900D02*
X11900D01*
X11100Y14050D02*
Y15050D01*
X7100Y14050D02*
X11100D01*
X7100Y15050D02*
X11100D01*
X7100Y14050D02*
Y15050D01*
X25637Y3765D02*
Y5093D01*
X21503D02*
X25637D01*
X21503Y3765D02*
Y5093D01*
X21944Y507D02*
X25196D01*
X21503Y3765D02*
X21944D01*
X25196D02*
X25637D01*
X21944Y507D02*
Y3765D01*
X25196Y507D02*
Y3765D01*
X11369Y8569D02*
Y10931D01*
X13731D01*
Y8569D02*
Y10931D01*
X11369Y8569D02*
X13731D01*
X22350Y8475D02*
Y8829D01*
Y9971D02*
Y10325D01*
X17350Y9971D02*
Y10325D01*
Y8475D02*
Y8829D01*
Y10325D02*
X22350D01*
X17350Y8475D02*
X22350D01*
X10432Y21050D02*
X10668D01*
X8132Y21100D02*
X8368D01*
X9132Y21050D02*
X9368D01*
X6082Y26100D02*
X6318D01*
X3735Y26232D02*
Y26468D01*
X3750Y24682D02*
Y24918D01*
X6982Y26115D02*
X7218D01*
X9415Y24385D02*
X10085D01*
X9415Y25015D02*
X10085D01*
X9465Y22735D02*
X10135D01*
X9465Y23365D02*
X10135D01*
X11700Y24582D02*
Y24818D01*
Y22932D02*
Y23168D01*
X22850Y27482D02*
Y27718D01*
X25315Y27065D02*
Y27735D01*
X24685Y27065D02*
Y27735D01*
D11*
X25468Y10800D02*
G03*
X25468Y10800I-49J0D01*
G01*
X16042Y15815D02*
G03*
X16042Y15815I-49J0D01*
G01*
X5676Y5753D02*
G03*
X5676Y5753I-49J0D01*
G01*
X16446D02*
G03*
X16446Y5753I-49J0D01*
G01*
X11046D02*
G03*
X11046Y5753I-49J0D01*
G01*
X5564Y24287D02*
G03*
X5564Y24287I-49J0D01*
G01*
X21596Y5753D02*
G03*
X21596Y5753I-49J0D01*
G01*
X23088Y9400D02*
G03*
X23088Y9400I-49J0D01*
G01*
X9081Y24700D02*
G03*
X9081Y24700I-49J0D01*
G01*
X9131Y23050D02*
G03*
X9131Y23050I-49J0D01*
G01*
X25049Y26681D02*
G03*
X25049Y26681I-49J0D01*
G01*
D12*
X16508Y16711D02*
G03*
X16508Y16711I-98J0D01*
G01*
D13*
X3616Y17622D02*
Y17634D01*
X3320D02*
X3616D01*
X3320Y17622D02*
Y17634D01*
Y17622D02*
X3616D01*
X1578D02*
X2041D01*
X1578D02*
X2041D01*
X1578Y14102D02*
Y17622D01*
Y14102D02*
Y17622D01*
Y14102D02*
X2139D01*
X1578D02*
X2139D01*
X3320D02*
X3714D01*
X3320D02*
X3714D01*
D14*
X3250Y3150D02*
Y3750D01*
X3550D01*
X3650Y3650D01*
Y3450D01*
X3550Y3350D01*
X3250D01*
X3850Y3750D02*
X4250D01*
Y3650D01*
X3850Y3250D01*
Y3150D01*
X2010Y18800D02*
Y19200D01*
X2210D01*
X2277Y19133D01*
Y19000D01*
X2210Y18933D01*
X2010D01*
X2410Y18800D02*
X2543D01*
X2477D01*
Y19200D01*
X2410Y19133D01*
X2743D02*
X2810Y19200D01*
X2943D01*
X3010Y19133D01*
Y19067D01*
X2943Y19000D01*
X2877D01*
X2943D01*
X3010Y18933D01*
Y18867D01*
X2943Y18800D01*
X2810D01*
X2743Y18867D01*
X24270Y9160D02*
Y9760D01*
X24570D01*
X24670Y9660D01*
Y9460D01*
X24570Y9360D01*
X24270D01*
X24870Y9160D02*
X25070D01*
X24970D01*
Y9760D01*
X24870Y9660D01*
X25670Y9160D02*
Y9760D01*
X25370Y9460D01*
X25770D01*
X16930Y11270D02*
X17330Y10670D01*
Y11270D02*
X16930Y10670D01*
X17530D02*
X17730D01*
X17630D01*
Y11270D01*
X17530Y11170D01*
X5510Y25240D02*
Y24907D01*
X5577Y24840D01*
X5710D01*
X5777Y24907D01*
Y25240D01*
X5910Y25173D02*
X5977Y25240D01*
X6110D01*
X6176Y25173D01*
Y25107D01*
X6110Y25040D01*
X6043D01*
X6110D01*
X6176Y24973D01*
Y24907D01*
X6110Y24840D01*
X5977D01*
X5910Y24907D01*
X14990Y25740D02*
Y25240D01*
X15090Y25140D01*
X15290D01*
X15390Y25240D01*
Y25740D01*
X15590Y25140D02*
X15790D01*
X15690D01*
Y25740D01*
X15590Y25640D01*
X10420Y11770D02*
X10320Y11870D01*
X10120D01*
X10020Y11770D01*
Y11670D01*
X10120Y11570D01*
X10320D01*
X10420Y11470D01*
Y11370D01*
X10320Y11270D01*
X10120D01*
X10020Y11370D01*
X10620Y11270D02*
X10820D01*
X10720D01*
Y11870D01*
X10620Y11770D01*
X11200Y25310D02*
Y25710D01*
X11400D01*
X11467Y25643D01*
Y25510D01*
X11400Y25443D01*
X11200D01*
X11333D02*
X11467Y25310D01*
X11866D02*
X11600D01*
X11866Y25577D01*
Y25643D01*
X11800Y25710D01*
X11667D01*
X11600Y25643D01*
X12266Y25710D02*
X12000D01*
Y25510D01*
X12133Y25577D01*
X12200D01*
X12266Y25510D01*
Y25377D01*
X12200Y25310D01*
X12066D01*
X12000Y25377D01*
X11200Y23660D02*
Y24060D01*
X11400D01*
X11467Y23993D01*
Y23860D01*
X11400Y23793D01*
X11200D01*
X11333D02*
X11467Y23660D01*
X11866D02*
X11600D01*
X11866Y23927D01*
Y23993D01*
X11800Y24060D01*
X11667D01*
X11600Y23993D01*
X12200Y23660D02*
Y24060D01*
X12000Y23860D01*
X12266D01*
X6890Y27020D02*
Y27420D01*
X7090D01*
X7157Y27353D01*
Y27220D01*
X7090Y27153D01*
X6890D01*
X7023D02*
X7157Y27020D01*
X7556D02*
X7290D01*
X7556Y27287D01*
Y27353D01*
X7490Y27420D01*
X7357D01*
X7290Y27353D01*
X7690D02*
X7756Y27420D01*
X7890D01*
X7956Y27353D01*
Y27287D01*
X7890Y27220D01*
X7823D01*
X7890D01*
X7956Y27153D01*
Y27087D01*
X7890Y27020D01*
X7756D01*
X7690Y27087D01*
X5317Y27000D02*
Y27400D01*
X5517D01*
X5583Y27333D01*
Y27200D01*
X5517Y27133D01*
X5317D01*
X5450D02*
X5583Y27000D01*
X5983D02*
X5717D01*
X5983Y27267D01*
Y27333D01*
X5917Y27400D01*
X5783D01*
X5717Y27333D01*
X6383Y27000D02*
X6117D01*
X6383Y27267D01*
Y27333D01*
X6317Y27400D01*
X6183D01*
X6117Y27333D01*
X3230Y26960D02*
Y27360D01*
X3430D01*
X3497Y27293D01*
Y27160D01*
X3430Y27093D01*
X3230D01*
X3363D02*
X3497Y26960D01*
X3896D02*
X3630D01*
X3896Y27227D01*
Y27293D01*
X3830Y27360D01*
X3697D01*
X3630Y27293D01*
X4030Y26960D02*
X4163D01*
X4096D01*
Y27360D01*
X4030Y27293D01*
X3250Y25410D02*
Y25810D01*
X3450D01*
X3517Y25743D01*
Y25610D01*
X3450Y25543D01*
X3250D01*
X3383D02*
X3517Y25410D01*
X3916D02*
X3650D01*
X3916Y25677D01*
Y25743D01*
X3850Y25810D01*
X3717D01*
X3650Y25743D01*
X4050D02*
X4116Y25810D01*
X4250D01*
X4316Y25743D01*
Y25477D01*
X4250Y25410D01*
X4116D01*
X4050Y25477D01*
Y25743D01*
X10300Y21850D02*
Y22250D01*
X10500D01*
X10567Y22183D01*
Y22050D01*
X10500Y21983D01*
X10300D01*
X10433D02*
X10567Y21850D01*
X10700D02*
X10833D01*
X10767D01*
Y22250D01*
X10700Y22183D01*
X11033Y21917D02*
X11100Y21850D01*
X11233D01*
X11300Y21917D01*
Y22183D01*
X11233Y22250D01*
X11100D01*
X11033Y22183D01*
Y22117D01*
X11100Y22050D01*
X11300D01*
X9050Y21850D02*
Y22250D01*
X9250D01*
X9317Y22183D01*
Y22050D01*
X9250Y21983D01*
X9050D01*
X9183D02*
X9317Y21850D01*
X9450D02*
X9583D01*
X9517D01*
Y22250D01*
X9450Y22183D01*
X9783D02*
X9850Y22250D01*
X9983D01*
X10050Y22183D01*
Y22117D01*
X9983Y22050D01*
X10050Y21983D01*
Y21917D01*
X9983Y21850D01*
X9850D01*
X9783Y21917D01*
Y21983D01*
X9850Y22050D01*
X9783Y22117D01*
Y22183D01*
X9850Y22050D02*
X9983D01*
X7650Y21800D02*
Y22200D01*
X7850D01*
X7917Y22133D01*
Y22000D01*
X7850Y21933D01*
X7650D01*
X7783D02*
X7917Y21800D01*
X8050D02*
X8183D01*
X8117D01*
Y22200D01*
X8050Y22133D01*
X8383Y22200D02*
X8650D01*
Y22133D01*
X8383Y21867D01*
Y21800D01*
X22350Y28210D02*
Y28810D01*
X22650D01*
X22750Y28710D01*
Y28510D01*
X22650Y28410D01*
X22350D01*
X22550D02*
X22750Y28210D01*
X22950D02*
X23150D01*
X23050D01*
Y28810D01*
X22950Y28710D01*
X21510Y6420D02*
Y7020D01*
X21810D01*
X21910Y6920D01*
Y6720D01*
X21810Y6620D01*
X21510D01*
X22110Y6420D02*
X22310D01*
X22210D01*
Y7020D01*
X22110Y6920D01*
X23010Y6420D02*
X22610D01*
X23010Y6820D01*
Y6920D01*
X22910Y7020D01*
X22710D01*
X22610Y6920D01*
X16360Y6420D02*
Y7020D01*
X16660D01*
X16760Y6920D01*
Y6720D01*
X16660Y6620D01*
X16360D01*
X16960Y6420D02*
X17160D01*
X17060D01*
Y7020D01*
X16960Y6920D01*
X17460Y6420D02*
X17660D01*
X17560D01*
Y7020D01*
X17460Y6920D01*
X10960Y6430D02*
Y7030D01*
X11260D01*
X11360Y6930D01*
Y6730D01*
X11260Y6630D01*
X10960D01*
X11560Y6430D02*
X11760D01*
X11660D01*
Y7030D01*
X11560Y6930D01*
X12060D02*
X12160Y7030D01*
X12360D01*
X12460Y6930D01*
Y6530D01*
X12360Y6430D01*
X12160D01*
X12060Y6530D01*
Y6930D01*
X5590Y6420D02*
Y7020D01*
X5890D01*
X5990Y6920D01*
Y6720D01*
X5890Y6620D01*
X5590D01*
X6190Y6520D02*
X6290Y6420D01*
X6490D01*
X6590Y6520D01*
Y6920D01*
X6490Y7020D01*
X6290D01*
X6190Y6920D01*
Y6820D01*
X6290Y6720D01*
X6590D01*
X7160Y15390D02*
Y15990D01*
X7460D01*
X7560Y15890D01*
Y15690D01*
X7460Y15590D01*
X7160D01*
X8160Y15990D02*
X7960Y15890D01*
X7760Y15690D01*
Y15490D01*
X7860Y15390D01*
X8060D01*
X8160Y15490D01*
Y15590D01*
X8060Y15690D01*
X7760D01*
X17160Y29690D02*
Y30090D01*
X17360D01*
X17427Y30023D01*
Y29890D01*
X17360Y29823D01*
X17160D01*
X17826Y30090D02*
X17560D01*
Y29890D01*
X17693Y29957D01*
X17760D01*
X17826Y29890D01*
Y29757D01*
X17760Y29690D01*
X17627D01*
X17560Y29757D01*
X2600Y28600D02*
Y29200D01*
X2900D01*
X3000Y29100D01*
Y28900D01*
X2900Y28800D01*
X2600D01*
X3500Y28600D02*
Y29200D01*
X3200Y28900D01*
X3600D01*
X8890Y29280D02*
Y29680D01*
X9090D01*
X9157Y29613D01*
Y29480D01*
X9090Y29413D01*
X8890D01*
X9290Y29613D02*
X9357Y29680D01*
X9490D01*
X9556Y29613D01*
Y29547D01*
X9490Y29480D01*
X9423D01*
X9490D01*
X9556Y29413D01*
Y29347D01*
X9490Y29280D01*
X9357D01*
X9290Y29347D01*
X12440Y29280D02*
Y29680D01*
X12640D01*
X12707Y29613D01*
Y29480D01*
X12640Y29413D01*
X12440D01*
X13106Y29280D02*
X12840D01*
X13106Y29547D01*
Y29613D01*
X13040Y29680D01*
X12907D01*
X12840Y29613D01*
X5890Y11230D02*
Y11830D01*
X6190D01*
X6290Y11730D01*
Y11530D01*
X6190Y11430D01*
X5890D01*
X6490Y11230D02*
X6690D01*
X6590D01*
Y11830D01*
X6490Y11730D01*
X9030Y25750D02*
Y25350D01*
X9297D01*
X9696Y25750D02*
X9430D01*
Y25350D01*
X9696D01*
X9430Y25550D02*
X9563D01*
X9830Y25750D02*
Y25350D01*
X10030D01*
X10096Y25417D01*
Y25683D01*
X10030Y25750D01*
X9830D01*
X10430Y25350D02*
Y25750D01*
X10230Y25550D01*
X10496D01*
X9080Y24100D02*
Y23700D01*
X9347D01*
X9746Y24100D02*
X9480D01*
Y23700D01*
X9746D01*
X9480Y23900D02*
X9613D01*
X9880Y24100D02*
Y23700D01*
X10080D01*
X10146Y23767D01*
Y24033D01*
X10080Y24100D01*
X9880D01*
X10280Y24033D02*
X10346Y24100D01*
X10480D01*
X10546Y24033D01*
Y23967D01*
X10480Y23900D01*
X10413D01*
X10480D01*
X10546Y23833D01*
Y23767D01*
X10480Y23700D01*
X10346D01*
X10280Y23767D01*
X25767Y10900D02*
Y10500D01*
X26033D01*
X26433Y10900D02*
X26167D01*
Y10500D01*
X26433D01*
X26167Y10700D02*
X26300D01*
X26567Y10900D02*
Y10500D01*
X26767D01*
X26833Y10567D01*
Y10833D01*
X26767Y10900D01*
X26567D01*
X27233Y10500D02*
X26967D01*
X27233Y10767D01*
Y10833D01*
X27166Y10900D01*
X27033D01*
X26967Y10833D01*
X24750Y28850D02*
Y28250D01*
X25150D01*
X25750Y28850D02*
X25350D01*
Y28250D01*
X25750D01*
X25350Y28550D02*
X25550D01*
X25950Y28850D02*
Y28250D01*
X26250D01*
X26349Y28350D01*
Y28750D01*
X26250Y28850D01*
X25950D01*
X26549Y28250D02*
X26749D01*
X26649D01*
Y28850D01*
X26549Y28750D01*
X4833Y21117D02*
X4900Y21183D01*
Y21317D01*
X4833Y21383D01*
X4567D01*
X4500Y21317D01*
Y21183D01*
X4567Y21117D01*
X4500Y20717D02*
Y20983D01*
X4767Y20717D01*
X4833D01*
X4900Y20783D01*
Y20917D01*
X4833Y20983D01*
Y20583D02*
X4900Y20517D01*
Y20383D01*
X4833Y20317D01*
X4767D01*
X4700Y20383D01*
X4633Y20317D01*
X4567D01*
X4500Y20383D01*
Y20517D01*
X4567Y20583D01*
X4633D01*
X4700Y20517D01*
X4767Y20583D01*
X4833D01*
X4700Y20517D02*
Y20383D01*
X4833Y24367D02*
X4900Y24433D01*
Y24567D01*
X4833Y24633D01*
X4567D01*
X4500Y24567D01*
Y24433D01*
X4567Y24367D01*
X4500Y23967D02*
Y24233D01*
X4767Y23967D01*
X4833D01*
X4900Y24033D01*
Y24167D01*
X4833Y24233D01*
X4900Y23833D02*
Y23567D01*
X4833D01*
X4567Y23833D01*
X4500D01*
X7083Y20233D02*
X7017Y20300D01*
X6883D01*
X6817Y20233D01*
Y19967D01*
X6883Y19900D01*
X7017D01*
X7083Y19967D01*
X7483Y19900D02*
X7217D01*
X7483Y20167D01*
Y20233D01*
X7417Y20300D01*
X7283D01*
X7217Y20233D01*
X7883Y20300D02*
X7750Y20233D01*
X7617Y20100D01*
Y19967D01*
X7683Y19900D01*
X7817D01*
X7883Y19967D01*
Y20033D01*
X7817Y20100D01*
X7617D01*
X5733Y20233D02*
X5667Y20300D01*
X5533D01*
X5467Y20233D01*
Y19967D01*
X5533Y19900D01*
X5667D01*
X5733Y19967D01*
X6133Y19900D02*
X5867D01*
X6133Y20167D01*
Y20233D01*
X6067Y20300D01*
X5933D01*
X5867Y20233D01*
X6533Y20300D02*
X6267D01*
Y20100D01*
X6400Y20167D01*
X6467D01*
X6533Y20100D01*
Y19967D01*
X6467Y19900D01*
X6333D01*
X6267Y19967D01*
X13587Y17483D02*
X13520Y17550D01*
X13387D01*
X13320Y17483D01*
Y17217D01*
X13387Y17150D01*
X13520D01*
X13587Y17217D01*
X13720Y17150D02*
X13853D01*
X13787D01*
Y17550D01*
X13720Y17483D01*
X14053Y17550D02*
X14320D01*
Y17483D01*
X14053Y17217D01*
Y17150D01*
X13587Y20033D02*
X13520Y20100D01*
X13387D01*
X13320Y20033D01*
Y19767D01*
X13387Y19700D01*
X13520D01*
X13587Y19767D01*
X13720Y19700D02*
X13853D01*
X13787D01*
Y20100D01*
X13720Y20033D01*
X14320Y20100D02*
X14186Y20033D01*
X14053Y19900D01*
Y19767D01*
X14120Y19700D01*
X14253D01*
X14320Y19767D01*
Y19833D01*
X14253Y19900D01*
X14053D01*
X13587Y22033D02*
X13520Y22100D01*
X13387D01*
X13320Y22033D01*
Y21767D01*
X13387Y21700D01*
X13520D01*
X13587Y21767D01*
X13720Y21700D02*
X13853D01*
X13787D01*
Y22100D01*
X13720Y22033D01*
X14320Y22100D02*
X14053D01*
Y21900D01*
X14186Y21967D01*
X14253D01*
X14320Y21900D01*
Y21767D01*
X14253Y21700D01*
X14120D01*
X14053Y21767D01*
X16217Y27033D02*
X16150Y27100D01*
X16017D01*
X15950Y27033D01*
Y26767D01*
X16017Y26700D01*
X16150D01*
X16217Y26767D01*
X16350Y26700D02*
X16483D01*
X16417D01*
Y27100D01*
X16350Y27033D01*
X16883Y26700D02*
Y27100D01*
X16683Y26900D01*
X16950D01*
X17967Y27033D02*
X17900Y27100D01*
X17767D01*
X17700Y27033D01*
Y26767D01*
X17767Y26700D01*
X17900D01*
X17967Y26767D01*
X18100Y26700D02*
X18233D01*
X18167D01*
Y27100D01*
X18100Y27033D01*
X18433D02*
X18500Y27100D01*
X18633D01*
X18700Y27033D01*
Y26967D01*
X18633Y26900D01*
X18567D01*
X18633D01*
X18700Y26833D01*
Y26767D01*
X18633Y26700D01*
X18500D01*
X18433Y26767D01*
X21067Y27113D02*
X21000Y27180D01*
X20867D01*
X20800Y27113D01*
Y26847D01*
X20867Y26780D01*
X21000D01*
X21067Y26847D01*
X21200Y26780D02*
X21333D01*
X21267D01*
Y27180D01*
X21200Y27113D01*
X21800Y26780D02*
X21533D01*
X21800Y27047D01*
Y27113D01*
X21733Y27180D01*
X21600D01*
X21533Y27113D01*
X25587Y23783D02*
X25520Y23850D01*
X25387D01*
X25320Y23783D01*
Y23517D01*
X25387Y23450D01*
X25520D01*
X25587Y23517D01*
X25720Y23450D02*
X25853D01*
X25787D01*
Y23850D01*
X25720Y23783D01*
X26053Y23450D02*
X26186D01*
X26120D01*
Y23850D01*
X26053Y23783D01*
X25587Y22383D02*
X25520Y22450D01*
X25387D01*
X25320Y22383D01*
Y22117D01*
X25387Y22050D01*
X25520D01*
X25587Y22117D01*
X25720Y22050D02*
X25853D01*
X25787D01*
Y22450D01*
X25720Y22383D01*
X26053D02*
X26120Y22450D01*
X26253D01*
X26320Y22383D01*
Y22117D01*
X26253Y22050D01*
X26120D01*
X26053Y22117D01*
Y22383D01*
X25617Y20453D02*
X25550Y20520D01*
X25417D01*
X25350Y20453D01*
Y20187D01*
X25417Y20120D01*
X25550D01*
X25617Y20187D01*
X25750D02*
X25817Y20120D01*
X25950D01*
X26016Y20187D01*
Y20453D01*
X25950Y20520D01*
X25817D01*
X25750Y20453D01*
Y20387D01*
X25817Y20320D01*
X26016D01*
X25587Y17883D02*
X25520Y17950D01*
X25387D01*
X25320Y17883D01*
Y17617D01*
X25387Y17550D01*
X25520D01*
X25587Y17617D01*
X25720Y17883D02*
X25787Y17950D01*
X25920D01*
X25986Y17883D01*
Y17817D01*
X25920Y17750D01*
X25986Y17683D01*
Y17617D01*
X25920Y17550D01*
X25787D01*
X25720Y17617D01*
Y17683D01*
X25787Y17750D01*
X25720Y17817D01*
Y17883D01*
X25787Y17750D02*
X25920D01*
X23183Y15033D02*
X23117Y15100D01*
X22983D01*
X22917Y15033D01*
Y14767D01*
X22983Y14700D01*
X23117D01*
X23183Y14767D01*
X23317Y15100D02*
X23583D01*
Y15033D01*
X23317Y14767D01*
Y14700D01*
X22083Y15033D02*
X22017Y15100D01*
X21883D01*
X21817Y15033D01*
Y14767D01*
X21883Y14700D01*
X22017D01*
X22083Y14767D01*
X22483Y15100D02*
X22350Y15033D01*
X22217Y14900D01*
Y14767D01*
X22283Y14700D01*
X22417D01*
X22483Y14767D01*
Y14833D01*
X22417Y14900D01*
X22217D01*
X21133Y15033D02*
X21067Y15100D01*
X20933D01*
X20867Y15033D01*
Y14767D01*
X20933Y14700D01*
X21067D01*
X21133Y14767D01*
X21533Y15100D02*
X21267D01*
Y14900D01*
X21400Y14967D01*
X21467D01*
X21533Y14900D01*
Y14767D01*
X21467Y14700D01*
X21333D01*
X21267Y14767D01*
X19483Y15033D02*
X19417Y15100D01*
X19283D01*
X19217Y15033D01*
Y14767D01*
X19283Y14700D01*
X19417D01*
X19483Y14767D01*
X19817Y14700D02*
Y15100D01*
X19617Y14900D01*
X19883D01*
X17233Y15033D02*
X17167Y15100D01*
X17033D01*
X16967Y15033D01*
Y14767D01*
X17033Y14700D01*
X17167D01*
X17233Y14767D01*
X17367Y15033D02*
X17433Y15100D01*
X17567D01*
X17633Y15033D01*
Y14967D01*
X17567Y14900D01*
X17500D01*
X17567D01*
X17633Y14833D01*
Y14767D01*
X17567Y14700D01*
X17433D01*
X17367Y14767D01*
M02*
