G04*
G04 #@! TF.GenerationSoftware,Altium Limited,Altium Designer,22.9.1 (49)*
G04*
G04 Layer_Color=128*
%FSLAX25Y25*%
%MOIN*%
G70*
G04*
G04 #@! TF.SameCoordinates,F30A270F-9CF5-405F-8EA2-704C6F89508A*
G04*
G04*
G04 #@! TF.FilePolarity,Positive*
G04*
G01*
G75*
%ADD23R,0.03543X0.03740*%
%ADD25R,0.03898X0.03071*%
%ADD30R,0.03740X0.03543*%
%ADD76R,0.07874X0.02402*%
%ADD77R,0.14173X0.10551*%
%ADD78R,0.03740X0.03740*%
%ADD79R,0.02559X0.06004*%
%ADD80R,0.02756X0.02756*%
%ADD81R,0.09055X0.08661*%
%ADD82R,0.08780X0.07087*%
%ADD83R,0.02756X0.02756*%
%ADD84R,0.07087X0.08780*%
G04:AMPARAMS|DCode=85|XSize=39.54mil|YSize=125.28mil|CornerRadius=17.2mil|HoleSize=0mil|Usage=FLASHONLY|Rotation=180.000|XOffset=0mil|YOffset=0mil|HoleType=Round|Shape=RoundedRectangle|*
%AMROUNDEDRECTD85*
21,1,0.03954,0.09088,0,0,180.0*
21,1,0.00514,0.12528,0,0,180.0*
1,1,0.03440,-0.00257,0.04544*
1,1,0.03440,0.00257,0.04544*
1,1,0.03440,0.00257,-0.04544*
1,1,0.03440,-0.00257,-0.04544*
%
%ADD85ROUNDEDRECTD85*%
G04:AMPARAMS|DCode=86|XSize=39.54mil|YSize=34.34mil|CornerRadius=17.17mil|HoleSize=0mil|Usage=FLASHONLY|Rotation=180.000|XOffset=0mil|YOffset=0mil|HoleType=Round|Shape=RoundedRectangle|*
%AMROUNDEDRECTD86*
21,1,0.03954,0.00000,0,0,180.0*
21,1,0.00520,0.03434,0,0,180.0*
1,1,0.03434,-0.00260,0.00000*
1,1,0.03434,0.00260,0.00000*
1,1,0.03434,0.00260,0.00000*
1,1,0.03434,-0.00260,0.00000*
%
%ADD86ROUNDEDRECTD86*%
%ADD87R,0.03954X0.03434*%
D23*
X64650Y137000D02*
D03*
X58350D02*
D03*
X137150Y84500D02*
D03*
X130850D02*
D03*
X189850Y188000D02*
D03*
X196150D02*
D03*
D25*
X198000Y118744D02*
D03*
Y124256D02*
D03*
X231000D02*
D03*
Y118744D02*
D03*
D30*
X83500Y174350D02*
D03*
Y180650D02*
D03*
X68500Y39650D02*
D03*
Y33350D02*
D03*
X131000D02*
D03*
Y39650D02*
D03*
X56500D02*
D03*
Y33350D02*
D03*
X141000D02*
D03*
Y39650D02*
D03*
X97070Y283701D02*
D03*
Y277402D02*
D03*
X104000Y180150D02*
D03*
Y173850D02*
D03*
X132500Y283650D02*
D03*
Y277350D02*
D03*
X184500Y118201D02*
D03*
Y124500D02*
D03*
X192000Y33350D02*
D03*
Y39650D02*
D03*
X202500Y33350D02*
D03*
Y39650D02*
D03*
X261000D02*
D03*
Y33350D02*
D03*
X271500D02*
D03*
Y39650D02*
D03*
X273000Y119000D02*
D03*
Y112701D02*
D03*
D76*
X43598Y219721D02*
D03*
Y223657D02*
D03*
Y227594D02*
D03*
Y231532D02*
D03*
Y235469D02*
D03*
Y239405D02*
D03*
Y243342D02*
D03*
Y247280D02*
D03*
D77*
X32575Y207949D02*
D03*
Y259051D02*
D03*
D78*
X151500Y127000D02*
D03*
Y132905D02*
D03*
D79*
X82000Y25823D02*
D03*
X87000D02*
D03*
X92000D02*
D03*
X97000D02*
D03*
X102000D02*
D03*
X107000D02*
D03*
X112000D02*
D03*
Y47177D02*
D03*
X107000D02*
D03*
X102000D02*
D03*
X97000D02*
D03*
X92000D02*
D03*
X87000D02*
D03*
X82000D02*
D03*
X211000Y25823D02*
D03*
X216000D02*
D03*
X221000D02*
D03*
X226000D02*
D03*
X231000D02*
D03*
X236000D02*
D03*
X241000D02*
D03*
Y47177D02*
D03*
X236000D02*
D03*
X231000D02*
D03*
X226000D02*
D03*
X221000D02*
D03*
X216000D02*
D03*
X211000D02*
D03*
D80*
X87756Y137000D02*
D03*
X82244D02*
D03*
X131000D02*
D03*
X136512D02*
D03*
D81*
X169000Y83657D02*
D03*
Y103342D02*
D03*
X232000Y84158D02*
D03*
Y103842D02*
D03*
D82*
X187500Y216252D02*
D03*
Y227748D02*
D03*
D83*
X244500Y98244D02*
D03*
Y103756D02*
D03*
D84*
X292248Y243500D02*
D03*
X280752D02*
D03*
D85*
X189000Y92500D02*
D03*
D86*
X214945Y83484D02*
D03*
Y92500D02*
D03*
D87*
Y101516D02*
D03*
M02*
