G04*
G04 #@! TF.GenerationSoftware,Altium Limited,Altium Designer,22.9.1 (49)*
G04*
G04 Layer_Color=2752767*
%FSLAX24Y24*%
%MOIN*%
G70*
G04*
G04 #@! TF.SameCoordinates,54DEFAFE-76A2-4419-BEBC-3D5CD7468304*
G04*
G04*
G04 #@! TF.FilePolarity,Positive*
G04*
G01*
G75*
%ADD97C,0.0020*%
%ADD98C,0.0027*%
D97*
X3350Y6120D02*
X3270Y6280D01*
X3430D01*
X3350Y6120D01*
X2350D02*
X2270Y6280D01*
X2430D01*
X2350Y6120D01*
X3350Y7120D02*
X3270Y7280D01*
X3430D01*
X3350Y7120D01*
X2350D02*
X2270Y7280D01*
X2430D01*
X2350Y7120D01*
X3350Y8120D02*
X3270Y8280D01*
X3430D01*
X3350Y8120D01*
X2350D02*
X2270Y8280D01*
X2430D01*
X2350Y8120D01*
X3350Y9120D02*
X3270Y9280D01*
X3430D01*
X3350Y9120D01*
X2350D02*
X2270Y9280D01*
X2430D01*
X2350Y9120D01*
X3350Y10120D02*
X3270Y10280D01*
X3430D01*
X3350Y10120D01*
X2350D02*
X2270Y10280D01*
X2430D01*
X2350Y10120D01*
X4050Y16920D02*
X4090Y16960D01*
X4130D01*
X4090Y17000D01*
X4130Y17040D01*
X4090D01*
X4050Y17080D01*
X4010Y17040D01*
X3970D01*
X4010Y17000D01*
X3970Y16960D01*
X4010D01*
X4050Y16920D01*
Y14644D02*
X4090Y14684D01*
X4130D01*
X4090Y14724D01*
X4130Y14764D01*
X4090D01*
X4050Y14804D01*
X4010Y14764D01*
X3970D01*
X4010Y14724D01*
X3970Y14684D01*
X4010D01*
X4050Y14644D01*
X7470Y28770D02*
Y28930D01*
X7630D01*
Y28770D01*
X7470D01*
X6470D02*
Y28930D01*
X6630D01*
Y28770D01*
X6470D01*
X5470D02*
Y28930D01*
X5630D01*
Y28770D01*
X5470D01*
X4470D02*
Y28930D01*
X4630D01*
Y28770D01*
X4470D01*
X24660Y7210D02*
Y7170D01*
X24740D01*
Y7210D01*
X24780D01*
Y7290D01*
X24740D01*
Y7330D01*
X24660D01*
Y7290D01*
X24620D01*
Y7210D01*
X24660D01*
Y8210D02*
Y8170D01*
X24740D01*
Y8210D01*
X24780D01*
Y8290D01*
X24740D01*
Y8330D01*
X24660D01*
Y8290D01*
X24620D01*
Y8210D01*
X24660D01*
X7820Y9570D02*
X7860Y9650D01*
X7820Y9730D01*
X7900Y9690D01*
X7980Y9730D01*
X7940Y9650D01*
X7980Y9570D01*
X7900Y9610D01*
X7820Y9570D01*
X6820D02*
X6860Y9650D01*
X6820Y9730D01*
X6900Y9690D01*
X6980Y9730D01*
X6940Y9650D01*
X6980Y9570D01*
X6900Y9610D01*
X6820Y9570D01*
X17520Y28770D02*
Y28930D01*
X17680D01*
Y28770D01*
X17520D01*
X18520D02*
Y28930D01*
X18680D01*
Y28770D01*
X18520D01*
X19520D02*
Y28930D01*
X19680D01*
Y28770D01*
X19520D01*
X20520D02*
Y28930D01*
X20680D01*
Y28770D01*
X20520D01*
X13370Y27620D02*
X13410Y27700D01*
X13370Y27780D01*
X13450Y27740D01*
X13530Y27780D01*
X13490Y27700D01*
X13530Y27620D01*
X13450Y27660D01*
X13370Y27620D01*
X14370D02*
X14410Y27700D01*
X14370Y27780D01*
X14450Y27740D01*
X14530Y27780D01*
X14490Y27700D01*
X14530Y27620D01*
X14450Y27660D01*
X14370Y27620D01*
X9820D02*
X9860Y27700D01*
X9820Y27780D01*
X9900Y27740D01*
X9980Y27780D01*
X9940Y27700D01*
X9980Y27620D01*
X9900Y27660D01*
X9820Y27620D01*
X10820D02*
X10860Y27700D01*
X10820Y27780D01*
X10900Y27740D01*
X10980Y27780D01*
X10940Y27700D01*
X10980Y27620D01*
X10900Y27660D01*
X10820Y27620D01*
X7520Y14470D02*
Y14630D01*
X7680D01*
Y14470D01*
X7520D01*
X8520D02*
Y14630D01*
X8680D01*
Y14470D01*
X8520D01*
X9520D02*
Y14630D01*
X9680D01*
Y14470D01*
X9520D01*
X10520D02*
Y14630D01*
X10680D01*
Y14470D01*
X10520D01*
X15420Y6000D02*
X15500Y6080D01*
X15580Y6000D01*
X15500Y5920D01*
X15420Y6000D01*
X19420Y9820D02*
X19460D01*
X19500Y9860D01*
X19540Y9820D01*
X19580D01*
Y9860D01*
X19540Y9900D01*
X19580Y9940D01*
Y9980D01*
X19540D01*
X19500Y9940D01*
X19460Y9980D01*
X19420D01*
Y9940D01*
X19460Y9900D01*
X19420Y9860D01*
Y9820D01*
X19770Y9070D02*
X19810D01*
X19850Y9110D01*
X19890Y9070D01*
X19930D01*
Y9110D01*
X19890Y9150D01*
X19930Y9190D01*
Y9230D01*
X19890D01*
X19850Y9190D01*
X19810Y9230D01*
X19770D01*
Y9190D01*
X19810Y9150D01*
X19770Y9110D01*
Y9070D01*
X7770Y20150D02*
X7850Y20230D01*
X7930Y20150D01*
X7850Y20070D01*
X7770Y20150D01*
X20320Y10900D02*
X20400Y10980D01*
X20480Y10900D01*
X20400Y10820D01*
X20320Y10900D01*
X16720Y21950D02*
X16800Y22030D01*
X16880Y21950D01*
X16800Y21870D01*
X16720Y21950D01*
X24920Y28700D02*
X25000Y28780D01*
X25080Y28700D01*
X25000Y28620D01*
X24920Y28700D01*
X15770Y10950D02*
X15850Y11030D01*
X15930Y10950D01*
X15850Y10870D01*
X15770Y10950D01*
X26920Y11450D02*
X27000Y11530D01*
X27080Y11450D01*
X27000Y11370D01*
X26920Y11450D01*
X5470Y17500D02*
X5550Y17580D01*
X5630Y17500D01*
X5550Y17420D01*
X5470Y17500D01*
Y14950D02*
X5550Y15030D01*
X5630Y14950D01*
X5550Y14870D01*
X5470Y14950D01*
X18420Y13100D02*
X18500Y13180D01*
X18580Y13100D01*
X18500Y13020D01*
X18420Y13100D01*
X20020Y14650D02*
X20100Y14730D01*
X20180Y14650D01*
X20100Y14570D01*
X20020Y14650D01*
X20070Y23450D02*
X20150Y23530D01*
X20230Y23450D01*
X20150Y23370D01*
X20070Y23450D01*
X16420Y22700D02*
X16500Y22780D01*
X16580Y22700D01*
X16500Y22620D01*
X16420Y22700D01*
X16945Y23100D02*
X17025Y23180D01*
X17105Y23100D01*
X17025Y23020D01*
X16945Y23100D01*
X18820Y21600D02*
X18900Y21680D01*
X18980Y21600D01*
X18900Y21520D01*
X18820Y21600D01*
X14020Y20200D02*
X14100Y20280D01*
X14180Y20200D01*
X14100Y20120D01*
X14020Y20200D01*
X22570Y18000D02*
X22650Y18080D01*
X22730Y18000D01*
X22650Y17920D01*
X22570Y18000D01*
X22820Y20350D02*
X22900Y20430D01*
X22980Y20350D01*
X22900Y20270D01*
X22820Y20350D01*
X21770Y16950D02*
X21850Y17030D01*
X21930Y16950D01*
X21850Y16870D01*
X21770Y16950D01*
X10620Y12350D02*
X10700Y12430D01*
X10780Y12350D01*
X10700Y12270D01*
X10620Y12350D01*
X22070Y8400D02*
X22150Y8480D01*
X22230Y8400D01*
X22150Y8320D01*
X22070Y8400D01*
X8270Y17400D02*
X8350Y17480D01*
X8430Y17400D01*
X8350Y17320D01*
X8270Y17400D01*
X5370Y22300D02*
X5450Y22380D01*
X5530Y22300D01*
X5450Y22220D01*
X5370Y22300D01*
X11470Y21850D02*
X11550Y21930D01*
X11630Y21850D01*
X11550Y21770D01*
X11470Y21850D01*
X11920Y24100D02*
X12000Y24180D01*
X12080Y24100D01*
X12000Y24020D01*
X11920Y24100D01*
X9120Y21950D02*
X9200Y22030D01*
X9280Y21950D01*
X9200Y21870D01*
X9120Y21950D01*
X19120Y11350D02*
X19200Y11430D01*
X19280Y11350D01*
X19200Y11270D01*
X19120Y11350D01*
X11370Y26500D02*
X11450Y26580D01*
X11530Y26500D01*
X11450Y26420D01*
X11370Y26500D01*
X13520Y26600D02*
X13600Y26680D01*
X13680Y26600D01*
X13600Y26520D01*
X13520Y26600D01*
X8570Y25700D02*
X8650Y25780D01*
X8730Y25700D01*
X8650Y25620D01*
X8570Y25700D01*
X6570Y2900D02*
X6650Y2980D01*
X6730Y2900D01*
X6650Y2820D01*
X6570Y2900D01*
X9120Y2050D02*
X9200Y2130D01*
X9280Y2050D01*
X9200Y1970D01*
X9120Y2050D01*
X14420Y2000D02*
X14500Y2080D01*
X14580Y2000D01*
X14500Y1920D01*
X14420Y2000D01*
X19820Y1850D02*
X19900Y1930D01*
X19980Y1850D01*
X19900Y1770D01*
X19820Y1850D01*
X25020Y2250D02*
X25100Y2330D01*
X25180Y2250D01*
X25100Y2170D01*
X25020Y2250D01*
X16420Y19700D02*
X16500Y19780D01*
X16580Y19700D01*
X16500Y19620D01*
X16420Y19700D01*
X14670Y16100D02*
X14750Y16180D01*
X14830Y16100D01*
X14750Y16020D01*
X14670Y16100D01*
X17675Y14130D02*
X17755Y14210D01*
X17835Y14130D01*
X17755Y14050D01*
X17675Y14130D01*
X16120Y13450D02*
X16200Y13530D01*
X16280Y13450D01*
X16200Y13370D01*
X16120Y13450D01*
X21170Y14950D02*
X21250Y15030D01*
X21330Y14950D01*
X21250Y14870D01*
X21170Y14950D01*
X24520Y10000D02*
X24600Y10080D01*
X24680Y10000D01*
X24600Y9920D01*
X24520Y10000D01*
X25670Y18450D02*
X25750Y18530D01*
X25830Y18450D01*
X25750Y18370D01*
X25670Y18450D01*
Y15950D02*
X25750Y16030D01*
X25830Y15950D01*
X25750Y15870D01*
X25670Y15950D01*
X25520Y20800D02*
X25600Y20880D01*
X25680Y20800D01*
X25600Y20720D01*
X25520Y20800D01*
X25720Y24750D02*
X25800Y24830D01*
X25880Y24750D01*
X25800Y24670D01*
X25720Y24750D01*
X18720Y22650D02*
X18800Y22730D01*
X18880Y22650D01*
X18800Y22570D01*
X18720Y22650D01*
X15320Y24223D02*
X15400Y24303D01*
X15480Y24223D01*
X15400Y24143D01*
X15320Y24223D01*
X16470Y21150D02*
X16550Y21230D01*
X16630Y21150D01*
X16550Y21070D01*
X16470Y21150D01*
X16844Y17426D02*
X16924Y17506D01*
X17004Y17426D01*
X16924Y17346D01*
X16844Y17426D01*
X21470Y22850D02*
X21550Y22930D01*
X21630Y22850D01*
X21550Y22770D01*
X21470Y22850D01*
X20493Y21173D02*
X20573Y21253D01*
X20653Y21173D01*
X20573Y21093D01*
X20493Y21173D01*
X21370Y22000D02*
X21450Y22080D01*
X21530Y22000D01*
X21450Y21920D01*
X21370Y22000D01*
X21420Y21200D02*
X21500Y21280D01*
X21580Y21200D01*
X21500Y21120D01*
X21420Y21200D01*
X11720Y11850D02*
X11800Y11930D01*
X11880Y11850D01*
X11800Y11770D01*
X11720Y11850D01*
X9770Y9950D02*
X9850Y10030D01*
X9930Y9950D01*
X9850Y9870D01*
X9770Y9950D01*
X2670Y24403D02*
X2750Y24483D01*
X2830Y24403D01*
X2750Y24323D01*
X2670Y24403D01*
X2770Y26358D02*
X2850Y26438D01*
X2930Y26358D01*
X2850Y26278D01*
X2770Y26358D01*
X6370Y23500D02*
X6450Y23580D01*
X6530Y23500D01*
X6450Y23420D01*
X6370Y23500D01*
X5620Y20850D02*
X5700Y20930D01*
X5780Y20850D01*
X5700Y20770D01*
X5620Y20850D01*
X3420Y13600D02*
X3500Y13680D01*
X3580Y13600D01*
X3500Y13520D01*
X3420Y13600D01*
X3470Y15700D02*
X3550Y15780D01*
X3630Y15700D01*
X3550Y15620D01*
X3470Y15700D01*
X8620Y12250D02*
X8700Y12330D01*
X8780Y12250D01*
X8700Y12170D01*
X8620Y12250D01*
X3070Y16800D02*
X3150Y16880D01*
X3230Y16800D01*
X3150Y16720D01*
X3070Y16800D01*
X27170Y19550D02*
X27250Y19630D01*
X27330Y19550D01*
X27250Y19470D01*
X27170Y19550D01*
Y16950D02*
X27250Y17030D01*
X27330Y16950D01*
X27250Y16870D01*
X27170Y16950D01*
Y21100D02*
X27250Y21180D01*
X27330Y21100D01*
X27250Y21020D01*
X27170Y21100D01*
Y22150D02*
X27250Y22230D01*
X27330Y22150D01*
X27250Y22070D01*
X27170Y22150D01*
X29170Y23250D02*
X29250Y23330D01*
X29330Y23250D01*
X29250Y23170D01*
X29170Y23250D01*
X22170Y26650D02*
X22250Y26730D01*
X22330Y26650D01*
X22250Y26570D01*
X22170Y26650D01*
X19770Y26050D02*
X19850Y26130D01*
X19930Y26050D01*
X19850Y25970D01*
X19770Y26050D01*
X19431Y26873D02*
X19511Y26953D01*
X19591Y26873D01*
X19511Y26793D01*
X19431Y26873D01*
X15070Y25950D02*
X15150Y26030D01*
X15230Y25950D01*
X15150Y25870D01*
X15070Y25950D01*
X12320Y21150D02*
X12400Y21230D01*
X12480Y21150D01*
X12400Y21070D01*
X12320Y21150D01*
Y19600D02*
X12400Y19680D01*
X12480Y19600D01*
X12400Y19520D01*
X12320Y19600D01*
X12520Y16550D02*
X12600Y16630D01*
X12680Y16550D01*
X12600Y16470D01*
X12520Y16550D01*
X22820Y12650D02*
X22900Y12730D01*
X22980Y12650D01*
X22900Y12570D01*
X22820Y12650D01*
X23320Y11400D02*
X23400Y11480D01*
X23480Y11400D01*
X23400Y11320D01*
X23320Y11400D01*
X21920Y12650D02*
X22000Y12730D01*
X22080Y12650D01*
X22000Y12570D01*
X21920Y12650D01*
X20970Y12600D02*
X21050Y12680D01*
X21130Y12600D01*
X21050Y12520D01*
X20970Y12600D01*
X20320Y13900D02*
X20400Y13980D01*
X20480Y13900D01*
X20400Y13820D01*
X20320Y13900D01*
X23320Y7950D02*
X23400Y8030D01*
X23480Y7950D01*
X23400Y7870D01*
X23320Y7950D01*
X20970Y6550D02*
X21050Y6630D01*
X21130Y6550D01*
X21050Y6470D01*
X20970Y6550D01*
X16970Y6850D02*
X17050Y6930D01*
X17130Y6850D01*
X17050Y6770D01*
X16970Y6850D01*
X16420Y17850D02*
X16500Y17930D01*
X16580Y17850D01*
X16500Y17770D01*
X16420Y17850D01*
X18820Y17750D02*
X18900Y17830D01*
X18980Y17750D01*
X18900Y17670D01*
X18820Y17750D01*
X18170Y19400D02*
X18250Y19480D01*
X18330Y19400D01*
X18250Y19320D01*
X18170Y19400D01*
X19420Y25300D02*
X19500Y25380D01*
X19580Y25300D01*
X19500Y25220D01*
X19420Y25300D01*
X21520Y25350D02*
X21600Y25430D01*
X21680Y25350D01*
X21600Y25270D01*
X21520Y25350D01*
X26120Y9450D02*
X26200Y9530D01*
X26280Y9450D01*
X26200Y9370D01*
X26120Y9450D01*
X22070Y21200D02*
X22150Y21280D01*
X22230Y21200D01*
X22150Y21120D01*
X22070Y21200D01*
X6970Y20150D02*
X7050Y20230D01*
X7130Y20150D01*
X7050Y20070D01*
X6970Y20150D01*
X6220Y20100D02*
X6300Y20180D01*
X6380Y20100D01*
X6300Y20020D01*
X6220Y20100D01*
X5620Y19550D02*
X5700Y19630D01*
X5780Y19550D01*
X5700Y19470D01*
X5620Y19550D01*
X25270Y23650D02*
X25350Y23730D01*
X25430Y23650D01*
X25350Y23570D01*
X25270Y23650D01*
X8270Y16350D02*
X8350Y16430D01*
X8430Y16350D01*
X8350Y16270D01*
X8270Y16350D01*
X9620D02*
X9700Y16430D01*
X9780Y16350D01*
X9700Y16270D01*
X9620Y16350D01*
X12820Y23550D02*
X12900Y23630D01*
X12980Y23550D01*
X12900Y23470D01*
X12820Y23550D01*
X12270Y18400D02*
X12350Y18480D01*
X12430Y18400D01*
X12350Y18320D01*
X12270Y18400D01*
X18220Y11950D02*
X18300Y12030D01*
X18380Y11950D01*
X18300Y11870D01*
X18220Y11950D01*
X21920Y10120D02*
X21960D01*
X22000Y10160D01*
X22040Y10120D01*
X22080D01*
Y10160D01*
X22040Y10200D01*
X22080Y10240D01*
Y10280D01*
X22040D01*
X22000Y10240D01*
X21960Y10280D01*
X21920D01*
Y10240D01*
X21960Y10200D01*
X21920Y10160D01*
Y10120D01*
X12470Y9720D02*
X12510D01*
X12550Y9760D01*
X12590Y9720D01*
X12630D01*
Y9760D01*
X12590Y9800D01*
X12630Y9840D01*
Y9880D01*
X12590D01*
X12550Y9840D01*
X12510Y9880D01*
X12470D01*
Y9840D01*
X12510Y9800D01*
X12470Y9760D01*
Y9720D01*
X14070Y14050D02*
X14150Y14130D01*
X14230Y14050D01*
X14150Y13970D01*
X14070Y14050D01*
X16370Y18550D02*
X16450Y18630D01*
X16530Y18550D01*
X16450Y18470D01*
X16370Y18550D01*
X13720Y22250D02*
X13800Y22330D01*
X13880Y22250D01*
X13800Y22170D01*
X13720Y22250D01*
X10520Y26000D02*
X10600Y26080D01*
X10680Y26000D01*
X10600Y25920D01*
X10520Y26000D01*
D98*
X6230Y5733D02*
G03*
X6230Y5733I-80J0D01*
G01*
X7230D02*
G03*
X7230Y5733I-80J0D01*
G01*
X8230D02*
G03*
X8230Y5733I-80J0D01*
G01*
X9230D02*
G03*
X9230Y5733I-80J0D01*
G01*
X20000D02*
G03*
X20000Y5733I-80J0D01*
G01*
X19000D02*
G03*
X19000Y5733I-80J0D01*
G01*
X18000D02*
G03*
X18000Y5733I-80J0D01*
G01*
X17000D02*
G03*
X17000Y5733I-80J0D01*
G01*
X14600D02*
G03*
X14600Y5733I-80J0D01*
G01*
X13600D02*
G03*
X13600Y5733I-80J0D01*
G01*
X12600D02*
G03*
X12600Y5733I-80J0D01*
G01*
X11600D02*
G03*
X11600Y5733I-80J0D01*
G01*
X25150D02*
G03*
X25150Y5733I-80J0D01*
G01*
X24150D02*
G03*
X24150Y5733I-80J0D01*
G01*
X23150D02*
G03*
X23150Y5733I-80J0D01*
G01*
X22150D02*
G03*
X22150Y5733I-80J0D01*
G01*
M02*
